%TF.GenerationSoftware,KiCad,Pcbnew,9.0.9*%
%TF.CreationDate,2026-05-23T10:44:56-07:00*%
%TF.ProjectId,AmidalaShield,416d6964-616c-4615-9368-69656c642e6b,rev?*%
%TF.SameCoordinates,Original*%
%TF.FileFunction,Copper,L4,Bot*%
%TF.FilePolarity,Positive*%
%FSLAX46Y46*%
G04 Gerber Fmt 4.6, Leading zero omitted, Abs format (unit mm)*
G04 Created by KiCad (PCBNEW 9.0.9) date 2026-05-23 10:44:56*
%MOMM*%
%LPD*%
G01*
G04 APERTURE LIST*
G04 Aperture macros list*
%AMRoundRect*
0 Rectangle with rounded corners*
0 $1 Rounding radius*
0 $2 $3 $4 $5 $6 $7 $8 $9 X,Y pos of 4 corners*
0 Add a 4 corners polygon primitive as box body*
4,1,4,$2,$3,$4,$5,$6,$7,$8,$9,$2,$3,0*
0 Add four circle primitives for the rounded corners*
1,1,$1+$1,$2,$3*
1,1,$1+$1,$4,$5*
1,1,$1+$1,$6,$7*
1,1,$1+$1,$8,$9*
0 Add four rect primitives between the rounded corners*
20,1,$1+$1,$2,$3,$4,$5,0*
20,1,$1+$1,$4,$5,$6,$7,0*
20,1,$1+$1,$6,$7,$8,$9,0*
20,1,$1+$1,$8,$9,$2,$3,0*%
G04 Aperture macros list end*
%TA.AperFunction,ComponentPad*%
%ADD10O,1.200000X2.000000*%
%TD*%
%TA.AperFunction,ComponentPad*%
%ADD11R,1.200000X2.000000*%
%TD*%
%TA.AperFunction,SMDPad,CuDef*%
%ADD12RoundRect,0.250000X-0.250000X-0.475000X0.250000X-0.475000X0.250000X0.475000X-0.250000X0.475000X0*%
%TD*%
%TA.AperFunction,SMDPad,CuDef*%
%ADD13RoundRect,0.250000X-0.475000X0.250000X-0.475000X-0.250000X0.475000X-0.250000X0.475000X0.250000X0*%
%TD*%
%TA.AperFunction,SMDPad,CuDef*%
%ADD14RoundRect,0.225000X-0.250000X0.225000X-0.250000X-0.225000X0.250000X-0.225000X0.250000X0.225000X0*%
%TD*%
%TA.AperFunction,SMDPad,CuDef*%
%ADD15RoundRect,0.225000X0.225000X0.250000X-0.225000X0.250000X-0.225000X-0.250000X0.225000X-0.250000X0*%
%TD*%
%TA.AperFunction,ComponentPad*%
%ADD16C,1.431000*%
%TD*%
%TA.AperFunction,ComponentPad*%
%ADD17C,3.600000*%
%TD*%
%TA.AperFunction,ConnectorPad*%
%ADD18C,6.400000*%
%TD*%
%TA.AperFunction,ComponentPad*%
%ADD19R,1.700000X1.700000*%
%TD*%
%TA.AperFunction,ComponentPad*%
%ADD20C,1.700000*%
%TD*%
%TA.AperFunction,ComponentPad*%
%ADD21RoundRect,0.250000X-1.050000X-1.050000X1.050000X-1.050000X1.050000X1.050000X-1.050000X1.050000X0*%
%TD*%
%TA.AperFunction,ComponentPad*%
%ADD22C,2.600000*%
%TD*%
%TA.AperFunction,ViaPad*%
%ADD23C,0.600000*%
%TD*%
%TA.AperFunction,Conductor*%
%ADD24C,0.200000*%
%TD*%
G04 APERTURE END LIST*
D10*
%TO.P,ESP32-S3,44,GND*%
%TO.N,GND*%
X69800000Y-62240000D03*
%TO.P,ESP32-S3,43,GPIO43/U0TXD*%
%TO.N,/Comms/GPIO43*%
X72340000Y-62240000D03*
%TO.P,ESP32-S3,42,GPIO44/U0RXD*%
%TO.N,/Comms/GPIO44*%
X74880000Y-62240000D03*
%TO.P,ESP32-S3,41,GPIO1/ADC1_CH0*%
%TO.N,/Pins/GPIO1*%
X77420000Y-62240000D03*
%TO.P,ESP32-S3,40,GPIO2/ADC1_CH1*%
%TO.N,/Pins/GPIO2*%
X79960000Y-62240000D03*
%TO.P,ESP32-S3,39,GPIO42/MTMS*%
%TO.N,/Pins/GPIO42*%
X82500000Y-62240000D03*
%TO.P,ESP32-S3,38,GPIO41/MTDI*%
%TO.N,/Pins/GPIO41*%
X85040000Y-62240000D03*
%TO.P,ESP32-S3,37,GPIO40/MTDO*%
%TO.N,/Pins/GPIO40*%
X87580000Y-62240000D03*
%TO.P,ESP32-S3,36,GPIO39/MTCK*%
%TO.N,/Pins/GPIO39*%
X90120000Y-62240000D03*
%TO.P,ESP32-S3,35,GPIO38*%
%TO.N,/Comms/GPIO38*%
X92660000Y-62240000D03*
%TO.P,ESP32-S3,34,GPIO37*%
%TO.N,unconnected-(ESP32-S3-GPIO37-Pad34)*%
X95200000Y-62240000D03*
%TO.P,ESP32-S3,33,GPIO36*%
%TO.N,unconnected-(ESP32-S3-GPIO36-Pad33)*%
X97740000Y-62240000D03*
%TO.P,ESP32-S3,32,GPIO35*%
%TO.N,unconnected-(ESP32-S3-GPIO35-Pad32)*%
X100280000Y-62240000D03*
%TO.P,ESP32-S3,31,GPIO0*%
%TO.N,unconnected-(ESP32-S3-GPIO0-Pad31)*%
X102820000Y-62240000D03*
%TO.P,ESP32-S3,30,GPIO45*%
%TO.N,unconnected-(ESP32-S3-GPIO45-Pad30)*%
X105360000Y-62240000D03*
%TO.P,ESP32-S3,29,GPIO48*%
%TO.N,unconnected-(ESP32-S3-GPIO48-Pad29)*%
X107900000Y-62240000D03*
%TO.P,ESP32-S3,28,GPIO47*%
%TO.N,/RC Control/GPIO47*%
X110440000Y-62240000D03*
%TO.P,ESP32-S3,27,GPIO21*%
%TO.N,/Comms/GPIO21*%
X112980000Y-62240000D03*
%TO.P,ESP32-S3,26,GPIO20/USB_D+*%
%TO.N,unconnected-(ESP32-S3-GPIO20{slash}USB_D+-Pad26)*%
X115520000Y-62240000D03*
%TO.P,ESP32-S3,25,GPIO19/USB_D-*%
%TO.N,unconnected-(ESP32-S3-GPIO19{slash}USB_D--Pad25)*%
X118060000Y-62240000D03*
%TO.P,ESP32-S3,24,GND*%
%TO.N,GND*%
X120600000Y-62240000D03*
%TO.P,ESP32-S3,23,GND*%
X123140000Y-62240000D03*
D11*
%TO.P,ESP32-S3,1,3V3*%
%TO.N,unconnected-(ESP32-S3-3V3-Pad1)*%
X69800000Y-85100000D03*
D10*
%TO.P,ESP32-S3,2,3V3*%
%TO.N,unconnected-(ESP32-S3-3V3-Pad1)_1*%
X72340000Y-85100000D03*
%TO.P,ESP32-S3,3,CHIP_PU*%
%TO.N,unconnected-(ESP32-S3-CHIP_PU-Pad3)*%
X74880000Y-85100000D03*
%TO.P,ESP32-S3,4,GPIO4/ADC1_CH3*%
%TO.N,/Servos/GPIO4*%
X77420000Y-85100000D03*
%TO.P,ESP32-S3,5,GPIO5/ADC1_CH4*%
%TO.N,/Servos/GPIO5*%
X79960000Y-85100000D03*
%TO.P,ESP32-S3,6,GPIO6/ADC1_CH5*%
%TO.N,/Servos/GPIO6*%
X82500000Y-85100000D03*
%TO.P,ESP32-S3,7,GPIO7/ADC1_CH6*%
%TO.N,/SPI/GPIO7*%
X85040000Y-85100000D03*
%TO.P,ESP32-S3,8,GPIO15/ADC2_CH4/32K_P*%
%TO.N,/SPI/GPIO15*%
X87580000Y-85100000D03*
%TO.P,ESP32-S3,9,GPIO16/ADC2_CH5/32K_N*%
%TO.N,/SPI/GPIO16*%
X90120000Y-85100000D03*
%TO.P,ESP32-S3,10,GPIO17/ADC2_CH6*%
%TO.N,/Comms/GPIO17*%
X92660000Y-85100000D03*
%TO.P,ESP32-S3,11,GPIO18/ADC2_CH7*%
%TO.N,/Comms/GPIO18*%
X95200000Y-85100000D03*
%TO.P,ESP32-S3,12,GPIO8/ADC1_CH7*%
%TO.N,/Comms/GPIO8*%
X97740000Y-85100000D03*
%TO.P,ESP32-S3,13,GPIO3/ADC1_CH2*%
%TO.N,/Servos/GPIO3*%
X100280000Y-85100000D03*
%TO.P,ESP32-S3,14,GPIO46*%
%TO.N,unconnected-(ESP32-S3-GPIO46-Pad14)*%
X102820000Y-85100000D03*
%TO.P,ESP32-S3,15,GPIO9/ADC1_CH8*%
%TO.N,/Comms/GPIO9*%
X105360000Y-85100000D03*
%TO.P,ESP32-S3,16,GPIO10/ADC1_CH9*%
%TO.N,/SPI/GPIO10*%
X107900000Y-85100000D03*
%TO.P,ESP32-S3,17,GPIO11/ADC2_CH0*%
%TO.N,/SPI/GPIO11*%
X110440000Y-85100000D03*
%TO.P,ESP32-S3,18,GPIO12/ADC2_CH1*%
%TO.N,/SPI/GPIO12*%
X112980000Y-85100000D03*
%TO.P,ESP32-S3,19,GPIO13/ADC2_CH2*%
%TO.N,/SPI/GPIO13*%
X115520000Y-85100000D03*
%TO.P,ESP32-S3,20,GPIO14/ADC2_CH3*%
%TO.N,/SPI/GPIO14*%
X118057280Y-85103680D03*
%TO.P,ESP32-S3,21,5V*%
%TO.N,+5V*%
X120597280Y-85103680D03*
%TO.P,ESP32-S3,22,GND*%
%TO.N,GND*%
X123137280Y-85103680D03*
%TO.P,ESP32-S3,23,GND*%
X123140000Y-59700000D03*
%TO.P,ESP32-S3,24,GND*%
X120600000Y-59700000D03*
%TO.P,ESP32-S3,25,GPIO19/USB_D-*%
%TO.N,unconnected-(ESP32-S3-GPIO19{slash}USB_D--Pad25)*%
X118060000Y-59700000D03*
%TO.P,ESP32-S3,26,GPIO20/USB_D+*%
%TO.N,unconnected-(ESP32-S3-GPIO20{slash}USB_D+-Pad26)*%
X115520000Y-59700000D03*
%TO.P,ESP32-S3,27,GPIO21*%
%TO.N,/Comms/GPIO21*%
X112980000Y-59700000D03*
%TO.P,ESP32-S3,28,GPIO47*%
%TO.N,/RC Control/GPIO47*%
X110440000Y-59700000D03*
%TO.P,ESP32-S3,29,GPIO48*%
%TO.N,unconnected-(ESP32-S3-GPIO48-Pad29)*%
X107900000Y-59700000D03*
%TO.P,ESP32-S3,30,GPIO45*%
%TO.N,unconnected-(ESP32-S3-GPIO45-Pad30)*%
X105360000Y-59700000D03*
%TO.P,ESP32-S3,31,GPIO0*%
%TO.N,unconnected-(ESP32-S3-GPIO0-Pad31)*%
X102820000Y-59700000D03*
%TO.P,ESP32-S3,32,GPIO35*%
%TO.N,unconnected-(ESP32-S3-GPIO35-Pad32)*%
X100280000Y-59700000D03*
%TO.P,ESP32-S3,33,GPIO36*%
%TO.N,unconnected-(ESP32-S3-GPIO36-Pad33)*%
X97740000Y-59700000D03*
%TO.P,ESP32-S3,34,GPIO37*%
%TO.N,unconnected-(ESP32-S3-GPIO37-Pad34)*%
X95200000Y-59700000D03*
%TO.P,ESP32-S3,35,GPIO38*%
%TO.N,/Comms/GPIO38*%
X92660000Y-59700000D03*
%TO.P,ESP32-S3,36,GPIO39/MTCK*%
%TO.N,/Pins/GPIO39*%
X90120000Y-59700000D03*
%TO.P,ESP32-S3,37,GPIO40/MTDO*%
%TO.N,/Pins/GPIO40*%
X87580000Y-59700000D03*
%TO.P,ESP32-S3,38,GPIO41/MTDI*%
%TO.N,/Pins/GPIO41*%
X85040000Y-59700000D03*
%TO.P,ESP32-S3,39,GPIO42/MTMS*%
%TO.N,/Pins/GPIO42*%
X82500000Y-59700000D03*
%TO.P,ESP32-S3,40,GPIO2/ADC1_CH1*%
%TO.N,/Pins/GPIO2*%
X79960000Y-59700000D03*
%TO.P,ESP32-S3,41,GPIO1/ADC1_CH0*%
%TO.N,/Pins/GPIO1*%
X77420000Y-59700000D03*
%TO.P,ESP32-S3,42,GPIO44/U0RXD*%
%TO.N,/Comms/GPIO44*%
X74880000Y-59700000D03*
%TO.P,ESP32-S3,43,GPIO43/U0TXD*%
%TO.N,/Comms/GPIO43*%
X72340000Y-59700000D03*
%TO.P,ESP32-S3,44,GND*%
%TO.N,GND*%
X69800000Y-59700000D03*
%TD*%
D12*
%TO.P,C4,2*%
%TO.N,GND*%
X149750000Y-54550000D03*
%TO.P,C4,1*%
%TO.N,+3.3V*%
X147850000Y-54550000D03*
%TD*%
D13*
%TO.P,C7,1*%
%TO.N,+3.3V*%
X157500000Y-70250000D03*
%TO.P,C7,2*%
%TO.N,GND*%
X157500000Y-72150000D03*
%TD*%
D14*
%TO.P,C6,1*%
%TO.N,+3.3V*%
X157550000Y-66000000D03*
%TO.P,C6,2*%
%TO.N,GND*%
X157550000Y-67550000D03*
%TD*%
%TO.P,C5,1*%
%TO.N,+3.3V*%
X159650000Y-66050000D03*
%TO.P,C5,2*%
%TO.N,GND*%
X159650000Y-67600000D03*
%TD*%
D15*
%TO.P,C3,2*%
%TO.N,GND*%
X144550000Y-54550000D03*
%TO.P,C3,1*%
%TO.N,+3.3V*%
X146100000Y-54550000D03*
%TD*%
D16*
%TO.P,XBee3,20,AD0_/DIO0*%
%TO.N,unconnected-(XBee3-AD0_{slash}DIO0-Pad20)*%
X156660000Y-86050000D03*
%TO.P,XBee3,19,AD1/DIO1/SPI_~{ATTN}*%
%TO.N,/SPI/GPIO16*%
X154660000Y-86050000D03*
%TO.P,XBee3,18,AD2/DIO2/SPI_CLK*%
%TO.N,/SPI/GPIO12*%
X152660000Y-86050000D03*
%TO.P,XBee3,17,AD3/DIO3/SPI_~{SSEL}*%
%TO.N,/SPI/GPIO7*%
X150660000Y-86050000D03*
%TO.P,XBee3,16,~{RTS}/DIO6*%
%TO.N,unconnected-(XBee3-~{RTS}{slash}DIO6-Pad16)*%
X148660000Y-86050000D03*
%TO.P,XBee3,15,ASSOCIATE/DIO5*%
%TO.N,unconnected-(XBee3-ASSOCIATE{slash}DIO5-Pad15)*%
X146660000Y-86050000D03*
%TO.P,XBee3,14,[RESERVED]_2*%
%TO.N,unconnected-(XBee3-[RESERVED]_2-Pad14)*%
X144660000Y-86050000D03*
%TO.P,XBee3,13,ON/~{SLEEP}/DIO9*%
%TO.N,/SPI/GPIO15*%
X142660000Y-86050000D03*
%TO.P,XBee3,12,~{CTS}/DIO7*%
%TO.N,unconnected-(XBee3-~{CTS}{slash}DIO7-Pad12)*%
X140660000Y-86050000D03*
%TO.P,XBee3,11,DIO4/SPI_MOSI*%
%TO.N,/SPI/GPIO11*%
X138660000Y-86050000D03*
%TO.P,XBee3,10,GND*%
%TO.N,GND*%
X138660000Y-64050000D03*
%TO.P,XBee3,9,~{DTR}/SLEEP_RQ/DIO8*%
X140660000Y-64050000D03*
%TO.P,XBee3,8,[RESERVED]_1*%
%TO.N,unconnected-(XBee3-[RESERVED]_1-Pad8)*%
X142660000Y-64050000D03*
%TO.P,XBee3,7,PWM1/DIO11*%
%TO.N,unconnected-(XBee3-PWM1{slash}DIO11-Pad7)*%
X144660000Y-64050000D03*
%TO.P,XBee3,6,RSSI_PWM/DIO10*%
%TO.N,unconnected-(XBee3-RSSI_PWM{slash}DIO10-Pad6)*%
X146660000Y-64050000D03*
%TO.P,XBee3,5,~{RESET}*%
%TO.N,Net-(XBee3-~{RESET})*%
X148660000Y-64050000D03*
%TO.P,XBee3,4,DIO12/SPI_MISO*%
%TO.N,/SPI/GPIO13*%
X150660000Y-64050000D03*
%TO.P,XBee3,3,DIN/~{CONFIG}/DIO14*%
%TO.N,unconnected-(XBee3-DIN{slash}~{CONFIG}{slash}DIO14-Pad3)*%
X152660000Y-64050000D03*
%TO.P,XBee3,2,DOUT/DIO13*%
%TO.N,unconnected-(XBee3-DOUT{slash}DIO13-Pad2)*%
X154660000Y-64050000D03*
%TO.P,XBee3,1,VCC*%
%TO.N,+3.3V*%
X156660000Y-64050000D03*
%TD*%
D14*
%TO.P,C2,1*%
%TO.N,+3.3V*%
X155550000Y-65975000D03*
%TO.P,C2,2*%
%TO.N,GND*%
X155550000Y-67525000D03*
%TD*%
D17*
%TO.P,REF\u002A\u002A,1*%
%TO.N,N/C*%
X160950000Y-43350000D03*
D18*
X160950000Y-43350000D03*
%TD*%
D19*
%TO.P,Serial0,1,Pin_1*%
%TO.N,GND*%
X78870000Y-46350000D03*
D20*
%TO.P,Serial0,2,Pin_2*%
%TO.N,+3.3V*%
X78870000Y-48890000D03*
%TO.P,Serial0,3,Pin_3*%
%TO.N,/Comms/GPIO43*%
X78870000Y-51430000D03*
%TO.P,Serial0,4,Pin_4*%
%TO.N,/Comms/GPIO44*%
X78870000Y-53970000D03*
%TD*%
D15*
%TO.P,C1,1*%
%TO.N,Net-(XBee3-~{RESET})*%
X145350000Y-67600000D03*
%TO.P,C1,2*%
%TO.N,GND*%
X143800000Y-67600000D03*
%TD*%
D19*
%TO.P,J_Servo4,1,Pin_1*%
%TO.N,GND*%
X125710000Y-97240000D03*
D20*
%TO.P,J_Servo4,2,Pin_2*%
%TO.N,+5V*%
X125710000Y-94700000D03*
%TO.P,J_Servo4,3,Pin_3*%
%TO.N,/Servos/GPIO6*%
X125710000Y-92160000D03*
%TD*%
D17*
%TO.P,REF\u002A\u002A,1*%
%TO.N,N/C*%
X65900000Y-43350000D03*
D18*
X65900000Y-43350000D03*
%TD*%
D19*
%TO.P,J_Servo2,1,Pin_1*%
%TO.N,GND*%
X117740000Y-97250000D03*
D20*
%TO.P,J_Servo2,2,Pin_2*%
%TO.N,+5V*%
X117740000Y-94710000D03*
%TO.P,J_Servo2,3,Pin_3*%
%TO.N,/Servos/GPIO4*%
X117740000Y-92170000D03*
%TD*%
D19*
%TO.P,J_Servo3,1,Pin_1*%
%TO.N,GND*%
X121770000Y-97230000D03*
D20*
%TO.P,J_Servo3,2,Pin_2*%
%TO.N,+5V*%
X121770000Y-94690000D03*
%TO.P,J_Servo3,3,Pin_3*%
%TO.N,/Servos/GPIO5*%
X121770000Y-92150000D03*
%TD*%
D21*
%TO.P,J1,1,Pin_1*%
%TO.N,+5V*%
X144305000Y-97022500D03*
D22*
%TO.P,J1,2,Pin_2*%
%TO.N,GND*%
X149385000Y-97022500D03*
%TD*%
D17*
%TO.P,REF\u002A\u002A,1*%
%TO.N,N/C*%
X65900000Y-103400000D03*
D18*
X65900000Y-103400000D03*
%TD*%
D19*
%TO.P,SWSerial1,1,Pin_1*%
%TO.N,GND*%
X86730000Y-46340000D03*
D20*
%TO.P,SWSerial1,2,Pin_2*%
%TO.N,+3.3V*%
X86730000Y-48880000D03*
%TO.P,SWSerial1,3,Pin_3*%
%TO.N,/Comms/GPIO21*%
X86730000Y-51420000D03*
%TO.P,SWSerial1,4,Pin_4*%
%TO.N,/Comms/GPIO38*%
X86730000Y-53960000D03*
%TD*%
D19*
%TO.P,J_Servo1,1,Pin_1*%
%TO.N,GND*%
X113800000Y-97230000D03*
D20*
%TO.P,J_Servo1,2,Pin_2*%
%TO.N,+5V*%
X113800000Y-94690000D03*
%TO.P,J_Servo1,3,Pin_3*%
%TO.N,/Servos/GPIO3*%
X113800000Y-92150000D03*
%TD*%
D19*
%TO.P,SPI1,1,Pin_1*%
%TO.N,GND*%
X124290000Y-42200000D03*
D20*
%TO.P,SPI1,2,Pin_2*%
%TO.N,+3.3V*%
X124290000Y-44740000D03*
%TO.P,SPI1,3,Pin_3*%
%TO.N,/SPI/GPIO11*%
X124290000Y-47280000D03*
%TO.P,SPI1,4,Pin_4*%
%TO.N,/SPI/GPIO12*%
X124290000Y-49820000D03*
%TO.P,SPI1,5,Pin_5*%
%TO.N,/SPI/GPIO13*%
X124290000Y-52360000D03*
%TO.P,SPI1,6,Pin_6*%
%TO.N,/SPI/GPIO14*%
X124290000Y-54900000D03*
%TD*%
D19*
%TO.P,J_Analog1,1,Pin_1*%
%TO.N,GND*%
X75250000Y-97270000D03*
D20*
%TO.P,J_Analog1,2,Pin_2*%
%TO.N,+3.3V*%
X75250000Y-94730000D03*
%TO.P,J_Analog1,3,Pin_3*%
%TO.N,/Pins/GPIO1*%
X75250000Y-92190000D03*
%TD*%
D19*
%TO.P,J_PPMIN1,1,Pin_1*%
%TO.N,GND*%
X105050000Y-47300000D03*
D20*
%TO.P,J_PPMIN1,2,Pin_2*%
%TO.N,+3.3V*%
X105050000Y-49840000D03*
%TO.P,J_PPMIN1,3,Pin_3*%
%TO.N,/RC Control/GPIO47*%
X105050000Y-52380000D03*
%TD*%
D19*
%TO.P,J_Digital1,1,Pin_1*%
%TO.N,GND*%
X89800000Y-97290000D03*
D20*
%TO.P,J_Digital1,2,Pin_2*%
%TO.N,+3.3V*%
X89800000Y-94750000D03*
%TO.P,J_Digital1,3,Pin_3*%
%TO.N,/Pins/GPIO39*%
X89800000Y-92210000D03*
%TD*%
D19*
%TO.P,I2C1,1,Pin_1*%
%TO.N,GND*%
X93610000Y-46300000D03*
D20*
%TO.P,I2C1,2,Pin_2*%
%TO.N,+3.3V*%
X93610000Y-48840000D03*
%TO.P,I2C1,3,Pin_3*%
%TO.N,/Comms/GPIO8*%
X93610000Y-51380000D03*
%TO.P,I2C1,4,Pin_4*%
%TO.N,/Comms/GPIO9*%
X93610000Y-53920000D03*
%TD*%
D19*
%TO.P,J_Digital4,1,Pin_1*%
%TO.N,GND*%
X101650000Y-97290000D03*
D20*
%TO.P,J_Digital4,2,Pin_2*%
%TO.N,+3.3V*%
X101650000Y-94750000D03*
%TO.P,J_Digital4,3,Pin_3*%
%TO.N,/Pins/GPIO42*%
X101650000Y-92210000D03*
%TD*%
D19*
%TO.P,J_Analog2,1,Pin_1*%
%TO.N,GND*%
X79150000Y-97270000D03*
D20*
%TO.P,J_Analog2,2,Pin_2*%
%TO.N,+3.3V*%
X79150000Y-94730000D03*
%TO.P,J_Analog2,3,Pin_3*%
%TO.N,/Pins/GPIO2*%
X79150000Y-92190000D03*
%TD*%
D19*
%TO.P,Serial1,1,Pin_1*%
%TO.N,GND*%
X82800000Y-46340000D03*
D20*
%TO.P,Serial1,2,Pin_2*%
%TO.N,+3.3V*%
X82800000Y-48880000D03*
%TO.P,Serial1,3,Pin_3*%
%TO.N,/Comms/GPIO17*%
X82800000Y-51420000D03*
%TO.P,Serial1,4,Pin_4*%
%TO.N,/Comms/GPIO18*%
X82800000Y-53960000D03*
%TD*%
D19*
%TO.P,J_Digital3,1,Pin_1*%
%TO.N,GND*%
X97700000Y-97290000D03*
D20*
%TO.P,J_Digital3,2,Pin_2*%
%TO.N,+3.3V*%
X97700000Y-94750000D03*
%TO.P,J_Digital3,3,Pin_3*%
%TO.N,/Pins/GPIO41*%
X97700000Y-92210000D03*
%TD*%
D19*
%TO.P,J_Digital2,1,Pin_1*%
%TO.N,GND*%
X93750000Y-97290000D03*
D20*
%TO.P,J_Digital2,2,Pin_2*%
%TO.N,+3.3V*%
X93750000Y-94750000D03*
%TO.P,J_Digital2,3,Pin_3*%
%TO.N,/Pins/GPIO40*%
X93750000Y-92210000D03*
%TD*%
D17*
%TO.P,REF\u002A\u002A,1*%
%TO.N,N/C*%
X160950000Y-103400000D03*
D18*
X160950000Y-103400000D03*
%TD*%
D23*
%TO.N,GND*%
X143050000Y-54300000D03*
%TO.N,/SPI/GPIO12*%
X121550000Y-67600000D03*
%TO.N,/SPI/GPIO13*%
X136850000Y-51750000D03*
X150150000Y-52800000D03*
%TO.N,/SPI/GPIO12*%
X143450000Y-57150000D03*
%TO.N,/SPI/GPIO10*%
X119800000Y-74400000D03*
X128550000Y-65850000D03*
%TO.N,/SPI/GPIO11*%
X141223866Y-60050000D03*
%TO.N,/SPI/GPIO12*%
X147250000Y-57250000D03*
%TO.N,/SPI/GPIO13*%
X147780000Y-66930000D03*
%TO.N,+3.3V*%
X145900000Y-53300000D03*
%TO.N,/Servos/GPIO5*%
X109300000Y-91050000D03*
%TO.N,/Servos/GPIO6*%
X107850000Y-90250000D03*
%TO.N,/SPI/GPIO7*%
X94600000Y-88250000D03*
X107000000Y-89450000D03*
%TO.N,/SPI/GPIO11*%
X108800000Y-82950000D03*
%TO.N,/Pins/GPIO41*%
X95700000Y-89250000D03*
%TO.N,/Pins/GPIO42*%
X97250000Y-89250000D03*
%TO.N,/SPI/GPIO14*%
X118350000Y-72750000D03*
%TO.N,/Pins/GPIO39*%
X85200000Y-73450000D03*
X83455735Y-76744264D03*
%TO.N,/SPI/GPIO16*%
X106350000Y-82050000D03*
X118500000Y-81800000D03*
%TO.N,/SPI/GPIO15*%
X106000000Y-88700000D03*
X93400000Y-87200000D03*
%TO.N,/SPI/GPIO12*%
X121700000Y-71250000D03*
%TO.N,/Pins/GPIO40*%
X94200000Y-89150000D03*
%TD*%
D24*
%TO.N,/Pins/GPIO42*%
X97250000Y-89250000D02*
X96350000Y-90150000D01*
X96350000Y-90150000D02*
X90217208Y-90150000D01*
X90217208Y-90150000D02*
X85940000Y-85872792D01*
X85940000Y-85872792D02*
X85940000Y-71271372D01*
X85940000Y-71271372D02*
X83800000Y-69131372D01*
X83800000Y-69131372D02*
X83800000Y-61000000D01*
X83800000Y-61000000D02*
X82500000Y-59700000D01*
%TO.N,/Pins/GPIO41*%
X95700000Y-89250000D02*
X95200000Y-89750000D01*
X95200000Y-89750000D02*
X93097208Y-89750000D01*
X93097208Y-89750000D02*
X88480000Y-85132792D01*
X88480000Y-85132792D02*
X88480000Y-73245686D01*
X88480000Y-73245686D02*
X86250000Y-71015686D01*
X86250000Y-71015686D02*
X86250000Y-60910000D01*
X86250000Y-60910000D02*
X85040000Y-59700000D01*
%TO.N,/Pins/GPIO40*%
X94200000Y-89150000D02*
X91360000Y-86310000D01*
X91360000Y-86310000D02*
X91360000Y-75560000D01*
X91360000Y-75560000D02*
X87050000Y-71250000D01*
X87050000Y-71250000D02*
X88750000Y-69550000D01*
X88750000Y-69550000D02*
X88750000Y-60870000D01*
X88750000Y-60870000D02*
X87580000Y-59700000D01*
%TO.N,/Comms/GPIO8*%
X93610000Y-51380000D02*
X91450000Y-53540000D01*
X91450000Y-53540000D02*
X91450000Y-75084314D01*
X91450000Y-75084314D02*
X91760000Y-75394315D01*
X91760000Y-75394315D02*
X91760000Y-79120000D01*
X91760000Y-79120000D02*
X97740000Y-85100000D01*
%TO.N,/Comms/GPIO9*%
X93610000Y-53920000D02*
X93900000Y-54210000D01*
X93900000Y-54210000D02*
X93900000Y-63550000D01*
X93900000Y-63550000D02*
X95400000Y-65050000D01*
X95400000Y-65050000D02*
X98700000Y-65050000D01*
X98700000Y-65050000D02*
X105360000Y-71710000D01*
X105360000Y-71710000D02*
X105360000Y-85100000D01*
%TO.N,GND*%
X155550000Y-67525000D02*
X154700000Y-68375000D01*
X154700000Y-68375000D02*
X144575000Y-68375000D01*
X144575000Y-68375000D02*
X143800000Y-67600000D01*
X157500000Y-72150000D02*
X155550000Y-70200000D01*
X155550000Y-70200000D02*
X155550000Y-67525000D01*
X155550000Y-67525000D02*
X157525000Y-67525000D01*
X157525000Y-67525000D02*
X157550000Y-67550000D01*
X159650000Y-67600000D02*
X157600000Y-67600000D01*
X157600000Y-67600000D02*
X157550000Y-67550000D01*
%TO.N,+3.3V*%
X159650000Y-66050000D02*
X160600000Y-67000000D01*
X160600000Y-67000000D02*
X160600000Y-69800000D01*
X160600000Y-69800000D02*
X160150000Y-70250000D01*
X160150000Y-70250000D02*
X157500000Y-70250000D01*
X156660000Y-64050000D02*
X158660000Y-66050000D01*
X158660000Y-66050000D02*
X159650000Y-66050000D01*
X156660000Y-64050000D02*
X156660000Y-65110000D01*
X156660000Y-65110000D02*
X157550000Y-66000000D01*
X156660000Y-64050000D02*
X155550000Y-65160000D01*
X155550000Y-65160000D02*
X155550000Y-65975000D01*
%TO.N,/SPI/GPIO12*%
X147250000Y-57250000D02*
X149050000Y-57250000D01*
X149050000Y-57250000D02*
X149250000Y-57450000D01*
X149250000Y-57450000D02*
X157600000Y-57450000D01*
X157600000Y-57450000D02*
X161150000Y-61000000D01*
X161150000Y-61000000D02*
X161150000Y-77560000D01*
X161150000Y-77560000D02*
X152660000Y-86050000D01*
%TO.N,GND*%
X149750000Y-54550000D02*
X148725000Y-55575000D01*
X148725000Y-55575000D02*
X145575000Y-55575000D01*
X145575000Y-55575000D02*
X144550000Y-54550000D01*
%TO.N,+3.3V*%
X145900000Y-53300000D02*
X146600000Y-53300000D01*
X146600000Y-53300000D02*
X147850000Y-54550000D01*
%TO.N,/SPI/GPIO12*%
X147200000Y-57250000D02*
X147100000Y-57150000D01*
X147250000Y-57250000D02*
X147200000Y-57250000D01*
X147100000Y-57150000D02*
X143450000Y-57150000D01*
%TO.N,GND*%
X143300000Y-54550000D02*
X143050000Y-54300000D01*
X144550000Y-54550000D02*
X143300000Y-54550000D01*
%TO.N,+3.3V*%
X145900000Y-53300000D02*
X145900000Y-54350000D01*
X145900000Y-54350000D02*
X146100000Y-54550000D01*
X156660000Y-66010000D02*
X156700000Y-66050000D01*
%TO.N,/SPI/GPIO13*%
X147780000Y-66930000D02*
X150660000Y-64050000D01*
%TO.N,GND*%
X143800000Y-67600000D02*
X143800000Y-67190000D01*
X143800000Y-67190000D02*
X140660000Y-64050000D01*
%TO.N,Net-(XBee3-~{RESET})*%
X145350000Y-67600000D02*
X145350000Y-67360000D01*
X145350000Y-67360000D02*
X148660000Y-64050000D01*
%TO.N,/SPI/GPIO12*%
X121550000Y-67600000D02*
X121550000Y-71100000D01*
X121550000Y-71100000D02*
X121700000Y-71250000D01*
%TO.N,/SPI/GPIO13*%
X149100000Y-51750000D02*
X136850000Y-51750000D01*
X150150000Y-52800000D02*
X149100000Y-51750000D01*
%TO.N,/SPI/GPIO11*%
X141223866Y-60050000D02*
X137060000Y-60050000D01*
X137060000Y-60050000D02*
X124290000Y-47280000D01*
%TO.N,/SPI/GPIO10*%
X128550000Y-65850000D02*
X120000000Y-74400000D01*
X120000000Y-74400000D02*
X119800000Y-74400000D01*
%TO.N,+3.3V*%
X145900000Y-53300000D02*
X144900000Y-53300000D01*
X144900000Y-53300000D02*
X144450000Y-52850000D01*
X144450000Y-52850000D02*
X132400000Y-52850000D01*
X132400000Y-52850000D02*
X124290000Y-44740000D01*
%TO.N,/Servos/GPIO5*%
X88220000Y-93360000D02*
X79960000Y-85100000D01*
X109300000Y-91050000D02*
X106990000Y-93360000D01*
X106990000Y-93360000D02*
X88220000Y-93360000D01*
%TO.N,/Servos/GPIO6*%
X87950000Y-90550000D02*
X82500000Y-85100000D01*
X107550000Y-90550000D02*
X87950000Y-90550000D01*
X107850000Y-90250000D02*
X107550000Y-90550000D01*
%TO.N,/SPI/GPIO7*%
X107000000Y-89450000D02*
X100898529Y-89450000D01*
X99698529Y-88250000D02*
X94600000Y-88250000D01*
X100898529Y-89450000D02*
X99698529Y-88250000D01*
%TO.N,/SPI/GPIO11*%
X108800000Y-82950000D02*
X110440000Y-84590000D01*
X110440000Y-84590000D02*
X110440000Y-85100000D01*
%TO.N,/SPI/GPIO14*%
X119100000Y-73500000D02*
X119100000Y-84060960D01*
X119100000Y-84060960D02*
X118057280Y-85103680D01*
X118350000Y-72750000D02*
X119100000Y-73500000D01*
%TO.N,/Pins/GPIO39*%
X83455735Y-75194265D02*
X85200000Y-73450000D01*
X83455735Y-76744264D02*
X83455735Y-75194265D01*
%TO.N,/SPI/GPIO16*%
X106600000Y-81800000D02*
X106350000Y-82050000D01*
X118500000Y-81800000D02*
X106600000Y-81800000D01*
%TO.N,/SPI/GPIO15*%
X104500000Y-87200000D02*
X93400000Y-87200000D01*
X106000000Y-88700000D02*
X104500000Y-87200000D01*
%TD*%
%TA.AperFunction,Conductor*%
%TO.N,+3.3V*%
G36*
X122926981Y-43183587D02*
G01*
X122974199Y-43235087D01*
X122979076Y-43246409D01*
X122996202Y-43292328D01*
X122996206Y-43292335D01*
X123082452Y-43407544D01*
X123082455Y-43407547D01*
X123197664Y-43493793D01*
X123197671Y-43493797D01*
X123242618Y-43510561D01*
X123332517Y-43544091D01*
X123392127Y-43550500D01*
X123402685Y-43550499D01*
X123469723Y-43570179D01*
X123490372Y-43586818D01*
X124160591Y-44257037D01*
X124097007Y-44274075D01*
X123982993Y-44339901D01*
X123889901Y-44432993D01*
X123824075Y-44547007D01*
X123807037Y-44610591D01*
X123174728Y-43978282D01*
X123174727Y-43978282D01*
X123135380Y-44032439D01*
X123038904Y-44221782D01*
X122973242Y-44423869D01*
X122973242Y-44423872D01*
X122940000Y-44633753D01*
X122940000Y-44846246D01*
X122973242Y-45056127D01*
X122973242Y-45056130D01*
X123038904Y-45258217D01*
X123135375Y-45447550D01*
X123174728Y-45501716D01*
X123807037Y-44869408D01*
X123824075Y-44932993D01*
X123889901Y-45047007D01*
X123982993Y-45140099D01*
X124097007Y-45205925D01*
X124160590Y-45222962D01*
X123528282Y-45855269D01*
X123528282Y-45855270D01*
X123582452Y-45894626D01*
X123582451Y-45894626D01*
X123591495Y-45899234D01*
X123642292Y-45947208D01*
X123659087Y-46015029D01*
X123636550Y-46081164D01*
X123591499Y-46120202D01*
X123582182Y-46124949D01*
X123410213Y-46249890D01*
X123259890Y-46400213D01*
X123134951Y-46572179D01*
X123038444Y-46761585D01*
X122972753Y-46963760D01*
X122939500Y-47173713D01*
X122939500Y-47386286D01*
X122972753Y-47596239D01*
X122972753Y-47596241D01*
X122972754Y-47596243D01*
X123027431Y-47764522D01*
X123038444Y-47798414D01*
X123134951Y-47987820D01*
X123259890Y-48159786D01*
X123410213Y-48310109D01*
X123582182Y-48435050D01*
X123590946Y-48439516D01*
X123641742Y-48487491D01*
X123658536Y-48555312D01*
X123635998Y-48621447D01*
X123590946Y-48660484D01*
X123582182Y-48664949D01*
X123410213Y-48789890D01*
X123259890Y-48940213D01*
X123134951Y-49112179D01*
X123038444Y-49301585D01*
X122972753Y-49503760D01*
X122939762Y-49712058D01*
X122939500Y-49713713D01*
X122939500Y-49926287D01*
X122949534Y-49989644D01*
X122971518Y-50128443D01*
X122972754Y-50136243D01*
X123027887Y-50305925D01*
X123038444Y-50338414D01*
X123134951Y-50527820D01*
X123259890Y-50699786D01*
X123410213Y-50850109D01*
X123582182Y-50975050D01*
X123590946Y-50979516D01*
X123641742Y-51027491D01*
X123658536Y-51095312D01*
X123635998Y-51161447D01*
X123590946Y-51200484D01*
X123582182Y-51204949D01*
X123410213Y-51329890D01*
X123259890Y-51480213D01*
X123134951Y-51652179D01*
X123038444Y-51841585D01*
X122972753Y-52043760D01*
X122939500Y-52253713D01*
X122939500Y-52466286D01*
X122972011Y-52671557D01*
X122972754Y-52676243D01*
X123028800Y-52848735D01*
X123038444Y-52878414D01*
X123134951Y-53067820D01*
X123259890Y-53239786D01*
X123410213Y-53390109D01*
X123582182Y-53515050D01*
X123590946Y-53519516D01*
X123641742Y-53567491D01*
X123658536Y-53635312D01*
X123635998Y-53701447D01*
X123590946Y-53740484D01*
X123582182Y-53744949D01*
X123410213Y-53869890D01*
X123259890Y-54020213D01*
X123134951Y-54192179D01*
X123038444Y-54381585D01*
X122972753Y-54583760D01*
X122939500Y-54793713D01*
X122939500Y-55006286D01*
X122972011Y-55211557D01*
X122972754Y-55216243D01*
X123023677Y-55372968D01*
X123038444Y-55418414D01*
X123134951Y-55607820D01*
X123259890Y-55779786D01*
X123410213Y-55930109D01*
X123582179Y-56055048D01*
X123582181Y-56055049D01*
X123582184Y-56055051D01*
X123771588Y-56151557D01*
X123973757Y-56217246D01*
X124183713Y-56250500D01*
X124183714Y-56250500D01*
X124396286Y-56250500D01*
X124396287Y-56250500D01*
X124606243Y-56217246D01*
X124808412Y-56151557D01*
X124997816Y-56055051D01*
X125151061Y-55943713D01*
X125169786Y-55930109D01*
X125169788Y-55930106D01*
X125169792Y-55930104D01*
X125320104Y-55779792D01*
X125320106Y-55779788D01*
X125320109Y-55779786D01*
X125445048Y-55607820D01*
X125445047Y-55607820D01*
X125445051Y-55607816D01*
X125541557Y-55418412D01*
X125607246Y-55216243D01*
X125640500Y-55006287D01*
X125640500Y-54793713D01*
X125607246Y-54583757D01*
X125541557Y-54381588D01*
X125445051Y-54192184D01*
X125445049Y-54192181D01*
X125445048Y-54192179D01*
X125320109Y-54020213D01*
X125169786Y-53869890D01*
X124997820Y-53744951D01*
X124997115Y-53744591D01*
X124989054Y-53740485D01*
X124938259Y-53692512D01*
X124921463Y-53624692D01*
X124943999Y-53558556D01*
X124989054Y-53519515D01*
X124997816Y-53515051D01*
X125098934Y-53441585D01*
X125169786Y-53390109D01*
X125169788Y-53390106D01*
X125169792Y-53390104D01*
X125320104Y-53239792D01*
X125320106Y-53239788D01*
X125320109Y-53239786D01*
X125445048Y-53067820D01*
X125445047Y-53067820D01*
X125445051Y-53067816D01*
X125541557Y-52878412D01*
X125607246Y-52676243D01*
X125640500Y-52466287D01*
X125640500Y-52253713D01*
X125607246Y-52043757D01*
X125541557Y-51841588D01*
X125445051Y-51652184D01*
X125445049Y-51652181D01*
X125445048Y-51652179D01*
X125320109Y-51480213D01*
X125169786Y-51329890D01*
X124997820Y-51204951D01*
X124997115Y-51204591D01*
X124989054Y-51200485D01*
X124938259Y-51152512D01*
X124921463Y-51084692D01*
X124943999Y-51018556D01*
X124989054Y-50979515D01*
X124997816Y-50975051D01*
X125153990Y-50861585D01*
X125169786Y-50850109D01*
X125169788Y-50850106D01*
X125169792Y-50850104D01*
X125320104Y-50699792D01*
X125320106Y-50699788D01*
X125320109Y-50699786D01*
X125445048Y-50527820D01*
X125445047Y-50527820D01*
X125445051Y-50527816D01*
X125541557Y-50338412D01*
X125607246Y-50136243D01*
X125640500Y-49926287D01*
X125640500Y-49779097D01*
X125660185Y-49712058D01*
X125712989Y-49666303D01*
X125782147Y-49656359D01*
X125845703Y-49685384D01*
X125852181Y-49691416D01*
X136575139Y-60414374D01*
X136575149Y-60414385D01*
X136579479Y-60418715D01*
X136579480Y-60418716D01*
X136691284Y-60530520D01*
X136742845Y-60560288D01*
X136778095Y-60580639D01*
X136778097Y-60580641D01*
X136828213Y-60609576D01*
X136828215Y-60609577D01*
X136980942Y-60650500D01*
X136980943Y-60650500D01*
X140644100Y-60650500D01*
X140711139Y-60670185D01*
X140712991Y-60671398D01*
X140844680Y-60759390D01*
X140844693Y-60759397D01*
X140983587Y-60816928D01*
X140990369Y-60819737D01*
X141117525Y-60845030D01*
X141145019Y-60850499D01*
X141145022Y-60850500D01*
X141145024Y-60850500D01*
X141302710Y-60850500D01*
X141302711Y-60850499D01*
X141457363Y-60819737D01*
X141603045Y-60759394D01*
X141734155Y-60671789D01*
X141845655Y-60560289D01*
X141933260Y-60429179D01*
X141973864Y-60331149D01*
X142017703Y-60276749D01*
X142083996Y-60254683D01*
X142092466Y-60254671D01*
X160098430Y-60845030D01*
X160125717Y-60854023D01*
X160153793Y-60860131D01*
X160161299Y-60865750D01*
X160164788Y-60866900D01*
X160182047Y-60881282D01*
X160204971Y-60904206D01*
X160238456Y-60965529D01*
X160241069Y-60999291D01*
X160002768Y-64983404D01*
X159979116Y-65049148D01*
X159923674Y-65091669D01*
X159904814Y-65095185D01*
X159900000Y-65100000D01*
X159900000Y-65926000D01*
X159880315Y-65993039D01*
X159827511Y-66038794D01*
X159776000Y-66050000D01*
X159650000Y-66050000D01*
X159650000Y-66176000D01*
X159630315Y-66243039D01*
X159577511Y-66288794D01*
X159526000Y-66300000D01*
X158626362Y-66300000D01*
X158559323Y-66280315D01*
X158538681Y-66263681D01*
X158525000Y-66250000D01*
X156521362Y-66250000D01*
X156454323Y-66230315D01*
X156447727Y-66225000D01*
X154575001Y-66225000D01*
X154575001Y-66248322D01*
X154585144Y-66347607D01*
X154638452Y-66508481D01*
X154638457Y-66508492D01*
X154727424Y-66652728D01*
X154727427Y-66652732D01*
X154736660Y-66661965D01*
X154770145Y-66723288D01*
X154765161Y-66792980D01*
X154736663Y-66837324D01*
X154727033Y-66846953D01*
X154727029Y-66846959D01*
X154638001Y-66991294D01*
X154637996Y-66991305D01*
X154584651Y-67152290D01*
X154574500Y-67251647D01*
X154574500Y-67599900D01*
X154565856Y-67629336D01*
X154559333Y-67659326D01*
X154555577Y-67664342D01*
X154554815Y-67666939D01*
X154538182Y-67687580D01*
X154487583Y-67738180D01*
X154426260Y-67771666D01*
X154399901Y-67774500D01*
X148365472Y-67774500D01*
X148298433Y-67754815D01*
X148252678Y-67702011D01*
X148242734Y-67632853D01*
X148271759Y-67569297D01*
X148286808Y-67554646D01*
X148290285Y-67551791D01*
X148290289Y-67551789D01*
X148401789Y-67440289D01*
X148489394Y-67309179D01*
X148549737Y-67163497D01*
X148569113Y-67066085D01*
X148580638Y-67008150D01*
X148613023Y-66946239D01*
X148614519Y-66944715D01*
X150285622Y-65273611D01*
X150346943Y-65240128D01*
X150392698Y-65238821D01*
X150564299Y-65266000D01*
X150564300Y-65266000D01*
X150755700Y-65266000D01*
X150755701Y-65266000D01*
X150944747Y-65236058D01*
X151126782Y-65176911D01*
X151297323Y-65090016D01*
X151452171Y-64977513D01*
X151572319Y-64857365D01*
X151633642Y-64823880D01*
X151703334Y-64828864D01*
X151747681Y-64857365D01*
X151867830Y-64977514D01*
X151867835Y-64977518D01*
X151966911Y-65049500D01*
X152022677Y-65090016D01*
X152193218Y-65176911D01*
X152375253Y-65236058D01*
X152564299Y-65266000D01*
X152564300Y-65266000D01*
X152755700Y-65266000D01*
X152755701Y-65266000D01*
X152944747Y-65236058D01*
X153126782Y-65176911D01*
X153297323Y-65090016D01*
X153452171Y-64977513D01*
X153572319Y-64857365D01*
X153633642Y-64823880D01*
X153703334Y-64828864D01*
X153747681Y-64857365D01*
X153867830Y-64977514D01*
X153867835Y-64977518D01*
X153966911Y-65049500D01*
X154022677Y-65090016D01*
X154193218Y-65176911D01*
X154375253Y-65236058D01*
X154375256Y-65236058D01*
X154375257Y-65236059D01*
X154449231Y-65247775D01*
X154547041Y-65263266D01*
X154610175Y-65293195D01*
X154647107Y-65352506D01*
X154646109Y-65422369D01*
X154640029Y-65438136D01*
X154638454Y-65441513D01*
X154585144Y-65602393D01*
X154575000Y-65701677D01*
X154575000Y-65725000D01*
X156578638Y-65725000D01*
X156645677Y-65744685D01*
X156652273Y-65750000D01*
X157300000Y-65750000D01*
X157800000Y-65750000D01*
X158573638Y-65750000D01*
X158640677Y-65769685D01*
X158661319Y-65786319D01*
X158675000Y-65800000D01*
X159400000Y-65800000D01*
X159400000Y-65100000D01*
X159399999Y-65099999D01*
X159351693Y-65100000D01*
X159351675Y-65100001D01*
X159252392Y-65110144D01*
X159091518Y-65163452D01*
X159091507Y-65163457D01*
X158947271Y-65252424D01*
X158947267Y-65252427D01*
X158827427Y-65372267D01*
X158827424Y-65372271D01*
X158738457Y-65516507D01*
X158738453Y-65516516D01*
X158725990Y-65554128D01*
X158686217Y-65611572D01*
X158621701Y-65638395D01*
X158552925Y-65626080D01*
X158501725Y-65578536D01*
X158490578Y-65554127D01*
X158461547Y-65466518D01*
X158461542Y-65466507D01*
X158372575Y-65322271D01*
X158372572Y-65322267D01*
X158252732Y-65202427D01*
X158252728Y-65202424D01*
X158108492Y-65113457D01*
X158108481Y-65113452D01*
X157947606Y-65060144D01*
X157848322Y-65050000D01*
X157800000Y-65050000D01*
X157800000Y-65750000D01*
X157300000Y-65750000D01*
X157300000Y-65043554D01*
X156756748Y-64500302D01*
X156837553Y-64478651D01*
X156942446Y-64418091D01*
X157028091Y-64332446D01*
X157088651Y-64227553D01*
X157110302Y-64146748D01*
X157678979Y-64715425D01*
X157678980Y-64715425D01*
X157699588Y-64687061D01*
X157786446Y-64516592D01*
X157845571Y-64334626D01*
X157875500Y-64145667D01*
X157875500Y-63954332D01*
X157845571Y-63765373D01*
X157786446Y-63583407D01*
X157699586Y-63412934D01*
X157678980Y-63384573D01*
X157678979Y-63384572D01*
X157110302Y-63953250D01*
X157088651Y-63872447D01*
X157028091Y-63767554D01*
X156942446Y-63681909D01*
X156837553Y-63621349D01*
X156756749Y-63599697D01*
X157325425Y-63031019D01*
X157297059Y-63010410D01*
X157126592Y-62923553D01*
X156944626Y-62864428D01*
X156755667Y-62834500D01*
X156564333Y-62834500D01*
X156375373Y-62864428D01*
X156193407Y-62923553D01*
X156022936Y-63010412D01*
X155994573Y-63031019D01*
X155994572Y-63031019D01*
X156563250Y-63599697D01*
X156482447Y-63621349D01*
X156377554Y-63681909D01*
X156291909Y-63767554D01*
X156231349Y-63872447D01*
X156209697Y-63953251D01*
X155745995Y-63489549D01*
X155723193Y-63458165D01*
X155700016Y-63412677D01*
X155587513Y-63257829D01*
X155452171Y-63122487D01*
X155452169Y-63122485D01*
X155452164Y-63122481D01*
X155297326Y-63009986D01*
X155297325Y-63009985D01*
X155297323Y-63009984D01*
X155126782Y-62923089D01*
X154944747Y-62863942D01*
X154944745Y-62863941D01*
X154944744Y-62863941D01*
X154799523Y-62840940D01*
X154755701Y-62834000D01*
X154564299Y-62834000D01*
X154528723Y-62839634D01*
X154375255Y-62863941D01*
X154193215Y-62923090D01*
X154022673Y-63009986D01*
X153867835Y-63122481D01*
X153867830Y-63122485D01*
X153747681Y-63242635D01*
X153686358Y-63276120D01*
X153616666Y-63271136D01*
X153572319Y-63242635D01*
X153452169Y-63122485D01*
X153452164Y-63122481D01*
X153297326Y-63009986D01*
X153297325Y-63009985D01*
X153297323Y-63009984D01*
X153126782Y-62923089D01*
X152944747Y-62863942D01*
X152944745Y-62863941D01*
X152944744Y-62863941D01*
X152799523Y-62840940D01*
X152755701Y-62834000D01*
X152564299Y-62834000D01*
X152528723Y-62839634D01*
X152375255Y-62863941D01*
X152193215Y-62923090D01*
X152022673Y-63009986D01*
X151867835Y-63122481D01*
X151867830Y-63122485D01*
X151747681Y-63242635D01*
X151686358Y-63276120D01*
X151616666Y-63271136D01*
X151572319Y-63242635D01*
X151452169Y-63122485D01*
X151452164Y-63122481D01*
X151297326Y-63009986D01*
X151297325Y-63009985D01*
X151297323Y-63009984D01*
X151126782Y-62923089D01*
X150944747Y-62863942D01*
X150944745Y-62863941D01*
X150944744Y-62863941D01*
X150799523Y-62840940D01*
X150755701Y-62834000D01*
X150564299Y-62834000D01*
X150528723Y-62839634D01*
X150375255Y-62863941D01*
X150193215Y-62923090D01*
X150022673Y-63009986D01*
X149867835Y-63122481D01*
X149867830Y-63122485D01*
X149747681Y-63242635D01*
X149686358Y-63276120D01*
X149616666Y-63271136D01*
X149572319Y-63242635D01*
X149452169Y-63122485D01*
X149452164Y-63122481D01*
X149297326Y-63009986D01*
X149297325Y-63009985D01*
X149297323Y-63009984D01*
X149126782Y-62923089D01*
X148944747Y-62863942D01*
X148944745Y-62863941D01*
X148944744Y-62863941D01*
X148799523Y-62840940D01*
X148755701Y-62834000D01*
X148564299Y-62834000D01*
X148528723Y-62839634D01*
X148375255Y-62863941D01*
X148193215Y-62923090D01*
X148022673Y-63009986D01*
X147867835Y-63122481D01*
X147867830Y-63122485D01*
X147747681Y-63242635D01*
X147686358Y-63276120D01*
X147616666Y-63271136D01*
X147572319Y-63242635D01*
X147452169Y-63122485D01*
X147452164Y-63122481D01*
X147297326Y-63009986D01*
X147297325Y-63009985D01*
X147297323Y-63009984D01*
X147126782Y-62923089D01*
X146944747Y-62863942D01*
X146944745Y-62863941D01*
X146944744Y-62863941D01*
X146799523Y-62840940D01*
X146755701Y-62834000D01*
X146564299Y-62834000D01*
X146528723Y-62839634D01*
X146375255Y-62863941D01*
X146193215Y-62923090D01*
X146022673Y-63009986D01*
X145867835Y-63122481D01*
X145867830Y-63122485D01*
X145747681Y-63242635D01*
X145686358Y-63276120D01*
X145616666Y-63271136D01*
X145572319Y-63242635D01*
X145452169Y-63122485D01*
X145452164Y-63122481D01*
X145297326Y-63009986D01*
X145297325Y-63009985D01*
X145297323Y-63009984D01*
X145126782Y-62923089D01*
X144944747Y-62863942D01*
X144944745Y-62863941D01*
X144944744Y-62863941D01*
X144799523Y-62840940D01*
X144755701Y-62834000D01*
X144564299Y-62834000D01*
X144528723Y-62839634D01*
X144375255Y-62863941D01*
X144193215Y-62923090D01*
X144022673Y-63009986D01*
X143867835Y-63122481D01*
X143867830Y-63122485D01*
X143747681Y-63242635D01*
X143686358Y-63276120D01*
X143616666Y-63271136D01*
X143572319Y-63242635D01*
X143452169Y-63122485D01*
X143452164Y-63122481D01*
X143297326Y-63009986D01*
X143297325Y-63009985D01*
X143297323Y-63009984D01*
X143126782Y-62923089D01*
X142944747Y-62863942D01*
X142944745Y-62863941D01*
X142944744Y-62863941D01*
X142799523Y-62840940D01*
X142755701Y-62834000D01*
X142564299Y-62834000D01*
X142528723Y-62839634D01*
X142375255Y-62863941D01*
X142193215Y-62923090D01*
X142022673Y-63009986D01*
X141867835Y-63122481D01*
X141867830Y-63122485D01*
X141747681Y-63242635D01*
X141686358Y-63276120D01*
X141616666Y-63271136D01*
X141572319Y-63242635D01*
X141452169Y-63122485D01*
X141452164Y-63122481D01*
X141297326Y-63009986D01*
X141297325Y-63009985D01*
X141297323Y-63009984D01*
X141126782Y-62923089D01*
X140944747Y-62863942D01*
X140944745Y-62863941D01*
X140944744Y-62863941D01*
X140799523Y-62840940D01*
X140755701Y-62834000D01*
X140564299Y-62834000D01*
X140528723Y-62839634D01*
X140375255Y-62863941D01*
X140193215Y-62923090D01*
X140022673Y-63009986D01*
X139867835Y-63122481D01*
X139867830Y-63122485D01*
X139747681Y-63242635D01*
X139686358Y-63276120D01*
X139616666Y-63271136D01*
X139572319Y-63242635D01*
X139452169Y-63122485D01*
X139452164Y-63122481D01*
X139297326Y-63009986D01*
X139297325Y-63009985D01*
X139297323Y-63009984D01*
X139126782Y-62923089D01*
X138944747Y-62863942D01*
X138944745Y-62863941D01*
X138944744Y-62863941D01*
X138799523Y-62840940D01*
X138755701Y-62834000D01*
X138564299Y-62834000D01*
X138528723Y-62839634D01*
X138375255Y-62863941D01*
X138193215Y-62923090D01*
X138022673Y-63009986D01*
X137867835Y-63122481D01*
X137867830Y-63122485D01*
X137732485Y-63257830D01*
X137732481Y-63257835D01*
X137619986Y-63412673D01*
X137533090Y-63583215D01*
X137473941Y-63765255D01*
X137444000Y-63954299D01*
X137444000Y-64145700D01*
X137473941Y-64334744D01*
X137473942Y-64334747D01*
X137533027Y-64516592D01*
X137533090Y-64516784D01*
X137619986Y-64687326D01*
X137732481Y-64842164D01*
X137732485Y-64842169D01*
X137867830Y-64977514D01*
X137867835Y-64977518D01*
X137966911Y-65049500D01*
X138022677Y-65090016D01*
X138193218Y-65176911D01*
X138375253Y-65236058D01*
X138564299Y-65266000D01*
X138564300Y-65266000D01*
X138755700Y-65266000D01*
X138755701Y-65266000D01*
X138944747Y-65236058D01*
X139126782Y-65176911D01*
X139297323Y-65090016D01*
X139452171Y-64977513D01*
X139572319Y-64857365D01*
X139633642Y-64823880D01*
X139703334Y-64828864D01*
X139747681Y-64857365D01*
X139867830Y-64977514D01*
X139867835Y-64977518D01*
X139966911Y-65049500D01*
X140022677Y-65090016D01*
X140193218Y-65176911D01*
X140375253Y-65236058D01*
X140564299Y-65266000D01*
X140564300Y-65266000D01*
X140755700Y-65266000D01*
X140755701Y-65266000D01*
X140927300Y-65238821D01*
X140996591Y-65247775D01*
X141034377Y-65273613D01*
X142831304Y-67070540D01*
X142864789Y-67131863D01*
X142861332Y-67197215D01*
X142859652Y-67202285D01*
X142859651Y-67202290D01*
X142849500Y-67301647D01*
X142849500Y-67898337D01*
X142849501Y-67898355D01*
X142859650Y-67997707D01*
X142859651Y-67997710D01*
X142912996Y-68158694D01*
X142913001Y-68158705D01*
X143002029Y-68303040D01*
X143002032Y-68303044D01*
X143121955Y-68422967D01*
X143121959Y-68422970D01*
X143266294Y-68511998D01*
X143266297Y-68511999D01*
X143266303Y-68512003D01*
X143427292Y-68565349D01*
X143526655Y-68575500D01*
X143874901Y-68575499D01*
X143941940Y-68595183D01*
X143962582Y-68611818D01*
X144206284Y-68855520D01*
X144206286Y-68855521D01*
X144206290Y-68855524D01*
X144253252Y-68882637D01*
X144343216Y-68934577D01*
X144495943Y-68975501D01*
X144495945Y-68975501D01*
X144661654Y-68975501D01*
X144661670Y-68975500D01*
X154620939Y-68975500D01*
X154620943Y-68975501D01*
X154779057Y-68975501D01*
X154806865Y-68968049D01*
X154820787Y-68967520D01*
X154841692Y-68972804D01*
X154863254Y-68973317D01*
X154874897Y-68981197D01*
X154888526Y-68984642D01*
X154903256Y-69000389D01*
X154921117Y-69012478D01*
X154926651Y-69025402D01*
X154936255Y-69035669D01*
X154940132Y-69056881D01*
X154948623Y-69076706D01*
X154949500Y-69091430D01*
X154949500Y-70113330D01*
X154949499Y-70113348D01*
X154949499Y-70279054D01*
X154949498Y-70279054D01*
X154949499Y-70279057D01*
X154990423Y-70431785D01*
X155000651Y-70449500D01*
X155069477Y-70568712D01*
X155069481Y-70568717D01*
X155188349Y-70687585D01*
X155188355Y-70687590D01*
X156239902Y-71739137D01*
X156273387Y-71800460D01*
X156275580Y-71839414D01*
X156274500Y-71849986D01*
X156274500Y-72450001D01*
X156274501Y-72450019D01*
X156285000Y-72552796D01*
X156285001Y-72552799D01*
X156340185Y-72719331D01*
X156340187Y-72719336D01*
X156375069Y-72775888D01*
X156432288Y-72868656D01*
X156556344Y-72992712D01*
X156705666Y-73084814D01*
X156872203Y-73139999D01*
X156974991Y-73150500D01*
X158025008Y-73150499D01*
X158025016Y-73150498D01*
X158025019Y-73150498D01*
X158081302Y-73144748D01*
X158127797Y-73139999D01*
X158294334Y-73084814D01*
X158443656Y-72992712D01*
X158567712Y-72868656D01*
X158659814Y-72719334D01*
X158714999Y-72552797D01*
X158725500Y-72450009D01*
X158725499Y-71849992D01*
X158724418Y-71839414D01*
X158714999Y-71747203D01*
X158714998Y-71747200D01*
X158676474Y-71630943D01*
X158659814Y-71580666D01*
X158567712Y-71431344D01*
X158443656Y-71307288D01*
X158440342Y-71305243D01*
X158438546Y-71303248D01*
X158437989Y-71302807D01*
X158438064Y-71302711D01*
X158393618Y-71253297D01*
X158382397Y-71184334D01*
X158410240Y-71120252D01*
X158440348Y-71094165D01*
X158443342Y-71092318D01*
X158567315Y-70968345D01*
X158659356Y-70819124D01*
X158659358Y-70819119D01*
X158714505Y-70652697D01*
X158714506Y-70652690D01*
X158724999Y-70549986D01*
X158725000Y-70549973D01*
X158725000Y-70500000D01*
X157624000Y-70500000D01*
X157556961Y-70480315D01*
X157511206Y-70427511D01*
X157500000Y-70376000D01*
X157500000Y-70250000D01*
X157374000Y-70250000D01*
X157306961Y-70230315D01*
X157261206Y-70177511D01*
X157250000Y-70126000D01*
X157250000Y-70000000D01*
X157750000Y-70000000D01*
X158724999Y-70000000D01*
X158724999Y-69950028D01*
X158724998Y-69950013D01*
X158714505Y-69847302D01*
X158659358Y-69680880D01*
X158659356Y-69680875D01*
X158567315Y-69531654D01*
X158443345Y-69407684D01*
X158294124Y-69315643D01*
X158294119Y-69315641D01*
X158127697Y-69260494D01*
X158127690Y-69260493D01*
X158024986Y-69250000D01*
X157750000Y-69250000D01*
X157750000Y-70000000D01*
X157250000Y-70000000D01*
X157250000Y-69250000D01*
X156975029Y-69250000D01*
X156975012Y-69250001D01*
X156872302Y-69260494D01*
X156705880Y-69315641D01*
X156705875Y-69315643D01*
X156556654Y-69407684D01*
X156432684Y-69531654D01*
X156380039Y-69617006D01*
X156328091Y-69663730D01*
X156259128Y-69674953D01*
X156195046Y-69647109D01*
X156156190Y-69589040D01*
X156150500Y-69551909D01*
X156150500Y-68455424D01*
X156170185Y-68388385D01*
X156209402Y-68349886D01*
X156253044Y-68322968D01*
X156372968Y-68203044D01*
X156384467Y-68184402D01*
X156392051Y-68177580D01*
X156396291Y-68168297D01*
X156417589Y-68154609D01*
X156436412Y-68137679D01*
X156448048Y-68135034D01*
X156455069Y-68130523D01*
X156490004Y-68125500D01*
X156594575Y-68125500D01*
X156661614Y-68145185D01*
X156700113Y-68184402D01*
X156727031Y-68228043D01*
X156846955Y-68347967D01*
X156846959Y-68347970D01*
X156991294Y-68436998D01*
X156991297Y-68436999D01*
X156991303Y-68437003D01*
X157152292Y-68490349D01*
X157251655Y-68500500D01*
X157848344Y-68500499D01*
X157848352Y-68500498D01*
X157848355Y-68500498D01*
X157902760Y-68494940D01*
X157947708Y-68490349D01*
X158108697Y-68437003D01*
X158253044Y-68347968D01*
X158364193Y-68236819D01*
X158425516Y-68203334D01*
X158451874Y-68200500D01*
X158709996Y-68200500D01*
X158777035Y-68220185D01*
X158815535Y-68259404D01*
X158827031Y-68278043D01*
X158946955Y-68397967D01*
X158946959Y-68397970D01*
X159091294Y-68486998D01*
X159091297Y-68486999D01*
X159091303Y-68487003D01*
X159252292Y-68540349D01*
X159351655Y-68550500D01*
X159657770Y-68550499D01*
X159724808Y-68570183D01*
X159770563Y-68622987D01*
X159781548Y-68681903D01*
X159186518Y-78630066D01*
X159162866Y-78695810D01*
X159150420Y-78710343D01*
X153034377Y-84826386D01*
X152973054Y-84859871D01*
X152927298Y-84861178D01*
X152809711Y-84842554D01*
X152755701Y-84834000D01*
X152564299Y-84834000D01*
X152528723Y-84839634D01*
X152375255Y-84863941D01*
X152193215Y-84923090D01*
X152022673Y-85009986D01*
X151867835Y-85122481D01*
X151867830Y-85122485D01*
X151747681Y-85242635D01*
X151686358Y-85276120D01*
X151616666Y-85271136D01*
X151572319Y-85242635D01*
X151452169Y-85122485D01*
X151452164Y-85122481D01*
X151297326Y-85009986D01*
X151297325Y-85009985D01*
X151297323Y-85009984D01*
X151126782Y-84923089D01*
X150944747Y-84863942D01*
X150944745Y-84863941D01*
X150944744Y-84863941D01*
X150799523Y-84840940D01*
X150755701Y-84834000D01*
X150564299Y-84834000D01*
X150528723Y-84839634D01*
X150375255Y-84863941D01*
X150193215Y-84923090D01*
X150022673Y-85009986D01*
X149867835Y-85122481D01*
X149867830Y-85122485D01*
X149747681Y-85242635D01*
X149686358Y-85276120D01*
X149616666Y-85271136D01*
X149572319Y-85242635D01*
X149452169Y-85122485D01*
X149452164Y-85122481D01*
X149297326Y-85009986D01*
X149297325Y-85009985D01*
X149297323Y-85009984D01*
X149126782Y-84923089D01*
X148944747Y-84863942D01*
X148944745Y-84863941D01*
X148944744Y-84863941D01*
X148799523Y-84840940D01*
X148755701Y-84834000D01*
X148564299Y-84834000D01*
X148528723Y-84839634D01*
X148375255Y-84863941D01*
X148193215Y-84923090D01*
X148022673Y-85009986D01*
X147867835Y-85122481D01*
X147867830Y-85122485D01*
X147747681Y-85242635D01*
X147686358Y-85276120D01*
X147616666Y-85271136D01*
X147572319Y-85242635D01*
X147452169Y-85122485D01*
X147452164Y-85122481D01*
X147297326Y-85009986D01*
X147297325Y-85009985D01*
X147297323Y-85009984D01*
X147126782Y-84923089D01*
X146944747Y-84863942D01*
X146944745Y-84863941D01*
X146944744Y-84863941D01*
X146799523Y-84840940D01*
X146755701Y-84834000D01*
X146564299Y-84834000D01*
X146528723Y-84839634D01*
X146375255Y-84863941D01*
X146193215Y-84923090D01*
X146022673Y-85009986D01*
X145867835Y-85122481D01*
X145867830Y-85122485D01*
X145747681Y-85242635D01*
X145686358Y-85276120D01*
X145616666Y-85271136D01*
X145572319Y-85242635D01*
X145452169Y-85122485D01*
X145452164Y-85122481D01*
X145297326Y-85009986D01*
X145297325Y-85009985D01*
X145297323Y-85009984D01*
X145126782Y-84923089D01*
X144944747Y-84863942D01*
X144944745Y-84863941D01*
X144944744Y-84863941D01*
X144799523Y-84840940D01*
X144755701Y-84834000D01*
X144564299Y-84834000D01*
X144528723Y-84839634D01*
X144375255Y-84863941D01*
X144193215Y-84923090D01*
X144022673Y-85009986D01*
X143867835Y-85122481D01*
X143867830Y-85122485D01*
X143747681Y-85242635D01*
X143686358Y-85276120D01*
X143616666Y-85271136D01*
X143572319Y-85242635D01*
X143452169Y-85122485D01*
X143452164Y-85122481D01*
X143297326Y-85009986D01*
X143297325Y-85009985D01*
X143297323Y-85009984D01*
X143126782Y-84923089D01*
X142944747Y-84863942D01*
X142944745Y-84863941D01*
X142944744Y-84863941D01*
X142799523Y-84840940D01*
X142755701Y-84834000D01*
X142564299Y-84834000D01*
X142528723Y-84839634D01*
X142375255Y-84863941D01*
X142193215Y-84923090D01*
X142022673Y-85009986D01*
X141867835Y-85122481D01*
X141867830Y-85122485D01*
X141747681Y-85242635D01*
X141686358Y-85276120D01*
X141616666Y-85271136D01*
X141572319Y-85242635D01*
X141452169Y-85122485D01*
X141452164Y-85122481D01*
X141297326Y-85009986D01*
X141297325Y-85009985D01*
X141297323Y-85009984D01*
X141126782Y-84923089D01*
X140944747Y-84863942D01*
X140944745Y-84863941D01*
X140944744Y-84863941D01*
X140799523Y-84840940D01*
X140755701Y-84834000D01*
X140564299Y-84834000D01*
X140528723Y-84839634D01*
X140375255Y-84863941D01*
X140193215Y-84923090D01*
X140022673Y-85009986D01*
X139867835Y-85122481D01*
X139867830Y-85122485D01*
X139747681Y-85242635D01*
X139686358Y-85276120D01*
X139616666Y-85271136D01*
X139572319Y-85242635D01*
X139452169Y-85122485D01*
X139452164Y-85122481D01*
X139297326Y-85009986D01*
X139297325Y-85009985D01*
X139297323Y-85009984D01*
X139126782Y-84923089D01*
X138944747Y-84863942D01*
X138944745Y-84863941D01*
X138944744Y-84863941D01*
X138799523Y-84840940D01*
X138755701Y-84834000D01*
X138564299Y-84834000D01*
X138528723Y-84839634D01*
X138375255Y-84863941D01*
X138193215Y-84923090D01*
X138022673Y-85009986D01*
X137867835Y-85122481D01*
X137867830Y-85122485D01*
X137732485Y-85257830D01*
X137732481Y-85257835D01*
X137619986Y-85412673D01*
X137533090Y-85583215D01*
X137473941Y-85765255D01*
X137449045Y-85922445D01*
X137444000Y-85954299D01*
X137444000Y-86145701D01*
X137444346Y-86147883D01*
X137473941Y-86334744D01*
X137476654Y-86343094D01*
X137533089Y-86516782D01*
X137601222Y-86650501D01*
X137619986Y-86687326D01*
X137732481Y-86842164D01*
X137732485Y-86842169D01*
X137867830Y-86977514D01*
X137867835Y-86977518D01*
X138002892Y-87075641D01*
X138022677Y-87090016D01*
X138193218Y-87176911D01*
X138375253Y-87236058D01*
X138564299Y-87266000D01*
X138564300Y-87266000D01*
X138755700Y-87266000D01*
X138755701Y-87266000D01*
X138944747Y-87236058D01*
X139126782Y-87176911D01*
X139297323Y-87090016D01*
X139452171Y-86977513D01*
X139572319Y-86857365D01*
X139633642Y-86823880D01*
X139703334Y-86828864D01*
X139747681Y-86857365D01*
X139867830Y-86977514D01*
X139867835Y-86977518D01*
X140002892Y-87075641D01*
X140022677Y-87090016D01*
X140193218Y-87176911D01*
X140375253Y-87236058D01*
X140564299Y-87266000D01*
X140564300Y-87266000D01*
X140755700Y-87266000D01*
X140755701Y-87266000D01*
X140944747Y-87236058D01*
X141126782Y-87176911D01*
X141297323Y-87090016D01*
X141452171Y-86977513D01*
X141572319Y-86857365D01*
X141633642Y-86823880D01*
X141703334Y-86828864D01*
X141747681Y-86857365D01*
X141867830Y-86977514D01*
X141867835Y-86977518D01*
X142002892Y-87075641D01*
X142022677Y-87090016D01*
X142193218Y-87176911D01*
X142375253Y-87236058D01*
X142564299Y-87266000D01*
X142564300Y-87266000D01*
X142755700Y-87266000D01*
X142755701Y-87266000D01*
X142944747Y-87236058D01*
X143126782Y-87176911D01*
X143297323Y-87090016D01*
X143452171Y-86977513D01*
X143572319Y-86857365D01*
X143633642Y-86823880D01*
X143703334Y-86828864D01*
X143747681Y-86857365D01*
X143867830Y-86977514D01*
X143867835Y-86977518D01*
X144002892Y-87075641D01*
X144022677Y-87090016D01*
X144193218Y-87176911D01*
X144375253Y-87236058D01*
X144564299Y-87266000D01*
X144564300Y-87266000D01*
X144755700Y-87266000D01*
X144755701Y-87266000D01*
X144944747Y-87236058D01*
X145126782Y-87176911D01*
X145297323Y-87090016D01*
X145452171Y-86977513D01*
X145572319Y-86857365D01*
X145633642Y-86823880D01*
X145703334Y-86828864D01*
X145747681Y-86857365D01*
X145867830Y-86977514D01*
X145867835Y-86977518D01*
X146002892Y-87075641D01*
X146022677Y-87090016D01*
X146193218Y-87176911D01*
X146375253Y-87236058D01*
X146564299Y-87266000D01*
X146564300Y-87266000D01*
X146755700Y-87266000D01*
X146755701Y-87266000D01*
X146944747Y-87236058D01*
X147126782Y-87176911D01*
X147297323Y-87090016D01*
X147452171Y-86977513D01*
X147572319Y-86857365D01*
X147633642Y-86823880D01*
X147703334Y-86828864D01*
X147747681Y-86857365D01*
X147867830Y-86977514D01*
X147867835Y-86977518D01*
X148002892Y-87075641D01*
X148022677Y-87090016D01*
X148193218Y-87176911D01*
X148375253Y-87236058D01*
X148564299Y-87266000D01*
X148564300Y-87266000D01*
X148755700Y-87266000D01*
X148755701Y-87266000D01*
X148944747Y-87236058D01*
X149126782Y-87176911D01*
X149297323Y-87090016D01*
X149452171Y-86977513D01*
X149572319Y-86857365D01*
X149633642Y-86823880D01*
X149703334Y-86828864D01*
X149747681Y-86857365D01*
X149867830Y-86977514D01*
X149867835Y-86977518D01*
X150002892Y-87075641D01*
X150022677Y-87090016D01*
X150193218Y-87176911D01*
X150375253Y-87236058D01*
X150564299Y-87266000D01*
X150564300Y-87266000D01*
X150755700Y-87266000D01*
X150755701Y-87266000D01*
X150944747Y-87236058D01*
X151126782Y-87176911D01*
X151297323Y-87090016D01*
X151452171Y-86977513D01*
X151572319Y-86857365D01*
X151633642Y-86823880D01*
X151703334Y-86828864D01*
X151747681Y-86857365D01*
X151867830Y-86977514D01*
X151867835Y-86977518D01*
X152002892Y-87075641D01*
X152022677Y-87090016D01*
X152193218Y-87176911D01*
X152375253Y-87236058D01*
X152564299Y-87266000D01*
X152564300Y-87266000D01*
X152755700Y-87266000D01*
X152755701Y-87266000D01*
X152944747Y-87236058D01*
X153126782Y-87176911D01*
X153297323Y-87090016D01*
X153452171Y-86977513D01*
X153572319Y-86857365D01*
X153633642Y-86823880D01*
X153703334Y-86828864D01*
X153747681Y-86857365D01*
X153867830Y-86977514D01*
X153867835Y-86977518D01*
X154002892Y-87075641D01*
X154022677Y-87090016D01*
X154193218Y-87176911D01*
X154375253Y-87236058D01*
X154564299Y-87266000D01*
X154564300Y-87266000D01*
X154755700Y-87266000D01*
X154755701Y-87266000D01*
X154944747Y-87236058D01*
X155126782Y-87176911D01*
X155297323Y-87090016D01*
X155452171Y-86977513D01*
X155572319Y-86857365D01*
X155633642Y-86823880D01*
X155703334Y-86828864D01*
X155747681Y-86857365D01*
X155867830Y-86977514D01*
X155867835Y-86977518D01*
X156002892Y-87075641D01*
X156022677Y-87090016D01*
X156193218Y-87176911D01*
X156375253Y-87236058D01*
X156564299Y-87266000D01*
X156564300Y-87266000D01*
X156755700Y-87266000D01*
X156755701Y-87266000D01*
X156944747Y-87236058D01*
X157126782Y-87176911D01*
X157297323Y-87090016D01*
X157452171Y-86977513D01*
X157587513Y-86842171D01*
X157700016Y-86687323D01*
X157786911Y-86516782D01*
X157846058Y-86334747D01*
X157876000Y-86145701D01*
X157876000Y-85954299D01*
X157846058Y-85765253D01*
X157786911Y-85583218D01*
X157700016Y-85412677D01*
X157655398Y-85351265D01*
X157587518Y-85257835D01*
X157587514Y-85257830D01*
X157452169Y-85122485D01*
X157452164Y-85122481D01*
X157297326Y-85009986D01*
X157297325Y-85009985D01*
X157297323Y-85009984D01*
X157126782Y-84923089D01*
X156944747Y-84863942D01*
X156944745Y-84863941D01*
X156944744Y-84863941D01*
X156799523Y-84840940D01*
X156755701Y-84834000D01*
X156564299Y-84834000D01*
X156528723Y-84839634D01*
X156375255Y-84863941D01*
X156193215Y-84923090D01*
X156022673Y-85009986D01*
X155867835Y-85122481D01*
X155867830Y-85122485D01*
X155747681Y-85242635D01*
X155686358Y-85276120D01*
X155616666Y-85271136D01*
X155572319Y-85242635D01*
X155452169Y-85122485D01*
X155452164Y-85122481D01*
X155297326Y-85009986D01*
X155297325Y-85009985D01*
X155297323Y-85009984D01*
X155126782Y-84923089D01*
X154948911Y-84865295D01*
X154891237Y-84825858D01*
X154864039Y-84761500D01*
X154875954Y-84692653D01*
X154899547Y-84659687D01*
X158844696Y-80714538D01*
X158906015Y-80681056D01*
X158975707Y-80686040D01*
X159031640Y-80727912D01*
X159056057Y-80793376D01*
X159056152Y-80809626D01*
X158656952Y-87483761D01*
X158633300Y-87549505D01*
X158577858Y-87592026D01*
X158533439Y-87600357D01*
X135504259Y-87649776D01*
X135437178Y-87630235D01*
X135391309Y-87577529D01*
X135381882Y-87547331D01*
X130600000Y-60450000D01*
X124347452Y-60424848D01*
X124280492Y-60404894D01*
X124234950Y-60351906D01*
X124225285Y-60282708D01*
X124225447Y-60281646D01*
X124240500Y-60186611D01*
X124240500Y-59213389D01*
X124213402Y-59042299D01*
X124159873Y-58877555D01*
X124081232Y-58723212D01*
X123979414Y-58583072D01*
X123856928Y-58460586D01*
X123716788Y-58358768D01*
X123562445Y-58280127D01*
X123397701Y-58226598D01*
X123397699Y-58226597D01*
X123397698Y-58226597D01*
X123266271Y-58205781D01*
X123226611Y-58199500D01*
X123053389Y-58199500D01*
X123013728Y-58205781D01*
X122882302Y-58226597D01*
X122717552Y-58280128D01*
X122563211Y-58358768D01*
X122500500Y-58404331D01*
X122423072Y-58460586D01*
X122423070Y-58460588D01*
X122423069Y-58460588D01*
X122300588Y-58583069D01*
X122300588Y-58583070D01*
X122300586Y-58583072D01*
X122256859Y-58643256D01*
X122198768Y-58723211D01*
X122120128Y-58877552D01*
X122066597Y-59042302D01*
X122039500Y-59213389D01*
X122039500Y-60186611D01*
X122044353Y-60217253D01*
X122052981Y-60271727D01*
X122050553Y-60290507D01*
X122053174Y-60309266D01*
X122046168Y-60324444D01*
X122044026Y-60341021D01*
X122031829Y-60355509D01*
X122023893Y-60372704D01*
X122009796Y-60381683D01*
X121999030Y-60394473D01*
X121980935Y-60400067D01*
X121964963Y-60410242D01*
X121934076Y-60414555D01*
X121932278Y-60415112D01*
X121930009Y-60415124D01*
X121809069Y-60414637D01*
X121742109Y-60394683D01*
X121696567Y-60341695D01*
X121686902Y-60272497D01*
X121687056Y-60271488D01*
X121700500Y-60186611D01*
X121700500Y-59213389D01*
X121673402Y-59042299D01*
X121619873Y-58877555D01*
X121541232Y-58723212D01*
X121439414Y-58583072D01*
X121316928Y-58460586D01*
X121176788Y-58358768D01*
X121022445Y-58280127D01*
X120857701Y-58226598D01*
X120857699Y-58226597D01*
X120857698Y-58226597D01*
X120726271Y-58205781D01*
X120686611Y-58199500D01*
X120513389Y-58199500D01*
X120473728Y-58205781D01*
X120342302Y-58226597D01*
X120177552Y-58280128D01*
X120023211Y-58358768D01*
X119960500Y-58404331D01*
X119883072Y-58460586D01*
X119883070Y-58460588D01*
X119883069Y-58460588D01*
X119760588Y-58583069D01*
X119760588Y-58583070D01*
X119760586Y-58583072D01*
X119716859Y-58643256D01*
X119658768Y-58723211D01*
X119580128Y-58877552D01*
X119526597Y-59042302D01*
X119499500Y-59213389D01*
X119499500Y-60186611D01*
X119509869Y-60252077D01*
X119511362Y-60261504D01*
X119508934Y-60280287D01*
X119511554Y-60299041D01*
X119504548Y-60314218D01*
X119502406Y-60330798D01*
X119490210Y-60345285D01*
X119482274Y-60362480D01*
X119468173Y-60371461D01*
X119457409Y-60384249D01*
X119439318Y-60389842D01*
X119423344Y-60400018D01*
X119392454Y-60404332D01*
X119390657Y-60404888D01*
X119388390Y-60404900D01*
X119270688Y-60404427D01*
X119203728Y-60384473D01*
X119158186Y-60331486D01*
X119148520Y-60262288D01*
X119148713Y-60261030D01*
X119150209Y-60251588D01*
X119160500Y-60186611D01*
X119160500Y-59213389D01*
X119133402Y-59042299D01*
X119079873Y-58877555D01*
X119001232Y-58723212D01*
X118899414Y-58583072D01*
X118776928Y-58460586D01*
X118636788Y-58358768D01*
X118482445Y-58280127D01*
X118317701Y-58226598D01*
X118317699Y-58226597D01*
X118317698Y-58226597D01*
X118186271Y-58205781D01*
X118146611Y-58199500D01*
X117973389Y-58199500D01*
X117933728Y-58205781D01*
X117802302Y-58226597D01*
X117637552Y-58280128D01*
X117483211Y-58358768D01*
X117420500Y-58404331D01*
X117343072Y-58460586D01*
X117343070Y-58460588D01*
X117343069Y-58460588D01*
X117220588Y-58583069D01*
X117220588Y-58583070D01*
X117220586Y-58583072D01*
X117176859Y-58643256D01*
X117118768Y-58723211D01*
X117040128Y-58877552D01*
X116986597Y-59042302D01*
X116959500Y-59213389D01*
X116959500Y-60186611D01*
X116969743Y-60251280D01*
X116967315Y-60270063D01*
X116969935Y-60288817D01*
X116962929Y-60303994D01*
X116960787Y-60320573D01*
X116948591Y-60335059D01*
X116940655Y-60352256D01*
X116926554Y-60361238D01*
X116915790Y-60374025D01*
X116897699Y-60379618D01*
X116881725Y-60389794D01*
X116850836Y-60394108D01*
X116849039Y-60394664D01*
X116846771Y-60394676D01*
X116732305Y-60394216D01*
X116665345Y-60374262D01*
X116619803Y-60321275D01*
X116610137Y-60252077D01*
X116610330Y-60250819D01*
X116610522Y-60249612D01*
X116620500Y-60186611D01*
X116620500Y-59213389D01*
X116593402Y-59042299D01*
X116539873Y-58877555D01*
X116461232Y-58723212D01*
X116359414Y-58583072D01*
X116236928Y-58460586D01*
X116096788Y-58358768D01*
X115942445Y-58280127D01*
X115777701Y-58226598D01*
X115777699Y-58226597D01*
X115777698Y-58226597D01*
X115646271Y-58205781D01*
X115606611Y-58199500D01*
X115433389Y-58199500D01*
X115393728Y-58205781D01*
X115262302Y-58226597D01*
X115097552Y-58280128D01*
X114943211Y-58358768D01*
X114880500Y-58404331D01*
X114803072Y-58460586D01*
X114803070Y-58460588D01*
X114803069Y-58460588D01*
X114680588Y-58583069D01*
X114680588Y-58583070D01*
X114680586Y-58583072D01*
X114636859Y-58643256D01*
X114578768Y-58723211D01*
X114500128Y-58877552D01*
X114446597Y-59042302D01*
X114419500Y-59213389D01*
X114419500Y-60186611D01*
X114419499Y-60186611D01*
X114428123Y-60241057D01*
X114425696Y-60259836D01*
X114428316Y-60278595D01*
X114421310Y-60293773D01*
X114419168Y-60310350D01*
X114406972Y-60324837D01*
X114399035Y-60342034D01*
X114384936Y-60351014D01*
X114374172Y-60363802D01*
X114356078Y-60369396D01*
X114340105Y-60379571D01*
X114309218Y-60383884D01*
X114307420Y-60384441D01*
X114305151Y-60384453D01*
X114193921Y-60384005D01*
X114126961Y-60364051D01*
X114081419Y-60311063D01*
X114071754Y-60241865D01*
X114071920Y-60240782D01*
X114080500Y-60186611D01*
X114080500Y-59213389D01*
X114053402Y-59042299D01*
X113999873Y-58877555D01*
X113921232Y-58723212D01*
X113819414Y-58583072D01*
X113696928Y-58460586D01*
X113556788Y-58358768D01*
X113402445Y-58280127D01*
X113237701Y-58226598D01*
X113237699Y-58226597D01*
X113237698Y-58226597D01*
X113106271Y-58205781D01*
X113066611Y-58199500D01*
X112893389Y-58199500D01*
X112853728Y-58205781D01*
X112722302Y-58226597D01*
X112557552Y-58280128D01*
X112403211Y-58358768D01*
X112340500Y-58404331D01*
X112263072Y-58460586D01*
X112263070Y-58460588D01*
X112263069Y-58460588D01*
X112140588Y-58583069D01*
X112140588Y-58583070D01*
X112140586Y-58583072D01*
X112096859Y-58643256D01*
X112038768Y-58723211D01*
X111960128Y-58877552D01*
X111906597Y-59042302D01*
X111879500Y-59213389D01*
X111879500Y-60186611D01*
X111886435Y-60230395D01*
X111886504Y-60230832D01*
X111884076Y-60249612D01*
X111886697Y-60268371D01*
X111879691Y-60283549D01*
X111877549Y-60300126D01*
X111865353Y-60314613D01*
X111857416Y-60331810D01*
X111843317Y-60340790D01*
X111832553Y-60353578D01*
X111814459Y-60359172D01*
X111798486Y-60369347D01*
X111767599Y-60373660D01*
X111765801Y-60374217D01*
X111763532Y-60374229D01*
X111655538Y-60373794D01*
X111588578Y-60353840D01*
X111543036Y-60300852D01*
X111533371Y-60231654D01*
X111533525Y-60230649D01*
X111540500Y-60186611D01*
X111540500Y-59213389D01*
X111513402Y-59042299D01*
X111459873Y-58877555D01*
X111381232Y-58723212D01*
X111279414Y-58583072D01*
X111156928Y-58460586D01*
X111016788Y-58358768D01*
X110862445Y-58280127D01*
X110697701Y-58226598D01*
X110697699Y-58226597D01*
X110697698Y-58226597D01*
X110566271Y-58205781D01*
X110526611Y-58199500D01*
X110353389Y-58199500D01*
X110313728Y-58205781D01*
X110182302Y-58226597D01*
X110017552Y-58280128D01*
X109863211Y-58358768D01*
X109800500Y-58404331D01*
X109723072Y-58460586D01*
X109723070Y-58460588D01*
X109723069Y-58460588D01*
X109600588Y-58583069D01*
X109600588Y-58583070D01*
X109600586Y-58583072D01*
X109556859Y-58643256D01*
X109498768Y-58723211D01*
X109420128Y-58877552D01*
X109366597Y-59042302D01*
X109339500Y-59213389D01*
X109339500Y-60186611D01*
X109344353Y-60217253D01*
X109344885Y-60220610D01*
X109342457Y-60239391D01*
X109345077Y-60258146D01*
X109338070Y-60273325D01*
X109335928Y-60289904D01*
X109323733Y-60304389D01*
X109315797Y-60321585D01*
X109301696Y-60330566D01*
X109290931Y-60343355D01*
X109272840Y-60348948D01*
X109256867Y-60359123D01*
X109225975Y-60363437D01*
X109224179Y-60363993D01*
X109221913Y-60364005D01*
X109117157Y-60363584D01*
X109050197Y-60343630D01*
X109004655Y-60290643D01*
X108994989Y-60221445D01*
X108995182Y-60220187D01*
X108995647Y-60217253D01*
X109000500Y-60186611D01*
X109000500Y-59213389D01*
X108973402Y-59042299D01*
X108919873Y-58877555D01*
X108841232Y-58723212D01*
X108739414Y-58583072D01*
X108616928Y-58460586D01*
X108476788Y-58358768D01*
X108322445Y-58280127D01*
X108157701Y-58226598D01*
X108157699Y-58226597D01*
X108157698Y-58226597D01*
X108026271Y-58205781D01*
X107986611Y-58199500D01*
X107813389Y-58199500D01*
X107773728Y-58205781D01*
X107642302Y-58226597D01*
X107477552Y-58280128D01*
X107323211Y-58358768D01*
X107260500Y-58404331D01*
X107183072Y-58460586D01*
X107183070Y-58460588D01*
X107183069Y-58460588D01*
X107060588Y-58583069D01*
X107060588Y-58583070D01*
X107060586Y-58583072D01*
X107016859Y-58643256D01*
X106958768Y-58723211D01*
X106880128Y-58877552D01*
X106826597Y-59042302D01*
X106799500Y-59213389D01*
X106799500Y-60186612D01*
X106803265Y-60210386D01*
X106800837Y-60229168D01*
X106803457Y-60247922D01*
X106796451Y-60263099D01*
X106794309Y-60279679D01*
X106782113Y-60294166D01*
X106774177Y-60311361D01*
X106760076Y-60320342D01*
X106749312Y-60333130D01*
X106731221Y-60338723D01*
X106715247Y-60348899D01*
X106684357Y-60353213D01*
X106682560Y-60353769D01*
X106680293Y-60353781D01*
X106578774Y-60353373D01*
X106511814Y-60333419D01*
X106466272Y-60280432D01*
X106456606Y-60211234D01*
X106456783Y-60210074D01*
X106460500Y-60186611D01*
X106460500Y-59213389D01*
X106433402Y-59042299D01*
X106379873Y-58877555D01*
X106301232Y-58723212D01*
X106199414Y-58583072D01*
X106076928Y-58460586D01*
X105936788Y-58358768D01*
X105782445Y-58280127D01*
X105617701Y-58226598D01*
X105617699Y-58226597D01*
X105617698Y-58226597D01*
X105486271Y-58205781D01*
X105446611Y-58199500D01*
X105273389Y-58199500D01*
X105233728Y-58205781D01*
X105102302Y-58226597D01*
X104937552Y-58280128D01*
X104783211Y-58358768D01*
X104720500Y-58404331D01*
X104643072Y-58460586D01*
X104643070Y-58460588D01*
X104643069Y-58460588D01*
X104520588Y-58583069D01*
X104520588Y-58583070D01*
X104520586Y-58583072D01*
X104476859Y-58643256D01*
X104418768Y-58723211D01*
X104340128Y-58877552D01*
X104286597Y-59042302D01*
X104259500Y-59213389D01*
X104259500Y-60186612D01*
X104261646Y-60200164D01*
X104259218Y-60218944D01*
X104261838Y-60237700D01*
X104254831Y-60252879D01*
X104252689Y-60269457D01*
X104240493Y-60283943D01*
X104232557Y-60301139D01*
X104218457Y-60310120D01*
X104207692Y-60322908D01*
X104189600Y-60328501D01*
X104173627Y-60338676D01*
X104142737Y-60342990D01*
X104140940Y-60343546D01*
X104138672Y-60343558D01*
X104040389Y-60343162D01*
X103973430Y-60323207D01*
X103927888Y-60270220D01*
X103918223Y-60201022D01*
X103918384Y-60199970D01*
X103920500Y-60186611D01*
X103920500Y-59213389D01*
X103893402Y-59042299D01*
X103839873Y-58877555D01*
X103761232Y-58723212D01*
X103659414Y-58583072D01*
X103536928Y-58460586D01*
X103396788Y-58358768D01*
X103242445Y-58280127D01*
X103077701Y-58226598D01*
X103077699Y-58226597D01*
X103077698Y-58226597D01*
X102946271Y-58205781D01*
X102906611Y-58199500D01*
X102733389Y-58199500D01*
X102693728Y-58205781D01*
X102562302Y-58226597D01*
X102397552Y-58280128D01*
X102243211Y-58358768D01*
X102180500Y-58404331D01*
X102103072Y-58460586D01*
X102103070Y-58460588D01*
X102103069Y-58460588D01*
X101980588Y-58583069D01*
X101980588Y-58583070D01*
X101980586Y-58583072D01*
X101936859Y-58643256D01*
X101878768Y-58723211D01*
X101800128Y-58877552D01*
X101746597Y-59042302D01*
X101719500Y-59213389D01*
X101719500Y-60186615D01*
X101720026Y-60189936D01*
X101719861Y-60191211D01*
X101719882Y-60191475D01*
X101719826Y-60191479D01*
X101717599Y-60208717D01*
X101720219Y-60227476D01*
X101713214Y-60242652D01*
X101711072Y-60259230D01*
X101698874Y-60273719D01*
X101690938Y-60290915D01*
X101676840Y-60299895D01*
X101666076Y-60312682D01*
X101647982Y-60318276D01*
X101632008Y-60328452D01*
X101601125Y-60332765D01*
X101599325Y-60333322D01*
X101597053Y-60333334D01*
X101502006Y-60332951D01*
X101435047Y-60312996D01*
X101389505Y-60260009D01*
X101379840Y-60190811D01*
X101380001Y-60189760D01*
X101380500Y-60186611D01*
X101380500Y-59213389D01*
X101353402Y-59042299D01*
X101299873Y-58877555D01*
X101221232Y-58723212D01*
X101119414Y-58583072D01*
X100996928Y-58460586D01*
X100856788Y-58358768D01*
X100702445Y-58280127D01*
X100537701Y-58226598D01*
X100537699Y-58226597D01*
X100537698Y-58226597D01*
X100406271Y-58205781D01*
X100366611Y-58199500D01*
X100193389Y-58199500D01*
X100153728Y-58205781D01*
X100022302Y-58226597D01*
X99857552Y-58280128D01*
X99703211Y-58358768D01*
X99640500Y-58404331D01*
X99563072Y-58460586D01*
X99563070Y-58460588D01*
X99563069Y-58460588D01*
X99440588Y-58583069D01*
X99440588Y-58583070D01*
X99440586Y-58583072D01*
X99396859Y-58643256D01*
X99338768Y-58723211D01*
X99260128Y-58877552D01*
X99206597Y-59042302D01*
X99179500Y-59213389D01*
X99179500Y-60186618D01*
X99179718Y-60189390D01*
X99179500Y-60190427D01*
X99179500Y-60191483D01*
X99179278Y-60191483D01*
X99176808Y-60203237D01*
X99178766Y-60217253D01*
X99169766Y-60236749D01*
X99165351Y-60257766D01*
X99155414Y-60267844D01*
X99149485Y-60280691D01*
X99131374Y-60292227D01*
X99116297Y-60307520D01*
X99101333Y-60311363D01*
X99090556Y-60318229D01*
X99055601Y-60323111D01*
X98963429Y-60322740D01*
X98896469Y-60302786D01*
X98850927Y-60249798D01*
X98840745Y-60191483D01*
X98840500Y-60191483D01*
X98840500Y-60190081D01*
X98840311Y-60188999D01*
X98840499Y-60186615D01*
X98840500Y-60186611D01*
X98840500Y-59213389D01*
X98813402Y-59042299D01*
X98759873Y-58877555D01*
X98681232Y-58723212D01*
X98579414Y-58583072D01*
X98456928Y-58460586D01*
X98316788Y-58358768D01*
X98162445Y-58280127D01*
X97997701Y-58226598D01*
X97997699Y-58226597D01*
X97997698Y-58226597D01*
X97866271Y-58205781D01*
X97826611Y-58199500D01*
X97653389Y-58199500D01*
X97613728Y-58205781D01*
X97482302Y-58226597D01*
X97317552Y-58280128D01*
X97163211Y-58358768D01*
X97100500Y-58404331D01*
X97023072Y-58460586D01*
X97023070Y-58460588D01*
X97023069Y-58460588D01*
X96900588Y-58583069D01*
X96900588Y-58583070D01*
X96900586Y-58583072D01*
X96856859Y-58643256D01*
X96798768Y-58723211D01*
X96720128Y-58877552D01*
X96666597Y-59042302D01*
X96639500Y-59213389D01*
X96639500Y-60188892D01*
X96636878Y-60197818D01*
X96638166Y-60207033D01*
X96627190Y-60230811D01*
X96619815Y-60255931D01*
X96612785Y-60262021D01*
X96608886Y-60270471D01*
X96586795Y-60284542D01*
X96567011Y-60301686D01*
X96556239Y-60304006D01*
X96549956Y-60308009D01*
X96515001Y-60312891D01*
X96424001Y-60312525D01*
X96357042Y-60292571D01*
X96311499Y-60239583D01*
X96300500Y-60188526D01*
X96300500Y-59213389D01*
X96273402Y-59042302D01*
X96273402Y-59042299D01*
X96219873Y-58877555D01*
X96141232Y-58723212D01*
X96039414Y-58583072D01*
X95916928Y-58460586D01*
X95776788Y-58358768D01*
X95622445Y-58280127D01*
X95457701Y-58226598D01*
X95457699Y-58226597D01*
X95457698Y-58226597D01*
X95326271Y-58205781D01*
X95286611Y-58199500D01*
X95113389Y-58199500D01*
X95073728Y-58205781D01*
X94942302Y-58226597D01*
X94942299Y-58226598D01*
X94853626Y-58255410D01*
X94777549Y-58280129D01*
X94680794Y-58329428D01*
X94612125Y-58342324D01*
X94547385Y-58316047D01*
X94507128Y-58258941D01*
X94500500Y-58218943D01*
X94500500Y-54990758D01*
X94520185Y-54923719D01*
X94536819Y-54903077D01*
X94640104Y-54799792D01*
X94640106Y-54799788D01*
X94640109Y-54799786D01*
X94765048Y-54627820D01*
X94765047Y-54627820D01*
X94765051Y-54627816D01*
X94861557Y-54438412D01*
X94927246Y-54236243D01*
X94960500Y-54026287D01*
X94960500Y-53813713D01*
X94927246Y-53603757D01*
X94861557Y-53401588D01*
X94765051Y-53212184D01*
X94765049Y-53212181D01*
X94765048Y-53212179D01*
X94640109Y-53040213D01*
X94489786Y-52889890D01*
X94317820Y-52764951D01*
X94313033Y-52762512D01*
X94309054Y-52760485D01*
X94258259Y-52712512D01*
X94241463Y-52644692D01*
X94263999Y-52578556D01*
X94309054Y-52539515D01*
X94317816Y-52535051D01*
X94339789Y-52519086D01*
X94489786Y-52410109D01*
X94489788Y-52410106D01*
X94489792Y-52410104D01*
X94640104Y-52259792D01*
X94765051Y-52087816D01*
X94861557Y-51898412D01*
X94927246Y-51696243D01*
X94960500Y-51486287D01*
X94960500Y-51273713D01*
X94927246Y-51063757D01*
X94861557Y-50861588D01*
X94765051Y-50672184D01*
X94765049Y-50672181D01*
X94765048Y-50672179D01*
X94640109Y-50500213D01*
X94489786Y-50349890D01*
X94317817Y-50224949D01*
X94308504Y-50220204D01*
X94257707Y-50172230D01*
X94240912Y-50104409D01*
X94263449Y-50038274D01*
X94308507Y-49999232D01*
X94317555Y-49994622D01*
X94371716Y-49955270D01*
X94371717Y-49955270D01*
X93739408Y-49322962D01*
X93802993Y-49305925D01*
X93917007Y-49240099D01*
X94010099Y-49147007D01*
X94075925Y-49032993D01*
X94092962Y-48969408D01*
X94725270Y-49601717D01*
X94725270Y-49601716D01*
X94764622Y-49547554D01*
X94861095Y-49358217D01*
X94926757Y-49156130D01*
X94926757Y-49156127D01*
X94960000Y-48946246D01*
X94960000Y-48733753D01*
X94926757Y-48523872D01*
X94926757Y-48523869D01*
X94861095Y-48321782D01*
X94764624Y-48132449D01*
X94725270Y-48078282D01*
X94725269Y-48078282D01*
X94092962Y-48710590D01*
X94075925Y-48647007D01*
X94010099Y-48532993D01*
X93917007Y-48439901D01*
X93802993Y-48374075D01*
X93739409Y-48357037D01*
X94409627Y-47686818D01*
X94470950Y-47653333D01*
X94497307Y-47650499D01*
X94507872Y-47650499D01*
X94567483Y-47644091D01*
X94702331Y-47593796D01*
X94817546Y-47507546D01*
X94903796Y-47392331D01*
X94954091Y-47257483D01*
X94960500Y-47197873D01*
X94960499Y-46402135D01*
X103699500Y-46402135D01*
X103699500Y-48197870D01*
X103699501Y-48197876D01*
X103705908Y-48257483D01*
X103756202Y-48392328D01*
X103756206Y-48392335D01*
X103842452Y-48507544D01*
X103842455Y-48507547D01*
X103957664Y-48593793D01*
X103957671Y-48593797D01*
X104002618Y-48610561D01*
X104092517Y-48644091D01*
X104152127Y-48650500D01*
X104162685Y-48650499D01*
X104229723Y-48670179D01*
X104250372Y-48686818D01*
X104920591Y-49357037D01*
X104857007Y-49374075D01*
X104742993Y-49439901D01*
X104649901Y-49532993D01*
X104584075Y-49647007D01*
X104567037Y-49710591D01*
X103934728Y-49078282D01*
X103934727Y-49078282D01*
X103895380Y-49132439D01*
X103798904Y-49321782D01*
X103733242Y-49523869D01*
X103733242Y-49523872D01*
X103700000Y-49733753D01*
X103700000Y-49946246D01*
X103733242Y-50156127D01*
X103733242Y-50156130D01*
X103798904Y-50358217D01*
X103895375Y-50547550D01*
X103934728Y-50601716D01*
X104567037Y-49969408D01*
X104584075Y-50032993D01*
X104649901Y-50147007D01*
X104742993Y-50240099D01*
X104857007Y-50305925D01*
X104920590Y-50322962D01*
X104288282Y-50955269D01*
X104288282Y-50955270D01*
X104342452Y-50994626D01*
X104342451Y-50994626D01*
X104351495Y-50999234D01*
X104402292Y-51047208D01*
X104419087Y-51115029D01*
X104396550Y-51181164D01*
X104351499Y-51220202D01*
X104342182Y-51224949D01*
X104170213Y-51349890D01*
X104019890Y-51500213D01*
X103894951Y-51672179D01*
X103798444Y-51861585D01*
X103732753Y-52063760D01*
X103699500Y-52273713D01*
X103699500Y-52486286D01*
X103732606Y-52695312D01*
X103732754Y-52696243D01*
X103792084Y-52878842D01*
X103798444Y-52898414D01*
X103894951Y-53087820D01*
X104019890Y-53259786D01*
X104170213Y-53410109D01*
X104342179Y-53535048D01*
X104342181Y-53535049D01*
X104342184Y-53535051D01*
X104531588Y-53631557D01*
X104733757Y-53697246D01*
X104943713Y-53730500D01*
X104943714Y-53730500D01*
X105156286Y-53730500D01*
X105156287Y-53730500D01*
X105366243Y-53697246D01*
X105568412Y-53631557D01*
X105757816Y-53535051D01*
X105886462Y-53441585D01*
X105929786Y-53410109D01*
X105929788Y-53410106D01*
X105929792Y-53410104D01*
X106080104Y-53259792D01*
X106080106Y-53259788D01*
X106080109Y-53259786D01*
X106205048Y-53087820D01*
X106205047Y-53087820D01*
X106205051Y-53087816D01*
X106301557Y-52898412D01*
X106367246Y-52696243D01*
X106400500Y-52486287D01*
X106400500Y-52273713D01*
X106367246Y-52063757D01*
X106301557Y-51861588D01*
X106205051Y-51672184D01*
X106205049Y-51672181D01*
X106205048Y-51672179D01*
X106080109Y-51500213D01*
X105929786Y-51349890D01*
X105757817Y-51224949D01*
X105748504Y-51220204D01*
X105697707Y-51172230D01*
X105680912Y-51104409D01*
X105703449Y-51038274D01*
X105748507Y-50999232D01*
X105757555Y-50994622D01*
X105811716Y-50955270D01*
X105811717Y-50955270D01*
X105179408Y-50322962D01*
X105242993Y-50305925D01*
X105357007Y-50240099D01*
X105450099Y-50147007D01*
X105515925Y-50032993D01*
X105532962Y-49969409D01*
X106165270Y-50601717D01*
X106165270Y-50601716D01*
X106204622Y-50547554D01*
X106301095Y-50358217D01*
X106366757Y-50156130D01*
X106366757Y-50156127D01*
X106400000Y-49946246D01*
X106400000Y-49733753D01*
X106366757Y-49523872D01*
X106366757Y-49523869D01*
X106301095Y-49321782D01*
X106204624Y-49132449D01*
X106165270Y-49078282D01*
X106165269Y-49078282D01*
X105532962Y-49710590D01*
X105515925Y-49647007D01*
X105450099Y-49532993D01*
X105357007Y-49439901D01*
X105242993Y-49374075D01*
X105179409Y-49357037D01*
X105849627Y-48686818D01*
X105910950Y-48653333D01*
X105937307Y-48650499D01*
X105947872Y-48650499D01*
X106007483Y-48644091D01*
X106142331Y-48593796D01*
X106257546Y-48507546D01*
X106343796Y-48392331D01*
X106394091Y-48257483D01*
X106400500Y-48197873D01*
X106400499Y-46402128D01*
X106394091Y-46342517D01*
X106387874Y-46325849D01*
X106343797Y-46207671D01*
X106343793Y-46207664D01*
X106257547Y-46092455D01*
X106257544Y-46092452D01*
X106142335Y-46006206D01*
X106142328Y-46006202D01*
X106007482Y-45955908D01*
X106007483Y-45955908D01*
X105947883Y-45949501D01*
X105947881Y-45949500D01*
X105947873Y-45949500D01*
X105947864Y-45949500D01*
X104152129Y-45949500D01*
X104152123Y-45949501D01*
X104092516Y-45955908D01*
X103957671Y-46006202D01*
X103957664Y-46006206D01*
X103842455Y-46092452D01*
X103842452Y-46092455D01*
X103756206Y-46207664D01*
X103756202Y-46207671D01*
X103705908Y-46342517D01*
X103699857Y-46398805D01*
X103699501Y-46402123D01*
X103699500Y-46402135D01*
X94960499Y-46402135D01*
X94960499Y-46249896D01*
X94960499Y-45402129D01*
X94960498Y-45402123D01*
X94960497Y-45402116D01*
X94954091Y-45342517D01*
X94921349Y-45254732D01*
X94903797Y-45207671D01*
X94903793Y-45207664D01*
X94817547Y-45092455D01*
X94817544Y-45092452D01*
X94702335Y-45006206D01*
X94702328Y-45006202D01*
X94567482Y-44955908D01*
X94567483Y-44955908D01*
X94507883Y-44949501D01*
X94507881Y-44949500D01*
X94507873Y-44949500D01*
X94507864Y-44949500D01*
X92712129Y-44949500D01*
X92712123Y-44949501D01*
X92652516Y-44955908D01*
X92517671Y-45006202D01*
X92517664Y-45006206D01*
X92402455Y-45092452D01*
X92402452Y-45092455D01*
X92316206Y-45207664D01*
X92316202Y-45207671D01*
X92265908Y-45342517D01*
X92261888Y-45379915D01*
X92259501Y-45402123D01*
X92259500Y-45402135D01*
X92259500Y-47197870D01*
X92259501Y-47197876D01*
X92265908Y-47257483D01*
X92316202Y-47392328D01*
X92316206Y-47392335D01*
X92402452Y-47507544D01*
X92402455Y-47507547D01*
X92517664Y-47593793D01*
X92517671Y-47593797D01*
X92562618Y-47610561D01*
X92652517Y-47644091D01*
X92712127Y-47650500D01*
X92722685Y-47650499D01*
X92789723Y-47670179D01*
X92810372Y-47686818D01*
X93480591Y-48357037D01*
X93417007Y-48374075D01*
X93302993Y-48439901D01*
X93209901Y-48532993D01*
X93144075Y-48647007D01*
X93127037Y-48710591D01*
X92494728Y-48078282D01*
X92494727Y-48078282D01*
X92455380Y-48132439D01*
X92358904Y-48321782D01*
X92293242Y-48523869D01*
X92293242Y-48523872D01*
X92260000Y-48733753D01*
X92260000Y-48946246D01*
X92293242Y-49156127D01*
X92293242Y-49156130D01*
X92358904Y-49358217D01*
X92455375Y-49547550D01*
X92494728Y-49601716D01*
X93127037Y-48969408D01*
X93144075Y-49032993D01*
X93209901Y-49147007D01*
X93302993Y-49240099D01*
X93417007Y-49305925D01*
X93480590Y-49322962D01*
X92848282Y-49955269D01*
X92848282Y-49955270D01*
X92902452Y-49994626D01*
X92902451Y-49994626D01*
X92911495Y-49999234D01*
X92962292Y-50047208D01*
X92979087Y-50115029D01*
X92956550Y-50181164D01*
X92911499Y-50220202D01*
X92902182Y-50224949D01*
X92730213Y-50349890D01*
X92579890Y-50500213D01*
X92454951Y-50672179D01*
X92358444Y-50861585D01*
X92292753Y-51063760D01*
X92264885Y-51239711D01*
X92259500Y-51273713D01*
X92259500Y-51486287D01*
X92267419Y-51536286D01*
X92292754Y-51696244D01*
X92292754Y-51696247D01*
X92306491Y-51738523D01*
X92308486Y-51808364D01*
X92276241Y-51864522D01*
X91674478Y-52466286D01*
X91081286Y-53059478D01*
X91081284Y-53059480D01*
X91052948Y-53087816D01*
X90969481Y-53171282D01*
X90969480Y-53171284D01*
X90957023Y-53192861D01*
X90890423Y-53308215D01*
X90849499Y-53460943D01*
X90849499Y-53460945D01*
X90849499Y-53629046D01*
X90849500Y-53629059D01*
X90849500Y-58234228D01*
X90829815Y-58301267D01*
X90777011Y-58347022D01*
X90707853Y-58356966D01*
X90669206Y-58344713D01*
X90542450Y-58280129D01*
X90542447Y-58280128D01*
X90542445Y-58280127D01*
X90377701Y-58226598D01*
X90377699Y-58226597D01*
X90377698Y-58226597D01*
X90246271Y-58205781D01*
X90206611Y-58199500D01*
X90033389Y-58199500D01*
X89993728Y-58205781D01*
X89862302Y-58226597D01*
X89697552Y-58280128D01*
X89543211Y-58358768D01*
X89480500Y-58404331D01*
X89403072Y-58460586D01*
X89403070Y-58460588D01*
X89403069Y-58460588D01*
X89280588Y-58583069D01*
X89280588Y-58583070D01*
X89280586Y-58583072D01*
X89236859Y-58643256D01*
X89178768Y-58723211D01*
X89100128Y-58877552D01*
X89046597Y-59042302D01*
X89019500Y-59213389D01*
X89019500Y-59990903D01*
X89013261Y-60012148D01*
X89011682Y-60034237D01*
X89003609Y-60045020D01*
X88999815Y-60057942D01*
X88983081Y-60072441D01*
X88969810Y-60090170D01*
X88957189Y-60094877D01*
X88947011Y-60103697D01*
X88925093Y-60106848D01*
X88904346Y-60114587D01*
X88891185Y-60111724D01*
X88877853Y-60113641D01*
X88857709Y-60104441D01*
X88836073Y-60099735D01*
X88818347Y-60086466D01*
X88814297Y-60084616D01*
X88807819Y-60078584D01*
X88716819Y-59987584D01*
X88683334Y-59926261D01*
X88683334Y-59926260D01*
X88680500Y-59899903D01*
X88680500Y-59213389D01*
X88653402Y-59042302D01*
X88653402Y-59042299D01*
X88599873Y-58877555D01*
X88521232Y-58723212D01*
X88419414Y-58583072D01*
X88296928Y-58460586D01*
X88156788Y-58358768D01*
X88002445Y-58280127D01*
X87837701Y-58226598D01*
X87837699Y-58226597D01*
X87837698Y-58226597D01*
X87706271Y-58205781D01*
X87666611Y-58199500D01*
X87493389Y-58199500D01*
X87453728Y-58205781D01*
X87322302Y-58226597D01*
X87157552Y-58280128D01*
X87003211Y-58358768D01*
X86940500Y-58404331D01*
X86863072Y-58460586D01*
X86863070Y-58460588D01*
X86863069Y-58460588D01*
X86740588Y-58583069D01*
X86740588Y-58583070D01*
X86740586Y-58583072D01*
X86696859Y-58643256D01*
X86638768Y-58723211D01*
X86560128Y-58877552D01*
X86506597Y-59042302D01*
X86479500Y-59213389D01*
X86479500Y-59990903D01*
X86473261Y-60012148D01*
X86471682Y-60034237D01*
X86463609Y-60045020D01*
X86459815Y-60057942D01*
X86443081Y-60072441D01*
X86429810Y-60090170D01*
X86417189Y-60094877D01*
X86407011Y-60103697D01*
X86385093Y-60106848D01*
X86364346Y-60114587D01*
X86351185Y-60111724D01*
X86337853Y-60113641D01*
X86317709Y-60104441D01*
X86296073Y-60099735D01*
X86278347Y-60086466D01*
X86274297Y-60084616D01*
X86267819Y-60078584D01*
X86176819Y-59987584D01*
X86143334Y-59926261D01*
X86143334Y-59926260D01*
X86140500Y-59899903D01*
X86140500Y-59213389D01*
X86113402Y-59042302D01*
X86113402Y-59042299D01*
X86059873Y-58877555D01*
X85981232Y-58723212D01*
X85879414Y-58583072D01*
X85756928Y-58460586D01*
X85616788Y-58358768D01*
X85462445Y-58280127D01*
X85297701Y-58226598D01*
X85297699Y-58226597D01*
X85297698Y-58226597D01*
X85166271Y-58205781D01*
X85126611Y-58199500D01*
X84953389Y-58199500D01*
X84913728Y-58205781D01*
X84782302Y-58226597D01*
X84617552Y-58280128D01*
X84463211Y-58358768D01*
X84400500Y-58404331D01*
X84323072Y-58460586D01*
X84323070Y-58460588D01*
X84323069Y-58460588D01*
X84200588Y-58583069D01*
X84200588Y-58583070D01*
X84200586Y-58583072D01*
X84156859Y-58643256D01*
X84098768Y-58723211D01*
X84020128Y-58877552D01*
X83966597Y-59042302D01*
X83939500Y-59213389D01*
X83939500Y-59990902D01*
X83933261Y-60012147D01*
X83931682Y-60034236D01*
X83923609Y-60045019D01*
X83919815Y-60057941D01*
X83903081Y-60072440D01*
X83889810Y-60090169D01*
X83877189Y-60094876D01*
X83867011Y-60103696D01*
X83845093Y-60106847D01*
X83824346Y-60114586D01*
X83811185Y-60111723D01*
X83797853Y-60113640D01*
X83777709Y-60104440D01*
X83756073Y-60099734D01*
X83738347Y-60086465D01*
X83734297Y-60084615D01*
X83727819Y-60078583D01*
X83636819Y-59987583D01*
X83603334Y-59926260D01*
X83600500Y-59899902D01*
X83600500Y-59213389D01*
X83573402Y-59042302D01*
X83573402Y-59042299D01*
X83519873Y-58877555D01*
X83441232Y-58723212D01*
X83339414Y-58583072D01*
X83216928Y-58460586D01*
X83076788Y-58358768D01*
X82922445Y-58280127D01*
X82757701Y-58226598D01*
X82757699Y-58226597D01*
X82757698Y-58226597D01*
X82626271Y-58205781D01*
X82586611Y-58199500D01*
X82413389Y-58199500D01*
X82373728Y-58205781D01*
X82242302Y-58226597D01*
X82077552Y-58280128D01*
X81923211Y-58358768D01*
X81860500Y-58404331D01*
X81783072Y-58460586D01*
X81783070Y-58460588D01*
X81783069Y-58460588D01*
X81660588Y-58583069D01*
X81660588Y-58583070D01*
X81660586Y-58583072D01*
X81616859Y-58643256D01*
X81558768Y-58723211D01*
X81480128Y-58877552D01*
X81426597Y-59042302D01*
X81399500Y-59213389D01*
X81399500Y-60127589D01*
X81396878Y-60136515D01*
X81398166Y-60145730D01*
X81387190Y-60169508D01*
X81379815Y-60194628D01*
X81372785Y-60200718D01*
X81368886Y-60209168D01*
X81346795Y-60223239D01*
X81327011Y-60240383D01*
X81316239Y-60242703D01*
X81309956Y-60246706D01*
X81275001Y-60251588D01*
X81184001Y-60251222D01*
X81117042Y-60231268D01*
X81071499Y-60178280D01*
X81060500Y-60127223D01*
X81060500Y-59213389D01*
X81033402Y-59042302D01*
X81033402Y-59042299D01*
X80979873Y-58877555D01*
X80901232Y-58723212D01*
X80799414Y-58583072D01*
X80676928Y-58460586D01*
X80536788Y-58358768D01*
X80382445Y-58280127D01*
X80217701Y-58226598D01*
X80217699Y-58226597D01*
X80217698Y-58226597D01*
X80086271Y-58205781D01*
X80046611Y-58199500D01*
X79873389Y-58199500D01*
X79833728Y-58205781D01*
X79702302Y-58226597D01*
X79537552Y-58280128D01*
X79383211Y-58358768D01*
X79320500Y-58404331D01*
X79243072Y-58460586D01*
X79243070Y-58460588D01*
X79243069Y-58460588D01*
X79120588Y-58583069D01*
X79120588Y-58583070D01*
X79120586Y-58583072D01*
X79076859Y-58643256D01*
X79018768Y-58723211D01*
X78940128Y-58877552D01*
X78886597Y-59042302D01*
X78859500Y-59213389D01*
X78859500Y-60117372D01*
X78856878Y-60126298D01*
X78858166Y-60135513D01*
X78847190Y-60159291D01*
X78839815Y-60184411D01*
X78832785Y-60190501D01*
X78828886Y-60198951D01*
X78806795Y-60213022D01*
X78787011Y-60230166D01*
X78776239Y-60232486D01*
X78769956Y-60236489D01*
X78735001Y-60241371D01*
X78644001Y-60241005D01*
X78577042Y-60221051D01*
X78531499Y-60168063D01*
X78520500Y-60117006D01*
X78520500Y-59213389D01*
X78493402Y-59042302D01*
X78493402Y-59042299D01*
X78439873Y-58877555D01*
X78361232Y-58723212D01*
X78259414Y-58583072D01*
X78136928Y-58460586D01*
X77996788Y-58358768D01*
X77842445Y-58280127D01*
X77677701Y-58226598D01*
X77677699Y-58226597D01*
X77677698Y-58226597D01*
X77546271Y-58205781D01*
X77506611Y-58199500D01*
X77333389Y-58199500D01*
X77293728Y-58205781D01*
X77162302Y-58226597D01*
X76997552Y-58280128D01*
X76843211Y-58358768D01*
X76780500Y-58404331D01*
X76703072Y-58460586D01*
X76703070Y-58460588D01*
X76703069Y-58460588D01*
X76580588Y-58583069D01*
X76580588Y-58583070D01*
X76580586Y-58583072D01*
X76536859Y-58643256D01*
X76478768Y-58723211D01*
X76400128Y-58877552D01*
X76346597Y-59042302D01*
X76319500Y-59213389D01*
X76319500Y-60107154D01*
X76316878Y-60116080D01*
X76318166Y-60125295D01*
X76307190Y-60149073D01*
X76299815Y-60174193D01*
X76292785Y-60180283D01*
X76288886Y-60188733D01*
X76266795Y-60202804D01*
X76247011Y-60219948D01*
X76236239Y-60222268D01*
X76229956Y-60226271D01*
X76195001Y-60231153D01*
X76104001Y-60230787D01*
X76037042Y-60210833D01*
X75991499Y-60157845D01*
X75980500Y-60106788D01*
X75980500Y-59213389D01*
X75953402Y-59042302D01*
X75953402Y-59042299D01*
X75899873Y-58877555D01*
X75821232Y-58723212D01*
X75719414Y-58583072D01*
X75596928Y-58460586D01*
X75456788Y-58358768D01*
X75302445Y-58280127D01*
X75137701Y-58226598D01*
X75137699Y-58226597D01*
X75137698Y-58226597D01*
X75006271Y-58205781D01*
X74966611Y-58199500D01*
X74793389Y-58199500D01*
X74753728Y-58205781D01*
X74622302Y-58226597D01*
X74457552Y-58280128D01*
X74303211Y-58358768D01*
X74240500Y-58404331D01*
X74163072Y-58460586D01*
X74163070Y-58460588D01*
X74163069Y-58460588D01*
X74040588Y-58583069D01*
X74040588Y-58583070D01*
X74040586Y-58583072D01*
X73996859Y-58643256D01*
X73938768Y-58723211D01*
X73860128Y-58877552D01*
X73806597Y-59042302D01*
X73779500Y-59213389D01*
X73779500Y-60096938D01*
X73776878Y-60105864D01*
X73778166Y-60115079D01*
X73767190Y-60138857D01*
X73759815Y-60163977D01*
X73752785Y-60170067D01*
X73748886Y-60178517D01*
X73726795Y-60192588D01*
X73707011Y-60209732D01*
X73696239Y-60212052D01*
X73689956Y-60216055D01*
X73655001Y-60220937D01*
X73564001Y-60220571D01*
X73497042Y-60200617D01*
X73451499Y-60147629D01*
X73440500Y-60096572D01*
X73440500Y-59213389D01*
X73413402Y-59042302D01*
X73413402Y-59042299D01*
X73359873Y-58877555D01*
X73281232Y-58723212D01*
X73179414Y-58583072D01*
X73056928Y-58460586D01*
X72916788Y-58358768D01*
X72762445Y-58280127D01*
X72597701Y-58226598D01*
X72597699Y-58226597D01*
X72597698Y-58226597D01*
X72466271Y-58205781D01*
X72426611Y-58199500D01*
X72253389Y-58199500D01*
X72213728Y-58205781D01*
X72082302Y-58226597D01*
X71917552Y-58280128D01*
X71763211Y-58358768D01*
X71700500Y-58404331D01*
X71623072Y-58460586D01*
X71623070Y-58460588D01*
X71623069Y-58460588D01*
X71500588Y-58583069D01*
X71500588Y-58583070D01*
X71500586Y-58583072D01*
X71456859Y-58643256D01*
X71398768Y-58723211D01*
X71320128Y-58877552D01*
X71266597Y-59042302D01*
X71239500Y-59213389D01*
X71239500Y-60086720D01*
X71236878Y-60095646D01*
X71238166Y-60104861D01*
X71227190Y-60128639D01*
X71219815Y-60153759D01*
X71212785Y-60159849D01*
X71208886Y-60168299D01*
X71186795Y-60182370D01*
X71167011Y-60199514D01*
X71156239Y-60201834D01*
X71149956Y-60205837D01*
X71115001Y-60210719D01*
X71024001Y-60210353D01*
X70957042Y-60190399D01*
X70911499Y-60137411D01*
X70900500Y-60086354D01*
X70900500Y-59213389D01*
X70873402Y-59042302D01*
X70873402Y-59042299D01*
X70819873Y-58877555D01*
X70741232Y-58723212D01*
X70639414Y-58583072D01*
X70516928Y-58460586D01*
X70376788Y-58358768D01*
X70222445Y-58280127D01*
X70057701Y-58226598D01*
X70057699Y-58226597D01*
X70057698Y-58226597D01*
X69926271Y-58205781D01*
X69886611Y-58199500D01*
X69713389Y-58199500D01*
X69673728Y-58205781D01*
X69542302Y-58226597D01*
X69377552Y-58280128D01*
X69223211Y-58358768D01*
X69160500Y-58404331D01*
X69083072Y-58460586D01*
X69083070Y-58460588D01*
X69083069Y-58460588D01*
X68960588Y-58583069D01*
X68960588Y-58583070D01*
X68960586Y-58583072D01*
X68916859Y-58643256D01*
X68858768Y-58723211D01*
X68780128Y-58877552D01*
X68726597Y-59042302D01*
X68699500Y-59213389D01*
X68699500Y-60076503D01*
X68679815Y-60143542D01*
X68627011Y-60189297D01*
X68575002Y-60200502D01*
X68450000Y-60200000D01*
X68349999Y-83999999D01*
X68350000Y-83999999D01*
X68350000Y-84000000D01*
X68583378Y-84014851D01*
X68649029Y-84038752D01*
X68691338Y-84094355D01*
X68699500Y-84138600D01*
X68699500Y-86147870D01*
X68699501Y-86147876D01*
X68705908Y-86207483D01*
X68756202Y-86342328D01*
X68756206Y-86342335D01*
X68842452Y-86457544D01*
X68842455Y-86457547D01*
X68957664Y-86543793D01*
X68957671Y-86543797D01*
X69092517Y-86594091D01*
X69092516Y-86594091D01*
X69099444Y-86594835D01*
X69152127Y-86600500D01*
X70447872Y-86600499D01*
X70507483Y-86594091D01*
X70642331Y-86543796D01*
X70757546Y-86457546D01*
X70843796Y-86342331D01*
X70894091Y-86207483D01*
X70900500Y-86147873D01*
X70900499Y-84294444D01*
X70920184Y-84227406D01*
X70972987Y-84181651D01*
X71032367Y-84170696D01*
X71188898Y-84180657D01*
X71254549Y-84204559D01*
X71296858Y-84260162D01*
X71302389Y-84329813D01*
X71298951Y-84342723D01*
X71266598Y-84442297D01*
X71266597Y-84442301D01*
X71239500Y-84613389D01*
X71239500Y-85586610D01*
X71259006Y-85709771D01*
X71266598Y-85757701D01*
X71320127Y-85922445D01*
X71398768Y-86076788D01*
X71500586Y-86216928D01*
X71623072Y-86339414D01*
X71763212Y-86441232D01*
X71917555Y-86519873D01*
X72082299Y-86573402D01*
X72253389Y-86600500D01*
X72253390Y-86600500D01*
X72426610Y-86600500D01*
X72426611Y-86600500D01*
X72597701Y-86573402D01*
X72762445Y-86519873D01*
X72916788Y-86441232D01*
X73056928Y-86339414D01*
X73179414Y-86216928D01*
X73281232Y-86076788D01*
X73359873Y-85922445D01*
X73413402Y-85757701D01*
X73440500Y-85586611D01*
X73440500Y-84613389D01*
X73418419Y-84473976D01*
X73421306Y-84451635D01*
X73419522Y-84429174D01*
X73425697Y-84417650D01*
X73427373Y-84404685D01*
X73441882Y-84387449D01*
X73452525Y-84367590D01*
X73463950Y-84361234D01*
X73472370Y-84351233D01*
X73493893Y-84344577D01*
X73513583Y-84333625D01*
X73534754Y-84331943D01*
X73539121Y-84330593D01*
X73548751Y-84330829D01*
X73685606Y-84339538D01*
X73751256Y-84363439D01*
X73793566Y-84419042D01*
X73800201Y-84482684D01*
X73779500Y-84613388D01*
X73779500Y-85586615D01*
X73797010Y-85697169D01*
X73798449Y-85721225D01*
X73600000Y-90999999D01*
X73600000Y-91000000D01*
X74230742Y-91000000D01*
X74297781Y-91019685D01*
X74343536Y-91072489D01*
X74353480Y-91141647D01*
X74324455Y-91205203D01*
X74318423Y-91211681D01*
X74219894Y-91310209D01*
X74219890Y-91310213D01*
X74094951Y-91482179D01*
X73998444Y-91671585D01*
X73932753Y-91873760D01*
X73899500Y-92083713D01*
X73899500Y-92296286D01*
X73926418Y-92466243D01*
X73932754Y-92506243D01*
X73995728Y-92700057D01*
X73998444Y-92708414D01*
X74094951Y-92897820D01*
X74219890Y-93069786D01*
X74370213Y-93220109D01*
X74542179Y-93345048D01*
X74542181Y-93345049D01*
X74542184Y-93345051D01*
X74551493Y-93349794D01*
X74602290Y-93397766D01*
X74619087Y-93465587D01*
X74596552Y-93531722D01*
X74551505Y-93570760D01*
X74542446Y-93575376D01*
X74542440Y-93575380D01*
X74488282Y-93614727D01*
X74488282Y-93614728D01*
X75120591Y-94247037D01*
X75057007Y-94264075D01*
X74942993Y-94329901D01*
X74849901Y-94422993D01*
X74784075Y-94537007D01*
X74767037Y-94600591D01*
X74134728Y-93968282D01*
X74134727Y-93968282D01*
X74095380Y-94022439D01*
X73998904Y-94211782D01*
X73933242Y-94413869D01*
X73933242Y-94413872D01*
X73900000Y-94623753D01*
X73900000Y-94836246D01*
X73933242Y-95046127D01*
X73933242Y-95046130D01*
X73998904Y-95248217D01*
X74095375Y-95437550D01*
X74134728Y-95491716D01*
X74767037Y-94859408D01*
X74784075Y-94922993D01*
X74849901Y-95037007D01*
X74942993Y-95130099D01*
X75057007Y-95195925D01*
X75120590Y-95212962D01*
X74450370Y-95883181D01*
X74389047Y-95916666D01*
X74362698Y-95919500D01*
X74352134Y-95919500D01*
X74352123Y-95919501D01*
X74292516Y-95925908D01*
X74157671Y-95976202D01*
X74157664Y-95976206D01*
X74042455Y-96062452D01*
X74042452Y-96062455D01*
X73956206Y-96177664D01*
X73956202Y-96177671D01*
X73905908Y-96312517D01*
X73902725Y-96342127D01*
X73899501Y-96372123D01*
X73899500Y-96372135D01*
X73899500Y-98167870D01*
X73899501Y-98167876D01*
X73905908Y-98227483D01*
X73956202Y-98362328D01*
X73956206Y-98362335D01*
X74042452Y-98477544D01*
X74042455Y-98477547D01*
X74157664Y-98563793D01*
X74157671Y-98563797D01*
X74292517Y-98614091D01*
X74292516Y-98614091D01*
X74299444Y-98614835D01*
X74352127Y-98620500D01*
X76147872Y-98620499D01*
X76207483Y-98614091D01*
X76342331Y-98563796D01*
X76457546Y-98477546D01*
X76543796Y-98362331D01*
X76594091Y-98227483D01*
X76600500Y-98167873D01*
X76600499Y-96372128D01*
X76594091Y-96312517D01*
X76586631Y-96292517D01*
X76543797Y-96177671D01*
X76543793Y-96177664D01*
X76457547Y-96062455D01*
X76457544Y-96062452D01*
X76342335Y-95976206D01*
X76342328Y-95976202D01*
X76207482Y-95925908D01*
X76207483Y-95925908D01*
X76147883Y-95919501D01*
X76147881Y-95919500D01*
X76147873Y-95919500D01*
X76147865Y-95919500D01*
X76137309Y-95919500D01*
X76070270Y-95899815D01*
X76049628Y-95883181D01*
X75379408Y-95212962D01*
X75442993Y-95195925D01*
X75557007Y-95130099D01*
X75650099Y-95037007D01*
X75715925Y-94922993D01*
X75732962Y-94859408D01*
X76365270Y-95491717D01*
X76365270Y-95491716D01*
X76404622Y-95437554D01*
X76501095Y-95248217D01*
X76566757Y-95046130D01*
X76566757Y-95046127D01*
X76600000Y-94836246D01*
X76600000Y-94623753D01*
X76566757Y-94413872D01*
X76566757Y-94413869D01*
X76501095Y-94211782D01*
X76404624Y-94022449D01*
X76365270Y-93968282D01*
X76365269Y-93968282D01*
X75732962Y-94600590D01*
X75715925Y-94537007D01*
X75650099Y-94422993D01*
X75557007Y-94329901D01*
X75442993Y-94264075D01*
X75379409Y-94247037D01*
X76011716Y-93614728D01*
X75957547Y-93575373D01*
X75957547Y-93575372D01*
X75948500Y-93570763D01*
X75897706Y-93522788D01*
X75880912Y-93454966D01*
X75903451Y-93388832D01*
X75948508Y-93349793D01*
X75957816Y-93345051D01*
X76037007Y-93287515D01*
X76129786Y-93220109D01*
X76129788Y-93220106D01*
X76129792Y-93220104D01*
X76280104Y-93069792D01*
X76280106Y-93069788D01*
X76280109Y-93069786D01*
X76405048Y-92897820D01*
X76405047Y-92897820D01*
X76405051Y-92897816D01*
X76501557Y-92708412D01*
X76567246Y-92506243D01*
X76600500Y-92296287D01*
X76600500Y-92083713D01*
X76567246Y-91873757D01*
X76501557Y-91671588D01*
X76405051Y-91482184D01*
X76405049Y-91482181D01*
X76405048Y-91482179D01*
X76280109Y-91310213D01*
X76181577Y-91211681D01*
X76148092Y-91150358D01*
X76153076Y-91080666D01*
X76194948Y-91024733D01*
X76260412Y-91000316D01*
X76269258Y-91000000D01*
X78130742Y-91000000D01*
X78197781Y-91019685D01*
X78243536Y-91072489D01*
X78253480Y-91141647D01*
X78224455Y-91205203D01*
X78218423Y-91211681D01*
X78119894Y-91310209D01*
X78119890Y-91310213D01*
X77994951Y-91482179D01*
X77898444Y-91671585D01*
X77832753Y-91873760D01*
X77799500Y-92083713D01*
X77799500Y-92296286D01*
X77826418Y-92466243D01*
X77832754Y-92506243D01*
X77895728Y-92700057D01*
X77898444Y-92708414D01*
X77994951Y-92897820D01*
X78119890Y-93069786D01*
X78270213Y-93220109D01*
X78442179Y-93345048D01*
X78442181Y-93345049D01*
X78442184Y-93345051D01*
X78451493Y-93349794D01*
X78502290Y-93397766D01*
X78519087Y-93465587D01*
X78496552Y-93531722D01*
X78451505Y-93570760D01*
X78442446Y-93575376D01*
X78442440Y-93575380D01*
X78388282Y-93614727D01*
X78388282Y-93614728D01*
X79020591Y-94247037D01*
X78957007Y-94264075D01*
X78842993Y-94329901D01*
X78749901Y-94422993D01*
X78684075Y-94537007D01*
X78667037Y-94600591D01*
X78034728Y-93968282D01*
X78034727Y-93968282D01*
X77995380Y-94022439D01*
X77898904Y-94211782D01*
X77833242Y-94413869D01*
X77833242Y-94413872D01*
X77800000Y-94623753D01*
X77800000Y-94836246D01*
X77833242Y-95046127D01*
X77833242Y-95046130D01*
X77898904Y-95248217D01*
X77995375Y-95437550D01*
X78034728Y-95491716D01*
X78667037Y-94859408D01*
X78684075Y-94922993D01*
X78749901Y-95037007D01*
X78842993Y-95130099D01*
X78957007Y-95195925D01*
X79020590Y-95212962D01*
X78350370Y-95883181D01*
X78289047Y-95916666D01*
X78262698Y-95919500D01*
X78252134Y-95919500D01*
X78252123Y-95919501D01*
X78192516Y-95925908D01*
X78057671Y-95976202D01*
X78057664Y-95976206D01*
X77942455Y-96062452D01*
X77942452Y-96062455D01*
X77856206Y-96177664D01*
X77856202Y-96177671D01*
X77805908Y-96312517D01*
X77802725Y-96342127D01*
X77799501Y-96372123D01*
X77799500Y-96372135D01*
X77799500Y-98167870D01*
X77799501Y-98167876D01*
X77805908Y-98227483D01*
X77856202Y-98362328D01*
X77856206Y-98362335D01*
X77942452Y-98477544D01*
X77942455Y-98477547D01*
X78057664Y-98563793D01*
X78057671Y-98563797D01*
X78192517Y-98614091D01*
X78192516Y-98614091D01*
X78199444Y-98614835D01*
X78252127Y-98620500D01*
X80047872Y-98620499D01*
X80107483Y-98614091D01*
X80242331Y-98563796D01*
X80357546Y-98477546D01*
X80443796Y-98362331D01*
X80494091Y-98227483D01*
X80500500Y-98167873D01*
X80500499Y-96372128D01*
X80494091Y-96312517D01*
X80486631Y-96292517D01*
X80443797Y-96177671D01*
X80443793Y-96177664D01*
X80357547Y-96062455D01*
X80357544Y-96062452D01*
X80242335Y-95976206D01*
X80242328Y-95976202D01*
X80107482Y-95925908D01*
X80107483Y-95925908D01*
X80047883Y-95919501D01*
X80047881Y-95919500D01*
X80047873Y-95919500D01*
X80047865Y-95919500D01*
X80037309Y-95919500D01*
X79970270Y-95899815D01*
X79949628Y-95883181D01*
X79279408Y-95212962D01*
X79342993Y-95195925D01*
X79457007Y-95130099D01*
X79550099Y-95037007D01*
X79615925Y-94922993D01*
X79632962Y-94859408D01*
X80265270Y-95491717D01*
X80265270Y-95491716D01*
X80304622Y-95437554D01*
X80401095Y-95248217D01*
X80466757Y-95046130D01*
X80466757Y-95046127D01*
X80500000Y-94836246D01*
X80500000Y-94623753D01*
X80466757Y-94413872D01*
X80466757Y-94413869D01*
X80401095Y-94211782D01*
X80304624Y-94022449D01*
X80265270Y-93968282D01*
X80265269Y-93968282D01*
X79632962Y-94600590D01*
X79615925Y-94537007D01*
X79550099Y-94422993D01*
X79457007Y-94329901D01*
X79342993Y-94264075D01*
X79279409Y-94247037D01*
X79911716Y-93614728D01*
X79857547Y-93575373D01*
X79857547Y-93575372D01*
X79848500Y-93570763D01*
X79797706Y-93522788D01*
X79780912Y-93454966D01*
X79803451Y-93388832D01*
X79848508Y-93349793D01*
X79857816Y-93345051D01*
X79937007Y-93287515D01*
X80029786Y-93220109D01*
X80029788Y-93220106D01*
X80029792Y-93220104D01*
X80180104Y-93069792D01*
X80180106Y-93069788D01*
X80180109Y-93069786D01*
X80305048Y-92897820D01*
X80305047Y-92897820D01*
X80305051Y-92897816D01*
X80401557Y-92708412D01*
X80467246Y-92506243D01*
X80500500Y-92296287D01*
X80500500Y-92083713D01*
X80467246Y-91873757D01*
X80401557Y-91671588D01*
X80305051Y-91482184D01*
X80305049Y-91482181D01*
X80305048Y-91482179D01*
X80180109Y-91310213D01*
X80081577Y-91211681D01*
X80048092Y-91150358D01*
X80053076Y-91080666D01*
X80094948Y-91024733D01*
X80160412Y-91000316D01*
X80169258Y-91000000D01*
X84959403Y-91000000D01*
X85026442Y-91019685D01*
X85047084Y-91036319D01*
X87735139Y-93724374D01*
X87735149Y-93724385D01*
X87739479Y-93728715D01*
X87739480Y-93728716D01*
X87851284Y-93840520D01*
X87938095Y-93890639D01*
X87938097Y-93890641D01*
X87976151Y-93912611D01*
X87988215Y-93919577D01*
X88140943Y-93960501D01*
X88140946Y-93960501D01*
X88306653Y-93960501D01*
X88306669Y-93960500D01*
X88484780Y-93960500D01*
X88551819Y-93980185D01*
X88597574Y-94032989D01*
X88607518Y-94102147D01*
X88595265Y-94140795D01*
X88548904Y-94231782D01*
X88483242Y-94433869D01*
X88483242Y-94433872D01*
X88450000Y-94643753D01*
X88450000Y-94856246D01*
X88483242Y-95066127D01*
X88483242Y-95066130D01*
X88548904Y-95268217D01*
X88645375Y-95457550D01*
X88684728Y-95511716D01*
X89317036Y-94879407D01*
X89334075Y-94942993D01*
X89399901Y-95057007D01*
X89492993Y-95150099D01*
X89607007Y-95215925D01*
X89670590Y-95232962D01*
X89000370Y-95903181D01*
X88939047Y-95936666D01*
X88912698Y-95939500D01*
X88902134Y-95939500D01*
X88902123Y-95939501D01*
X88842516Y-95945908D01*
X88707671Y-95996202D01*
X88707664Y-95996206D01*
X88592455Y-96082452D01*
X88592452Y-96082455D01*
X88506206Y-96197664D01*
X88506202Y-96197671D01*
X88455908Y-96332517D01*
X88451650Y-96372127D01*
X88449501Y-96392123D01*
X88449500Y-96392135D01*
X88449500Y-98187870D01*
X88449501Y-98187876D01*
X88455908Y-98247483D01*
X88506202Y-98382328D01*
X88506206Y-98382335D01*
X88592452Y-98497544D01*
X88592455Y-98497547D01*
X88707664Y-98583793D01*
X88707671Y-98583797D01*
X88842517Y-98634091D01*
X88842516Y-98634091D01*
X88849444Y-98634835D01*
X88902127Y-98640500D01*
X90697872Y-98640499D01*
X90757483Y-98634091D01*
X90892331Y-98583796D01*
X91007546Y-98497546D01*
X91093796Y-98382331D01*
X91144091Y-98247483D01*
X91150500Y-98187873D01*
X91150499Y-96392128D01*
X91144091Y-96332517D01*
X91136631Y-96312517D01*
X91093797Y-96197671D01*
X91093793Y-96197664D01*
X91007547Y-96082455D01*
X91007544Y-96082452D01*
X90892335Y-95996206D01*
X90892328Y-95996202D01*
X90757482Y-95945908D01*
X90757483Y-95945908D01*
X90697883Y-95939501D01*
X90697881Y-95939500D01*
X90697873Y-95939500D01*
X90697865Y-95939500D01*
X90687309Y-95939500D01*
X90620270Y-95919815D01*
X90599628Y-95903181D01*
X89929408Y-95232962D01*
X89992993Y-95215925D01*
X90107007Y-95150099D01*
X90200099Y-95057007D01*
X90265925Y-94942993D01*
X90282962Y-94879409D01*
X90915270Y-95511717D01*
X90915270Y-95511716D01*
X90954622Y-95457554D01*
X91051095Y-95268217D01*
X91116757Y-95066130D01*
X91116757Y-95066127D01*
X91150000Y-94856246D01*
X91150000Y-94643753D01*
X91116757Y-94433872D01*
X91116757Y-94433869D01*
X91051095Y-94231782D01*
X91004735Y-94140795D01*
X90991839Y-94072126D01*
X91018115Y-94007385D01*
X91075222Y-93967128D01*
X91115220Y-93960500D01*
X92434780Y-93960500D01*
X92501819Y-93980185D01*
X92547574Y-94032989D01*
X92557518Y-94102147D01*
X92545265Y-94140795D01*
X92498904Y-94231782D01*
X92433242Y-94433869D01*
X92433242Y-94433872D01*
X92400000Y-94643753D01*
X92400000Y-94856246D01*
X92433242Y-95066127D01*
X92433242Y-95066130D01*
X92498904Y-95268217D01*
X92595375Y-95457550D01*
X92634728Y-95511716D01*
X93267036Y-94879407D01*
X93284075Y-94942993D01*
X93349901Y-95057007D01*
X93442993Y-95150099D01*
X93557007Y-95215925D01*
X93620590Y-95232962D01*
X92950370Y-95903181D01*
X92889047Y-95936666D01*
X92862698Y-95939500D01*
X92852134Y-95939500D01*
X92852123Y-95939501D01*
X92792516Y-95945908D01*
X92657671Y-95996202D01*
X92657664Y-95996206D01*
X92542455Y-96082452D01*
X92542452Y-96082455D01*
X92456206Y-96197664D01*
X92456202Y-96197671D01*
X92405908Y-96332517D01*
X92401650Y-96372127D01*
X92399501Y-96392123D01*
X92399500Y-96392135D01*
X92399500Y-98187870D01*
X92399501Y-98187876D01*
X92405908Y-98247483D01*
X92456202Y-98382328D01*
X92456206Y-98382335D01*
X92542452Y-98497544D01*
X92542455Y-98497547D01*
X92657664Y-98583793D01*
X92657671Y-98583797D01*
X92792517Y-98634091D01*
X92792516Y-98634091D01*
X92799444Y-98634835D01*
X92852127Y-98640500D01*
X94647872Y-98640499D01*
X94707483Y-98634091D01*
X94842331Y-98583796D01*
X94957546Y-98497546D01*
X95043796Y-98382331D01*
X95094091Y-98247483D01*
X95100500Y-98187873D01*
X95100499Y-96392128D01*
X95094091Y-96332517D01*
X95086631Y-96312517D01*
X95043797Y-96197671D01*
X95043793Y-96197664D01*
X94957547Y-96082455D01*
X94957544Y-96082452D01*
X94842335Y-95996206D01*
X94842328Y-95996202D01*
X94707482Y-95945908D01*
X94707483Y-95945908D01*
X94647883Y-95939501D01*
X94647881Y-95939500D01*
X94647873Y-95939500D01*
X94647865Y-95939500D01*
X94637309Y-95939500D01*
X94570270Y-95919815D01*
X94549628Y-95903181D01*
X93879408Y-95232962D01*
X93942993Y-95215925D01*
X94057007Y-95150099D01*
X94150099Y-95057007D01*
X94215925Y-94942993D01*
X94232962Y-94879409D01*
X94865270Y-95511717D01*
X94865270Y-95511716D01*
X94904622Y-95457554D01*
X95001095Y-95268217D01*
X95066757Y-95066130D01*
X95066757Y-95066127D01*
X95100000Y-94856246D01*
X95100000Y-94643753D01*
X95066757Y-94433872D01*
X95066757Y-94433869D01*
X95001095Y-94231782D01*
X94954735Y-94140795D01*
X94941839Y-94072126D01*
X94968115Y-94007385D01*
X95025222Y-93967128D01*
X95065220Y-93960500D01*
X96384780Y-93960500D01*
X96451819Y-93980185D01*
X96497574Y-94032989D01*
X96507518Y-94102147D01*
X96495265Y-94140795D01*
X96448904Y-94231782D01*
X96383242Y-94433869D01*
X96383242Y-94433872D01*
X96350000Y-94643753D01*
X96350000Y-94856246D01*
X96383242Y-95066127D01*
X96383242Y-95066130D01*
X96448904Y-95268217D01*
X96545375Y-95457550D01*
X96584728Y-95511716D01*
X97217036Y-94879407D01*
X97234075Y-94942993D01*
X97299901Y-95057007D01*
X97392993Y-95150099D01*
X97507007Y-95215925D01*
X97570590Y-95232962D01*
X96900370Y-95903181D01*
X96839047Y-95936666D01*
X96812698Y-95939500D01*
X96802134Y-95939500D01*
X96802123Y-95939501D01*
X96742516Y-95945908D01*
X96607671Y-95996202D01*
X96607664Y-95996206D01*
X96492455Y-96082452D01*
X96492452Y-96082455D01*
X96406206Y-96197664D01*
X96406202Y-96197671D01*
X96355908Y-96332517D01*
X96351650Y-96372127D01*
X96349501Y-96392123D01*
X96349500Y-96392135D01*
X96349500Y-98187870D01*
X96349501Y-98187876D01*
X96355908Y-98247483D01*
X96406202Y-98382328D01*
X96406206Y-98382335D01*
X96492452Y-98497544D01*
X96492455Y-98497547D01*
X96607664Y-98583793D01*
X96607671Y-98583797D01*
X96742517Y-98634091D01*
X96742516Y-98634091D01*
X96749444Y-98634835D01*
X96802127Y-98640500D01*
X98597872Y-98640499D01*
X98657483Y-98634091D01*
X98792331Y-98583796D01*
X98907546Y-98497546D01*
X98993796Y-98382331D01*
X99044091Y-98247483D01*
X99050500Y-98187873D01*
X99050499Y-96392128D01*
X99044091Y-96332517D01*
X99036631Y-96312517D01*
X98993797Y-96197671D01*
X98993793Y-96197664D01*
X98907547Y-96082455D01*
X98907544Y-96082452D01*
X98792335Y-95996206D01*
X98792328Y-95996202D01*
X98657482Y-95945908D01*
X98657483Y-95945908D01*
X98597883Y-95939501D01*
X98597881Y-95939500D01*
X98597873Y-95939500D01*
X98597865Y-95939500D01*
X98587309Y-95939500D01*
X98520270Y-95919815D01*
X98499628Y-95903181D01*
X97829408Y-95232962D01*
X97892993Y-95215925D01*
X98007007Y-95150099D01*
X98100099Y-95057007D01*
X98165925Y-94942993D01*
X98182962Y-94879409D01*
X98815270Y-95511717D01*
X98815270Y-95511716D01*
X98854622Y-95457554D01*
X98951095Y-95268217D01*
X99016757Y-95066130D01*
X99016757Y-95066127D01*
X99050000Y-94856246D01*
X99050000Y-94643753D01*
X99016757Y-94433872D01*
X99016757Y-94433869D01*
X98951095Y-94231782D01*
X98904735Y-94140795D01*
X98891839Y-94072126D01*
X98918115Y-94007385D01*
X98975222Y-93967128D01*
X99015220Y-93960500D01*
X100334780Y-93960500D01*
X100401819Y-93980185D01*
X100447574Y-94032989D01*
X100457518Y-94102147D01*
X100445265Y-94140795D01*
X100398904Y-94231782D01*
X100333242Y-94433869D01*
X100333242Y-94433872D01*
X100300000Y-94643753D01*
X100300000Y-94856246D01*
X100333242Y-95066127D01*
X100333242Y-95066130D01*
X100398904Y-95268217D01*
X100495375Y-95457550D01*
X100534728Y-95511716D01*
X101167036Y-94879407D01*
X101184075Y-94942993D01*
X101249901Y-95057007D01*
X101342993Y-95150099D01*
X101457007Y-95215925D01*
X101520590Y-95232962D01*
X100850370Y-95903181D01*
X100789047Y-95936666D01*
X100762698Y-95939500D01*
X100752134Y-95939500D01*
X100752123Y-95939501D01*
X100692516Y-95945908D01*
X100557671Y-95996202D01*
X100557664Y-95996206D01*
X100442455Y-96082452D01*
X100442452Y-96082455D01*
X100356206Y-96197664D01*
X100356202Y-96197671D01*
X100305908Y-96332517D01*
X100301650Y-96372127D01*
X100299501Y-96392123D01*
X100299500Y-96392135D01*
X100299500Y-98187870D01*
X100299501Y-98187876D01*
X100305908Y-98247483D01*
X100356202Y-98382328D01*
X100356206Y-98382335D01*
X100442452Y-98497544D01*
X100442455Y-98497547D01*
X100557664Y-98583793D01*
X100557671Y-98583797D01*
X100692517Y-98634091D01*
X100692516Y-98634091D01*
X100699444Y-98634835D01*
X100752127Y-98640500D01*
X102547872Y-98640499D01*
X102607483Y-98634091D01*
X102742331Y-98583796D01*
X102857546Y-98497546D01*
X102943796Y-98382331D01*
X102994091Y-98247483D01*
X103000500Y-98187873D01*
X103000499Y-96392128D01*
X102994091Y-96332517D01*
X102986631Y-96312517D01*
X102943797Y-96197671D01*
X102943793Y-96197664D01*
X102857547Y-96082455D01*
X102857544Y-96082452D01*
X102742335Y-95996206D01*
X102742328Y-95996202D01*
X102607482Y-95945908D01*
X102607483Y-95945908D01*
X102547883Y-95939501D01*
X102547881Y-95939500D01*
X102547873Y-95939500D01*
X102547865Y-95939500D01*
X102537309Y-95939500D01*
X102470270Y-95919815D01*
X102449628Y-95903181D01*
X101779408Y-95232962D01*
X101842993Y-95215925D01*
X101957007Y-95150099D01*
X102050099Y-95057007D01*
X102115925Y-94942993D01*
X102132962Y-94879409D01*
X102765270Y-95511717D01*
X102765270Y-95511716D01*
X102804622Y-95457554D01*
X102901095Y-95268217D01*
X102966757Y-95066130D01*
X102966757Y-95066127D01*
X103000000Y-94856246D01*
X103000000Y-94643753D01*
X102966757Y-94433872D01*
X102966757Y-94433869D01*
X102901095Y-94231782D01*
X102854735Y-94140795D01*
X102841839Y-94072126D01*
X102868115Y-94007385D01*
X102925222Y-93967128D01*
X102965220Y-93960500D01*
X105298828Y-93960500D01*
X105365867Y-93980185D01*
X105411622Y-94032989D01*
X105422793Y-94081572D01*
X105647009Y-103573397D01*
X105628914Y-103640882D01*
X105577205Y-103687871D01*
X105523363Y-103700325D01*
X69716891Y-103792372D01*
X69649801Y-103772859D01*
X69603910Y-103720173D01*
X69593169Y-103656220D01*
X69600500Y-103581794D01*
X69600500Y-103218206D01*
X69564862Y-102856369D01*
X69493935Y-102499787D01*
X69493932Y-102499776D01*
X69493931Y-102499773D01*
X69493930Y-102499767D01*
X69388386Y-102151836D01*
X69249247Y-101815924D01*
X69077853Y-101495268D01*
X68875854Y-101192956D01*
X68645197Y-100911899D01*
X68645196Y-100911898D01*
X68645192Y-100911893D01*
X68388106Y-100654807D01*
X68107049Y-100424150D01*
X68107048Y-100424149D01*
X68107044Y-100424146D01*
X67804732Y-100222147D01*
X67804727Y-100222144D01*
X67804720Y-100222140D01*
X67484083Y-100050756D01*
X67484078Y-100050754D01*
X67148165Y-99911614D01*
X67016921Y-99871801D01*
X66813653Y-99810141D01*
X66755216Y-99771844D01*
X66726760Y-99708032D01*
X66725652Y-99692216D01*
X66719418Y-98640499D01*
X66414066Y-47123236D01*
X66433352Y-47056087D01*
X66485884Y-47010020D01*
X66513861Y-47000892D01*
X66800233Y-46943930D01*
X67148164Y-46838386D01*
X67484076Y-46699247D01*
X67804732Y-46527853D01*
X68107044Y-46325854D01*
X68388101Y-46095197D01*
X68645197Y-45838101D01*
X68875854Y-45557044D01*
X68945952Y-45452135D01*
X77519500Y-45452135D01*
X77519500Y-47247870D01*
X77519501Y-47247876D01*
X77525908Y-47307483D01*
X77576202Y-47442328D01*
X77576206Y-47442335D01*
X77662452Y-47557544D01*
X77662455Y-47557547D01*
X77777664Y-47643793D01*
X77777671Y-47643797D01*
X77795643Y-47650500D01*
X77912517Y-47694091D01*
X77972127Y-47700500D01*
X77982685Y-47700499D01*
X78049723Y-47720179D01*
X78070372Y-47736818D01*
X78740591Y-48407037D01*
X78677007Y-48424075D01*
X78562993Y-48489901D01*
X78469901Y-48582993D01*
X78404075Y-48697007D01*
X78387037Y-48760591D01*
X77754728Y-48128282D01*
X77754727Y-48128282D01*
X77715380Y-48182439D01*
X77618904Y-48371782D01*
X77553242Y-48573869D01*
X77553242Y-48573872D01*
X77520000Y-48783753D01*
X77520000Y-48996246D01*
X77553242Y-49206127D01*
X77553242Y-49206130D01*
X77618904Y-49408217D01*
X77715375Y-49597550D01*
X77754728Y-49651716D01*
X78387037Y-49019408D01*
X78404075Y-49082993D01*
X78469901Y-49197007D01*
X78562993Y-49290099D01*
X78677007Y-49355925D01*
X78740590Y-49372962D01*
X78108282Y-50005269D01*
X78108282Y-50005270D01*
X78162452Y-50044626D01*
X78162451Y-50044626D01*
X78171495Y-50049234D01*
X78222292Y-50097208D01*
X78239087Y-50165029D01*
X78216550Y-50231164D01*
X78171499Y-50270202D01*
X78162182Y-50274949D01*
X77990213Y-50399890D01*
X77839890Y-50550213D01*
X77714951Y-50722179D01*
X77618444Y-50911585D01*
X77618443Y-50911587D01*
X77618443Y-50911588D01*
X77597823Y-50975050D01*
X77552753Y-51113760D01*
X77519500Y-51323713D01*
X77519500Y-51536286D01*
X77551169Y-51736239D01*
X77552754Y-51746243D01*
X77615194Y-51938414D01*
X77618444Y-51948414D01*
X77714951Y-52137820D01*
X77839890Y-52309786D01*
X77990213Y-52460109D01*
X78162182Y-52585050D01*
X78170946Y-52589516D01*
X78221742Y-52637491D01*
X78238536Y-52705312D01*
X78215998Y-52771447D01*
X78170946Y-52810484D01*
X78162182Y-52814949D01*
X77990213Y-52939890D01*
X77839890Y-53090213D01*
X77714951Y-53262179D01*
X77618444Y-53451585D01*
X77618443Y-53451587D01*
X77618443Y-53451588D01*
X77597823Y-53515050D01*
X77552753Y-53653760D01*
X77519500Y-53863713D01*
X77519500Y-54076286D01*
X77551169Y-54276239D01*
X77552754Y-54286243D01*
X77615194Y-54478414D01*
X77618444Y-54488414D01*
X77714951Y-54677820D01*
X77839890Y-54849786D01*
X77990213Y-55000109D01*
X78162179Y-55125048D01*
X78162181Y-55125049D01*
X78162184Y-55125051D01*
X78351588Y-55221557D01*
X78553757Y-55287246D01*
X78763713Y-55320500D01*
X78763714Y-55320500D01*
X78976286Y-55320500D01*
X78976287Y-55320500D01*
X79186243Y-55287246D01*
X79388412Y-55221557D01*
X79577816Y-55125051D01*
X79646640Y-55075048D01*
X79749786Y-55000109D01*
X79749788Y-55000106D01*
X79749792Y-55000104D01*
X79900104Y-54849792D01*
X79900106Y-54849788D01*
X79900109Y-54849786D01*
X80025048Y-54677820D01*
X80025047Y-54677820D01*
X80025051Y-54677816D01*
X80121557Y-54488412D01*
X80187246Y-54286243D01*
X80220500Y-54076287D01*
X80220500Y-53863713D01*
X80187246Y-53653757D01*
X80121557Y-53451588D01*
X80025051Y-53262184D01*
X80025049Y-53262181D01*
X80025048Y-53262179D01*
X79900109Y-53090213D01*
X79749786Y-52939890D01*
X79577820Y-52814951D01*
X79577115Y-52814591D01*
X79569054Y-52810485D01*
X79518259Y-52762512D01*
X79501463Y-52694692D01*
X79523999Y-52628556D01*
X79569054Y-52589515D01*
X79577816Y-52585051D01*
X79667714Y-52519737D01*
X79749786Y-52460109D01*
X79749788Y-52460106D01*
X79749792Y-52460104D01*
X79900104Y-52309792D01*
X79900106Y-52309788D01*
X79900109Y-52309786D01*
X80025048Y-52137820D01*
X80025047Y-52137820D01*
X80025051Y-52137816D01*
X80121557Y-51948412D01*
X80187246Y-51746243D01*
X80220500Y-51536287D01*
X80220500Y-51323713D01*
X80187246Y-51113757D01*
X80121557Y-50911588D01*
X80025051Y-50722184D01*
X80025049Y-50722181D01*
X80025048Y-50722179D01*
X79900109Y-50550213D01*
X79749786Y-50399890D01*
X79577817Y-50274949D01*
X79568504Y-50270204D01*
X79517707Y-50222230D01*
X79500912Y-50154409D01*
X79523449Y-50088274D01*
X79568507Y-50049232D01*
X79577555Y-50044622D01*
X79631716Y-50005270D01*
X79631717Y-50005270D01*
X78999408Y-49372962D01*
X79062993Y-49355925D01*
X79177007Y-49290099D01*
X79270099Y-49197007D01*
X79335925Y-49082993D01*
X79352962Y-49019408D01*
X79985270Y-49651717D01*
X79985270Y-49651716D01*
X80024622Y-49597554D01*
X80121095Y-49408217D01*
X80186757Y-49206130D01*
X80186757Y-49206127D01*
X80220000Y-48996246D01*
X80220000Y-48783752D01*
X80219999Y-48783751D01*
X80186757Y-48573872D01*
X80186757Y-48573869D01*
X80121095Y-48371782D01*
X80024624Y-48182449D01*
X79985270Y-48128282D01*
X79985269Y-48128282D01*
X79352962Y-48760590D01*
X79335925Y-48697007D01*
X79270099Y-48582993D01*
X79177007Y-48489901D01*
X79062993Y-48424075D01*
X78999409Y-48407037D01*
X79669627Y-47736818D01*
X79730950Y-47703333D01*
X79757307Y-47700499D01*
X79767872Y-47700499D01*
X79827483Y-47694091D01*
X79962331Y-47643796D01*
X80077546Y-47557546D01*
X80163796Y-47442331D01*
X80214091Y-47307483D01*
X80220500Y-47247873D01*
X80220499Y-45452128D01*
X80220007Y-45447554D01*
X80219424Y-45442135D01*
X81449500Y-45442135D01*
X81449500Y-47237870D01*
X81449501Y-47237876D01*
X81455908Y-47297483D01*
X81506202Y-47432328D01*
X81506206Y-47432335D01*
X81592452Y-47547544D01*
X81592455Y-47547547D01*
X81707664Y-47633793D01*
X81707671Y-47633797D01*
X81720337Y-47638521D01*
X81842517Y-47684091D01*
X81902127Y-47690500D01*
X81912685Y-47690499D01*
X81979723Y-47710179D01*
X82000372Y-47726818D01*
X82670591Y-48397037D01*
X82607007Y-48414075D01*
X82492993Y-48479901D01*
X82399901Y-48572993D01*
X82334075Y-48687007D01*
X82317037Y-48750591D01*
X81684728Y-48118282D01*
X81684727Y-48118282D01*
X81645380Y-48172439D01*
X81548904Y-48361782D01*
X81483242Y-48563869D01*
X81483242Y-48563872D01*
X81450000Y-48773753D01*
X81450000Y-48986246D01*
X81483242Y-49196127D01*
X81483242Y-49196130D01*
X81548904Y-49398217D01*
X81645375Y-49587550D01*
X81684728Y-49641716D01*
X82317037Y-49009408D01*
X82334075Y-49072993D01*
X82399901Y-49187007D01*
X82492993Y-49280099D01*
X82607007Y-49345925D01*
X82670590Y-49362962D01*
X82038282Y-49995269D01*
X82038282Y-49995270D01*
X82092452Y-50034626D01*
X82092451Y-50034626D01*
X82101495Y-50039234D01*
X82152292Y-50087208D01*
X82169087Y-50155029D01*
X82146550Y-50221164D01*
X82101499Y-50260202D01*
X82092182Y-50264949D01*
X81920213Y-50389890D01*
X81769890Y-50540213D01*
X81644951Y-50712179D01*
X81548444Y-50901585D01*
X81482753Y-51103760D01*
X81449500Y-51313713D01*
X81449500Y-51526286D01*
X81476418Y-51696244D01*
X81482754Y-51736243D01*
X81523481Y-51861588D01*
X81548444Y-51938414D01*
X81644951Y-52127820D01*
X81769890Y-52299786D01*
X81920213Y-52450109D01*
X82092182Y-52575050D01*
X82100946Y-52579516D01*
X82151742Y-52627491D01*
X82168536Y-52695312D01*
X82145998Y-52761447D01*
X82100946Y-52800484D01*
X82092182Y-52804949D01*
X81920213Y-52929890D01*
X81769890Y-53080213D01*
X81644951Y-53252179D01*
X81548444Y-53441585D01*
X81548443Y-53441587D01*
X81548443Y-53441588D01*
X81535219Y-53482288D01*
X81482753Y-53643760D01*
X81449500Y-53853713D01*
X81449500Y-54066286D01*
X81482329Y-54273565D01*
X81482754Y-54276243D01*
X81486003Y-54286243D01*
X81548444Y-54478414D01*
X81644951Y-54667820D01*
X81769890Y-54839786D01*
X81920213Y-54990109D01*
X82092179Y-55115048D01*
X82092181Y-55115049D01*
X82092184Y-55115051D01*
X82281588Y-55211557D01*
X82483757Y-55277246D01*
X82693713Y-55310500D01*
X82693714Y-55310500D01*
X82906286Y-55310500D01*
X82906287Y-55310500D01*
X83116243Y-55277246D01*
X83318412Y-55211557D01*
X83507816Y-55115051D01*
X83562876Y-55075048D01*
X83679786Y-54990109D01*
X83679788Y-54990106D01*
X83679792Y-54990104D01*
X83830104Y-54839792D01*
X83830106Y-54839788D01*
X83830109Y-54839786D01*
X83955048Y-54667820D01*
X83955047Y-54667820D01*
X83955051Y-54667816D01*
X84051557Y-54478412D01*
X84117246Y-54276243D01*
X84150500Y-54066287D01*
X84150500Y-53853713D01*
X84117246Y-53643757D01*
X84051557Y-53441588D01*
X83955051Y-53252184D01*
X83955049Y-53252181D01*
X83955048Y-53252179D01*
X83830109Y-53080213D01*
X83679786Y-52929890D01*
X83507820Y-52804951D01*
X83507115Y-52804591D01*
X83499054Y-52800485D01*
X83448259Y-52752512D01*
X83431463Y-52684692D01*
X83453999Y-52618556D01*
X83499054Y-52579515D01*
X83507816Y-52575051D01*
X83583950Y-52519737D01*
X83679786Y-52450109D01*
X83679788Y-52450106D01*
X83679792Y-52450104D01*
X83830104Y-52299792D01*
X83830106Y-52299788D01*
X83830109Y-52299786D01*
X83955048Y-52127820D01*
X83955047Y-52127820D01*
X83955051Y-52127816D01*
X84051557Y-51938412D01*
X84117246Y-51736243D01*
X84150500Y-51526287D01*
X84150500Y-51313713D01*
X84117246Y-51103757D01*
X84051557Y-50901588D01*
X83955051Y-50712184D01*
X83955049Y-50712181D01*
X83955048Y-50712179D01*
X83830109Y-50540213D01*
X83679786Y-50389890D01*
X83507817Y-50264949D01*
X83498504Y-50260204D01*
X83447707Y-50212230D01*
X83430912Y-50144409D01*
X83453449Y-50078274D01*
X83498507Y-50039232D01*
X83507555Y-50034622D01*
X83561716Y-49995270D01*
X83561717Y-49995270D01*
X82929408Y-49362962D01*
X82992993Y-49345925D01*
X83107007Y-49280099D01*
X83200099Y-49187007D01*
X83265925Y-49072993D01*
X83282962Y-49009408D01*
X83915270Y-49641717D01*
X83915270Y-49641716D01*
X83954622Y-49587554D01*
X84051095Y-49398217D01*
X84116757Y-49196130D01*
X84116757Y-49196127D01*
X84150000Y-48986246D01*
X84150000Y-48773753D01*
X84116757Y-48563872D01*
X84116757Y-48563869D01*
X84051095Y-48361782D01*
X83954624Y-48172449D01*
X83915270Y-48118282D01*
X83915269Y-48118282D01*
X83282962Y-48750590D01*
X83265925Y-48687007D01*
X83200099Y-48572993D01*
X83107007Y-48479901D01*
X82992993Y-48414075D01*
X82929409Y-48397037D01*
X83599627Y-47726818D01*
X83660950Y-47693333D01*
X83687307Y-47690499D01*
X83697872Y-47690499D01*
X83757483Y-47684091D01*
X83892331Y-47633796D01*
X84007546Y-47547546D01*
X84093796Y-47432331D01*
X84144091Y-47297483D01*
X84150500Y-47237873D01*
X84150499Y-45442135D01*
X85379500Y-45442135D01*
X85379500Y-47237870D01*
X85379501Y-47237876D01*
X85385908Y-47297483D01*
X85436202Y-47432328D01*
X85436206Y-47432335D01*
X85522452Y-47547544D01*
X85522455Y-47547547D01*
X85637664Y-47633793D01*
X85637671Y-47633797D01*
X85650337Y-47638521D01*
X85772517Y-47684091D01*
X85832127Y-47690500D01*
X85842685Y-47690499D01*
X85909723Y-47710179D01*
X85930372Y-47726818D01*
X86600591Y-48397037D01*
X86537007Y-48414075D01*
X86422993Y-48479901D01*
X86329901Y-48572993D01*
X86264075Y-48687007D01*
X86247037Y-48750591D01*
X85614728Y-48118282D01*
X85614727Y-48118282D01*
X85575380Y-48172439D01*
X85478904Y-48361782D01*
X85413242Y-48563869D01*
X85413242Y-48563872D01*
X85380000Y-48773753D01*
X85380000Y-48986246D01*
X85413242Y-49196127D01*
X85413242Y-49196130D01*
X85478904Y-49398217D01*
X85575375Y-49587550D01*
X85614728Y-49641716D01*
X86247037Y-49009408D01*
X86264075Y-49072993D01*
X86329901Y-49187007D01*
X86422993Y-49280099D01*
X86537007Y-49345925D01*
X86600590Y-49362962D01*
X85968282Y-49995269D01*
X85968282Y-49995270D01*
X86022452Y-50034626D01*
X86022451Y-50034626D01*
X86031495Y-50039234D01*
X86082292Y-50087208D01*
X86099087Y-50155029D01*
X86076550Y-50221164D01*
X86031499Y-50260202D01*
X86022182Y-50264949D01*
X85850213Y-50389890D01*
X85699890Y-50540213D01*
X85574951Y-50712179D01*
X85478444Y-50901585D01*
X85412753Y-51103760D01*
X85379500Y-51313713D01*
X85379500Y-51526286D01*
X85406418Y-51696244D01*
X85412754Y-51736243D01*
X85453481Y-51861588D01*
X85478444Y-51938414D01*
X85574951Y-52127820D01*
X85699890Y-52299786D01*
X85850213Y-52450109D01*
X86022182Y-52575050D01*
X86030946Y-52579516D01*
X86081742Y-52627491D01*
X86098536Y-52695312D01*
X86075998Y-52761447D01*
X86030946Y-52800484D01*
X86022182Y-52804949D01*
X85850213Y-52929890D01*
X85699890Y-53080213D01*
X85574951Y-53252179D01*
X85478444Y-53441585D01*
X85478443Y-53441587D01*
X85478443Y-53441588D01*
X85465219Y-53482288D01*
X85412753Y-53643760D01*
X85379500Y-53853713D01*
X85379500Y-54066286D01*
X85412329Y-54273565D01*
X85412754Y-54276243D01*
X85416003Y-54286243D01*
X85478444Y-54478414D01*
X85574951Y-54667820D01*
X85699890Y-54839786D01*
X85850213Y-54990109D01*
X86022179Y-55115048D01*
X86022181Y-55115049D01*
X86022184Y-55115051D01*
X86211588Y-55211557D01*
X86413757Y-55277246D01*
X86623713Y-55310500D01*
X86623714Y-55310500D01*
X86836286Y-55310500D01*
X86836287Y-55310500D01*
X87046243Y-55277246D01*
X87248412Y-55211557D01*
X87437816Y-55115051D01*
X87492876Y-55075048D01*
X87609786Y-54990109D01*
X87609788Y-54990106D01*
X87609792Y-54990104D01*
X87760104Y-54839792D01*
X87760106Y-54839788D01*
X87760109Y-54839786D01*
X87885048Y-54667820D01*
X87885047Y-54667820D01*
X87885051Y-54667816D01*
X87981557Y-54478412D01*
X88047246Y-54276243D01*
X88080500Y-54066287D01*
X88080500Y-53853713D01*
X88047246Y-53643757D01*
X87981557Y-53441588D01*
X87885051Y-53252184D01*
X87885049Y-53252181D01*
X87885048Y-53252179D01*
X87760109Y-53080213D01*
X87609786Y-52929890D01*
X87437820Y-52804951D01*
X87437115Y-52804591D01*
X87429054Y-52800485D01*
X87378259Y-52752512D01*
X87361463Y-52684692D01*
X87383999Y-52618556D01*
X87429054Y-52579515D01*
X87437816Y-52575051D01*
X87513950Y-52519737D01*
X87609786Y-52450109D01*
X87609788Y-52450106D01*
X87609792Y-52450104D01*
X87760104Y-52299792D01*
X87760106Y-52299788D01*
X87760109Y-52299786D01*
X87885048Y-52127820D01*
X87885047Y-52127820D01*
X87885051Y-52127816D01*
X87981557Y-51938412D01*
X88047246Y-51736243D01*
X88080500Y-51526287D01*
X88080500Y-51313713D01*
X88047246Y-51103757D01*
X87981557Y-50901588D01*
X87885051Y-50712184D01*
X87885049Y-50712181D01*
X87885048Y-50712179D01*
X87760109Y-50540213D01*
X87609786Y-50389890D01*
X87437817Y-50264949D01*
X87428504Y-50260204D01*
X87377707Y-50212230D01*
X87360912Y-50144409D01*
X87383449Y-50078274D01*
X87428507Y-50039232D01*
X87437555Y-50034622D01*
X87491716Y-49995270D01*
X87491717Y-49995270D01*
X86859408Y-49362962D01*
X86922993Y-49345925D01*
X87037007Y-49280099D01*
X87130099Y-49187007D01*
X87195925Y-49072993D01*
X87212962Y-49009409D01*
X87845270Y-49641717D01*
X87845270Y-49641716D01*
X87884622Y-49587554D01*
X87981095Y-49398217D01*
X88046757Y-49196130D01*
X88046757Y-49196127D01*
X88080000Y-48986246D01*
X88080000Y-48773755D01*
X88075965Y-48748280D01*
X88075965Y-48748279D01*
X88046757Y-48563872D01*
X88046757Y-48563869D01*
X87981095Y-48361782D01*
X87884624Y-48172449D01*
X87845270Y-48118282D01*
X87845269Y-48118282D01*
X87212962Y-48750590D01*
X87195925Y-48687007D01*
X87130099Y-48572993D01*
X87037007Y-48479901D01*
X86922993Y-48414075D01*
X86859409Y-48397037D01*
X87529627Y-47726818D01*
X87590950Y-47693333D01*
X87617307Y-47690499D01*
X87627872Y-47690499D01*
X87687483Y-47684091D01*
X87822331Y-47633796D01*
X87937546Y-47547546D01*
X88023796Y-47432331D01*
X88074091Y-47297483D01*
X88080500Y-47237873D01*
X88080499Y-45442128D01*
X88074091Y-45382517D01*
X88026433Y-45254738D01*
X88023797Y-45247671D01*
X88023793Y-45247664D01*
X87937547Y-45132455D01*
X87937544Y-45132452D01*
X87822335Y-45046206D01*
X87822328Y-45046202D01*
X87687482Y-44995908D01*
X87687483Y-44995908D01*
X87627883Y-44989501D01*
X87627881Y-44989500D01*
X87627873Y-44989500D01*
X87627864Y-44989500D01*
X85832129Y-44989500D01*
X85832123Y-44989501D01*
X85772516Y-44995908D01*
X85637671Y-45046202D01*
X85637664Y-45046206D01*
X85522455Y-45132452D01*
X85522452Y-45132455D01*
X85436206Y-45247664D01*
X85436202Y-45247671D01*
X85385908Y-45382517D01*
X85379501Y-45442116D01*
X85379501Y-45442123D01*
X85379500Y-45442135D01*
X84150499Y-45442135D01*
X84150499Y-45442128D01*
X84144091Y-45382517D01*
X84096430Y-45254732D01*
X84093797Y-45247671D01*
X84093793Y-45247664D01*
X84007547Y-45132455D01*
X84007544Y-45132452D01*
X83892335Y-45046206D01*
X83892328Y-45046202D01*
X83757482Y-44995908D01*
X83757483Y-44995908D01*
X83697883Y-44989501D01*
X83697881Y-44989500D01*
X83697873Y-44989500D01*
X83697864Y-44989500D01*
X81902129Y-44989500D01*
X81902123Y-44989501D01*
X81842516Y-44995908D01*
X81707671Y-45046202D01*
X81707664Y-45046206D01*
X81592455Y-45132452D01*
X81592452Y-45132455D01*
X81506206Y-45247664D01*
X81506202Y-45247671D01*
X81455908Y-45382517D01*
X81449501Y-45442116D01*
X81449501Y-45442123D01*
X81449500Y-45442135D01*
X80219424Y-45442135D01*
X80218562Y-45434116D01*
X80214091Y-45392517D01*
X80178298Y-45296552D01*
X80163797Y-45257671D01*
X80163793Y-45257664D01*
X80077547Y-45142455D01*
X80077544Y-45142452D01*
X79962335Y-45056206D01*
X79962328Y-45056202D01*
X79827482Y-45005908D01*
X79827483Y-45005908D01*
X79767883Y-44999501D01*
X79767881Y-44999500D01*
X79767873Y-44999500D01*
X79767864Y-44999500D01*
X77972129Y-44999500D01*
X77972123Y-44999501D01*
X77912516Y-45005908D01*
X77777671Y-45056202D01*
X77777664Y-45056206D01*
X77662455Y-45142452D01*
X77662452Y-45142455D01*
X77576206Y-45257664D01*
X77576202Y-45257671D01*
X77525908Y-45392517D01*
X77519501Y-45452116D01*
X77519500Y-45452135D01*
X68945952Y-45452135D01*
X69077853Y-45254732D01*
X69249247Y-44934076D01*
X69329143Y-44741187D01*
X69372981Y-44686787D01*
X69439275Y-44664722D01*
X69439763Y-44664706D01*
X122859419Y-43165791D01*
X122926981Y-43183587D01*
G37*
%TD.AperFunction*%
%TA.AperFunction,Conductor*%
G36*
X130537511Y-42970042D02*
G01*
X130584729Y-43021542D01*
X130584974Y-43022043D01*
X138473444Y-59271346D01*
X138485013Y-59340252D01*
X138457493Y-59404473D01*
X138399621Y-59443621D01*
X138361894Y-59449500D01*
X137360097Y-59449500D01*
X137293058Y-59429815D01*
X137272416Y-59413181D01*
X125623757Y-47764522D01*
X125590272Y-47703199D01*
X125593507Y-47638523D01*
X125607246Y-47596243D01*
X125640500Y-47386287D01*
X125640500Y-47173713D01*
X125607246Y-46963757D01*
X125541557Y-46761588D01*
X125445051Y-46572184D01*
X125445049Y-46572181D01*
X125445048Y-46572179D01*
X125320109Y-46400213D01*
X125169786Y-46249890D01*
X124997817Y-46124949D01*
X124988504Y-46120204D01*
X124937707Y-46072230D01*
X124920912Y-46004409D01*
X124943449Y-45938274D01*
X124988507Y-45899232D01*
X124997555Y-45894622D01*
X125051716Y-45855270D01*
X125051717Y-45855270D01*
X124419408Y-45222962D01*
X124482993Y-45205925D01*
X124597007Y-45140099D01*
X124690099Y-45047007D01*
X124755925Y-44932993D01*
X124772962Y-44869408D01*
X125405270Y-45501717D01*
X125405270Y-45501716D01*
X125444622Y-45447554D01*
X125541095Y-45258217D01*
X125606757Y-45056130D01*
X125606757Y-45056127D01*
X125640000Y-44846246D01*
X125640000Y-44633753D01*
X125606757Y-44423872D01*
X125606757Y-44423869D01*
X125541095Y-44221782D01*
X125444624Y-44032449D01*
X125405270Y-43978282D01*
X125405269Y-43978282D01*
X124772962Y-44610590D01*
X124755925Y-44547007D01*
X124690099Y-44432993D01*
X124597007Y-44339901D01*
X124482993Y-44274075D01*
X124419409Y-44257037D01*
X125089627Y-43586818D01*
X125150950Y-43553333D01*
X125177307Y-43550499D01*
X125187872Y-43550499D01*
X125247483Y-43544091D01*
X125382331Y-43493796D01*
X125497546Y-43407546D01*
X125583796Y-43292331D01*
X125631110Y-43165474D01*
X125672981Y-43109542D01*
X125738445Y-43085124D01*
X125743772Y-43084859D01*
X130469946Y-42952246D01*
X130537511Y-42970042D01*
G37*
%TD.AperFunction*%
%TD*%
%TA.AperFunction,Conductor*%
%TO.N,+5V*%
G36*
X119416614Y-84696095D02*
G01*
X119472547Y-84737967D01*
X119496964Y-84803431D01*
X119497280Y-84812277D01*
X119497280Y-84853680D01*
X120281594Y-84853680D01*
X120277200Y-84858074D01*
X120224539Y-84949286D01*
X120197280Y-85051019D01*
X120197280Y-85156341D01*
X120224539Y-85258074D01*
X120277200Y-85349286D01*
X120281594Y-85353680D01*
X119497280Y-85353680D01*
X119497280Y-85590251D01*
X119524365Y-85761264D01*
X119577871Y-85925937D01*
X119656475Y-86080204D01*
X119758247Y-86220282D01*
X119880677Y-86342712D01*
X120020755Y-86444484D01*
X120175024Y-86523088D01*
X120339695Y-86576594D01*
X120339694Y-86576594D01*
X120347279Y-86577795D01*
X120347280Y-86577794D01*
X120347280Y-85419366D01*
X120351674Y-85423760D01*
X120442886Y-85476421D01*
X120544619Y-85503680D01*
X120649941Y-85503680D01*
X120751674Y-85476421D01*
X120842886Y-85423760D01*
X120847280Y-85419366D01*
X120847280Y-86577795D01*
X120854864Y-86576594D01*
X121019535Y-86523088D01*
X121173804Y-86444484D01*
X121313882Y-86342712D01*
X121436312Y-86220282D01*
X121538084Y-86080204D01*
X121597578Y-85963442D01*
X121645553Y-85912646D01*
X121713374Y-85895851D01*
X121779509Y-85918389D01*
X121821547Y-85969763D01*
X123200000Y-89100000D01*
X152232592Y-90892750D01*
X152298291Y-90916529D01*
X152340705Y-90972052D01*
X152348945Y-91017626D01*
X152251126Y-101924351D01*
X152230841Y-101991211D01*
X152177629Y-102036491D01*
X152124376Y-102047208D01*
X109620756Y-101102683D01*
X109554171Y-101081514D01*
X109509600Y-101027707D01*
X109499512Y-100979218D01*
X109463482Y-92043713D01*
X112449500Y-92043713D01*
X112449500Y-92256287D01*
X112482754Y-92466243D01*
X112489252Y-92486243D01*
X112548444Y-92668414D01*
X112644951Y-92857820D01*
X112769890Y-93029786D01*
X112920213Y-93180109D01*
X113092179Y-93305048D01*
X113092181Y-93305049D01*
X113092184Y-93305051D01*
X113101493Y-93309794D01*
X113152290Y-93357766D01*
X113169087Y-93425587D01*
X113146552Y-93491722D01*
X113101505Y-93530760D01*
X113092446Y-93535376D01*
X113092440Y-93535380D01*
X113038282Y-93574727D01*
X113038282Y-93574728D01*
X113670591Y-94207037D01*
X113607007Y-94224075D01*
X113492993Y-94289901D01*
X113399901Y-94382993D01*
X113334075Y-94497007D01*
X113317037Y-94560591D01*
X112684728Y-93928282D01*
X112684727Y-93928282D01*
X112645380Y-93982439D01*
X112548904Y-94171782D01*
X112483242Y-94373869D01*
X112483242Y-94373872D01*
X112450000Y-94583753D01*
X112450000Y-94796246D01*
X112483242Y-95006127D01*
X112483242Y-95006130D01*
X112548904Y-95208217D01*
X112645375Y-95397550D01*
X112684728Y-95451716D01*
X113317037Y-94819408D01*
X113334075Y-94882993D01*
X113399901Y-94997007D01*
X113492993Y-95090099D01*
X113607007Y-95155925D01*
X113670590Y-95172962D01*
X113000370Y-95843181D01*
X112939047Y-95876666D01*
X112912698Y-95879500D01*
X112902134Y-95879500D01*
X112902123Y-95879501D01*
X112842516Y-95885908D01*
X112707671Y-95936202D01*
X112707664Y-95936206D01*
X112592455Y-96022452D01*
X112592452Y-96022455D01*
X112506206Y-96137664D01*
X112506202Y-96137671D01*
X112455908Y-96272517D01*
X112449501Y-96332116D01*
X112449501Y-96332123D01*
X112449500Y-96332135D01*
X112449500Y-98127870D01*
X112449501Y-98127876D01*
X112455908Y-98187483D01*
X112506202Y-98322328D01*
X112506206Y-98322335D01*
X112592452Y-98437544D01*
X112592455Y-98437547D01*
X112707664Y-98523793D01*
X112707671Y-98523797D01*
X112842517Y-98574091D01*
X112842516Y-98574091D01*
X112849444Y-98574835D01*
X112902127Y-98580500D01*
X114697872Y-98580499D01*
X114757483Y-98574091D01*
X114892331Y-98523796D01*
X115007546Y-98437546D01*
X115093796Y-98322331D01*
X115144091Y-98187483D01*
X115150500Y-98127873D01*
X115150499Y-96332128D01*
X115144091Y-96272517D01*
X115101256Y-96157671D01*
X115093797Y-96137671D01*
X115093793Y-96137664D01*
X115007547Y-96022455D01*
X115007544Y-96022452D01*
X114892335Y-95936206D01*
X114892328Y-95936202D01*
X114757482Y-95885908D01*
X114757483Y-95885908D01*
X114697883Y-95879501D01*
X114697881Y-95879500D01*
X114697873Y-95879500D01*
X114697865Y-95879500D01*
X114687309Y-95879500D01*
X114620270Y-95859815D01*
X114599628Y-95843181D01*
X113929408Y-95172962D01*
X113992993Y-95155925D01*
X114107007Y-95090099D01*
X114200099Y-94997007D01*
X114265925Y-94882993D01*
X114282962Y-94819409D01*
X114915270Y-95451717D01*
X114915270Y-95451716D01*
X114954622Y-95397554D01*
X115051095Y-95208217D01*
X115116757Y-95006130D01*
X115116757Y-95006127D01*
X115150000Y-94796246D01*
X115150000Y-94583753D01*
X115116757Y-94373872D01*
X115116757Y-94373869D01*
X115051095Y-94171782D01*
X114954624Y-93982449D01*
X114915270Y-93928282D01*
X114915269Y-93928282D01*
X114282962Y-94560590D01*
X114265925Y-94497007D01*
X114200099Y-94382993D01*
X114107007Y-94289901D01*
X113992993Y-94224075D01*
X113929409Y-94207037D01*
X114561716Y-93574728D01*
X114507547Y-93535373D01*
X114507547Y-93535372D01*
X114498500Y-93530763D01*
X114447706Y-93482788D01*
X114430912Y-93414966D01*
X114453451Y-93348832D01*
X114498508Y-93309793D01*
X114507816Y-93305051D01*
X114587007Y-93247515D01*
X114679786Y-93180109D01*
X114679788Y-93180106D01*
X114679792Y-93180104D01*
X114830104Y-93029792D01*
X114830106Y-93029788D01*
X114830109Y-93029786D01*
X114955048Y-92857820D01*
X114955047Y-92857820D01*
X114955051Y-92857816D01*
X115051557Y-92668412D01*
X115117246Y-92466243D01*
X115150500Y-92256287D01*
X115150500Y-92063713D01*
X116389500Y-92063713D01*
X116389500Y-92276286D01*
X116421169Y-92476239D01*
X116422754Y-92486243D01*
X116485194Y-92678414D01*
X116488444Y-92688414D01*
X116584951Y-92877820D01*
X116709890Y-93049786D01*
X116860213Y-93200109D01*
X117032179Y-93325048D01*
X117032181Y-93325049D01*
X117032184Y-93325051D01*
X117041493Y-93329794D01*
X117092290Y-93377766D01*
X117109087Y-93445587D01*
X117086552Y-93511722D01*
X117041505Y-93550760D01*
X117032446Y-93555376D01*
X117032440Y-93555380D01*
X116978282Y-93594727D01*
X116978282Y-93594728D01*
X117610591Y-94227037D01*
X117547007Y-94244075D01*
X117432993Y-94309901D01*
X117339901Y-94402993D01*
X117274075Y-94517007D01*
X117257037Y-94580591D01*
X116624728Y-93948282D01*
X116624727Y-93948282D01*
X116585380Y-94002439D01*
X116488904Y-94191782D01*
X116423242Y-94393869D01*
X116423242Y-94393872D01*
X116390000Y-94603753D01*
X116390000Y-94816246D01*
X116423242Y-95026127D01*
X116423242Y-95026130D01*
X116488904Y-95228217D01*
X116585375Y-95417550D01*
X116624728Y-95471716D01*
X117257037Y-94839408D01*
X117274075Y-94902993D01*
X117339901Y-95017007D01*
X117432993Y-95110099D01*
X117547007Y-95175925D01*
X117610590Y-95192962D01*
X116940370Y-95863181D01*
X116879047Y-95896666D01*
X116852698Y-95899500D01*
X116842134Y-95899500D01*
X116842123Y-95899501D01*
X116782516Y-95905908D01*
X116647671Y-95956202D01*
X116647664Y-95956206D01*
X116532455Y-96042452D01*
X116532452Y-96042455D01*
X116446206Y-96157664D01*
X116446202Y-96157671D01*
X116395908Y-96292517D01*
X116389501Y-96352116D01*
X116389500Y-96352135D01*
X116389500Y-98147870D01*
X116389501Y-98147876D01*
X116395908Y-98207483D01*
X116446202Y-98342328D01*
X116446206Y-98342335D01*
X116532452Y-98457544D01*
X116532455Y-98457547D01*
X116647664Y-98543793D01*
X116647671Y-98543797D01*
X116782517Y-98594091D01*
X116782516Y-98594091D01*
X116789444Y-98594835D01*
X116842127Y-98600500D01*
X118637872Y-98600499D01*
X118697483Y-98594091D01*
X118832331Y-98543796D01*
X118947546Y-98457546D01*
X119033796Y-98342331D01*
X119084091Y-98207483D01*
X119090500Y-98147873D01*
X119090499Y-96352128D01*
X119089425Y-96342135D01*
X119089417Y-96342057D01*
X119087271Y-96322107D01*
X119084091Y-96292517D01*
X119033796Y-96157669D01*
X119033795Y-96157668D01*
X119033793Y-96157664D01*
X118947547Y-96042455D01*
X118947544Y-96042452D01*
X118832335Y-95956206D01*
X118832328Y-95956202D01*
X118697482Y-95905908D01*
X118697483Y-95905908D01*
X118637883Y-95899501D01*
X118637881Y-95899500D01*
X118637873Y-95899500D01*
X118637865Y-95899500D01*
X118627309Y-95899500D01*
X118560270Y-95879815D01*
X118539628Y-95863181D01*
X117869408Y-95192962D01*
X117932993Y-95175925D01*
X118047007Y-95110099D01*
X118140099Y-95017007D01*
X118205925Y-94902993D01*
X118222962Y-94839408D01*
X118855270Y-95471717D01*
X118855270Y-95471716D01*
X118894622Y-95417554D01*
X118991095Y-95228217D01*
X119056757Y-95026130D01*
X119056757Y-95026127D01*
X119090000Y-94816246D01*
X119090000Y-94603757D01*
X119089132Y-94598277D01*
X119089132Y-94598274D01*
X119056757Y-94393872D01*
X119056757Y-94393869D01*
X118991095Y-94191782D01*
X118894624Y-94002449D01*
X118855270Y-93948282D01*
X118855269Y-93948282D01*
X118222962Y-94580590D01*
X118205925Y-94517007D01*
X118140099Y-94402993D01*
X118047007Y-94309901D01*
X117932993Y-94244075D01*
X117869409Y-94227037D01*
X118501716Y-93594728D01*
X118447547Y-93555373D01*
X118447547Y-93555372D01*
X118438500Y-93550763D01*
X118387706Y-93502788D01*
X118370912Y-93434966D01*
X118393451Y-93368832D01*
X118438508Y-93329793D01*
X118447816Y-93325051D01*
X118527007Y-93267515D01*
X118619786Y-93200109D01*
X118619788Y-93200106D01*
X118619792Y-93200104D01*
X118770104Y-93049792D01*
X118770106Y-93049788D01*
X118770109Y-93049786D01*
X118895048Y-92877820D01*
X118895047Y-92877820D01*
X118895051Y-92877816D01*
X118991557Y-92688412D01*
X119057246Y-92486243D01*
X119090500Y-92276287D01*
X119090500Y-92063713D01*
X119087332Y-92043713D01*
X120419500Y-92043713D01*
X120419500Y-92256287D01*
X120452754Y-92466243D01*
X120459252Y-92486243D01*
X120518444Y-92668414D01*
X120614951Y-92857820D01*
X120739890Y-93029786D01*
X120890213Y-93180109D01*
X121062179Y-93305048D01*
X121062181Y-93305049D01*
X121062184Y-93305051D01*
X121071493Y-93309794D01*
X121122290Y-93357766D01*
X121139087Y-93425587D01*
X121116552Y-93491722D01*
X121071505Y-93530760D01*
X121062446Y-93535376D01*
X121062440Y-93535380D01*
X121008282Y-93574727D01*
X121008282Y-93574728D01*
X121640591Y-94207037D01*
X121577007Y-94224075D01*
X121462993Y-94289901D01*
X121369901Y-94382993D01*
X121304075Y-94497007D01*
X121287037Y-94560591D01*
X120654728Y-93928282D01*
X120654727Y-93928282D01*
X120615380Y-93982439D01*
X120518904Y-94171782D01*
X120453242Y-94373869D01*
X120453242Y-94373872D01*
X120420000Y-94583753D01*
X120420000Y-94796246D01*
X120453242Y-95006127D01*
X120453242Y-95006130D01*
X120518904Y-95208217D01*
X120615375Y-95397550D01*
X120654728Y-95451716D01*
X121287036Y-94819407D01*
X121304075Y-94882993D01*
X121369901Y-94997007D01*
X121462993Y-95090099D01*
X121577007Y-95155925D01*
X121640590Y-95172962D01*
X120970370Y-95843181D01*
X120909047Y-95876666D01*
X120882698Y-95879500D01*
X120872134Y-95879500D01*
X120872123Y-95879501D01*
X120812516Y-95885908D01*
X120677671Y-95936202D01*
X120677664Y-95936206D01*
X120562455Y-96022452D01*
X120562452Y-96022455D01*
X120476206Y-96137664D01*
X120476202Y-96137671D01*
X120425908Y-96272517D01*
X120419501Y-96332116D01*
X120419501Y-96332123D01*
X120419500Y-96332135D01*
X120419500Y-98127870D01*
X120419501Y-98127876D01*
X120425908Y-98187483D01*
X120476202Y-98322328D01*
X120476206Y-98322335D01*
X120562452Y-98437544D01*
X120562455Y-98437547D01*
X120677664Y-98523793D01*
X120677671Y-98523797D01*
X120812517Y-98574091D01*
X120812516Y-98574091D01*
X120819444Y-98574835D01*
X120872127Y-98580500D01*
X122667872Y-98580499D01*
X122727483Y-98574091D01*
X122862331Y-98523796D01*
X122977546Y-98437546D01*
X123063796Y-98322331D01*
X123114091Y-98187483D01*
X123120500Y-98127873D01*
X123120499Y-96332128D01*
X123114091Y-96272517D01*
X123071256Y-96157671D01*
X123063797Y-96137671D01*
X123063793Y-96137664D01*
X122977547Y-96022455D01*
X122977544Y-96022452D01*
X122862335Y-95936206D01*
X122862328Y-95936202D01*
X122727482Y-95885908D01*
X122727483Y-95885908D01*
X122667883Y-95879501D01*
X122667881Y-95879500D01*
X122667873Y-95879500D01*
X122667865Y-95879500D01*
X122657309Y-95879500D01*
X122590270Y-95859815D01*
X122569628Y-95843181D01*
X121899408Y-95172962D01*
X121962993Y-95155925D01*
X122077007Y-95090099D01*
X122170099Y-94997007D01*
X122235925Y-94882993D01*
X122252962Y-94819408D01*
X122885270Y-95451717D01*
X122885270Y-95451716D01*
X122924622Y-95397554D01*
X123021095Y-95208217D01*
X123086757Y-95006130D01*
X123086757Y-95006127D01*
X123120000Y-94796246D01*
X123120000Y-94583753D01*
X123086757Y-94373872D01*
X123086757Y-94373869D01*
X123021095Y-94171782D01*
X122924624Y-93982449D01*
X122885270Y-93928282D01*
X122885269Y-93928282D01*
X122252962Y-94560590D01*
X122235925Y-94497007D01*
X122170099Y-94382993D01*
X122077007Y-94289901D01*
X121962993Y-94224075D01*
X121899409Y-94207037D01*
X122531716Y-93574728D01*
X122477547Y-93535373D01*
X122477547Y-93535372D01*
X122468500Y-93530763D01*
X122417706Y-93482788D01*
X122400912Y-93414966D01*
X122423451Y-93348832D01*
X122468508Y-93309793D01*
X122477816Y-93305051D01*
X122557007Y-93247515D01*
X122649786Y-93180109D01*
X122649788Y-93180106D01*
X122649792Y-93180104D01*
X122800104Y-93029792D01*
X122800106Y-93029788D01*
X122800109Y-93029786D01*
X122925048Y-92857820D01*
X122925047Y-92857820D01*
X122925051Y-92857816D01*
X123021557Y-92668412D01*
X123087246Y-92466243D01*
X123120500Y-92256287D01*
X123120500Y-92053713D01*
X124359500Y-92053713D01*
X124359500Y-92266286D01*
X124391169Y-92466239D01*
X124392754Y-92476243D01*
X124455194Y-92668414D01*
X124458444Y-92678414D01*
X124554951Y-92867820D01*
X124679890Y-93039786D01*
X124830213Y-93190109D01*
X125002179Y-93315048D01*
X125002181Y-93315049D01*
X125002184Y-93315051D01*
X125011493Y-93319794D01*
X125062290Y-93367766D01*
X125079087Y-93435587D01*
X125056552Y-93501722D01*
X125011505Y-93540760D01*
X125002446Y-93545376D01*
X125002440Y-93545380D01*
X124948282Y-93584727D01*
X124948282Y-93584728D01*
X125580591Y-94217037D01*
X125517007Y-94234075D01*
X125402993Y-94299901D01*
X125309901Y-94392993D01*
X125244075Y-94507007D01*
X125227037Y-94570591D01*
X124594728Y-93938282D01*
X124594727Y-93938282D01*
X124555380Y-93992439D01*
X124458904Y-94181782D01*
X124393242Y-94383869D01*
X124393242Y-94383872D01*
X124360000Y-94593753D01*
X124360000Y-94806246D01*
X124393242Y-95016127D01*
X124393242Y-95016130D01*
X124458904Y-95218217D01*
X124555375Y-95407550D01*
X124594728Y-95461716D01*
X125227037Y-94829408D01*
X125244075Y-94892993D01*
X125309901Y-95007007D01*
X125402993Y-95100099D01*
X125517007Y-95165925D01*
X125580590Y-95182962D01*
X124910370Y-95853181D01*
X124849047Y-95886666D01*
X124822698Y-95889500D01*
X124812134Y-95889500D01*
X124812123Y-95889501D01*
X124752516Y-95895908D01*
X124617671Y-95946202D01*
X124617664Y-95946206D01*
X124502455Y-96032452D01*
X124502452Y-96032455D01*
X124416206Y-96147664D01*
X124416202Y-96147671D01*
X124365908Y-96282517D01*
X124359501Y-96342116D01*
X124359501Y-96342123D01*
X124359500Y-96342135D01*
X124359500Y-98137870D01*
X124359501Y-98137876D01*
X124365908Y-98197483D01*
X124416202Y-98332328D01*
X124416206Y-98332335D01*
X124502452Y-98447544D01*
X124502455Y-98447547D01*
X124617664Y-98533793D01*
X124617671Y-98533797D01*
X124752517Y-98584091D01*
X124752516Y-98584091D01*
X124759444Y-98584835D01*
X124812127Y-98590500D01*
X126607872Y-98590499D01*
X126667483Y-98584091D01*
X126802331Y-98533796D01*
X126917546Y-98447546D01*
X127003796Y-98332331D01*
X127054091Y-98197483D01*
X127060500Y-98137873D01*
X127060499Y-96342128D01*
X127054091Y-96282517D01*
X127050361Y-96272517D01*
X127003797Y-96147671D01*
X127003793Y-96147664D01*
X126952123Y-96078643D01*
X126917546Y-96032454D01*
X126899079Y-96018629D01*
X126899078Y-96018628D01*
X126802335Y-95946206D01*
X126802328Y-95946202D01*
X126738814Y-95922513D01*
X142505000Y-95922513D01*
X142505000Y-96772500D01*
X143704999Y-96772500D01*
X143679979Y-96832902D01*
X143655000Y-96958481D01*
X143655000Y-97086519D01*
X143679979Y-97212098D01*
X143704999Y-97272500D01*
X142505001Y-97272500D01*
X142505001Y-98122486D01*
X142515494Y-98225197D01*
X142570641Y-98391619D01*
X142570643Y-98391624D01*
X142662684Y-98540845D01*
X142786654Y-98664815D01*
X142935875Y-98756856D01*
X142935880Y-98756858D01*
X143102302Y-98812005D01*
X143102309Y-98812006D01*
X143205019Y-98822499D01*
X144054999Y-98822499D01*
X144055000Y-98822498D01*
X144055000Y-97622501D01*
X144115402Y-97647521D01*
X144240981Y-97672500D01*
X144369019Y-97672500D01*
X144494598Y-97647521D01*
X144555000Y-97622501D01*
X144555000Y-98822499D01*
X145404972Y-98822499D01*
X145404986Y-98822498D01*
X145507697Y-98812005D01*
X145674119Y-98756858D01*
X145674124Y-98756856D01*
X145823345Y-98664815D01*
X145947315Y-98540845D01*
X146039356Y-98391624D01*
X146039358Y-98391619D01*
X146094505Y-98225197D01*
X146094506Y-98225190D01*
X146104999Y-98122486D01*
X146105000Y-98122473D01*
X146105000Y-97272500D01*
X144905001Y-97272500D01*
X144930021Y-97212098D01*
X144955000Y-97086519D01*
X144955000Y-96958481D01*
X144944262Y-96904495D01*
X147584500Y-96904495D01*
X147584500Y-97140504D01*
X147584501Y-97140520D01*
X147615306Y-97374510D01*
X147676394Y-97602493D01*
X147766714Y-97820545D01*
X147766719Y-97820556D01*
X147837677Y-97943457D01*
X147884727Y-98024950D01*
X147884729Y-98024953D01*
X147884730Y-98024954D01*
X148028406Y-98212197D01*
X148028412Y-98212204D01*
X148195295Y-98379087D01*
X148195302Y-98379093D01*
X148284512Y-98447546D01*
X148382550Y-98522773D01*
X148488756Y-98584091D01*
X148586943Y-98640780D01*
X148586948Y-98640782D01*
X148586951Y-98640784D01*
X148805007Y-98731106D01*
X149032986Y-98792193D01*
X149266989Y-98823000D01*
X149266996Y-98823000D01*
X149503004Y-98823000D01*
X149503011Y-98823000D01*
X149737014Y-98792193D01*
X149964993Y-98731106D01*
X150183049Y-98640784D01*
X150387450Y-98522773D01*
X150574699Y-98379092D01*
X150741592Y-98212199D01*
X150885273Y-98024950D01*
X151003284Y-97820549D01*
X151093606Y-97602493D01*
X151154693Y-97374514D01*
X151185500Y-97140511D01*
X151185500Y-96904489D01*
X151154693Y-96670486D01*
X151093606Y-96442507D01*
X151003284Y-96224451D01*
X151003282Y-96224448D01*
X151003280Y-96224443D01*
X150958951Y-96147664D01*
X150885273Y-96020050D01*
X150769994Y-95869815D01*
X150741593Y-95832802D01*
X150741587Y-95832795D01*
X150574704Y-95665912D01*
X150574697Y-95665906D01*
X150387454Y-95522230D01*
X150387453Y-95522229D01*
X150387450Y-95522227D01*
X150282642Y-95461716D01*
X150183056Y-95404219D01*
X150183045Y-95404214D01*
X149964993Y-95313894D01*
X149737010Y-95252806D01*
X149503020Y-95222001D01*
X149503017Y-95222000D01*
X149503011Y-95222000D01*
X149266989Y-95222000D01*
X149266983Y-95222000D01*
X149266979Y-95222001D01*
X149032989Y-95252806D01*
X148805006Y-95313894D01*
X148586954Y-95404214D01*
X148586943Y-95404219D01*
X148382545Y-95522230D01*
X148195302Y-95665906D01*
X148195295Y-95665912D01*
X148028412Y-95832795D01*
X148028406Y-95832802D01*
X147884730Y-96020045D01*
X147884727Y-96020049D01*
X147884727Y-96020050D01*
X147877567Y-96032452D01*
X147766719Y-96224443D01*
X147766714Y-96224454D01*
X147676394Y-96442506D01*
X147615306Y-96670489D01*
X147584501Y-96904479D01*
X147584500Y-96904495D01*
X144944262Y-96904495D01*
X144930021Y-96832902D01*
X144905001Y-96772500D01*
X146104999Y-96772500D01*
X146104999Y-95922528D01*
X146104998Y-95922513D01*
X146094505Y-95819802D01*
X146039358Y-95653380D01*
X146039356Y-95653375D01*
X145947315Y-95504154D01*
X145823345Y-95380184D01*
X145674124Y-95288143D01*
X145674119Y-95288141D01*
X145507697Y-95232994D01*
X145507690Y-95232993D01*
X145404986Y-95222500D01*
X144555000Y-95222500D01*
X144555000Y-96422498D01*
X144494598Y-96397479D01*
X144369019Y-96372500D01*
X144240981Y-96372500D01*
X144115402Y-96397479D01*
X144055000Y-96422498D01*
X144055000Y-95222500D01*
X143205028Y-95222500D01*
X143205012Y-95222501D01*
X143102302Y-95232994D01*
X142935880Y-95288141D01*
X142935875Y-95288143D01*
X142786654Y-95380184D01*
X142662684Y-95504154D01*
X142570643Y-95653375D01*
X142570641Y-95653380D01*
X142515494Y-95819802D01*
X142515493Y-95819809D01*
X142505000Y-95922513D01*
X126738814Y-95922513D01*
X126667482Y-95895908D01*
X126667483Y-95895908D01*
X126607883Y-95889501D01*
X126607881Y-95889500D01*
X126607873Y-95889500D01*
X126607865Y-95889500D01*
X126597309Y-95889500D01*
X126530270Y-95869815D01*
X126509628Y-95853181D01*
X125839408Y-95182962D01*
X125902993Y-95165925D01*
X126017007Y-95100099D01*
X126110099Y-95007007D01*
X126175925Y-94892993D01*
X126192962Y-94829409D01*
X126825270Y-95461717D01*
X126825270Y-95461716D01*
X126864622Y-95407554D01*
X126961095Y-95218217D01*
X127026757Y-95016130D01*
X127026757Y-95016127D01*
X127060000Y-94806246D01*
X127060000Y-94593753D01*
X127026757Y-94383872D01*
X127026757Y-94383869D01*
X126961095Y-94181782D01*
X126864624Y-93992449D01*
X126825270Y-93938282D01*
X126825269Y-93938282D01*
X126192962Y-94570590D01*
X126175925Y-94507007D01*
X126110099Y-94392993D01*
X126017007Y-94299901D01*
X125902993Y-94234075D01*
X125839409Y-94217037D01*
X126471716Y-93584728D01*
X126417547Y-93545373D01*
X126417547Y-93545372D01*
X126408500Y-93540763D01*
X126357706Y-93492788D01*
X126340912Y-93424966D01*
X126363451Y-93358832D01*
X126408508Y-93319793D01*
X126417816Y-93315051D01*
X126497007Y-93257515D01*
X126589786Y-93190109D01*
X126589788Y-93190106D01*
X126589792Y-93190104D01*
X126740104Y-93039792D01*
X126740106Y-93039788D01*
X126740109Y-93039786D01*
X126865048Y-92867820D01*
X126865047Y-92867820D01*
X126865051Y-92867816D01*
X126961557Y-92678412D01*
X127027246Y-92476243D01*
X127060500Y-92266287D01*
X127060500Y-92053713D01*
X127027246Y-91843757D01*
X126961557Y-91641588D01*
X126865051Y-91452184D01*
X126865049Y-91452181D01*
X126865048Y-91452179D01*
X126740109Y-91280213D01*
X126589786Y-91129890D01*
X126417820Y-91004951D01*
X126228414Y-90908444D01*
X126228413Y-90908443D01*
X126228412Y-90908443D01*
X126026243Y-90842754D01*
X126026241Y-90842753D01*
X126026240Y-90842753D01*
X125860470Y-90816498D01*
X125816287Y-90809500D01*
X125603713Y-90809500D01*
X125559530Y-90816498D01*
X125393760Y-90842753D01*
X125191585Y-90908444D01*
X125002179Y-91004951D01*
X124830213Y-91129890D01*
X124679890Y-91280213D01*
X124554951Y-91452179D01*
X124458444Y-91641585D01*
X124392753Y-91843760D01*
X124359500Y-92053713D01*
X123120500Y-92053713D01*
X123120500Y-92043713D01*
X123087246Y-91833757D01*
X123021557Y-91631588D01*
X122925051Y-91442184D01*
X122925049Y-91442181D01*
X122925048Y-91442179D01*
X122800109Y-91270213D01*
X122649786Y-91119890D01*
X122477820Y-90994951D01*
X122288414Y-90898444D01*
X122288413Y-90898443D01*
X122288412Y-90898443D01*
X122086243Y-90832754D01*
X122086241Y-90832753D01*
X122086240Y-90832753D01*
X121924957Y-90807208D01*
X121876287Y-90799500D01*
X121663713Y-90799500D01*
X121615042Y-90807208D01*
X121453760Y-90832753D01*
X121251585Y-90898444D01*
X121062179Y-90994951D01*
X120890213Y-91119890D01*
X120739890Y-91270213D01*
X120614951Y-91442179D01*
X120518444Y-91631585D01*
X120452753Y-91833760D01*
X120447780Y-91865160D01*
X120419500Y-92043713D01*
X119087332Y-92043713D01*
X119057246Y-91853757D01*
X118991557Y-91651588D01*
X118895051Y-91462184D01*
X118895049Y-91462181D01*
X118895048Y-91462179D01*
X118770109Y-91290213D01*
X118619786Y-91139890D01*
X118447820Y-91014951D01*
X118258414Y-90918444D01*
X118258413Y-90918443D01*
X118258412Y-90918443D01*
X118056243Y-90852754D01*
X118056241Y-90852753D01*
X118056240Y-90852753D01*
X117894957Y-90827208D01*
X117846287Y-90819500D01*
X117633713Y-90819500D01*
X117585042Y-90827208D01*
X117423760Y-90852753D01*
X117221585Y-90918444D01*
X117032179Y-91014951D01*
X116860213Y-91139890D01*
X116709890Y-91290213D01*
X116584951Y-91462179D01*
X116488444Y-91651585D01*
X116422753Y-91853760D01*
X116389500Y-92063713D01*
X115150500Y-92063713D01*
X115150500Y-92043713D01*
X115117246Y-91833757D01*
X115051557Y-91631588D01*
X114955051Y-91442184D01*
X114955049Y-91442181D01*
X114955048Y-91442179D01*
X114830109Y-91270213D01*
X114679786Y-91119890D01*
X114507820Y-90994951D01*
X114318414Y-90898444D01*
X114318413Y-90898443D01*
X114318412Y-90898443D01*
X114116243Y-90832754D01*
X114116241Y-90832753D01*
X114116240Y-90832753D01*
X113954957Y-90807208D01*
X113906287Y-90799500D01*
X113693713Y-90799500D01*
X113645042Y-90807208D01*
X113483760Y-90832753D01*
X113281585Y-90898444D01*
X113092179Y-90994951D01*
X112920213Y-91119890D01*
X112769890Y-91270213D01*
X112644951Y-91442179D01*
X112548444Y-91631585D01*
X112482753Y-91833760D01*
X112477780Y-91865160D01*
X112449500Y-92043713D01*
X109463482Y-92043713D01*
X109463033Y-91932273D01*
X109482446Y-91865160D01*
X109535065Y-91819192D01*
X109539503Y-91817248D01*
X109679179Y-91759394D01*
X109810289Y-91671789D01*
X109921789Y-91560289D01*
X110009394Y-91429179D01*
X110069737Y-91283497D01*
X110100500Y-91128842D01*
X110100500Y-90971158D01*
X110100500Y-90971155D01*
X110100499Y-90971153D01*
X110090014Y-90918443D01*
X110069737Y-90816503D01*
X110062694Y-90799500D01*
X110009397Y-90670827D01*
X110009390Y-90670814D01*
X109921789Y-90539711D01*
X109921786Y-90539707D01*
X109810292Y-90428213D01*
X109810288Y-90428210D01*
X109679185Y-90340609D01*
X109679172Y-90340602D01*
X109532457Y-90279832D01*
X109478053Y-90235991D01*
X109455988Y-90169697D01*
X109455910Y-90165771D01*
X109450326Y-88780903D01*
X109469740Y-88713785D01*
X109522359Y-88667817D01*
X109523870Y-88667132D01*
X114719609Y-86355372D01*
X114788855Y-86346105D01*
X114842893Y-86368345D01*
X114943212Y-86441232D01*
X115097555Y-86519873D01*
X115262299Y-86573402D01*
X115433389Y-86600500D01*
X115433390Y-86600500D01*
X115606610Y-86600500D01*
X115606611Y-86600500D01*
X115777701Y-86573402D01*
X115942445Y-86519873D01*
X116096788Y-86441232D01*
X116236928Y-86339414D01*
X116359414Y-86216928D01*
X116461232Y-86076788D01*
X116539873Y-85922445D01*
X116593402Y-85757701D01*
X116620500Y-85586611D01*
X116620500Y-85586608D01*
X116620883Y-85581748D01*
X116622919Y-85581908D01*
X116625689Y-85572473D01*
X116625870Y-85554053D01*
X116635329Y-85539645D01*
X116640185Y-85523109D01*
X116654105Y-85511047D01*
X116664216Y-85495647D01*
X116692164Y-85478068D01*
X116692989Y-85477354D01*
X116693826Y-85476976D01*
X116782378Y-85437576D01*
X116851625Y-85428309D01*
X116914894Y-85457953D01*
X116952093Y-85517097D01*
X116956780Y-85550869D01*
X116956780Y-85590290D01*
X116983294Y-85757697D01*
X116983878Y-85761381D01*
X117037407Y-85926125D01*
X117116048Y-86080468D01*
X117217866Y-86220608D01*
X117340352Y-86343094D01*
X117480492Y-86444912D01*
X117634835Y-86523553D01*
X117799579Y-86577082D01*
X117970669Y-86604180D01*
X117970670Y-86604180D01*
X118143890Y-86604180D01*
X118143891Y-86604180D01*
X118314981Y-86577082D01*
X118479725Y-86523553D01*
X118634068Y-86444912D01*
X118774208Y-86343094D01*
X118896694Y-86220608D01*
X118998512Y-86080468D01*
X119077153Y-85926125D01*
X119130682Y-85761381D01*
X119157780Y-85590291D01*
X119157780Y-84903777D01*
X119177465Y-84836738D01*
X119194099Y-84816096D01*
X119285599Y-84724596D01*
X119346922Y-84691111D01*
X119416614Y-84696095D01*
G37*
%TD.AperFunction*%
%TD*%
M02*
