M48
; DRILL file {KiCad 9.0.9} date 2026-05-23T10:44:49-0700
; FORMAT={-:-/ absolute / metric / decimal}
; #@! TF.CreationDate,2026-05-23T10:44:49-07:00
; #@! TF.GenerationSoftware,Kicad,Pcbnew,9.0.9
; #@! TF.FileFunction,Plated,1,4,PTH
FMAT,2
METRIC
; #@! TA.AperFunction,Plated,PTH,ViaDrill
T1C0.300
; #@! TA.AperFunction,Plated,PTH,ComponentDrill
T2C0.800
; #@! TA.AperFunction,Plated,PTH,ComponentDrill
T3C0.920
; #@! TA.AperFunction,Plated,PTH,ComponentDrill
T4C1.000
; #@! TA.AperFunction,Plated,PTH,ComponentDrill
T5C1.300
; #@! TA.AperFunction,Plated,PTH,ComponentDrill
T6C3.200
%
G90
G05
T1
X83.456Y-76.744
X85.2Y-73.45
X93.4Y-87.2
X94.2Y-89.15
X94.6Y-88.25
X95.7Y-89.25
X97.25Y-89.25
X106.0Y-88.7
X106.35Y-82.05
X107.0Y-89.45
X107.85Y-90.25
X108.8Y-82.95
X109.3Y-91.05
X118.35Y-72.75
X118.5Y-81.8
X119.8Y-74.4
X121.55Y-67.6
X121.7Y-71.25
X128.55Y-65.85
X136.85Y-51.75
X141.224Y-60.05
X143.05Y-54.3
X143.45Y-57.15
X145.9Y-53.3
X147.25Y-57.25
X147.78Y-66.93
X150.15Y-52.8
T2
X69.8Y-59.7
X69.8Y-62.24
X69.8Y-85.1
X72.34Y-59.7
X72.34Y-62.24
X72.34Y-85.1
X74.88Y-59.7
X74.88Y-62.24
X74.88Y-85.1
X77.42Y-59.7
X77.42Y-62.24
X77.42Y-85.1
X79.96Y-59.7
X79.96Y-62.24
X79.96Y-85.1
X82.5Y-59.7
X82.5Y-62.24
X82.5Y-85.1
X85.04Y-59.7
X85.04Y-62.24
X85.04Y-85.1
X87.58Y-59.7
X87.58Y-62.24
X87.58Y-85.1
X90.12Y-59.7
X90.12Y-62.24
X90.12Y-85.1
X92.66Y-59.7
X92.66Y-62.24
X92.66Y-85.1
X95.2Y-59.7
X95.2Y-62.24
X95.2Y-85.1
X97.74Y-59.7
X97.74Y-62.24
X97.74Y-85.1
X100.28Y-59.7
X100.28Y-62.24
X100.28Y-85.1
X102.82Y-59.7
X102.82Y-62.24
X102.82Y-85.1
X105.36Y-59.7
X105.36Y-62.24
X105.36Y-85.1
X107.9Y-59.7
X107.9Y-62.24
X107.9Y-85.1
X110.44Y-59.7
X110.44Y-62.24
X110.44Y-85.1
X112.98Y-59.7
X112.98Y-62.24
X112.98Y-85.1
X115.52Y-59.7
X115.52Y-62.24
X115.52Y-85.1
X118.057Y-85.104
X118.06Y-59.7
X118.06Y-62.24
X120.597Y-85.104
X120.6Y-59.7
X120.6Y-62.24
X123.137Y-85.104
X123.14Y-59.7
X123.14Y-62.24
T3
X138.66Y-64.05
X138.66Y-86.05
X140.66Y-64.05
X140.66Y-86.05
X142.66Y-64.05
X142.66Y-86.05
X144.66Y-64.05
X144.66Y-86.05
X146.66Y-64.05
X146.66Y-86.05
X148.66Y-64.05
X148.66Y-86.05
X150.66Y-64.05
X150.66Y-86.05
X152.66Y-64.05
X152.66Y-86.05
X154.66Y-64.05
X154.66Y-86.05
X156.66Y-64.05
X156.66Y-86.05
T4
X75.25Y-92.19
X75.25Y-94.73
X75.25Y-97.27
X78.87Y-46.35
X78.87Y-48.89
X78.87Y-51.43
X78.87Y-53.97
X79.15Y-92.19
X79.15Y-94.73
X79.15Y-97.27
X82.8Y-46.34
X82.8Y-48.88
X82.8Y-51.42
X82.8Y-53.96
X86.73Y-46.34
X86.73Y-48.88
X86.73Y-51.42
X86.73Y-53.96
X89.8Y-92.21
X89.8Y-94.75
X89.8Y-97.29
X93.61Y-46.3
X93.61Y-48.84
X93.61Y-51.38
X93.61Y-53.92
X93.75Y-92.21
X93.75Y-94.75
X93.75Y-97.29
X97.7Y-92.21
X97.7Y-94.75
X97.7Y-97.29
X101.65Y-92.21
X101.65Y-94.75
X101.65Y-97.29
X105.05Y-47.3
X105.05Y-49.84
X105.05Y-52.38
X113.8Y-92.15
X113.8Y-94.69
X113.8Y-97.23
X117.74Y-92.17
X117.74Y-94.71
X117.74Y-97.25
X121.77Y-92.15
X121.77Y-94.69
X121.77Y-97.23
X124.29Y-42.2
X124.29Y-44.74
X124.29Y-47.28
X124.29Y-49.82
X124.29Y-52.36
X124.29Y-54.9
X125.71Y-92.16
X125.71Y-94.7
X125.71Y-97.24
T5
X144.305Y-97.022
X149.385Y-97.022
T6
X65.9Y-43.35
X65.9Y-103.4
X160.95Y-43.35
X160.95Y-103.4
M30
