%TF.GenerationSoftware,KiCad,Pcbnew,9.0.9*%
%TF.CreationDate,2026-05-23T10:44:56-07:00*%
%TF.ProjectId,AmidalaShield,416d6964-616c-4615-9368-69656c642e6b,rev?*%
%TF.SameCoordinates,Original*%
%TF.FileFunction,Legend,Bot*%
%TF.FilePolarity,Positive*%
%FSLAX46Y46*%
G04 Gerber Fmt 4.6, Leading zero omitted, Abs format (unit mm)*
G04 Created by KiCad (PCBNEW 9.0.9) date 2026-05-23 10:44:56*
%MOMM*%
%LPD*%
G01*
G04 APERTURE LIST*
%ADD10C,0.300000*%
%ADD11C,0.000000*%
%ADD12C,0.120000*%
G04 APERTURE END LIST*
D10*
X114721427Y-71749757D02*
X114864285Y-71678328D01*
X114864285Y-71678328D02*
X115078570Y-71678328D01*
X115078570Y-71678328D02*
X115292856Y-71749757D01*
X115292856Y-71749757D02*
X115435713Y-71892614D01*
X115435713Y-71892614D02*
X115507142Y-72035471D01*
X115507142Y-72035471D02*
X115578570Y-72321185D01*
X115578570Y-72321185D02*
X115578570Y-72535471D01*
X115578570Y-72535471D02*
X115507142Y-72821185D01*
X115507142Y-72821185D02*
X115435713Y-72964042D01*
X115435713Y-72964042D02*
X115292856Y-73106900D01*
X115292856Y-73106900D02*
X115078570Y-73178328D01*
X115078570Y-73178328D02*
X114935713Y-73178328D01*
X114935713Y-73178328D02*
X114721427Y-73106900D01*
X114721427Y-73106900D02*
X114649999Y-73035471D01*
X114649999Y-73035471D02*
X114649999Y-72535471D01*
X114649999Y-72535471D02*
X114935713Y-72535471D01*
X113792856Y-71678328D02*
X113792856Y-72035471D01*
X114149999Y-71892614D02*
X113792856Y-72035471D01*
X113792856Y-72035471D02*
X113435713Y-71892614D01*
X114007142Y-72321185D02*
X113792856Y-72035471D01*
X113792856Y-72035471D02*
X113578570Y-72321185D01*
X112649999Y-71678328D02*
X112649999Y-72035471D01*
X113007142Y-71892614D02*
X112649999Y-72035471D01*
X112649999Y-72035471D02*
X112292856Y-71892614D01*
X112864285Y-72321185D02*
X112649999Y-72035471D01*
X112649999Y-72035471D02*
X112435713Y-72321185D01*
X111507142Y-71678328D02*
X111507142Y-72035471D01*
X111864285Y-71892614D02*
X111507142Y-72035471D01*
X111507142Y-72035471D02*
X111149999Y-71892614D01*
X111721428Y-72321185D02*
X111507142Y-72035471D01*
X111507142Y-72035471D02*
X111292856Y-72321185D01*
D11*
%TO.C,G\u002A\u002A\u002A*%
G36*
X146428750Y-37249718D02*
G01*
X146448170Y-37803650D01*
X146427439Y-38533027D01*
X146369071Y-39468075D01*
X146364826Y-39526527D01*
X146305536Y-40375042D01*
X146243087Y-41318273D01*
X146184654Y-42245383D01*
X146158619Y-42686372D01*
X146137415Y-43045540D01*
X146120966Y-43336810D01*
X146069830Y-44168043D01*
X146016661Y-44799796D01*
X145950844Y-45261894D01*
X145861766Y-45584161D01*
X145738813Y-45796422D01*
X145571371Y-45928501D01*
X145348826Y-46010223D01*
X145060564Y-46071411D01*
X144766758Y-46141473D01*
X144368945Y-46269829D01*
X144002778Y-46417337D01*
X143734418Y-46556737D01*
X143630025Y-46660773D01*
X143697183Y-46837687D01*
X143947702Y-47166603D01*
X144374077Y-47614398D01*
X144966231Y-48170606D01*
X145714082Y-48824760D01*
X146557082Y-49566723D01*
X147606284Y-50573259D01*
X148611177Y-51643505D01*
X149606083Y-52816440D01*
X150625325Y-54131042D01*
X151703226Y-55626291D01*
X152265845Y-56439637D01*
X152865112Y-57335817D01*
X153413632Y-58197521D01*
X153941483Y-59074982D01*
X154478744Y-60018431D01*
X155055492Y-61078102D01*
X155701805Y-62304225D01*
X156046724Y-62963820D01*
X156409903Y-63653219D01*
X156727112Y-64249922D01*
X156982422Y-64724161D01*
X157159905Y-65046162D01*
X157243634Y-65186154D01*
X157266541Y-65220101D01*
X157386555Y-65447815D01*
X157559134Y-65814654D01*
X157755102Y-66259393D01*
X157800897Y-66365849D01*
X158022233Y-66869782D01*
X158304313Y-67500640D01*
X158615661Y-68188369D01*
X158924802Y-68862911D01*
X159127675Y-69307872D01*
X159572707Y-70315777D01*
X160031378Y-71391762D01*
X160480467Y-72479138D01*
X160896754Y-73521217D01*
X161257019Y-74461308D01*
X161538040Y-75242723D01*
X161741933Y-75925187D01*
X161968350Y-76870950D01*
X162186916Y-77964992D01*
X162390747Y-79159759D01*
X162572957Y-80407698D01*
X162726662Y-81661254D01*
X162844975Y-82872875D01*
X162921012Y-83995006D01*
X162945754Y-84901878D01*
X162947888Y-84980094D01*
X162929664Y-85817797D01*
X162813022Y-87107183D01*
X162575807Y-88304418D01*
X162203332Y-89444096D01*
X161680904Y-90560810D01*
X160993835Y-91689155D01*
X160127433Y-92863724D01*
X159067008Y-94119111D01*
X158871183Y-94335983D01*
X157350745Y-95820496D01*
X155675377Y-97134981D01*
X153862341Y-98272822D01*
X151928904Y-99227403D01*
X149892330Y-99992107D01*
X147769885Y-100560318D01*
X145578832Y-100925420D01*
X143336437Y-101080796D01*
X141059965Y-101019830D01*
X140034894Y-100929198D01*
X137869559Y-100632909D01*
X135828706Y-100196046D01*
X133856536Y-99605382D01*
X131897250Y-98847688D01*
X130722959Y-98343995D01*
X130409314Y-98748054D01*
X130259828Y-98930754D01*
X129898605Y-99341342D01*
X129418352Y-99863867D01*
X128851077Y-100464584D01*
X128228784Y-101109747D01*
X127583479Y-101765609D01*
X126947170Y-102398424D01*
X126551445Y-102796225D01*
X126184128Y-103197005D01*
X126103730Y-103306698D01*
X125997354Y-103451836D01*
X125993179Y-103558220D01*
X126039412Y-103573979D01*
X126293387Y-103656268D01*
X126687658Y-103781313D01*
X127158656Y-103928894D01*
X128022387Y-104224820D01*
X129097899Y-104642599D01*
X130371765Y-105178277D01*
X131845778Y-105832630D01*
X133521729Y-106606434D01*
X135401409Y-107500466D01*
X137016945Y-108270469D01*
X138510897Y-108962949D01*
X139882430Y-109573813D01*
X141175139Y-110120364D01*
X142432619Y-110619906D01*
X143698466Y-111089744D01*
X145016276Y-111547181D01*
X146429642Y-112009521D01*
X147982160Y-112494069D01*
X148936151Y-112786346D01*
X147385599Y-112796225D01*
X145835047Y-112806103D01*
X143987007Y-112167039D01*
X143713271Y-112071848D01*
X142633570Y-111684342D01*
X141592635Y-111288559D01*
X140549072Y-110866914D01*
X139461486Y-110401820D01*
X138288485Y-109875690D01*
X136988673Y-109270937D01*
X135520658Y-108569973D01*
X135213988Y-108422255D01*
X134337259Y-108001302D01*
X133499326Y-107600852D01*
X132735360Y-107237598D01*
X132080530Y-106928230D01*
X131570007Y-106689440D01*
X131238960Y-106537919D01*
X130355854Y-106144333D01*
X129975591Y-106434373D01*
X129729922Y-106582622D01*
X129286832Y-106711247D01*
X128863453Y-106693301D01*
X128539891Y-106523794D01*
X128482956Y-106458021D01*
X128390674Y-106210763D01*
X128407252Y-105827207D01*
X128475232Y-105331238D01*
X126780809Y-104773551D01*
X126501150Y-104682252D01*
X125922790Y-104498396D01*
X125437917Y-104350920D01*
X125090715Y-104253054D01*
X124925371Y-104218026D01*
X124777135Y-104292652D01*
X124491527Y-104494857D01*
X124109850Y-104793733D01*
X123673258Y-105158373D01*
X123483871Y-105320507D01*
X122645993Y-106015176D01*
X121875363Y-106606122D01*
X121123102Y-107123315D01*
X120698219Y-107380281D01*
X120340330Y-107596729D01*
X120299459Y-107618517D01*
X119478168Y-108056336D01*
X118487738Y-108532108D01*
X117320158Y-109054016D01*
X117275969Y-109073258D01*
X116528076Y-109384815D01*
X115955955Y-109586249D01*
X115527718Y-109681543D01*
X115211475Y-109674681D01*
X114975335Y-109569648D01*
X114787411Y-109370426D01*
X114744162Y-109308265D01*
X114496869Y-108828520D01*
X114462254Y-108413379D01*
X114636778Y-108031388D01*
X114644886Y-108020170D01*
X117343876Y-108020170D01*
X117513615Y-107976974D01*
X117857551Y-107811372D01*
X117942440Y-107764201D01*
X118130872Y-107618517D01*
X118092764Y-107532171D01*
X118061360Y-107525518D01*
X117841636Y-107582463D01*
X117570425Y-107751358D01*
X117359920Y-107943382D01*
X117343876Y-108020170D01*
X114644886Y-108020170D01*
X114651296Y-108011302D01*
X114820799Y-107695975D01*
X114831585Y-107652047D01*
X115828312Y-107652047D01*
X115902578Y-107696714D01*
X116051003Y-107661899D01*
X116287666Y-107529006D01*
X116496816Y-107380281D01*
X118706573Y-107380281D01*
X118766198Y-107439906D01*
X118825822Y-107380281D01*
X118766198Y-107320657D01*
X118706573Y-107380281D01*
X116496816Y-107380281D01*
X116630135Y-107285479D01*
X116645958Y-107273023D01*
X118945071Y-107273023D01*
X118946007Y-107289410D01*
X118968335Y-107307549D01*
X119048586Y-107279243D01*
X119223467Y-107185528D01*
X119529688Y-107007443D01*
X120003957Y-106726024D01*
X120350115Y-106517047D01*
X120739691Y-106269328D01*
X121111947Y-106012517D01*
X121506162Y-105716929D01*
X121961618Y-105352879D01*
X122517595Y-104890684D01*
X123213373Y-104300658D01*
X123484783Y-104067138D01*
X123927009Y-103670907D01*
X124178318Y-103417446D01*
X124238754Y-103306698D01*
X124108360Y-103338603D01*
X123787177Y-103513103D01*
X123690232Y-103565767D01*
X123363234Y-103688867D01*
X123115333Y-103707739D01*
X123085454Y-103702444D01*
X122926745Y-103740713D01*
X122704840Y-103896997D01*
X122391580Y-104194386D01*
X121958805Y-104655966D01*
X121720365Y-104908031D01*
X121153382Y-105458995D01*
X120545229Y-106000770D01*
X119992145Y-106445773D01*
X119634643Y-106714834D01*
X119277537Y-106990743D01*
X119034685Y-107187073D01*
X118945071Y-107273023D01*
X116645958Y-107273023D01*
X117095980Y-106918761D01*
X117702770Y-106416297D01*
X118468076Y-105765530D01*
X119244418Y-105085048D01*
X120374231Y-104027863D01*
X121428201Y-102946892D01*
X122450326Y-101793969D01*
X123484601Y-100520927D01*
X124419942Y-99284584D01*
X126251434Y-99284584D01*
X126304354Y-99258820D01*
X126495069Y-99062676D01*
X126744171Y-98862478D01*
X127101538Y-98735856D01*
X127427067Y-98774374D01*
X127655222Y-98982557D01*
X127722183Y-99167579D01*
X127722785Y-99399928D01*
X127688752Y-99499804D01*
X127703041Y-99557303D01*
X127831389Y-99410811D01*
X128071366Y-99062676D01*
X128278261Y-98777119D01*
X128621464Y-98356593D01*
X128980450Y-97959624D01*
X129222150Y-97685537D01*
X131659925Y-97685537D01*
X131788508Y-97789994D01*
X132123226Y-97961568D01*
X132619632Y-98171527D01*
X133240373Y-98406875D01*
X133948097Y-98654613D01*
X134705452Y-98901746D01*
X135475084Y-99135274D01*
X136219642Y-99342201D01*
X136901773Y-99509529D01*
X137312022Y-99596836D01*
X138121416Y-99750934D01*
X138953578Y-99891097D01*
X139681495Y-99995136D01*
X139984937Y-100028432D01*
X140830642Y-100091091D01*
X141796416Y-100130387D01*
X142810836Y-100145736D01*
X143802481Y-100136552D01*
X144699927Y-100102250D01*
X145431751Y-100042244D01*
X145535992Y-100029799D01*
X147645084Y-99663489D01*
X149699264Y-99091619D01*
X151674800Y-98326119D01*
X153547961Y-97378916D01*
X155295016Y-96261938D01*
X156892233Y-94987114D01*
X158315880Y-93566370D01*
X158972167Y-92810514D01*
X159776869Y-91801339D01*
X160428571Y-90860144D01*
X160952346Y-89946158D01*
X161373268Y-89018610D01*
X161716408Y-88036729D01*
X161781646Y-87819511D01*
X161881880Y-87449169D01*
X161951831Y-87102309D01*
X161996831Y-86726540D01*
X162022212Y-86269472D01*
X162033306Y-85678715D01*
X162035444Y-84901878D01*
X162031859Y-84438893D01*
X162012951Y-83665249D01*
X161980606Y-82934197D01*
X161937986Y-82311028D01*
X161888250Y-81861033D01*
X161773958Y-81116888D01*
X161589958Y-79937898D01*
X161432495Y-78959126D01*
X161297478Y-78157366D01*
X161180816Y-77509414D01*
X161078416Y-76992062D01*
X160986188Y-76582105D01*
X160900039Y-76256338D01*
X160889762Y-76221418D01*
X160734523Y-75750228D01*
X160500863Y-75105004D01*
X160204960Y-74326054D01*
X159862992Y-73453688D01*
X159491137Y-72528213D01*
X159105573Y-71589939D01*
X158722478Y-70679174D01*
X158358030Y-69836228D01*
X158028407Y-69101408D01*
X157991081Y-69020132D01*
X157695006Y-68369665D01*
X157404635Y-67722842D01*
X157151589Y-67150533D01*
X156967490Y-66723611D01*
X156944322Y-66668798D01*
X156763419Y-66257476D01*
X156610282Y-65935885D01*
X156515958Y-65769620D01*
X156460484Y-65678805D01*
X156304144Y-65397054D01*
X156066853Y-64957319D01*
X155764736Y-64389754D01*
X155413920Y-63724519D01*
X155030531Y-62991770D01*
X154800989Y-62554315D01*
X153464101Y-60125427D01*
X152132259Y-57914293D01*
X150792920Y-55903893D01*
X149433541Y-54077204D01*
X148041578Y-52417207D01*
X146604489Y-50906880D01*
X145109730Y-49529202D01*
X144728887Y-49197087D01*
X144216380Y-48737983D01*
X143773307Y-48327180D01*
X143437323Y-47999799D01*
X143246083Y-47790960D01*
X142943128Y-47398122D01*
X142268176Y-47862968D01*
X141245224Y-48658574D01*
X140071202Y-49810509D01*
X138974221Y-51150224D01*
X137967520Y-52653236D01*
X137184819Y-54076056D01*
X137064344Y-54295060D01*
X136277934Y-56051212D01*
X136005001Y-56818779D01*
X135856591Y-57236150D01*
X135716826Y-57629209D01*
X135621531Y-57897207D01*
X135430831Y-58607512D01*
X135318777Y-59024882D01*
X135181087Y-59537742D01*
X135108378Y-59808562D01*
X134751717Y-61760792D01*
X134740376Y-61844086D01*
X134662885Y-62544610D01*
X134607468Y-63285455D01*
X134575768Y-64011244D01*
X134569428Y-64666600D01*
X134590094Y-65196144D01*
X134639408Y-65544500D01*
X134751784Y-65720196D01*
X135015932Y-65976422D01*
X135366835Y-66240404D01*
X135695033Y-66478490D01*
X136310928Y-67002830D01*
X136959804Y-67634243D01*
X137582397Y-68313697D01*
X138119442Y-68982159D01*
X138504308Y-69544916D01*
X138979168Y-70413145D01*
X139210628Y-70836343D01*
X139780049Y-72258132D01*
X140187353Y-73752112D01*
X140264925Y-74267907D01*
X140321464Y-75013878D01*
X140335281Y-75498921D01*
X140345833Y-75869352D01*
X140338696Y-76767201D01*
X140300719Y-77640301D01*
X140232567Y-78421526D01*
X140134906Y-79043749D01*
X140061446Y-79372246D01*
X139514117Y-81292536D01*
X138791708Y-83064083D01*
X137881061Y-84711239D01*
X136769023Y-86258355D01*
X135442436Y-87729783D01*
X135185587Y-87987177D01*
X134764552Y-88418435D01*
X134447629Y-88779470D01*
X134216892Y-89114246D01*
X134054413Y-89466730D01*
X133942264Y-89880888D01*
X133862519Y-90400685D01*
X133797250Y-91070089D01*
X133728529Y-91933064D01*
X133698323Y-92295962D01*
X133583833Y-93334716D01*
X133432144Y-94199094D01*
X133227699Y-94937653D01*
X132954940Y-95598953D01*
X132598310Y-96231550D01*
X132142250Y-96884003D01*
X132096861Y-96944858D01*
X131856432Y-97290197D01*
X131700132Y-97554796D01*
X131659925Y-97685537D01*
X129222150Y-97685537D01*
X129266829Y-97634871D01*
X129581545Y-97215332D01*
X129796196Y-96856573D01*
X129877437Y-96698010D01*
X130039115Y-96448246D01*
X130157001Y-96349765D01*
X130182879Y-96342488D01*
X130320862Y-96199859D01*
X130476598Y-95932394D01*
X130515878Y-95853912D01*
X130666620Y-95612326D01*
X130779497Y-95515023D01*
X130797519Y-95512554D01*
X130935647Y-95372119D01*
X131086760Y-95050785D01*
X131234690Y-94597020D01*
X131363269Y-94059292D01*
X131456328Y-93486068D01*
X131471514Y-93351169D01*
X131520179Y-92818214D01*
X131576337Y-92078957D01*
X131638606Y-91157034D01*
X131705603Y-90076082D01*
X131758409Y-89162959D01*
X132706983Y-89162959D01*
X132709418Y-89285041D01*
X132724920Y-89271458D01*
X132793072Y-89105561D01*
X132887581Y-88808046D01*
X132979349Y-88577973D01*
X133153054Y-88296254D01*
X133428880Y-87948374D01*
X133831764Y-87503077D01*
X134386642Y-86929108D01*
X134935407Y-86354085D01*
X135969214Y-85138268D01*
X136823348Y-83920862D01*
X137531698Y-82655823D01*
X137767558Y-82159290D01*
X138413184Y-80494207D01*
X138848687Y-78814841D01*
X139072148Y-77142608D01*
X139081652Y-75498921D01*
X138875283Y-73905195D01*
X138451123Y-72382845D01*
X138434513Y-72337084D01*
X138243443Y-71842685D01*
X138042871Y-71370795D01*
X137856153Y-70971598D01*
X137706644Y-70695277D01*
X137617698Y-70592019D01*
X137617669Y-70627144D01*
X137668666Y-70838924D01*
X137772914Y-71199712D01*
X137916603Y-71660162D01*
X137972748Y-71840093D01*
X138133665Y-72414665D01*
X138262815Y-72959510D01*
X138336347Y-73377056D01*
X138360640Y-73605758D01*
X138366313Y-73893034D01*
X138306849Y-74053390D01*
X138166954Y-74157269D01*
X138156465Y-74162795D01*
X137800513Y-74272729D01*
X137453807Y-74264404D01*
X137216315Y-74139671D01*
X137181577Y-74079205D01*
X137076277Y-73812755D01*
X136942472Y-73405285D01*
X136800758Y-72917371D01*
X136770906Y-72811263D01*
X136564831Y-72171184D01*
X136316685Y-71508231D01*
X136073693Y-70950180D01*
X135977551Y-70745458D01*
X135849937Y-70413145D01*
X137428639Y-70413145D01*
X137488263Y-70472770D01*
X137547888Y-70413145D01*
X137488263Y-70353521D01*
X137428639Y-70413145D01*
X135849937Y-70413145D01*
X135725356Y-70088730D01*
X135634396Y-69590448D01*
X135705067Y-69256011D01*
X135937762Y-69090820D01*
X136168222Y-69061563D01*
X136444570Y-69094953D01*
X136487908Y-69102357D01*
X136464372Y-69020244D01*
X136308383Y-68830776D01*
X136053352Y-68566431D01*
X135732690Y-68259687D01*
X135379810Y-67943022D01*
X135028122Y-67648915D01*
X134711038Y-67409844D01*
X134384973Y-67173846D01*
X134029839Y-66896275D01*
X133789118Y-66684277D01*
X133521362Y-66413625D01*
X133448810Y-68890381D01*
X133438811Y-69239742D01*
X133413473Y-70179357D01*
X133386252Y-71251607D01*
X133358947Y-72382799D01*
X133333355Y-73499238D01*
X133311275Y-74527230D01*
X133299554Y-75049685D01*
X133271855Y-76074951D01*
X133238369Y-77118180D01*
X133201385Y-78115263D01*
X133163191Y-79002091D01*
X133126077Y-79714554D01*
X133122111Y-79781959D01*
X133084199Y-80463893D01*
X133039347Y-81324771D01*
X132990152Y-82311614D01*
X132939212Y-83371440D01*
X132889124Y-84451270D01*
X132842487Y-85498122D01*
X132821635Y-85983647D01*
X132785158Y-86866326D01*
X132754445Y-87654308D01*
X132730506Y-88318882D01*
X132714349Y-88831336D01*
X132706983Y-89162959D01*
X131758409Y-89162959D01*
X131775945Y-88859736D01*
X131848250Y-87531634D01*
X131921135Y-86115410D01*
X131993217Y-84634702D01*
X132063114Y-83113145D01*
X132066758Y-83031402D01*
X132111462Y-82035842D01*
X132160636Y-80951772D01*
X132210544Y-79860887D01*
X132257450Y-78844880D01*
X132297618Y-77985446D01*
X132318499Y-77512386D01*
X132353519Y-76606639D01*
X132388923Y-75570608D01*
X132422606Y-74470708D01*
X132452463Y-73373356D01*
X132476389Y-72344966D01*
X132545501Y-69029839D01*
X132147263Y-69104549D01*
X132000044Y-69127168D01*
X131745521Y-69115699D01*
X131586468Y-68992978D01*
X131510436Y-68728297D01*
X131504974Y-68290948D01*
X131557633Y-67650223D01*
X131630101Y-67086345D01*
X131740156Y-66613853D01*
X131890409Y-66331353D01*
X132095874Y-66212679D01*
X132371562Y-66231669D01*
X132413463Y-66241188D01*
X132489698Y-66240078D01*
X132546707Y-66183461D01*
X132588989Y-66040860D01*
X132621041Y-65781799D01*
X132647362Y-65375798D01*
X132672451Y-64792381D01*
X132700807Y-64001071D01*
X132728438Y-63346622D01*
X132775176Y-62523380D01*
X132831367Y-61744798D01*
X132892250Y-61075470D01*
X132953060Y-60579995D01*
X132996207Y-60286871D01*
X133053499Y-59848111D01*
X133084348Y-59537742D01*
X133082823Y-59409270D01*
X133071037Y-59412655D01*
X133010981Y-59562912D01*
X132921378Y-59888751D01*
X132812055Y-60345904D01*
X132692836Y-60890107D01*
X132573547Y-61477092D01*
X132464014Y-62062594D01*
X132374063Y-62602347D01*
X132337193Y-62829908D01*
X132230290Y-63395706D01*
X132115579Y-63900693D01*
X132012271Y-64257011D01*
X131964612Y-64397778D01*
X131864015Y-64770633D01*
X131823944Y-65045859D01*
X131823944Y-65046339D01*
X131751365Y-65326890D01*
X131577362Y-65626385D01*
X131547974Y-65665880D01*
X131480131Y-65785341D01*
X131422784Y-65949904D01*
X131372534Y-66187143D01*
X131325983Y-66524634D01*
X131279734Y-66989952D01*
X131230389Y-67610672D01*
X131174548Y-68414369D01*
X131108815Y-69428617D01*
X131106567Y-69463975D01*
X131014899Y-70933912D01*
X130929577Y-72364646D01*
X130848116Y-73802435D01*
X130768029Y-75293537D01*
X130686831Y-76884209D01*
X130602036Y-78620709D01*
X130511156Y-80549296D01*
X130461552Y-81542916D01*
X130326485Y-83678296D01*
X130158128Y-85613949D01*
X129950816Y-87375999D01*
X129698879Y-88990568D01*
X129396652Y-90483778D01*
X129038468Y-91881754D01*
X128618658Y-93210618D01*
X128131556Y-94496493D01*
X127571495Y-95765502D01*
X126932808Y-97043767D01*
X126690500Y-97520889D01*
X126500879Y-97954500D01*
X126413931Y-98263674D01*
X126414761Y-98489997D01*
X126422729Y-98774463D01*
X126333882Y-99107732D01*
X126313868Y-99146242D01*
X126251434Y-99284584D01*
X124419942Y-99284584D01*
X124575022Y-99079597D01*
X124789120Y-98780499D01*
X125624229Y-97464796D01*
X126418731Y-95982909D01*
X127145731Y-94392495D01*
X127778331Y-92751209D01*
X128289637Y-91116706D01*
X128299900Y-91079235D01*
X128431541Y-90587178D01*
X128500929Y-90279001D01*
X128511048Y-90111887D01*
X128464883Y-90043018D01*
X128365418Y-90029577D01*
X128295602Y-90022963D01*
X128111577Y-89880804D01*
X128066839Y-89573305D01*
X128167196Y-89126915D01*
X128344501Y-88772321D01*
X128575691Y-88621431D01*
X128743324Y-88572479D01*
X128861079Y-88445862D01*
X128944248Y-88189432D01*
X129020314Y-87749283D01*
X129033532Y-87656863D01*
X129053175Y-87365146D01*
X128990651Y-87208446D01*
X128821222Y-87106948D01*
X128651291Y-86998725D01*
X128573422Y-86811829D01*
X128568179Y-86470810D01*
X128628676Y-86041546D01*
X128799625Y-85723339D01*
X129078225Y-85617371D01*
X129142129Y-85603573D01*
X129210652Y-85524631D01*
X129266115Y-85345001D01*
X129315215Y-85030330D01*
X129364650Y-84546264D01*
X129421116Y-83858450D01*
X129441513Y-83579120D01*
X129484784Y-82911922D01*
X129534113Y-82075230D01*
X129587091Y-81113386D01*
X129641308Y-80070735D01*
X129694353Y-78991621D01*
X129743818Y-77920386D01*
X129756966Y-77628210D01*
X129813402Y-76426715D01*
X129876798Y-75146066D01*
X129943819Y-73849755D01*
X130011134Y-72601272D01*
X130075408Y-71464108D01*
X130133308Y-70501754D01*
X130186178Y-69654458D01*
X130232629Y-68878397D01*
X130263442Y-68290626D01*
X130278416Y-67864533D01*
X130277350Y-67573506D01*
X130260045Y-67390935D01*
X130226300Y-67290209D01*
X130175916Y-67244717D01*
X130108693Y-67227846D01*
X129975629Y-67184379D01*
X129767123Y-67012080D01*
X129726440Y-66885596D01*
X129737167Y-66570040D01*
X129826048Y-66210305D01*
X129966239Y-65900613D01*
X130130898Y-65735186D01*
X130167231Y-65720431D01*
X130406142Y-65546253D01*
X130510381Y-65334399D01*
X130434148Y-65251647D01*
X130218669Y-65130359D01*
X130047117Y-65034858D01*
X129984259Y-64892395D01*
X130052821Y-64630321D01*
X130061788Y-64605200D01*
X130201732Y-64359887D01*
X130376417Y-64326205D01*
X130406342Y-64332827D01*
X130485388Y-64303038D01*
X130553831Y-64171838D01*
X130621026Y-63905333D01*
X130696325Y-63469630D01*
X130789082Y-62830834D01*
X130893848Y-62170069D01*
X131065130Y-61265989D01*
X131273136Y-60293631D01*
X131503463Y-59313827D01*
X131593720Y-58962861D01*
X133161159Y-58962861D01*
X133175431Y-59104382D01*
X133211299Y-59123038D01*
X133254930Y-59024882D01*
X133246324Y-58961752D01*
X133175431Y-58945383D01*
X133161159Y-58962861D01*
X131593720Y-58962861D01*
X131685104Y-58607512D01*
X133254930Y-58607512D01*
X133314555Y-58667136D01*
X133374179Y-58607512D01*
X133314555Y-58547887D01*
X133254930Y-58607512D01*
X131685104Y-58607512D01*
X131741708Y-58387405D01*
X131755462Y-58339202D01*
X133383251Y-58339202D01*
X133384628Y-58360924D01*
X133493428Y-58428638D01*
X133556633Y-58396970D01*
X133614305Y-58219953D01*
X133627713Y-58030881D01*
X133675616Y-57713145D01*
X133688798Y-57629209D01*
X133661295Y-57621408D01*
X133563811Y-57832394D01*
X133537134Y-57898134D01*
X133430947Y-58179180D01*
X133383251Y-58339202D01*
X131755462Y-58339202D01*
X131973468Y-57575195D01*
X132106202Y-57174129D01*
X133757403Y-57174129D01*
X133771675Y-57315649D01*
X133807543Y-57334305D01*
X133851174Y-57236150D01*
X133842568Y-57173020D01*
X133771675Y-57156651D01*
X133757403Y-57174129D01*
X132106202Y-57174129D01*
X132184340Y-56938028D01*
X132229417Y-56818779D01*
X133851174Y-56818779D01*
X133910799Y-56878404D01*
X133970423Y-56818779D01*
X133910799Y-56759155D01*
X133851174Y-56818779D01*
X132229417Y-56818779D01*
X132301763Y-56627388D01*
X132654893Y-55745001D01*
X133083382Y-54729124D01*
X133369529Y-54076056D01*
X134805165Y-54076056D01*
X134864789Y-54135681D01*
X134924414Y-54076056D01*
X134864789Y-54016432D01*
X134805165Y-54076056D01*
X133369529Y-54076056D01*
X133562706Y-53635170D01*
X133661190Y-53417685D01*
X134774745Y-53417685D01*
X134805967Y-53540934D01*
X134890014Y-53687543D01*
X134958422Y-53777493D01*
X134962628Y-53773957D01*
X135042056Y-53642950D01*
X135196114Y-53360933D01*
X135396283Y-52979861D01*
X135714311Y-52395528D01*
X136355291Y-51355176D01*
X137137943Y-50234973D01*
X138085132Y-49001085D01*
X138208385Y-48847277D01*
X138758323Y-48192778D01*
X139261330Y-47661925D01*
X139783251Y-47189243D01*
X140389930Y-46709257D01*
X140873911Y-46348978D01*
X141527882Y-45884293D01*
X142065355Y-45539448D01*
X142525515Y-45291961D01*
X142947546Y-45119352D01*
X143370634Y-44999139D01*
X143766644Y-44927360D01*
X144189231Y-44905994D01*
X144477169Y-44959889D01*
X144583569Y-45085697D01*
X144621722Y-45144869D01*
X144807570Y-45192019D01*
X144920117Y-45162224D01*
X145011332Y-45033224D01*
X145086959Y-44758760D01*
X145165317Y-44292781D01*
X145228215Y-43811829D01*
X145281490Y-43195717D01*
X145293494Y-42686372D01*
X145263703Y-42326412D01*
X145191591Y-42158453D01*
X145190041Y-42157535D01*
X145004372Y-42154461D01*
X144653630Y-42231553D01*
X144189453Y-42371801D01*
X143663479Y-42558194D01*
X143127344Y-42773723D01*
X142632684Y-43001379D01*
X141707838Y-43516898D01*
X140743432Y-44191466D01*
X139834043Y-44989449D01*
X138964123Y-45929513D01*
X138118128Y-47030323D01*
X137280513Y-48310546D01*
X136435732Y-49788847D01*
X135568240Y-51483892D01*
X135323457Y-51989360D01*
X135061704Y-52550252D01*
X134890845Y-52954099D01*
X134799115Y-53232658D01*
X134774745Y-53417685D01*
X133661190Y-53417685D01*
X134068344Y-52518552D01*
X134575773Y-51434680D01*
X135060472Y-50438967D01*
X135453268Y-49670196D01*
X136408698Y-47965089D01*
X137377247Y-46478826D01*
X138372971Y-45197550D01*
X139409932Y-44107407D01*
X140502187Y-43194539D01*
X141663795Y-42445092D01*
X142908816Y-41845211D01*
X144251309Y-41381038D01*
X144264484Y-41377258D01*
X144692316Y-41254740D01*
X145008693Y-41143848D01*
X145230705Y-41008870D01*
X145375442Y-40814094D01*
X145459995Y-40523807D01*
X145501454Y-40102299D01*
X145516909Y-39513857D01*
X145523450Y-38722770D01*
X145537559Y-37083098D01*
X145057163Y-37083098D01*
X144715879Y-37132714D01*
X144166300Y-37319138D01*
X143516717Y-37622484D01*
X142810539Y-38019919D01*
X142091173Y-38488612D01*
X141402024Y-39005730D01*
X141385192Y-39019317D01*
X141026772Y-39300102D01*
X140573973Y-39644040D01*
X140120584Y-39979835D01*
X140116375Y-39982908D01*
X139656825Y-40359601D01*
X139204221Y-40797391D01*
X138855966Y-41202136D01*
X138598445Y-41529890D01*
X138385241Y-41763818D01*
X138262682Y-41853051D01*
X138251808Y-41854512D01*
X138119402Y-41970201D01*
X137963481Y-42214236D01*
X137903431Y-42312294D01*
X137900783Y-42316618D01*
X137686249Y-42615543D01*
X137365581Y-43031683D01*
X136970284Y-43524560D01*
X136531863Y-44053691D01*
X135556021Y-45243238D01*
X134590525Y-46507952D01*
X133765091Y-47706841D01*
X133053937Y-48882932D01*
X132431281Y-50079253D01*
X131871343Y-51338831D01*
X131348340Y-52704695D01*
X131218786Y-53073299D01*
X130940299Y-53908564D01*
X130673947Y-54761052D01*
X130430922Y-55590405D01*
X130222417Y-56356263D01*
X130059627Y-57018268D01*
X129953745Y-57536060D01*
X129915963Y-57869282D01*
X129913573Y-57953197D01*
X129857252Y-58301614D01*
X129749554Y-58538497D01*
X129686158Y-58682997D01*
X129618375Y-58941068D01*
X129592443Y-59039801D01*
X129483240Y-59563409D01*
X129364687Y-60216054D01*
X129242924Y-60959968D01*
X129124091Y-61757383D01*
X129014328Y-62570531D01*
X128919776Y-63361646D01*
X128846573Y-64092958D01*
X128808347Y-64599890D01*
X128765014Y-65310574D01*
X128722337Y-66132715D01*
X128683703Y-67000796D01*
X128652496Y-67849296D01*
X128648206Y-67979778D01*
X128613133Y-68870451D01*
X128574072Y-69545359D01*
X128529201Y-70024650D01*
X128476695Y-70328472D01*
X128414731Y-70476973D01*
X128347817Y-70596311D01*
X128311876Y-70819955D01*
X128319246Y-71181301D01*
X128368112Y-71729086D01*
X128377454Y-71879958D01*
X128419622Y-72560986D01*
X128346424Y-73811737D01*
X128328365Y-73975011D01*
X128291777Y-74484403D01*
X128260844Y-75159488D01*
X128237223Y-75950230D01*
X128222568Y-76806597D01*
X128218534Y-77678553D01*
X128217880Y-78190800D01*
X128209964Y-78970194D01*
X128194636Y-79659597D01*
X128173104Y-80221885D01*
X128146578Y-80619935D01*
X128116269Y-80816625D01*
X128084851Y-80958229D01*
X128037669Y-81319737D01*
X127987545Y-81838956D01*
X127938766Y-82470227D01*
X127895616Y-83167893D01*
X127843328Y-83984862D01*
X127768057Y-84771121D01*
X127674836Y-85360138D01*
X127558742Y-85774381D01*
X127414854Y-86036320D01*
X127238249Y-86168425D01*
X127116086Y-86294468D01*
X127053991Y-86562476D01*
X127042511Y-86712954D01*
X126975611Y-87090180D01*
X126868847Y-87509269D01*
X126804820Y-87756726D01*
X126745743Y-88115508D01*
X126751346Y-88345842D01*
X126747407Y-88515453D01*
X126681003Y-88881584D01*
X126560860Y-89396214D01*
X126398682Y-90018683D01*
X126346994Y-90203849D01*
X126206171Y-90708335D01*
X125995032Y-91424510D01*
X125776968Y-92126553D01*
X125563683Y-92773804D01*
X125366879Y-93325605D01*
X125198260Y-93741300D01*
X125135471Y-93882181D01*
X125121410Y-93915311D01*
X124958355Y-94299492D01*
X124834731Y-94621467D01*
X124788263Y-94787704D01*
X124786008Y-94806384D01*
X124716018Y-95007770D01*
X124567837Y-95345878D01*
X124426023Y-95639255D01*
X124368285Y-95758699D01*
X124125373Y-96258600D01*
X123890328Y-96771559D01*
X123714995Y-97184582D01*
X123649144Y-97331166D01*
X123431850Y-97739343D01*
X123114725Y-98284452D01*
X122722252Y-98928340D01*
X122278918Y-99632857D01*
X121809207Y-100359852D01*
X121337605Y-101071172D01*
X120888595Y-101728668D01*
X120486664Y-102294186D01*
X120156295Y-102729577D01*
X119944443Y-102988565D01*
X119433424Y-103587706D01*
X118827126Y-104274692D01*
X118173892Y-104996409D01*
X117522066Y-105699745D01*
X116919990Y-106331588D01*
X116416009Y-106838826D01*
X116084669Y-107183072D01*
X115861186Y-107481503D01*
X115828312Y-107652047D01*
X114831585Y-107652047D01*
X114890611Y-107411644D01*
X114931672Y-107179535D01*
X115074791Y-106872272D01*
X115101874Y-106832447D01*
X115195616Y-106593059D01*
X115115436Y-106341119D01*
X115060933Y-106199767D01*
X114987928Y-105838307D01*
X114944875Y-105396376D01*
X114935207Y-104952708D01*
X114962355Y-104586036D01*
X115029751Y-104375094D01*
X115096127Y-104310033D01*
X115384976Y-104227841D01*
X115765025Y-104355280D01*
X116224730Y-104689313D01*
X116757685Y-105158439D01*
X117709421Y-104122881D01*
X117984393Y-103822082D01*
X118561520Y-103174550D01*
X119063328Y-102580024D01*
X119529425Y-101987003D01*
X119999421Y-101343985D01*
X120512925Y-100599471D01*
X121109546Y-99701959D01*
X121332322Y-99361930D01*
X121721829Y-98757873D01*
X121997970Y-98309261D01*
X122175552Y-97987965D01*
X122269380Y-97765855D01*
X122294260Y-97614801D01*
X122264997Y-97506674D01*
X122233838Y-97426012D01*
X122188811Y-97097080D01*
X122204435Y-96688518D01*
X122221167Y-96501412D01*
X122214972Y-96218589D01*
X122159171Y-96111267D01*
X122083893Y-96187743D01*
X122071597Y-96260328D01*
X122045540Y-96414140D01*
X122027112Y-96577341D01*
X121890796Y-96976989D01*
X121653846Y-97424053D01*
X121354649Y-97864984D01*
X121031594Y-98246234D01*
X120723067Y-98514253D01*
X120467457Y-98615493D01*
X120430262Y-98618107D01*
X120155755Y-98711147D01*
X119927304Y-98849674D01*
X119850693Y-98896129D01*
X119713573Y-98994407D01*
X119228064Y-99296775D01*
X118843729Y-99509859D01*
X118609751Y-99639582D01*
X117923634Y-99990352D01*
X117234714Y-100316614D01*
X116607990Y-100585894D01*
X116450126Y-100642723D01*
X116108463Y-100765717D01*
X116050751Y-100783273D01*
X115614532Y-100931726D01*
X115267022Y-101075909D01*
X115078991Y-101186871D01*
X115056160Y-101216471D01*
X114953544Y-101468670D01*
X114836618Y-101905472D01*
X114713100Y-102484853D01*
X114590708Y-103164787D01*
X114477161Y-103903249D01*
X114380177Y-104658213D01*
X114307475Y-105387656D01*
X114260027Y-105864602D01*
X114191928Y-106357319D01*
X114141296Y-106613205D01*
X114119417Y-106723779D01*
X114051892Y-106908079D01*
X113874976Y-107022632D01*
X113578181Y-107082159D01*
X113333045Y-107127979D01*
X113186732Y-107320055D01*
X113119663Y-107462786D01*
X112934327Y-107618177D01*
X112846863Y-107645861D01*
X112556349Y-107737704D01*
X112461461Y-107784615D01*
X112462681Y-107892489D01*
X112615974Y-108111533D01*
X112618983Y-108115361D01*
X112725654Y-108272655D01*
X112796264Y-108376775D01*
X112841344Y-108596985D01*
X112746719Y-108850230D01*
X112504886Y-109210746D01*
X112329219Y-109426042D01*
X112050032Y-109636257D01*
X111713468Y-109708994D01*
X111269217Y-109651363D01*
X110666972Y-109470471D01*
X110485045Y-109406363D01*
X109070131Y-108814417D01*
X107580991Y-108038192D01*
X106053475Y-107099500D01*
X104523429Y-106020150D01*
X103026702Y-104821954D01*
X102842054Y-104664986D01*
X102566715Y-104449013D01*
X102329479Y-104323963D01*
X102077267Y-104286103D01*
X101757002Y-104331702D01*
X101315606Y-104457027D01*
X100700001Y-104658345D01*
X100159138Y-104862297D01*
X99762827Y-105083412D01*
X99482625Y-105345657D01*
X99131535Y-105683810D01*
X98593580Y-105944357D01*
X97989766Y-105977129D01*
X97854122Y-105968460D01*
X97621559Y-105992496D01*
X97319443Y-106071390D01*
X96911388Y-106217187D01*
X96361011Y-106441932D01*
X95631925Y-106757668D01*
X95303399Y-106902766D01*
X94511419Y-107256586D01*
X93703434Y-107622246D01*
X92957728Y-107964197D01*
X92352583Y-108246889D01*
X92269432Y-108286306D01*
X90918347Y-108924615D01*
X89749177Y-109471647D01*
X88731464Y-109940441D01*
X87834747Y-110344037D01*
X87028568Y-110695472D01*
X86282468Y-111007788D01*
X85565987Y-111294023D01*
X84848667Y-111567216D01*
X84100048Y-111840406D01*
X83289672Y-112126633D01*
X82752420Y-112313205D01*
X82219271Y-112489638D01*
X81790675Y-112609862D01*
X81399134Y-112686397D01*
X80977146Y-112731761D01*
X80457212Y-112758472D01*
X79771832Y-112779050D01*
X79442496Y-112787145D01*
X78872826Y-112796135D01*
X78423391Y-112796511D01*
X78133565Y-112788431D01*
X78042724Y-112772054D01*
X78055587Y-112764642D01*
X78236845Y-112699219D01*
X78592787Y-112586734D01*
X79079377Y-112440785D01*
X79652583Y-112274969D01*
X81078180Y-111858428D01*
X82548189Y-111397931D01*
X83920865Y-110927981D01*
X85256495Y-110425787D01*
X86615362Y-109868561D01*
X88057750Y-109233512D01*
X89643945Y-108497850D01*
X90709529Y-107996369D01*
X92345060Y-107236303D01*
X93899981Y-106525446D01*
X95355370Y-105872078D01*
X96692305Y-105284480D01*
X97891864Y-104770931D01*
X98935125Y-104339712D01*
X99803167Y-103999102D01*
X100477067Y-103757381D01*
X101267749Y-103494733D01*
X100328006Y-102543554D01*
X99994724Y-102203126D01*
X99680329Y-101874893D01*
X99466912Y-101643581D01*
X99388263Y-101545093D01*
X99344906Y-101485539D01*
X99166094Y-101283978D01*
X98880795Y-100977718D01*
X98523709Y-100604514D01*
X98343567Y-100417705D01*
X97864083Y-99915591D01*
X97390512Y-99413965D01*
X97003287Y-98997824D01*
X96347418Y-98284430D01*
X95989672Y-98493380D01*
X95723947Y-98633372D01*
X95174501Y-98881349D01*
X94489286Y-99159107D01*
X93724339Y-99445885D01*
X92935691Y-99720919D01*
X92179378Y-99963448D01*
X91511433Y-100152708D01*
X89174311Y-100661509D01*
X86688832Y-100991192D01*
X84257170Y-101089342D01*
X81880219Y-100956013D01*
X79558875Y-100591260D01*
X77294034Y-99995135D01*
X75086590Y-99167692D01*
X74710065Y-98999425D01*
X73054802Y-98135014D01*
X71458049Y-97103322D01*
X69949798Y-95931540D01*
X68560040Y-94646859D01*
X67318768Y-93276468D01*
X66255974Y-91847560D01*
X65401650Y-90387324D01*
X65174222Y-89917742D01*
X64818730Y-89062371D01*
X64554530Y-88211369D01*
X64373107Y-87317167D01*
X64265945Y-86332200D01*
X64224531Y-85208899D01*
X64225797Y-85104144D01*
X65091363Y-85104144D01*
X65169666Y-86452435D01*
X65354238Y-87624198D01*
X65444425Y-87985390D01*
X65876628Y-89202842D01*
X66503388Y-90458027D01*
X67302019Y-91717610D01*
X68249836Y-92948252D01*
X69324154Y-94116618D01*
X70502285Y-95189369D01*
X71115631Y-95681503D01*
X72973326Y-96980259D01*
X74913892Y-98056611D01*
X76946254Y-98914518D01*
X79079337Y-99557941D01*
X81322066Y-99990841D01*
X81962724Y-100060587D01*
X82870703Y-100115742D01*
X83891175Y-100143244D01*
X84957316Y-100143214D01*
X86002301Y-100115774D01*
X86959305Y-100061045D01*
X87761503Y-99979149D01*
X88569082Y-99855513D01*
X90219818Y-99523547D01*
X91854407Y-99095905D01*
X93399584Y-98592879D01*
X94782083Y-98034762D01*
X95590976Y-97667992D01*
X95042578Y-96919442D01*
X94807660Y-96598979D01*
X94540493Y-96225942D01*
X94323606Y-95894868D01*
X94147796Y-95574843D01*
X94003856Y-95234954D01*
X93882580Y-94844285D01*
X93774763Y-94371924D01*
X93671200Y-93786955D01*
X93562685Y-93058465D01*
X93440012Y-92155540D01*
X93293977Y-91047265D01*
X93027616Y-89024108D01*
X91880253Y-87887171D01*
X91877401Y-87884345D01*
X91389515Y-87386929D01*
X90908445Y-86872517D01*
X90489472Y-86401618D01*
X90187877Y-86034742D01*
X90005451Y-85790847D01*
X88979621Y-84222488D01*
X88144915Y-82582720D01*
X87504534Y-80892916D01*
X87061676Y-79174446D01*
X86819540Y-77448684D01*
X86810108Y-77026177D01*
X88099994Y-77026177D01*
X88291242Y-78780395D01*
X88712117Y-80485039D01*
X89363900Y-82143190D01*
X90247873Y-83757927D01*
X91365320Y-85332332D01*
X92717521Y-86869483D01*
X93043768Y-87210787D01*
X93477048Y-87677751D01*
X93832778Y-88077491D01*
X94080871Y-88375924D01*
X94191242Y-88538967D01*
X94216576Y-88642040D01*
X94276138Y-88966673D01*
X94357955Y-89467356D01*
X94456456Y-90108490D01*
X94566068Y-90854476D01*
X94681220Y-91669714D01*
X94763357Y-92254032D01*
X94873867Y-93012816D01*
X94974338Y-93672076D01*
X95059366Y-94197598D01*
X95123548Y-94555164D01*
X95161478Y-94710559D01*
X95166055Y-94718883D01*
X95278365Y-94902332D01*
X95479018Y-95215569D01*
X95727860Y-95595830D01*
X95955135Y-95926216D01*
X96168272Y-96178444D01*
X96350242Y-96296921D01*
X96547699Y-96323033D01*
X96880828Y-96313562D01*
X96525896Y-95693204D01*
X96037039Y-94714596D01*
X95569481Y-93359673D01*
X95284128Y-91885432D01*
X95175055Y-90268075D01*
X95172838Y-89767681D01*
X95194324Y-89140482D01*
X95253746Y-88703276D01*
X95359218Y-88426985D01*
X95518854Y-88282534D01*
X95740769Y-88240845D01*
X95853554Y-88247650D01*
X96050314Y-88320647D01*
X96193075Y-88500379D01*
X96294577Y-88819782D01*
X96367556Y-89311793D01*
X96424752Y-90009347D01*
X96472496Y-90559923D01*
X96630173Y-91670691D01*
X96858862Y-92760333D01*
X97142196Y-93756729D01*
X97463807Y-94587758D01*
X97628332Y-94905236D01*
X97926735Y-95411570D01*
X98287273Y-95974596D01*
X98664296Y-96520806D01*
X98944590Y-96922531D01*
X99242004Y-97390219D01*
X99389505Y-97667992D01*
X99428021Y-97740525D01*
X99483114Y-97939613D01*
X99342471Y-98232668D01*
X99057692Y-98355792D01*
X98667060Y-98292093D01*
X98432849Y-98211021D01*
X98370140Y-98226437D01*
X98455341Y-98354241D01*
X98568509Y-98482420D01*
X98822513Y-98712168D01*
X98833225Y-98720458D01*
X99034175Y-98943211D01*
X99226289Y-99248788D01*
X99229308Y-99254532D01*
X99379348Y-99464160D01*
X99667218Y-99806907D01*
X100062956Y-100249246D01*
X100536600Y-100757650D01*
X101058186Y-101298591D01*
X101106128Y-101347539D01*
X101613251Y-101873952D01*
X102060591Y-102353435D01*
X102420878Y-102755615D01*
X102666843Y-103050119D01*
X102771215Y-103206573D01*
X102875485Y-103361980D01*
X103151107Y-103648159D01*
X103565341Y-104026220D01*
X104088668Y-104471156D01*
X104691570Y-104957961D01*
X105344529Y-105461628D01*
X106018027Y-105957151D01*
X106546727Y-106312501D01*
X107208715Y-106722168D01*
X107916978Y-107133732D01*
X108586881Y-107496478D01*
X108789421Y-107600653D01*
X109312967Y-107865943D01*
X109746412Y-108079853D01*
X110049345Y-108222662D01*
X110181356Y-108274648D01*
X110184533Y-108272655D01*
X110102251Y-108182357D01*
X109869074Y-107977499D01*
X109517048Y-107685421D01*
X109078217Y-107333463D01*
X108858162Y-107157671D01*
X107482563Y-105979559D01*
X106116187Y-104680560D01*
X104792828Y-103299037D01*
X103546279Y-101873353D01*
X102410333Y-100441871D01*
X101418784Y-99042953D01*
X100605424Y-97714963D01*
X99926094Y-96452023D01*
X99263283Y-95091658D01*
X98712853Y-93783217D01*
X98260095Y-92478498D01*
X97890297Y-91129303D01*
X97588749Y-89687432D01*
X97340740Y-88104686D01*
X97131558Y-86332864D01*
X97106775Y-86090112D01*
X97044927Y-85453770D01*
X96984314Y-84780526D01*
X96923721Y-84052081D01*
X96861930Y-83250136D01*
X96797727Y-82356392D01*
X96729895Y-81352551D01*
X96657217Y-80220314D01*
X96578479Y-78941382D01*
X96492464Y-77497457D01*
X96397955Y-75870240D01*
X96293738Y-74041431D01*
X96178595Y-71992733D01*
X96125286Y-71047573D01*
X96053316Y-69809160D01*
X95990073Y-68778609D01*
X95934024Y-67937667D01*
X95883637Y-67268076D01*
X95837378Y-66751579D01*
X95793715Y-66369922D01*
X95751116Y-66104847D01*
X95708046Y-65938098D01*
X95662974Y-65851419D01*
X95615505Y-65784355D01*
X95486099Y-65483344D01*
X95393627Y-65106573D01*
X95379976Y-65027033D01*
X95306208Y-64652808D01*
X95193696Y-64124607D01*
X95055132Y-63501071D01*
X94903211Y-62840845D01*
X94842589Y-62581987D01*
X94699127Y-61968957D01*
X94575391Y-61439620D01*
X94482949Y-61043481D01*
X94433367Y-60830041D01*
X94397735Y-60695094D01*
X94319452Y-60619896D01*
X94156106Y-60740605D01*
X93994609Y-60858962D01*
X93799706Y-60932864D01*
X93744159Y-60970562D01*
X93708726Y-61144025D01*
X93710992Y-61488282D01*
X93749472Y-62035915D01*
X93794562Y-62691692D01*
X93825119Y-63485556D01*
X93832450Y-64262882D01*
X93817582Y-64979415D01*
X93781542Y-65590901D01*
X93725356Y-66053085D01*
X93650050Y-66321713D01*
X93613963Y-66377380D01*
X93393428Y-66621528D01*
X93053254Y-66931866D01*
X92650705Y-67254921D01*
X92282641Y-67537795D01*
X91391431Y-68297340D01*
X90651189Y-69065696D01*
X90006484Y-69904644D01*
X89401884Y-70875968D01*
X89227182Y-71193929D01*
X88758480Y-72219140D01*
X88425328Y-73284789D01*
X88211685Y-74451361D01*
X88101509Y-75779343D01*
X88099994Y-77026177D01*
X86810108Y-77026177D01*
X86781327Y-75737001D01*
X86950235Y-74060770D01*
X87329465Y-72441361D01*
X87922215Y-70900148D01*
X88476342Y-69868274D01*
X89390637Y-68563663D01*
X90475322Y-67373068D01*
X91693023Y-66341668D01*
X91726379Y-66316924D01*
X92126787Y-65989100D01*
X92417575Y-65693796D01*
X92552286Y-65477721D01*
X92552913Y-65475235D01*
X92582530Y-65196874D01*
X92589375Y-64734096D01*
X92576257Y-64138825D01*
X92545987Y-63462987D01*
X92501374Y-62758508D01*
X92445228Y-62077315D01*
X92380360Y-61471333D01*
X92309578Y-60992488D01*
X92035448Y-59693045D01*
X91435061Y-57577903D01*
X91257501Y-57105595D01*
X93335306Y-57105595D01*
X93358641Y-57296179D01*
X93413876Y-57656702D01*
X93503858Y-58219953D01*
X93516607Y-58288847D01*
X93611582Y-58560295D01*
X93732758Y-58667136D01*
X93752357Y-58666059D01*
X93819296Y-58606441D01*
X93805701Y-58420664D01*
X93709734Y-58060241D01*
X93642700Y-57841967D01*
X93515299Y-57459274D01*
X93414858Y-57195687D01*
X93372938Y-57103098D01*
X93341021Y-57052164D01*
X93335306Y-57105595D01*
X91257501Y-57105595D01*
X91103944Y-56697133D01*
X93212802Y-56697133D01*
X93227074Y-56838654D01*
X93262942Y-56857310D01*
X93306573Y-56759155D01*
X93297967Y-56696025D01*
X93227074Y-56679655D01*
X93212802Y-56697133D01*
X91103944Y-56697133D01*
X90970354Y-56341784D01*
X93068076Y-56341784D01*
X93127700Y-56401408D01*
X93187325Y-56341784D01*
X93127700Y-56282159D01*
X93068076Y-56341784D01*
X90970354Y-56341784D01*
X90664527Y-55528287D01*
X90597639Y-55387793D01*
X92710329Y-55387793D01*
X92769954Y-55447418D01*
X92829578Y-55387793D01*
X92769954Y-55328169D01*
X92710329Y-55387793D01*
X90597639Y-55387793D01*
X90427320Y-55030047D01*
X92591080Y-55030047D01*
X92650705Y-55089671D01*
X92710329Y-55030047D01*
X92650705Y-54970422D01*
X92591080Y-55030047D01*
X90427320Y-55030047D01*
X90313774Y-54791549D01*
X92471832Y-54791549D01*
X92531456Y-54851173D01*
X92591080Y-54791549D01*
X92531456Y-54731925D01*
X92471832Y-54791549D01*
X90313774Y-54791549D01*
X89742842Y-53592337D01*
X88689007Y-51818192D01*
X88268503Y-51230950D01*
X87645067Y-50462775D01*
X86950456Y-49692203D01*
X86233712Y-48970613D01*
X85748034Y-48533239D01*
X88772865Y-48533239D01*
X89351793Y-49277417D01*
X89902666Y-50013375D01*
X90868839Y-51461784D01*
X91666240Y-52883568D01*
X91809314Y-53169364D01*
X92040437Y-53638838D01*
X92224135Y-54021665D01*
X92329958Y-54254929D01*
X92452959Y-54553051D01*
X92460948Y-54195305D01*
X92468403Y-53894197D01*
X92477863Y-53570140D01*
X92477837Y-53555777D01*
X92414766Y-53289776D01*
X92249160Y-52857393D01*
X91999409Y-52293734D01*
X91683901Y-51633910D01*
X91321026Y-50913029D01*
X90929172Y-50166199D01*
X90526728Y-49428530D01*
X90132085Y-48735129D01*
X89763630Y-48121105D01*
X89439753Y-47621567D01*
X89178843Y-47271624D01*
X89093748Y-47175223D01*
X88978536Y-47076372D01*
X88979200Y-47080872D01*
X88990816Y-47159624D01*
X88997801Y-47174972D01*
X89169510Y-47660986D01*
X89174726Y-48019499D01*
X89014305Y-48291798D01*
X88772865Y-48533239D01*
X85748034Y-48533239D01*
X85543876Y-48349386D01*
X84929990Y-47879900D01*
X84244955Y-47418994D01*
X83141257Y-48500133D01*
X82712757Y-48913105D01*
X82159360Y-49431685D01*
X81629334Y-49914512D01*
X81195035Y-50294863D01*
X81134838Y-50346210D01*
X80246631Y-51177776D01*
X79291455Y-52197689D01*
X78292496Y-53376292D01*
X77272941Y-54683932D01*
X76255979Y-56090951D01*
X75264794Y-57567694D01*
X74322576Y-59084507D01*
X73591572Y-60344982D01*
X72801473Y-61773135D01*
X71993527Y-63293361D01*
X71183489Y-64872790D01*
X70387113Y-66478551D01*
X69620156Y-68077775D01*
X68898370Y-69637589D01*
X68237512Y-71125125D01*
X67653335Y-72507511D01*
X67161594Y-73751877D01*
X66778045Y-74825352D01*
X66635130Y-75267436D01*
X66157592Y-76939846D01*
X65762960Y-78645743D01*
X65455127Y-80350123D01*
X65237988Y-82017985D01*
X65115435Y-83614326D01*
X65091363Y-85104144D01*
X64225797Y-85104144D01*
X64240350Y-83899697D01*
X64256534Y-83452540D01*
X64484453Y-80773451D01*
X64938397Y-78114118D01*
X65621856Y-75457670D01*
X66538319Y-72787234D01*
X66711212Y-72347244D01*
X67262707Y-71024562D01*
X67911992Y-69562773D01*
X68640545Y-67997978D01*
X69429840Y-66366276D01*
X70261353Y-64703766D01*
X71116560Y-63046547D01*
X71976938Y-61430718D01*
X72823960Y-59892378D01*
X73639104Y-58467627D01*
X74403846Y-57192563D01*
X75099660Y-56103286D01*
X75174490Y-55991455D01*
X75888611Y-54973098D01*
X76677301Y-53923976D01*
X77507592Y-52883247D01*
X78346515Y-51890070D01*
X79161102Y-50983604D01*
X79918385Y-50203009D01*
X80585396Y-49587444D01*
X80630607Y-49548890D01*
X81302449Y-48960391D01*
X81940057Y-48374764D01*
X82505482Y-47828602D01*
X82960772Y-47358493D01*
X83267975Y-47001030D01*
X83428137Y-46767488D01*
X83467954Y-46598979D01*
X83356921Y-46468775D01*
X83068006Y-46345596D01*
X82574179Y-46198162D01*
X82224296Y-46099588D01*
X81831019Y-45970443D01*
X81584064Y-45826836D01*
X81433641Y-45616886D01*
X81329964Y-45288712D01*
X81223246Y-44790436D01*
X81166453Y-44483535D01*
X81059666Y-43585741D01*
X81051499Y-43338602D01*
X81980548Y-43338602D01*
X81988522Y-43790825D01*
X82011551Y-44177173D01*
X82050455Y-44436614D01*
X82053173Y-44446262D01*
X82219494Y-44668471D01*
X82577742Y-44819097D01*
X83148068Y-44906771D01*
X83276988Y-44919845D01*
X84068215Y-45088701D01*
X84872450Y-45420641D01*
X85722216Y-45931741D01*
X86650033Y-46638080D01*
X86910536Y-46846906D01*
X87158756Y-47029654D01*
X87283790Y-47100000D01*
X87295059Y-47080872D01*
X87207456Y-46938293D01*
X87095091Y-46801878D01*
X88775118Y-46801878D01*
X88834742Y-46861502D01*
X88894367Y-46801878D01*
X88834742Y-46742253D01*
X88775118Y-46801878D01*
X87095091Y-46801878D01*
X87002135Y-46689026D01*
X86715809Y-46371975D01*
X86385193Y-46026048D01*
X86046999Y-45690151D01*
X85737941Y-45403191D01*
X85494732Y-45204075D01*
X85378696Y-45125557D01*
X84967251Y-44880525D01*
X84454175Y-44605742D01*
X83923761Y-44347185D01*
X83629119Y-44211496D01*
X83089695Y-43961023D01*
X82716382Y-43781565D01*
X82564423Y-43701408D01*
X85674648Y-43701408D01*
X85734273Y-43761033D01*
X85793897Y-43701408D01*
X85734273Y-43641784D01*
X85674648Y-43701408D01*
X82564423Y-43701408D01*
X82473720Y-43653563D01*
X82326248Y-43557462D01*
X82238508Y-43473705D01*
X82230977Y-43462911D01*
X85316902Y-43462911D01*
X85376526Y-43522535D01*
X85436151Y-43462911D01*
X85376526Y-43403286D01*
X85316902Y-43462911D01*
X82230977Y-43462911D01*
X82175039Y-43382735D01*
X82113403Y-43198523D01*
X82190515Y-42875927D01*
X82234378Y-42789992D01*
X82417694Y-42614844D01*
X82731827Y-42568544D01*
X82783320Y-42569939D01*
X83206791Y-42636270D01*
X83743686Y-42783166D01*
X84309690Y-42984556D01*
X84820489Y-43214372D01*
X84878203Y-43243503D01*
X85105541Y-43340725D01*
X85197653Y-43348733D01*
X85176670Y-43314375D01*
X84988442Y-43189938D01*
X84645046Y-43017669D01*
X84195693Y-42817425D01*
X83689594Y-42609061D01*
X83175960Y-42412434D01*
X82704003Y-42247403D01*
X82322933Y-42133822D01*
X82081962Y-42091549D01*
X82038758Y-42196993D01*
X82006486Y-42480654D01*
X81986810Y-42881534D01*
X81980548Y-43338602D01*
X81051499Y-43338602D01*
X81030998Y-42718252D01*
X81032488Y-42589351D01*
X81016486Y-42030219D01*
X80970492Y-41513712D01*
X80902451Y-41137558D01*
X80891268Y-41093471D01*
X80833006Y-40711999D01*
X80786464Y-40140684D01*
X80754293Y-39420815D01*
X80739145Y-38593679D01*
X80738621Y-38514701D01*
X80735011Y-37800782D01*
X80738252Y-37284177D01*
X80751337Y-36969812D01*
X81620188Y-36969812D01*
X81620188Y-38566937D01*
X81620399Y-38689538D01*
X81627541Y-39285400D01*
X81643322Y-39795051D01*
X81665685Y-40167733D01*
X81692571Y-40352688D01*
X81835076Y-40485278D01*
X82182166Y-40541314D01*
X82650887Y-40586223D01*
X83342639Y-40739532D01*
X84166056Y-40991213D01*
X85081204Y-41330397D01*
X85569843Y-41546995D01*
X86268809Y-41945956D01*
X86954600Y-42458819D01*
X87668739Y-43117911D01*
X87991645Y-43462911D01*
X88214868Y-43701408D01*
X88452746Y-43955562D01*
X88553808Y-44070483D01*
X89021568Y-44624778D01*
X89539288Y-45267634D01*
X90078015Y-45960229D01*
X90608798Y-46663739D01*
X90709781Y-46801878D01*
X91102682Y-47339344D01*
X91530716Y-47948219D01*
X91863946Y-48451543D01*
X92073419Y-48810492D01*
X92203245Y-49060147D01*
X92418244Y-49446291D01*
X92589821Y-49723474D01*
X92620790Y-49770748D01*
X92797970Y-50111402D01*
X92950012Y-50498591D01*
X92964928Y-50543100D01*
X93153622Y-50983730D01*
X93383174Y-51389707D01*
X93464083Y-51520126D01*
X93679784Y-51944453D01*
X93856485Y-52386966D01*
X93921765Y-52575299D01*
X94077863Y-52981046D01*
X94214258Y-53284583D01*
X94324258Y-53553873D01*
X94327528Y-53570140D01*
X94379078Y-53826618D01*
X94391712Y-53905713D01*
X94483256Y-54194429D01*
X94643915Y-54605887D01*
X94725063Y-54791549D01*
X94829304Y-55030047D01*
X94850582Y-55078731D01*
X94982181Y-55387793D01*
X94997517Y-55423810D01*
X95286347Y-56225774D01*
X95322158Y-56341784D01*
X95450996Y-56759155D01*
X95589013Y-57206263D01*
X95896718Y-58327339D01*
X95966041Y-58606441D01*
X96200664Y-59551067D01*
X96492051Y-60839509D01*
X96762081Y-62154729D01*
X97001957Y-63458790D01*
X97202879Y-64713756D01*
X97356049Y-65881690D01*
X97400753Y-66346481D01*
X97454035Y-67019891D01*
X97514155Y-67871276D01*
X97579424Y-68870461D01*
X97648153Y-69987276D01*
X97718656Y-71191545D01*
X97789243Y-72453098D01*
X97858226Y-73741761D01*
X97923917Y-75027362D01*
X97984628Y-76279726D01*
X98038671Y-77468683D01*
X98084357Y-78564059D01*
X98119999Y-79535681D01*
X98127957Y-79734531D01*
X98164146Y-80380855D01*
X98218149Y-81153189D01*
X98284090Y-81971411D01*
X98356095Y-82755399D01*
X98386439Y-83064589D01*
X98473969Y-83971008D01*
X98569163Y-84973363D01*
X98662420Y-85970117D01*
X98744140Y-86859736D01*
X98840881Y-87799606D01*
X98947250Y-88604133D01*
X99057867Y-89235905D01*
X99167769Y-89662084D01*
X99214962Y-89803845D01*
X99364260Y-90291452D01*
X99530538Y-90876105D01*
X99685790Y-91460563D01*
X99883297Y-92167318D01*
X100188651Y-93110554D01*
X100544147Y-94090944D01*
X100928204Y-95054779D01*
X101319242Y-95948346D01*
X101695682Y-96717936D01*
X102035943Y-97309839D01*
X102240468Y-97640487D01*
X102483066Y-98071229D01*
X102650006Y-98412890D01*
X102691596Y-98506665D01*
X102831613Y-98754562D01*
X102939493Y-98853990D01*
X102940857Y-98854017D01*
X103064647Y-98951714D01*
X103213887Y-99181925D01*
X103244802Y-99238412D01*
X103486118Y-99600838D01*
X103864180Y-100095877D01*
X104353137Y-100693252D01*
X104927141Y-101362685D01*
X105560342Y-102073900D01*
X106226891Y-102796618D01*
X106900940Y-103500563D01*
X107191368Y-103791136D01*
X107656409Y-104235762D01*
X108134759Y-104673185D01*
X108595490Y-105077115D01*
X109007674Y-105421261D01*
X109340382Y-105679331D01*
X109562688Y-105825034D01*
X109643663Y-105832079D01*
X109639562Y-105818754D01*
X109531473Y-105668542D01*
X109306377Y-105405129D01*
X109004328Y-105075889D01*
X108857765Y-104919283D01*
X107791571Y-103699767D01*
X106735037Y-102361131D01*
X105751336Y-100986809D01*
X104903642Y-99660231D01*
X104602076Y-99148763D01*
X104266648Y-98568122D01*
X103985955Y-98069295D01*
X103782873Y-97693048D01*
X103680278Y-97480148D01*
X103578949Y-97242362D01*
X103397776Y-96844750D01*
X103173750Y-96367059D01*
X104490588Y-96367059D01*
X104495104Y-96710547D01*
X104624049Y-97155075D01*
X104885011Y-97729515D01*
X105285576Y-98462741D01*
X105742990Y-99239935D01*
X106575776Y-100552764D01*
X107437269Y-101767282D01*
X108370846Y-102939678D01*
X109419886Y-104126141D01*
X110627765Y-105382864D01*
X110909518Y-105663293D01*
X111084521Y-105832079D01*
X111345814Y-106084089D01*
X111711825Y-106420516D01*
X111975649Y-106643611D01*
X112105386Y-106724413D01*
X112141929Y-106719286D01*
X112193625Y-106613205D01*
X112136123Y-106336854D01*
X112104792Y-106194840D01*
X112051130Y-105804293D01*
X112004104Y-105291464D01*
X111971246Y-104729754D01*
X111952697Y-104379473D01*
X111911854Y-103884319D01*
X111862481Y-103503380D01*
X111811510Y-103298768D01*
X111793274Y-103259470D01*
X111700463Y-102972338D01*
X111621014Y-102610328D01*
X111591361Y-102444802D01*
X111500280Y-101980381D01*
X111400287Y-101511397D01*
X111260831Y-100889462D01*
X110836386Y-100732135D01*
X113020222Y-100732135D01*
X113040147Y-100851408D01*
X113058238Y-100905472D01*
X113129962Y-101183804D01*
X113223507Y-101603235D01*
X113323393Y-102095761D01*
X113364893Y-102304952D01*
X113459002Y-102741011D01*
X113538002Y-103057115D01*
X113588095Y-103195919D01*
X113598218Y-103196196D01*
X113653468Y-103063949D01*
X113727254Y-102761146D01*
X113806489Y-102339126D01*
X113814039Y-102294591D01*
X113912523Y-101792256D01*
X114022410Y-101339770D01*
X114121294Y-101030281D01*
X114282197Y-100642723D01*
X113619655Y-100642723D01*
X113370088Y-100645400D01*
X113114252Y-100669209D01*
X113020222Y-100732135D01*
X110836386Y-100732135D01*
X110445948Y-100587413D01*
X110230018Y-100501009D01*
X109694859Y-100256323D01*
X109098451Y-99953881D01*
X108534312Y-99640031D01*
X108306431Y-99509859D01*
X110239907Y-99509859D01*
X110299531Y-99569483D01*
X110359155Y-99509859D01*
X110299531Y-99450235D01*
X110239907Y-99509859D01*
X108306431Y-99509859D01*
X108125125Y-99406292D01*
X107671230Y-99177204D01*
X107350329Y-99064668D01*
X107127395Y-99054098D01*
X106989521Y-99067655D01*
X106766588Y-98989689D01*
X106617883Y-98830340D01*
X109166667Y-98830340D01*
X109188463Y-98872110D01*
X109359074Y-99017782D01*
X109643663Y-99197408D01*
X109794411Y-99279487D01*
X110028434Y-99392546D01*
X110120658Y-99414087D01*
X110093872Y-99379415D01*
X109922008Y-99240944D01*
X109643663Y-99047018D01*
X109477507Y-98943292D01*
X109254188Y-98831287D01*
X109166667Y-98830340D01*
X106617883Y-98830340D01*
X106531150Y-98737398D01*
X106411505Y-98584308D01*
X106114966Y-98221237D01*
X105803526Y-97855120D01*
X105514538Y-97490356D01*
X105210709Y-96935123D01*
X105116297Y-96437773D01*
X106066198Y-96437773D01*
X106119401Y-96712562D01*
X106304695Y-97005634D01*
X106390353Y-97081412D01*
X106496712Y-97138561D01*
X106536935Y-97032662D01*
X106543193Y-96725994D01*
X106541628Y-96603001D01*
X106524082Y-96336686D01*
X106493322Y-96230516D01*
X106444920Y-96221272D01*
X106254824Y-96158134D01*
X106201050Y-96142193D01*
X106095067Y-96194722D01*
X106066198Y-96437773D01*
X105116297Y-96437773D01*
X105112207Y-96416228D01*
X105100951Y-96288736D01*
X104995872Y-96048017D01*
X104826042Y-95948481D01*
X104647923Y-96036327D01*
X104602912Y-96095738D01*
X104490588Y-96367059D01*
X103173750Y-96367059D01*
X103162838Y-96343792D01*
X102899867Y-95795050D01*
X102879624Y-95753207D01*
X102804412Y-95595022D01*
X107366402Y-95595022D01*
X107443857Y-96717699D01*
X107444484Y-96725994D01*
X107474410Y-97122031D01*
X107520555Y-97522725D01*
X107585016Y-97782108D01*
X107683658Y-97956761D01*
X107832344Y-98103266D01*
X108143376Y-98366157D01*
X108286733Y-98025211D01*
X108439886Y-97779580D01*
X108748410Y-97591998D01*
X109120056Y-97620182D01*
X109222463Y-97669946D01*
X109511128Y-97837787D01*
X109908081Y-98085876D01*
X110359155Y-98380955D01*
X110591330Y-98533688D01*
X111123638Y-98869401D01*
X111628282Y-99170767D01*
X112021178Y-99386897D01*
X112075712Y-99414056D01*
X112075796Y-99414087D01*
X112335271Y-99509859D01*
X112804232Y-99682952D01*
X113542396Y-99770761D01*
X114312041Y-99672343D01*
X114773482Y-99509859D01*
X116798592Y-99509859D01*
X116858217Y-99569483D01*
X116917841Y-99509859D01*
X116858217Y-99450235D01*
X116798592Y-99509859D01*
X114773482Y-99509859D01*
X115071944Y-99404764D01*
X117037090Y-99404764D01*
X117038350Y-99422594D01*
X117075866Y-99440917D01*
X117206365Y-99378845D01*
X117484273Y-99213044D01*
X117549221Y-99171647D01*
X117778972Y-98988590D01*
X117871832Y-98849674D01*
X117851898Y-98826157D01*
X117702359Y-98876876D01*
X117454461Y-99040948D01*
X117338698Y-99131035D01*
X117122753Y-99311909D01*
X117037090Y-99404764D01*
X115071944Y-99404764D01*
X115135004Y-99382559D01*
X116033123Y-98896269D01*
X117028234Y-98208332D01*
X117203396Y-98078687D01*
X117713420Y-97740781D01*
X118100052Y-97571579D01*
X118395426Y-97568237D01*
X118631678Y-97727907D01*
X118840942Y-98047742D01*
X119009978Y-98374357D01*
X119335271Y-98072728D01*
X119466416Y-97939995D01*
X119591564Y-97737034D01*
X119647908Y-97461453D01*
X119659746Y-97080572D01*
X120530570Y-97080572D01*
X120606832Y-97184507D01*
X120651393Y-97169729D01*
X120813850Y-97013886D01*
X120997491Y-96754742D01*
X121147822Y-96475741D01*
X121210353Y-96260328D01*
X121195054Y-96197329D01*
X121046527Y-96111267D01*
X120929024Y-96133947D01*
X120711650Y-96350708D01*
X120559225Y-96796948D01*
X120530570Y-97080572D01*
X119659746Y-97080572D01*
X119661299Y-97030620D01*
X119677310Y-96687706D01*
X119738153Y-96263321D01*
X119828727Y-95970636D01*
X119892990Y-95838808D01*
X119946677Y-95639255D01*
X119848930Y-95621998D01*
X119599152Y-95787194D01*
X119196745Y-96134996D01*
X118692486Y-96574203D01*
X117789286Y-97265905D01*
X116853696Y-97878266D01*
X115931336Y-98384783D01*
X115067829Y-98758958D01*
X114308795Y-98974289D01*
X113505301Y-99036935D01*
X112553406Y-98910118D01*
X111545349Y-98571385D01*
X110474457Y-98017803D01*
X109334057Y-97246443D01*
X108117474Y-96254371D01*
X107366402Y-95595022D01*
X102804412Y-95595022D01*
X102634457Y-95237573D01*
X102434418Y-94801063D01*
X102299636Y-94488598D01*
X102250235Y-94345100D01*
X102250175Y-94342925D01*
X102201184Y-94180214D01*
X102089657Y-93897662D01*
X103085071Y-93897662D01*
X103085075Y-93898210D01*
X103133914Y-94064941D01*
X103260546Y-94377878D01*
X103437754Y-94769718D01*
X103447253Y-94789769D01*
X103625534Y-95155595D01*
X103761083Y-95414964D01*
X103825219Y-95512868D01*
X103828555Y-95511879D01*
X103933435Y-95416858D01*
X104119381Y-95214746D01*
X104267373Y-95072347D01*
X104532718Y-94951043D01*
X104930051Y-94918779D01*
X105481434Y-94918779D01*
X105067957Y-94493036D01*
X104962812Y-94381365D01*
X104639630Y-94006265D01*
X104376536Y-93660161D01*
X104317749Y-93577698D01*
X104101031Y-93322748D01*
X103930115Y-93187830D01*
X103857446Y-93186312D01*
X103635332Y-93291051D01*
X103381063Y-93487784D01*
X103171891Y-93711619D01*
X103085071Y-93897662D01*
X102089657Y-93897662D01*
X102078313Y-93868922D01*
X101907330Y-93474475D01*
X101844199Y-93328182D01*
X101639916Y-92798971D01*
X101426525Y-92181452D01*
X101241113Y-91581028D01*
X101162699Y-91311417D01*
X101002823Y-90787168D01*
X100858348Y-90343581D01*
X100787276Y-90148826D01*
X101824844Y-90148826D01*
X101832324Y-90252132D01*
X101903026Y-90543047D01*
X102026298Y-90982062D01*
X102191030Y-91529641D01*
X102386110Y-92146244D01*
X102509476Y-92515960D01*
X102607404Y-92787740D01*
X102655018Y-92891549D01*
X102669715Y-92882667D01*
X102801148Y-92761435D01*
X103016069Y-92543493D01*
X103027783Y-92531174D01*
X103241145Y-92239541D01*
X103254161Y-92036685D01*
X103245863Y-92023181D01*
X103109662Y-91824151D01*
X102888470Y-91519363D01*
X102619921Y-91158524D01*
X102341649Y-90791343D01*
X102091290Y-90467528D01*
X101906476Y-90236786D01*
X101824844Y-90148826D01*
X100787276Y-90148826D01*
X100753152Y-90055317D01*
X100736497Y-90015664D01*
X100619946Y-89784905D01*
X100504264Y-89736657D01*
X100316317Y-89833842D01*
X100246653Y-89873213D01*
X99905688Y-89935985D01*
X99624292Y-89793212D01*
X99464137Y-89471143D01*
X99426299Y-89235670D01*
X99372630Y-88819237D01*
X99322335Y-88354279D01*
X99305859Y-88170270D01*
X99291831Y-87786823D01*
X99331173Y-87556759D01*
X99430837Y-87420254D01*
X99670582Y-87308467D01*
X99956829Y-87374620D01*
X100188440Y-87645657D01*
X100283577Y-87797237D01*
X100330780Y-87766739D01*
X100311059Y-87529242D01*
X100223648Y-87096677D01*
X100221094Y-87085558D01*
X100114155Y-86520969D01*
X100001716Y-85751992D01*
X99887047Y-84811751D01*
X99773419Y-83733371D01*
X99664102Y-82549975D01*
X99562367Y-81294688D01*
X99471484Y-80000635D01*
X99394724Y-78700939D01*
X99377319Y-78401082D01*
X99279085Y-77189070D01*
X99185532Y-76389459D01*
X100129571Y-76389459D01*
X100160048Y-76624624D01*
X100160977Y-76630369D01*
X100185992Y-76866056D01*
X100219929Y-77294206D01*
X100259765Y-77871194D01*
X100302483Y-78553394D01*
X100345060Y-79297183D01*
X100391227Y-80096886D01*
X100507181Y-81785242D01*
X100638135Y-83300684D01*
X100782664Y-84632296D01*
X100939343Y-85769162D01*
X101106748Y-86700366D01*
X101283454Y-87414992D01*
X101468037Y-87902124D01*
X101549468Y-88049638D01*
X101825938Y-88484880D01*
X102208846Y-89036709D01*
X102664439Y-89661004D01*
X103158965Y-90313639D01*
X103658672Y-90950492D01*
X104129808Y-91527438D01*
X104538622Y-92000355D01*
X104573607Y-92036685D01*
X104851362Y-92325117D01*
X105227950Y-92663430D01*
X105471316Y-92848583D01*
X105577318Y-92872517D01*
X105558246Y-92742488D01*
X105510106Y-92602219D01*
X105399026Y-92268771D01*
X105238937Y-91783856D01*
X105042688Y-91186402D01*
X104823129Y-90515338D01*
X104621241Y-89914250D01*
X104391200Y-89267785D01*
X104180883Y-88715331D01*
X104007346Y-88301459D01*
X103887644Y-88070737D01*
X103853377Y-88023936D01*
X103615056Y-87737704D01*
X103279081Y-87370113D01*
X102906710Y-86988732D01*
X102849094Y-86930841D01*
X102232659Y-86182391D01*
X101698355Y-85301830D01*
X101262106Y-84337693D01*
X100939834Y-83338518D01*
X100747462Y-82352840D01*
X100724011Y-81887530D01*
X101603293Y-81887530D01*
X101702447Y-82644056D01*
X101920306Y-83453408D01*
X102247061Y-84281292D01*
X102672904Y-85093419D01*
X103188025Y-85855496D01*
X103782617Y-86533231D01*
X103956269Y-86710056D01*
X104336760Y-87131627D01*
X104651517Y-87524975D01*
X104845647Y-87823474D01*
X104920602Y-87992625D01*
X105075972Y-88395316D01*
X105271782Y-88941830D01*
X105490422Y-89582604D01*
X105714279Y-90268075D01*
X105957820Y-91024021D01*
X106210231Y-91781062D01*
X106419357Y-92366640D01*
X106598156Y-92812620D01*
X106626743Y-92872517D01*
X106759588Y-93150864D01*
X106916610Y-93413238D01*
X107082182Y-93631605D01*
X107126366Y-93686184D01*
X107305364Y-93960613D01*
X107377935Y-94167589D01*
X107439611Y-94306133D01*
X107641576Y-94556912D01*
X107935357Y-94844121D01*
X108020197Y-94918779D01*
X108091839Y-94981823D01*
X109068885Y-95817954D01*
X109915939Y-96494931D01*
X110657662Y-97029527D01*
X111318717Y-97438513D01*
X111923764Y-97738661D01*
X112497466Y-97946743D01*
X112567218Y-97967090D01*
X113125700Y-98097728D01*
X113625426Y-98134374D01*
X114131912Y-98069354D01*
X114710675Y-97894996D01*
X115427231Y-97603626D01*
X116036396Y-97290581D01*
X116815175Y-96795382D01*
X117661276Y-96173361D01*
X118530791Y-95454920D01*
X118876068Y-95158034D01*
X119070019Y-94996149D01*
X121471926Y-94996149D01*
X122111315Y-94943126D01*
X122354154Y-94926595D01*
X122654856Y-94941260D01*
X122872851Y-95037637D01*
X123106106Y-95245506D01*
X123461509Y-95600909D01*
X123710207Y-95022796D01*
X123870895Y-94632823D01*
X124004777Y-94215611D01*
X124026287Y-93915311D01*
X123936308Y-93677383D01*
X123735723Y-93447287D01*
X123652538Y-93368643D01*
X123447816Y-93206747D01*
X123293539Y-93189216D01*
X123101093Y-93294752D01*
X123058121Y-93325984D01*
X122817057Y-93539820D01*
X122493928Y-93862955D01*
X122146292Y-94238496D01*
X121471926Y-94996149D01*
X119070019Y-94996149D01*
X119438404Y-94688669D01*
X119985245Y-94246528D01*
X120435681Y-93897751D01*
X120598660Y-93774491D01*
X121315211Y-93182061D01*
X121839306Y-92653168D01*
X122156965Y-92201590D01*
X122245732Y-92099375D01*
X123884773Y-92099375D01*
X123932709Y-92261098D01*
X124086676Y-92475645D01*
X124286525Y-92680583D01*
X124472111Y-92813477D01*
X124583286Y-92811891D01*
X124639400Y-92677835D01*
X124744352Y-92371434D01*
X124876441Y-91955997D01*
X125018984Y-91487541D01*
X125155298Y-91022081D01*
X125268699Y-90615635D01*
X125342505Y-90324218D01*
X125360031Y-90203849D01*
X125340400Y-90211217D01*
X125209334Y-90344445D01*
X124990372Y-90602650D01*
X124720957Y-90937873D01*
X124438532Y-91302155D01*
X124180540Y-91647537D01*
X123984425Y-91926061D01*
X123887628Y-92089768D01*
X123884773Y-92099375D01*
X122245732Y-92099375D01*
X122324890Y-92008225D01*
X122618458Y-91859480D01*
X122665123Y-91846066D01*
X122916315Y-91686645D01*
X123240145Y-91353138D01*
X123655400Y-90826836D01*
X123667558Y-90810466D01*
X124443727Y-89747876D01*
X125064820Y-88859528D01*
X125530112Y-88146530D01*
X125838881Y-87609992D01*
X125990400Y-87251022D01*
X126071429Y-86886343D01*
X126178205Y-86240755D01*
X126287269Y-85420546D01*
X126395414Y-84461247D01*
X126499436Y-83398389D01*
X126596128Y-82267501D01*
X126682284Y-81104112D01*
X126754699Y-79943753D01*
X126810166Y-78821954D01*
X126845480Y-77774245D01*
X126852162Y-77446851D01*
X126852215Y-77015784D01*
X126833552Y-76776523D01*
X126792667Y-76699116D01*
X126783619Y-76706518D01*
X126726057Y-76753610D01*
X126644711Y-76896833D01*
X126576996Y-77152709D01*
X126546704Y-77282229D01*
X126357569Y-77542963D01*
X126075399Y-77758190D01*
X126063233Y-77767470D01*
X125743527Y-77885556D01*
X125648543Y-77908829D01*
X125408468Y-78086918D01*
X125168738Y-78462441D01*
X125064723Y-78649578D01*
X124487651Y-79397816D01*
X123944329Y-79848804D01*
X123727989Y-80028379D01*
X122816514Y-80519561D01*
X121784003Y-80849654D01*
X121351756Y-80920853D01*
X120635068Y-80958455D01*
X119907322Y-80918389D01*
X119249139Y-80806511D01*
X118741136Y-80628676D01*
X118597978Y-80560341D01*
X118231708Y-80424448D01*
X117950674Y-80370422D01*
X117672844Y-80273387D01*
X117490249Y-79996917D01*
X117427857Y-79582927D01*
X117435168Y-79531485D01*
X118825822Y-79531485D01*
X118890614Y-79640252D01*
X119094132Y-79787334D01*
X119268571Y-79874403D01*
X119286103Y-79848804D01*
X119135274Y-79672281D01*
X118957473Y-79484810D01*
X118852790Y-79428075D01*
X118825822Y-79531485D01*
X117435168Y-79531485D01*
X117500262Y-79073438D01*
X117510285Y-79037539D01*
X117712260Y-78541801D01*
X117970158Y-78083973D01*
X119037618Y-78083973D01*
X119378903Y-78517358D01*
X119453807Y-78607657D01*
X119779568Y-78937353D01*
X120099525Y-79188232D01*
X120113193Y-79196627D01*
X120448716Y-79341698D01*
X120860426Y-79440572D01*
X121287144Y-79489662D01*
X121667689Y-79485380D01*
X121940881Y-79424137D01*
X122045540Y-79302347D01*
X122004221Y-79236464D01*
X121815598Y-79145619D01*
X121647994Y-79026250D01*
X121540917Y-78746145D01*
X121534027Y-78505410D01*
X123990960Y-78505410D01*
X124008038Y-78581690D01*
X124074923Y-78544628D01*
X124200506Y-78345876D01*
X124312605Y-78053755D01*
X124379680Y-77758190D01*
X124370195Y-77549102D01*
X124308830Y-77460284D01*
X124248385Y-77542693D01*
X124180310Y-77838217D01*
X124155253Y-77963520D01*
X124077788Y-78281097D01*
X124012014Y-78464273D01*
X123990960Y-78505410D01*
X121534027Y-78505410D01*
X121530538Y-78383498D01*
X121608947Y-78008570D01*
X121768237Y-77691620D01*
X122000499Y-77502906D01*
X122217772Y-77456615D01*
X122565912Y-77460612D01*
X122884279Y-77527986D01*
X123069877Y-77645047D01*
X123082632Y-77663721D01*
X123203722Y-77706088D01*
X123311016Y-77573063D01*
X123357278Y-77318344D01*
X123357282Y-77315039D01*
X123451116Y-76873379D01*
X123698793Y-76577765D01*
X124053481Y-76445721D01*
X124468349Y-76494766D01*
X124896567Y-76742423D01*
X125049084Y-76857128D01*
X125368808Y-76994574D01*
X125603336Y-76943899D01*
X125720183Y-76706518D01*
X125691916Y-76495202D01*
X125481686Y-76387277D01*
X125435587Y-76378140D01*
X124655246Y-76286192D01*
X123766878Y-76276197D01*
X122838895Y-76340951D01*
X121939708Y-76473253D01*
X121137729Y-76665897D01*
X120501371Y-76911681D01*
X120216711Y-77072912D01*
X119777538Y-77373905D01*
X119438528Y-77666167D01*
X119037618Y-78083973D01*
X117970158Y-78083973D01*
X118028560Y-77980296D01*
X118403600Y-77442229D01*
X118781793Y-77016804D01*
X118967475Y-76768470D01*
X119064320Y-76420493D01*
X119131241Y-76160220D01*
X119391097Y-75848543D01*
X119859568Y-75522236D01*
X120550126Y-75169959D01*
X121244543Y-74944444D01*
X122110612Y-74841189D01*
X123001818Y-74891702D01*
X123834273Y-75097825D01*
X124078204Y-75177675D01*
X124640732Y-75317471D01*
X125162798Y-75399946D01*
X125295867Y-75411030D01*
X125680320Y-75414963D01*
X125966053Y-75343005D01*
X126259523Y-75173138D01*
X126348640Y-75116606D01*
X126696351Y-74951417D01*
X126988040Y-74884976D01*
X127191410Y-74847180D01*
X127297682Y-74735915D01*
X127301548Y-74687658D01*
X127338623Y-74428909D01*
X127400824Y-74080564D01*
X127498773Y-73574274D01*
X126727720Y-73087310D01*
X126577246Y-72993906D01*
X126041029Y-72705135D01*
X125575120Y-72556100D01*
X125095682Y-72528453D01*
X124518880Y-72603844D01*
X124359378Y-72635508D01*
X123752722Y-72795764D01*
X123091668Y-73035723D01*
X122956042Y-73096254D01*
X122341574Y-73370496D01*
X121467793Y-73815194D01*
X120435681Y-74384930D01*
X120363331Y-74425999D01*
X119731106Y-74787238D01*
X119264182Y-75065225D01*
X118923929Y-75290868D01*
X118671719Y-75495077D01*
X118468921Y-75708761D01*
X118276906Y-75962829D01*
X118057045Y-76288190D01*
X117936713Y-76465689D01*
X117663962Y-76841872D01*
X117439957Y-77116158D01*
X117304135Y-77238755D01*
X117127439Y-77247363D01*
X116850612Y-77168937D01*
X116798586Y-77141607D01*
X116592282Y-76893126D01*
X116548192Y-76522797D01*
X116663960Y-76073609D01*
X116937229Y-75588549D01*
X117090690Y-75381833D01*
X117288367Y-75138000D01*
X117401691Y-75028277D01*
X117401792Y-75028236D01*
X117426657Y-74905796D01*
X117364098Y-74661749D01*
X117303270Y-74364146D01*
X117310983Y-74225132D01*
X118229578Y-74225132D01*
X118236905Y-74295872D01*
X118319015Y-74442984D01*
X118437995Y-74411019D01*
X118721644Y-74278108D01*
X119123980Y-74065056D01*
X119600940Y-73794163D01*
X120050282Y-73528140D01*
X120418957Y-73303777D01*
X120656360Y-73152029D01*
X120724878Y-73096254D01*
X120696546Y-73099517D01*
X120474032Y-73159913D01*
X120113808Y-73278446D01*
X119681593Y-73431397D01*
X119243101Y-73595045D01*
X118864051Y-73745671D01*
X118610159Y-73859553D01*
X118564016Y-73884658D01*
X118326383Y-74062911D01*
X118229578Y-74225132D01*
X117310983Y-74225132D01*
X117323836Y-73993480D01*
X117360119Y-73870368D01*
X117473332Y-73636599D01*
X117658320Y-73424288D01*
X117941289Y-73218755D01*
X118348442Y-73005316D01*
X118905983Y-72769291D01*
X119640116Y-72495998D01*
X120577046Y-72170754D01*
X121272742Y-71935724D01*
X122132039Y-71653202D01*
X122828061Y-71438181D01*
X123396894Y-71281919D01*
X123874626Y-71175672D01*
X124297341Y-71110698D01*
X124701126Y-71078254D01*
X125122067Y-71069596D01*
X125405551Y-71075081D01*
X125830480Y-71124003D01*
X126227641Y-71247712D01*
X126710068Y-71475068D01*
X127499008Y-71879958D01*
X127441584Y-71325425D01*
X127390415Y-70980274D01*
X127271113Y-70388275D01*
X127104647Y-69672773D01*
X126906213Y-68891121D01*
X126691009Y-68100669D01*
X126474229Y-67358769D01*
X126271071Y-66722771D01*
X126096732Y-66250026D01*
X126036742Y-66108251D01*
X125616776Y-65244697D01*
X125128104Y-64475975D01*
X124522710Y-63734549D01*
X123752577Y-62952881D01*
X123534239Y-62746750D01*
X123118541Y-62368855D01*
X122792032Y-62108499D01*
X122499432Y-61929472D01*
X122185461Y-61795568D01*
X121794840Y-61670578D01*
X121164773Y-61519358D01*
X119994887Y-61409481D01*
X119897540Y-61409724D01*
X119428454Y-61425406D01*
X119081375Y-61484038D01*
X118814391Y-61588732D01*
X118756796Y-61611317D01*
X118684107Y-61651433D01*
X118355216Y-61832942D01*
X118337442Y-61843407D01*
X117982046Y-62074836D01*
X117929447Y-62117588D01*
X117729456Y-62280139D01*
X117633334Y-62415976D01*
X117639467Y-62479150D01*
X117803027Y-62767723D01*
X118168157Y-63058837D01*
X118706573Y-63328446D01*
X119083497Y-63496183D01*
X119586874Y-63803020D01*
X119856137Y-64119288D01*
X119861050Y-64162636D01*
X119894085Y-64454086D01*
X119703520Y-64816515D01*
X119287240Y-65215677D01*
X118970343Y-65445627D01*
X118734131Y-65583414D01*
X118651674Y-65631513D01*
X118439740Y-65702817D01*
X118275008Y-65745958D01*
X118296728Y-65911502D01*
X118374466Y-66179204D01*
X118437013Y-66616194D01*
X118447995Y-66861343D01*
X118457204Y-67066895D01*
X118424662Y-67409791D01*
X118362312Y-67548914D01*
X118158323Y-67840542D01*
X117877820Y-68152313D01*
X117720547Y-68320308D01*
X117486015Y-68646044D01*
X117396843Y-68898645D01*
X117388296Y-69035406D01*
X117213326Y-69540368D01*
X116826393Y-69981242D01*
X116245386Y-70342019D01*
X115488194Y-70606691D01*
X114713742Y-70801644D01*
X114650314Y-71016427D01*
X114533867Y-71410749D01*
X114461399Y-71629179D01*
X114300740Y-72006329D01*
X114146473Y-72259928D01*
X113853123Y-72468705D01*
X113522538Y-72468521D01*
X113186431Y-72263182D01*
X112867671Y-71866875D01*
X112589126Y-71293787D01*
X112572813Y-71251220D01*
X112450693Y-70973188D01*
X112423896Y-70942727D01*
X113459625Y-70942727D01*
X113464174Y-70976184D01*
X113578874Y-71128638D01*
X113640312Y-71139857D01*
X113698123Y-71016427D01*
X113683528Y-70927580D01*
X113578874Y-70830516D01*
X113550581Y-70833728D01*
X113459625Y-70942727D01*
X112423896Y-70942727D01*
X112308967Y-70812084D01*
X112075793Y-70715609D01*
X111679334Y-70631466D01*
X111294480Y-70532709D01*
X110677024Y-70248576D01*
X110192563Y-69856255D01*
X109876169Y-69387877D01*
X109762911Y-68875574D01*
X109692377Y-68623748D01*
X109407092Y-68368084D01*
X109366188Y-68342959D01*
X108978020Y-67960266D01*
X108764539Y-67428686D01*
X108738257Y-66932467D01*
X109597259Y-66932467D01*
X109652606Y-67215444D01*
X109682209Y-67277503D01*
X109828894Y-67462729D01*
X110014390Y-67618291D01*
X110172246Y-67695285D01*
X110236014Y-67644806D01*
X110212139Y-67501253D01*
X110128289Y-67222046D01*
X110010187Y-66909083D01*
X109885067Y-66627428D01*
X109780160Y-66442149D01*
X109722696Y-66418310D01*
X109699719Y-66491653D01*
X109611148Y-66776056D01*
X109597259Y-66932467D01*
X108738257Y-66932467D01*
X108729358Y-66764445D01*
X108876093Y-65983770D01*
X108890688Y-65857294D01*
X108817222Y-65717145D01*
X108778400Y-65687718D01*
X110716902Y-65687718D01*
X110725840Y-65983472D01*
X110784901Y-66368093D01*
X110922192Y-66765514D01*
X111164085Y-67268992D01*
X111206362Y-67350537D01*
X111370954Y-67644806D01*
X111446091Y-67779142D01*
X111660308Y-68064587D01*
X111908696Y-68272813D01*
X112250942Y-68469761D01*
X112499011Y-68586485D01*
X113284323Y-68795308D01*
X114073491Y-68766937D01*
X114853715Y-68501216D01*
X115452216Y-68091676D01*
X115647633Y-67849296D01*
X116851694Y-67849296D01*
X116858088Y-67848434D01*
X116986150Y-67746159D01*
X117183918Y-67524086D01*
X117394642Y-67254441D01*
X117561571Y-67009451D01*
X117627955Y-66861343D01*
X117627779Y-66857752D01*
X117574685Y-66649904D01*
X117458767Y-66358685D01*
X117294958Y-66000939D01*
X117282654Y-66418310D01*
X117274517Y-66520767D01*
X117187788Y-66930089D01*
X117040301Y-67342488D01*
X116967990Y-67506745D01*
X116871325Y-67752559D01*
X116851694Y-67849296D01*
X115647633Y-67849296D01*
X115922525Y-67508340D01*
X116275249Y-66731607D01*
X116282166Y-66710850D01*
X116388779Y-66196998D01*
X116426558Y-65583414D01*
X116398932Y-64953043D01*
X116309332Y-64388826D01*
X116161189Y-63973709D01*
X116084811Y-63844671D01*
X115997134Y-63746476D01*
X115985953Y-63854460D01*
X115982357Y-64087426D01*
X115926149Y-64420892D01*
X115866292Y-64590184D01*
X115718543Y-64718652D01*
X115423206Y-64748826D01*
X115070662Y-64672412D01*
X114770144Y-64399710D01*
X114596882Y-63944027D01*
X114560198Y-63320789D01*
X114566747Y-63204585D01*
X114574917Y-63138967D01*
X116767681Y-63138967D01*
X116926793Y-63437089D01*
X117017898Y-63650655D01*
X117149333Y-64043131D01*
X117273307Y-64489530D01*
X117460709Y-65243849D01*
X117848943Y-64703242D01*
X118237177Y-64162636D01*
X117845819Y-63965122D01*
X117828604Y-63956303D01*
X117458053Y-63725962D01*
X117111071Y-63453288D01*
X116767681Y-63138967D01*
X114574917Y-63138967D01*
X114610433Y-62853698D01*
X114701852Y-62652726D01*
X114868705Y-62530734D01*
X115144921Y-62393598D01*
X114819517Y-62137635D01*
X114625329Y-62005160D01*
X114326176Y-61894618D01*
X115993088Y-61894618D01*
X116023475Y-62006103D01*
X116047974Y-62041403D01*
X116156799Y-62125352D01*
X116173111Y-62117588D01*
X116142724Y-62006103D01*
X116118224Y-61970803D01*
X116009399Y-61886854D01*
X115993088Y-61894618D01*
X114326176Y-61894618D01*
X114040325Y-61788991D01*
X113402973Y-61775713D01*
X112766497Y-61959911D01*
X112760364Y-61961686D01*
X112159588Y-62343269D01*
X111621508Y-62890428D01*
X111118341Y-63696625D01*
X110951651Y-64212206D01*
X110817110Y-64628351D01*
X110810603Y-64697138D01*
X110716902Y-65687718D01*
X108778400Y-65687718D01*
X108605810Y-65556895D01*
X108216708Y-65337597D01*
X107903015Y-65155675D01*
X107581454Y-64899384D01*
X109417797Y-64899384D01*
X109554226Y-65068189D01*
X109695171Y-65173494D01*
X109762911Y-65141879D01*
X109770422Y-65062580D01*
X109835294Y-64818204D01*
X109859063Y-64697138D01*
X109763760Y-64638617D01*
X109524414Y-64746340D01*
X109459923Y-64791607D01*
X109417797Y-64899384D01*
X107581454Y-64899384D01*
X107473057Y-64812989D01*
X107275978Y-64478648D01*
X107305772Y-64212206D01*
X109882160Y-64212206D01*
X109941785Y-64271831D01*
X110001409Y-64212206D01*
X109941785Y-64152582D01*
X109882160Y-64212206D01*
X107305772Y-64212206D01*
X107312855Y-64148862D01*
X107584765Y-63819837D01*
X108092783Y-63487783D01*
X108837986Y-63148907D01*
X108931830Y-63110892D01*
X109266762Y-62947773D01*
X109438117Y-62786821D01*
X109501748Y-62580179D01*
X109475192Y-62313509D01*
X109263251Y-62108038D01*
X109053336Y-62018712D01*
X108935960Y-62006103D01*
X110955400Y-62006103D01*
X110956767Y-62033090D01*
X111007986Y-62125352D01*
X111027115Y-62119865D01*
X111134273Y-62006103D01*
X111152906Y-61959911D01*
X111081686Y-61886854D01*
X111047072Y-61891437D01*
X110955400Y-62006103D01*
X108935960Y-62006103D01*
X108868545Y-61998861D01*
X108803035Y-62012049D01*
X108531951Y-62043851D01*
X108114351Y-62081174D01*
X107609156Y-62118425D01*
X107143538Y-62156718D01*
X106623117Y-62233411D01*
X106191484Y-62354116D01*
X105760799Y-62538810D01*
X105358430Y-62771303D01*
X104715666Y-63263939D01*
X104085037Y-63871841D01*
X103529500Y-64532177D01*
X103112016Y-65182119D01*
X102812460Y-65830283D01*
X102440372Y-66894863D01*
X102149880Y-68051280D01*
X101960799Y-69216244D01*
X101892943Y-70306465D01*
X101892489Y-71034526D01*
X102637794Y-71104184D01*
X102814624Y-71129050D01*
X103288143Y-71228134D01*
X103916754Y-71384981D01*
X104655148Y-71586044D01*
X105458014Y-71817779D01*
X106280043Y-72066639D01*
X107075924Y-72319079D01*
X107800347Y-72561554D01*
X108408004Y-72780518D01*
X108853582Y-72962424D01*
X109007762Y-73036620D01*
X109276630Y-73166007D01*
X109618611Y-73385172D01*
X109804113Y-73621220D01*
X109870933Y-73926560D01*
X109859063Y-74286979D01*
X109856869Y-74353602D01*
X109843440Y-74628383D01*
X109857074Y-74933321D01*
X109904009Y-75077353D01*
X109910906Y-75081882D01*
X110067199Y-75273829D01*
X110248122Y-75612210D01*
X110419572Y-76016982D01*
X110547449Y-76408099D01*
X110597653Y-76705519D01*
X110591703Y-76841454D01*
X110482950Y-77205008D01*
X110262851Y-77370945D01*
X109964790Y-77327090D01*
X109622154Y-77061267D01*
X109580826Y-77015524D01*
X109329601Y-76693215D01*
X109085760Y-76319918D01*
X108883372Y-75955974D01*
X108756505Y-75661723D01*
X108739231Y-75497507D01*
X108697153Y-75398776D01*
X108489704Y-75307708D01*
X108386119Y-75272030D01*
X108065768Y-75125111D01*
X107639002Y-74902224D01*
X107169344Y-74635700D01*
X106443730Y-74221160D01*
X105567828Y-73756869D01*
X104732578Y-73351337D01*
X104214870Y-73124457D01*
X106543193Y-73124457D01*
X106559915Y-73152024D01*
X106747536Y-73276742D01*
X107077361Y-73479127D01*
X107516053Y-73738150D01*
X107953204Y-73986549D01*
X108457784Y-74247584D01*
X108796853Y-74380548D01*
X108987650Y-74391620D01*
X109047418Y-74286979D01*
X109000741Y-74177057D01*
X108735571Y-73970998D01*
X108236880Y-73726549D01*
X107505733Y-73444204D01*
X106543193Y-73124457D01*
X104214870Y-73124457D01*
X104014438Y-73036620D01*
X106185447Y-73036620D01*
X106245071Y-73096244D01*
X106304695Y-73036620D01*
X106245071Y-72976995D01*
X106185447Y-73036620D01*
X104014438Y-73036620D01*
X103961544Y-73013440D01*
X103278289Y-72752051D01*
X102706375Y-72576044D01*
X102269367Y-72494294D01*
X101990827Y-72515675D01*
X101894320Y-72649061D01*
X101897107Y-72679764D01*
X101942099Y-72912784D01*
X102030511Y-73291974D01*
X102147379Y-73752112D01*
X102175282Y-73858686D01*
X102298696Y-74344646D01*
X102398899Y-74761433D01*
X102456394Y-75028511D01*
X102504570Y-75213137D01*
X102624959Y-75305838D01*
X102889015Y-75279790D01*
X103219573Y-75191501D01*
X103585863Y-75046819D01*
X103872272Y-74950162D01*
X104421246Y-74884186D01*
X105074605Y-74894646D01*
X105764235Y-74972885D01*
X106422023Y-75110248D01*
X106979857Y-75298076D01*
X107227080Y-75443733D01*
X107369621Y-75527714D01*
X107517127Y-75631731D01*
X107817750Y-75770935D01*
X107903249Y-75818590D01*
X108083199Y-76026036D01*
X108234917Y-76309220D01*
X108317114Y-76581663D01*
X108288499Y-76756884D01*
X108285660Y-76761415D01*
X108333913Y-76896174D01*
X108498390Y-77157746D01*
X108746811Y-77494200D01*
X108994648Y-77828435D01*
X109176179Y-78123744D01*
X109404000Y-78494355D01*
X109666179Y-79101893D01*
X109758460Y-79597642D01*
X109760292Y-79607482D01*
X109742997Y-79793407D01*
X109553724Y-80266722D01*
X109187781Y-80715408D01*
X108685057Y-81084667D01*
X108463517Y-81199490D01*
X108204516Y-81295055D01*
X107900773Y-81349737D01*
X107487757Y-81374184D01*
X106900940Y-81379042D01*
X106705871Y-81376813D01*
X105438939Y-81259409D01*
X104324667Y-80962786D01*
X103357313Y-80485498D01*
X103118326Y-80344287D01*
X102671360Y-80165478D01*
X102316295Y-80173154D01*
X102018028Y-80364132D01*
X101800333Y-80670120D01*
X101632652Y-81218121D01*
X101603293Y-81887530D01*
X100724011Y-81887530D01*
X100700912Y-81429196D01*
X100816109Y-80616123D01*
X100876699Y-80438800D01*
X101097682Y-80028898D01*
X101355340Y-79706044D01*
X108023720Y-79706044D01*
X108071789Y-79774178D01*
X108183455Y-79735310D01*
X108303787Y-79597642D01*
X108301235Y-79465241D01*
X108241637Y-79467415D01*
X108095819Y-79592423D01*
X108023720Y-79706044D01*
X101355340Y-79706044D01*
X101390337Y-79662192D01*
X101701984Y-79398386D01*
X101979938Y-79297183D01*
X102094525Y-79292577D01*
X102254742Y-79228961D01*
X102258349Y-79056148D01*
X102115761Y-78730700D01*
X102070939Y-78639650D01*
X101943647Y-78337052D01*
X101892489Y-78139105D01*
X101892471Y-78137312D01*
X101780356Y-78025741D01*
X101475118Y-77985446D01*
X101391999Y-77982628D01*
X100962537Y-77852603D01*
X100808437Y-77687324D01*
X102741957Y-77687324D01*
X102744281Y-77731044D01*
X102821472Y-78014128D01*
X102974824Y-78343192D01*
X103096602Y-78545975D01*
X103157799Y-78603860D01*
X103133956Y-78462441D01*
X103039151Y-78163679D01*
X102901089Y-77806573D01*
X102837149Y-77667074D01*
X102765176Y-77573094D01*
X102741957Y-77687324D01*
X100808437Y-77687324D01*
X100681506Y-77551185D01*
X100580752Y-77109562D01*
X100537278Y-76817839D01*
X100515471Y-76781794D01*
X101415494Y-76781794D01*
X101422808Y-76946302D01*
X101492919Y-77075884D01*
X101683803Y-77060989D01*
X101701952Y-77056022D01*
X101985402Y-76923836D01*
X102289197Y-76714407D01*
X102571345Y-76520606D01*
X102953044Y-76417924D01*
X103282880Y-76545624D01*
X103563414Y-76905034D01*
X103797204Y-77497484D01*
X103837999Y-77626190D01*
X104199474Y-78371520D01*
X104412523Y-78603860D01*
X104726110Y-78945841D01*
X105422236Y-79354097D01*
X105493062Y-79382734D01*
X105815075Y-79491604D01*
X106039619Y-79535681D01*
X106108008Y-79531410D01*
X106144300Y-79472431D01*
X106011834Y-79302996D01*
X105886815Y-79037887D01*
X105893946Y-78657540D01*
X106040951Y-78271820D01*
X106309321Y-77964024D01*
X106456280Y-77865585D01*
X106690318Y-77802824D01*
X106996084Y-77875663D01*
X107004573Y-77878674D01*
X107316544Y-78053010D01*
X107529814Y-78279780D01*
X107612665Y-78419623D01*
X107720604Y-78476540D01*
X107883960Y-78347307D01*
X107976038Y-78246801D01*
X108007455Y-78123744D01*
X107917071Y-77953613D01*
X107685848Y-77671458D01*
X107415426Y-77411703D01*
X106982677Y-77088202D01*
X106523953Y-76816680D01*
X106235423Y-76678839D01*
X105886344Y-76545654D01*
X105510584Y-76454204D01*
X105037566Y-76388416D01*
X104396714Y-76332218D01*
X103894591Y-76296703D01*
X103174116Y-76260056D01*
X102659455Y-76257647D01*
X102331230Y-76289687D01*
X102170063Y-76356385D01*
X102026208Y-76409898D01*
X101753365Y-76435211D01*
X101595377Y-76443791D01*
X101448180Y-76533104D01*
X101415494Y-76781794D01*
X100515471Y-76781794D01*
X100341381Y-76494045D01*
X100181338Y-76359983D01*
X100129571Y-76389459D01*
X99185532Y-76389459D01*
X99142908Y-76025146D01*
X98979449Y-75004225D01*
X98811665Y-73995783D01*
X98774555Y-73631015D01*
X99667384Y-73631015D01*
X99670116Y-73683549D01*
X99706983Y-73911695D01*
X99772622Y-74258920D01*
X99773060Y-74261123D01*
X99867696Y-74640765D01*
X99975253Y-74832187D01*
X100123522Y-74884976D01*
X100252549Y-74907076D01*
X100567545Y-75015204D01*
X100938498Y-75183098D01*
X100973122Y-75200619D01*
X101353459Y-75385846D01*
X101563317Y-75464256D01*
X101638458Y-75443733D01*
X101614645Y-75332159D01*
X101587811Y-75247006D01*
X101509539Y-74957193D01*
X101400890Y-74529180D01*
X101276774Y-74020839D01*
X101191878Y-73684580D01*
X101069423Y-73258498D01*
X100966231Y-72966569D01*
X100898368Y-72858163D01*
X100807090Y-72892699D01*
X100562923Y-73032621D01*
X100242500Y-73243456D01*
X100004652Y-73407344D01*
X99766950Y-73568096D01*
X99667384Y-73631015D01*
X98774555Y-73631015D01*
X98696555Y-72864312D01*
X98693998Y-71897523D01*
X98716884Y-71723647D01*
X99650268Y-71723647D01*
X99708422Y-71773437D01*
X99918704Y-71722414D01*
X100297289Y-71529164D01*
X100908193Y-71182364D01*
X100992691Y-69963013D01*
X101009821Y-69735238D01*
X101195972Y-68219169D01*
X101494651Y-66823052D01*
X101897051Y-65581040D01*
X102394364Y-64527285D01*
X102651208Y-64127606D01*
X103135894Y-63509699D01*
X103695952Y-62907945D01*
X104269332Y-62387364D01*
X104793981Y-62012972D01*
X105068740Y-61844367D01*
X105262342Y-61705550D01*
X105291080Y-61651433D01*
X105289217Y-61651410D01*
X105049075Y-61730175D01*
X104684006Y-61946123D01*
X104234721Y-62265675D01*
X103741934Y-62655253D01*
X103246354Y-63081277D01*
X102788694Y-63510168D01*
X102409664Y-63908348D01*
X102149978Y-64242236D01*
X101791438Y-64870171D01*
X101370299Y-65760266D01*
X100953833Y-66787026D01*
X100561912Y-67897471D01*
X100214408Y-69038621D01*
X99931195Y-70157496D01*
X99930376Y-70161149D01*
X99810434Y-70720970D01*
X99717652Y-71202093D01*
X99661205Y-71553368D01*
X99650268Y-71723647D01*
X98716884Y-71723647D01*
X98802870Y-71070364D01*
X98864301Y-70725668D01*
X98863983Y-70455286D01*
X98779764Y-70279129D01*
X98753170Y-70231964D01*
X98688861Y-69966970D01*
X98632282Y-69490861D01*
X98582524Y-68794528D01*
X98538674Y-67868860D01*
X98538287Y-67859084D01*
X98479793Y-66610042D01*
X98407464Y-65441112D01*
X98323796Y-64374916D01*
X98231284Y-63434078D01*
X98132422Y-62641219D01*
X98029707Y-62018962D01*
X97925632Y-61589931D01*
X97822692Y-61376746D01*
X97677435Y-61192625D01*
X97548586Y-60899751D01*
X97505734Y-60686986D01*
X97436117Y-60336620D01*
X97419454Y-60255714D01*
X97340599Y-59906236D01*
X97244279Y-59508866D01*
X97213110Y-59355507D01*
X97168554Y-58859057D01*
X97171696Y-58775079D01*
X98571382Y-58775079D01*
X98581656Y-59089815D01*
X98645609Y-59544474D01*
X98663449Y-59664494D01*
X98724421Y-60115530D01*
X98802962Y-60736637D01*
X98893185Y-61479674D01*
X98989204Y-62296498D01*
X99085132Y-63138967D01*
X99184817Y-64018533D01*
X99280150Y-64827036D01*
X99355696Y-65422127D01*
X99413360Y-65816652D01*
X99455045Y-66023459D01*
X99482657Y-66055396D01*
X99498098Y-65925311D01*
X99512953Y-65856034D01*
X99612890Y-65585819D01*
X99785450Y-65191766D01*
X100005549Y-64732822D01*
X100087044Y-64573304D01*
X100446283Y-63963538D01*
X100874383Y-63399452D01*
X101436535Y-62792660D01*
X101757564Y-62460105D01*
X102074524Y-62111663D01*
X102289995Y-61850408D01*
X102369484Y-61716142D01*
X102371118Y-61683192D01*
X102413099Y-61588732D01*
X105469954Y-61588732D01*
X105529578Y-61648357D01*
X105589202Y-61588732D01*
X105529578Y-61529108D01*
X105469954Y-61588732D01*
X102413099Y-61588732D01*
X102500243Y-61392649D01*
X102789767Y-61121909D01*
X103174784Y-60934011D01*
X103194170Y-60928010D01*
X103625471Y-60767428D01*
X104040110Y-60575622D01*
X104104420Y-60543569D01*
X109148684Y-60543569D01*
X109175172Y-60737407D01*
X109311095Y-60979717D01*
X109613850Y-61213469D01*
X110061033Y-61497548D01*
X110398117Y-61215206D01*
X110427602Y-61191366D01*
X110738118Y-61008023D01*
X111022573Y-60932864D01*
X111082942Y-60929776D01*
X111304314Y-60824216D01*
X111340754Y-60762652D01*
X112421019Y-60762652D01*
X112478716Y-60953644D01*
X112552663Y-61003734D01*
X112684508Y-60932864D01*
X112709498Y-60864577D01*
X112692027Y-60806744D01*
X114413616Y-60806744D01*
X114450902Y-60864577D01*
X114457902Y-60875434D01*
X114650045Y-60966875D01*
X114720503Y-60983544D01*
X114826397Y-60965138D01*
X114763310Y-60798570D01*
X114640988Y-60666311D01*
X114486187Y-60655279D01*
X114413616Y-60806744D01*
X112692027Y-60806744D01*
X112651802Y-60673585D01*
X112577855Y-60623495D01*
X112446010Y-60694366D01*
X112421019Y-60762652D01*
X111340754Y-60762652D01*
X111477822Y-60531078D01*
X111479510Y-60527057D01*
X111701223Y-60173739D01*
X113480719Y-60173739D01*
X113578874Y-60217371D01*
X113642004Y-60208765D01*
X113658373Y-60137871D01*
X113640895Y-60123600D01*
X113499375Y-60137871D01*
X113480719Y-60173739D01*
X111701223Y-60173739D01*
X111729544Y-60128607D01*
X112064841Y-59847082D01*
X112416662Y-59740375D01*
X112549601Y-59722757D01*
X112649511Y-59629040D01*
X112723498Y-59405581D01*
X112799150Y-58998904D01*
X112922995Y-58584777D01*
X113179556Y-58287949D01*
X113560858Y-58190141D01*
X113673272Y-58194435D01*
X114077343Y-58319797D01*
X114329420Y-58624537D01*
X114436986Y-59116569D01*
X114445778Y-59239013D01*
X114490846Y-59529712D01*
X114587051Y-59668228D01*
X114771362Y-59721436D01*
X114976516Y-59773443D01*
X115364801Y-60044577D01*
X115425196Y-60137871D01*
X115684881Y-60539012D01*
X115692779Y-60555342D01*
X115884891Y-60827695D01*
X116087537Y-60932864D01*
X116123141Y-60936107D01*
X116195819Y-60965138D01*
X116372369Y-61035661D01*
X116657596Y-61230986D01*
X116726647Y-61288404D01*
X116945152Y-61459755D01*
X117054304Y-61528322D01*
X117062756Y-61526262D01*
X117206083Y-61448604D01*
X117451564Y-61293634D01*
X117534084Y-61236938D01*
X117802229Y-60980264D01*
X117938764Y-60654920D01*
X117982699Y-60179041D01*
X117983539Y-60127752D01*
X117975405Y-59873159D01*
X117923908Y-59813488D01*
X117803689Y-59910731D01*
X117710060Y-59996514D01*
X117520807Y-60082511D01*
X117314560Y-60004580D01*
X117027917Y-59749548D01*
X116809217Y-59488419D01*
X116705019Y-59208298D01*
X116679343Y-58803321D01*
X116684359Y-58615646D01*
X116725311Y-58204740D01*
X116794036Y-57904003D01*
X116844875Y-57683213D01*
X116807817Y-57539974D01*
X116807041Y-57539473D01*
X116735946Y-57395833D01*
X116646909Y-57084197D01*
X116559012Y-56671198D01*
X116553943Y-56644001D01*
X116433899Y-56109746D01*
X116266473Y-55489072D01*
X116086260Y-54910798D01*
X115845928Y-54177895D01*
X115659393Y-53526918D01*
X115559883Y-53043978D01*
X115542111Y-52702556D01*
X115600788Y-52476129D01*
X115718667Y-52322272D01*
X115898056Y-52227699D01*
X115939849Y-52183777D01*
X115932356Y-52002107D01*
X115856993Y-51659836D01*
X115708955Y-51135879D01*
X115483433Y-50409155D01*
X115240047Y-49639012D01*
X114965775Y-48747550D01*
X114759377Y-48037095D01*
X114614929Y-47481884D01*
X114526507Y-47056155D01*
X114488187Y-46734146D01*
X114494046Y-46490095D01*
X114538159Y-46298239D01*
X114551832Y-46257408D01*
X114613533Y-45845311D01*
X114548270Y-45331155D01*
X114510075Y-45116835D01*
X114446748Y-44637746D01*
X114386942Y-44054771D01*
X114339737Y-43449817D01*
X114292094Y-42842241D01*
X114234347Y-42409838D01*
X114161463Y-42145091D01*
X114066583Y-42011890D01*
X114046623Y-41994843D01*
X113990960Y-41906124D01*
X113947337Y-41744813D01*
X113913746Y-41483261D01*
X113888185Y-41093816D01*
X113868648Y-40548826D01*
X113853130Y-39820640D01*
X113839626Y-38881608D01*
X113827095Y-38016021D01*
X113822814Y-37816142D01*
X115258338Y-37816142D01*
X115278043Y-38224671D01*
X115329504Y-38457202D01*
X115418957Y-38554033D01*
X115428148Y-38558104D01*
X115494711Y-38639659D01*
X115541472Y-38827939D01*
X115571635Y-39155861D01*
X115588403Y-39656343D01*
X115594982Y-40362302D01*
X115596417Y-40630368D01*
X115604145Y-41221921D01*
X115616825Y-41708311D01*
X115633079Y-42045094D01*
X115651530Y-42187824D01*
X115652133Y-42188867D01*
X115692607Y-42338065D01*
X115763357Y-42672322D01*
X115854586Y-43143002D01*
X115956494Y-43701468D01*
X115960801Y-43725622D01*
X116072915Y-44308140D01*
X116228230Y-45054626D01*
X116412776Y-45900952D01*
X116612587Y-46782992D01*
X116813691Y-47636620D01*
X117035653Y-48583356D01*
X117202072Y-49357558D01*
X117308739Y-49947466D01*
X117359714Y-50375623D01*
X117359058Y-50664576D01*
X117350591Y-50888660D01*
X117385276Y-51210566D01*
X117477661Y-51630484D01*
X117637162Y-52189901D01*
X117873192Y-52930304D01*
X118321932Y-54363178D01*
X118751743Y-55934863D01*
X119056340Y-57329215D01*
X119238364Y-58558644D01*
X119300455Y-59635558D01*
X119301927Y-60127752D01*
X119302817Y-60425106D01*
X120398051Y-60510784D01*
X120511403Y-60520446D01*
X121195149Y-60608449D01*
X121867200Y-60739235D01*
X122470980Y-60898267D01*
X122949912Y-61071006D01*
X123247418Y-61242917D01*
X123273956Y-61266046D01*
X123435529Y-61369415D01*
X123596324Y-61358386D01*
X123810544Y-61212696D01*
X124132395Y-60912081D01*
X124331106Y-60735644D01*
X124667332Y-60498412D01*
X124938871Y-60376030D01*
X125037743Y-60348307D01*
X125236395Y-60210685D01*
X125347212Y-59951645D01*
X125380495Y-59534460D01*
X125346544Y-58922400D01*
X125168543Y-57800295D01*
X124753570Y-56457474D01*
X124140194Y-55182477D01*
X123571148Y-54350938D01*
X124769199Y-54350938D01*
X124829724Y-54500556D01*
X125015302Y-54815985D01*
X125183047Y-55111677D01*
X125546653Y-55902387D01*
X125863071Y-56790416D01*
X126095476Y-57678188D01*
X126159062Y-58087880D01*
X126206680Y-58835295D01*
X126199311Y-59534460D01*
X126197989Y-59659928D01*
X126137139Y-60483684D01*
X126028281Y-61228466D01*
X125875565Y-61816175D01*
X125622944Y-62520613D01*
X126129782Y-63164915D01*
X126389294Y-63501881D01*
X126678279Y-63892240D01*
X126885900Y-64189585D01*
X127036214Y-64453088D01*
X127243993Y-64878408D01*
X127441783Y-65336877D01*
X127748387Y-66103801D01*
X127811723Y-65575374D01*
X127811924Y-65573699D01*
X127847038Y-65246946D01*
X127895658Y-64750241D01*
X127951385Y-64150778D01*
X128007823Y-63515751D01*
X128059672Y-62978551D01*
X128154476Y-62143798D01*
X128262805Y-61309397D01*
X128369934Y-60594154D01*
X128476423Y-59933582D01*
X128553952Y-59365828D01*
X128581778Y-58941068D01*
X128555492Y-58610551D01*
X128470683Y-58325523D01*
X128322941Y-58037231D01*
X128107855Y-57696922D01*
X128049322Y-57611606D01*
X127765204Y-57247508D01*
X127375356Y-56794456D01*
X126917009Y-56291068D01*
X126427394Y-55775958D01*
X125943743Y-55287742D01*
X125503285Y-54865038D01*
X125143253Y-54546461D01*
X124900876Y-54370627D01*
X124825509Y-54335152D01*
X124769199Y-54350938D01*
X123571148Y-54350938D01*
X123349559Y-54027134D01*
X123030907Y-53597232D01*
X122804052Y-53211943D01*
X122715111Y-52942745D01*
X122713210Y-52918193D01*
X122626253Y-52679448D01*
X122393286Y-52393615D01*
X121984721Y-52023452D01*
X121539327Y-51637716D01*
X120588355Y-50736205D01*
X119694218Y-49786832D01*
X118907194Y-48844643D01*
X118277561Y-47964686D01*
X117974747Y-47479431D01*
X117606454Y-46831393D01*
X117287474Y-46180904D01*
X117009345Y-45498548D01*
X116763609Y-44754906D01*
X116541806Y-43920562D01*
X116335474Y-42966098D01*
X116136156Y-41862097D01*
X115935389Y-40579141D01*
X115724715Y-39087814D01*
X115699992Y-38907042D01*
X115577442Y-38046195D01*
X115477578Y-37415747D01*
X115398689Y-37009928D01*
X115339060Y-36822967D01*
X115296978Y-36849093D01*
X115270732Y-37082536D01*
X115258607Y-37517523D01*
X115258338Y-37816142D01*
X113822814Y-37816142D01*
X113810996Y-37264288D01*
X113790935Y-36704291D01*
X113774292Y-36449675D01*
X116642916Y-36449675D01*
X116729298Y-36975072D01*
X116736152Y-37017782D01*
X116784653Y-37341021D01*
X116857427Y-37845996D01*
X116948152Y-38488043D01*
X117050506Y-39222497D01*
X117158164Y-40004695D01*
X117335239Y-41235531D01*
X117523319Y-42373033D01*
X117717281Y-43340336D01*
X117927291Y-44172762D01*
X118163515Y-44905631D01*
X118436118Y-45574266D01*
X118755266Y-46213987D01*
X119131123Y-46860117D01*
X119142741Y-46878934D01*
X119593451Y-47566389D01*
X120084399Y-48226771D01*
X120638220Y-48882794D01*
X121277551Y-49557173D01*
X122025026Y-50272622D01*
X122903281Y-51051855D01*
X123934952Y-51917586D01*
X125142675Y-52892529D01*
X125333110Y-53045201D01*
X125931947Y-53537821D01*
X126518550Y-54036793D01*
X127034034Y-54491462D01*
X127419517Y-54851173D01*
X127558830Y-54989522D01*
X127949342Y-55392571D01*
X128288804Y-55763258D01*
X128516219Y-56035702D01*
X128823356Y-56445114D01*
X129019966Y-55737580D01*
X129297889Y-54768130D01*
X129914036Y-52837235D01*
X130571857Y-51085041D01*
X131292049Y-49470907D01*
X132095311Y-47954192D01*
X133002339Y-46494257D01*
X134033831Y-45050459D01*
X135210484Y-43582159D01*
X135287272Y-43490324D01*
X135641793Y-43051849D01*
X135918790Y-42685308D01*
X136092000Y-42426768D01*
X136135161Y-42312294D01*
X136068673Y-42263429D01*
X135803097Y-42107335D01*
X135381145Y-41878810D01*
X134840659Y-41596859D01*
X134219482Y-41280490D01*
X133555456Y-40948707D01*
X132886422Y-40620516D01*
X132250223Y-40314924D01*
X131684702Y-40050937D01*
X131227700Y-39847560D01*
X130933283Y-39723730D01*
X130067866Y-39377101D01*
X129108305Y-39013271D01*
X128099561Y-38647655D01*
X127086594Y-38295669D01*
X126114363Y-37972727D01*
X125227829Y-37694244D01*
X124471951Y-37475637D01*
X123891689Y-37332318D01*
X123086588Y-37174272D01*
X121810484Y-36959581D01*
X120486067Y-36772840D01*
X119205839Y-36626719D01*
X118062303Y-36533889D01*
X116642916Y-36449675D01*
X113774292Y-36449675D01*
X113765259Y-36311477D01*
X113732310Y-36061294D01*
X113690435Y-35929189D01*
X113637978Y-35890610D01*
X113573186Y-35899061D01*
X113397362Y-36014128D01*
X113389148Y-36047506D01*
X113369124Y-36283662D01*
X113361526Y-36450452D01*
X113349444Y-36715695D01*
X113330956Y-37313490D01*
X113317141Y-37929331D01*
X113314503Y-38046930D01*
X113300931Y-38885898D01*
X113291086Y-39800279D01*
X113288306Y-40112707D01*
X113268221Y-41478459D01*
X113231534Y-42678252D01*
X113171143Y-43750863D01*
X113079946Y-44735070D01*
X112950841Y-45669651D01*
X112776728Y-46593385D01*
X112550505Y-47545050D01*
X112265071Y-48563423D01*
X111913323Y-49687282D01*
X111488161Y-50955406D01*
X110982484Y-52406573D01*
X110383752Y-54181599D01*
X109899335Y-55791997D01*
X109536138Y-57222221D01*
X109291642Y-58483443D01*
X109163330Y-59586835D01*
X109148684Y-60543569D01*
X104104420Y-60543569D01*
X104115708Y-60537943D01*
X104666135Y-60346481D01*
X105362965Y-60204464D01*
X106130026Y-60124124D01*
X106891147Y-60117697D01*
X106955716Y-60120863D01*
X107334453Y-60137582D01*
X107583153Y-60115368D01*
X107733627Y-60014662D01*
X107817689Y-59795906D01*
X107867150Y-59419541D01*
X107913822Y-58846009D01*
X107926092Y-58708652D01*
X108056040Y-57750974D01*
X108271411Y-56634278D01*
X108560597Y-55408450D01*
X108911990Y-54123372D01*
X109313982Y-52828929D01*
X109467501Y-52359406D01*
X109665417Y-51727640D01*
X109794230Y-51265675D01*
X109861907Y-50939492D01*
X109876415Y-50715069D01*
X109845722Y-50558385D01*
X109824015Y-50475460D01*
X109816215Y-50264631D01*
X109852702Y-49947283D01*
X109938805Y-49492721D01*
X110079848Y-48870250D01*
X110281160Y-48049174D01*
X110503180Y-47124209D01*
X110793003Y-45788655D01*
X111047994Y-44461645D01*
X111258543Y-43197785D01*
X111415044Y-42051680D01*
X111507885Y-41077934D01*
X111522688Y-40887414D01*
X111583037Y-40370443D01*
X111661280Y-39934577D01*
X111744321Y-39658439D01*
X111769575Y-39597556D01*
X111846896Y-39243414D01*
X111888900Y-38694230D01*
X111897416Y-37929331D01*
X111885443Y-36546479D01*
X111717732Y-37313517D01*
X111676713Y-37522259D01*
X111593622Y-38020239D01*
X111498672Y-38658584D01*
X111400647Y-39377168D01*
X111308331Y-40115864D01*
X111273293Y-40404594D01*
X111082213Y-41764511D01*
X110863312Y-42946675D01*
X110602583Y-44001743D01*
X110286018Y-44980372D01*
X109899610Y-45933220D01*
X109429349Y-46910944D01*
X109246207Y-47258101D01*
X108746451Y-48110134D01*
X108189621Y-48917130D01*
X107550809Y-49706477D01*
X106805107Y-50505561D01*
X105927607Y-51341770D01*
X104893400Y-52242491D01*
X103677577Y-53235110D01*
X103392747Y-53463467D01*
X102245518Y-54415303D01*
X101237145Y-55306084D01*
X100380514Y-56123079D01*
X99688515Y-56853556D01*
X99174034Y-57484785D01*
X98849960Y-58004034D01*
X98762286Y-58185322D01*
X98627391Y-58505252D01*
X98571382Y-58775079D01*
X97171696Y-58775079D01*
X97186707Y-58373919D01*
X97208421Y-58126484D01*
X97202714Y-57671752D01*
X97137608Y-57141670D01*
X97006363Y-56499499D01*
X96802237Y-55708498D01*
X96518489Y-54731925D01*
X96129297Y-53508677D01*
X95471082Y-51713561D01*
X94771449Y-50119629D01*
X94037819Y-48744795D01*
X93906627Y-48525421D01*
X93554588Y-47953862D01*
X93196439Y-47402453D01*
X92810938Y-46842396D01*
X92376843Y-46244893D01*
X91872911Y-45581149D01*
X91277900Y-44822367D01*
X90570569Y-43939749D01*
X89729674Y-42904499D01*
X89621556Y-42764533D01*
X89442211Y-42487720D01*
X89383471Y-42337162D01*
X91040846Y-42337162D01*
X91089863Y-42422761D01*
X91266513Y-42669931D01*
X91548901Y-43044307D01*
X91912882Y-43513971D01*
X92334312Y-44047005D01*
X92845338Y-44696389D01*
X93799644Y-45973786D01*
X94627210Y-47190271D01*
X95349415Y-48388459D01*
X95987637Y-49610966D01*
X96563255Y-50900405D01*
X97097648Y-52299394D01*
X97612193Y-53850547D01*
X98128270Y-55596479D01*
X98218682Y-55906108D01*
X98304740Y-56174963D01*
X98348167Y-56276081D01*
X98351537Y-56273886D01*
X98462444Y-56169552D01*
X98703713Y-55932238D01*
X99042982Y-55593997D01*
X99447888Y-55186884D01*
X99467754Y-55166904D01*
X99912935Y-54740849D01*
X100493511Y-54215153D01*
X101159165Y-53633799D01*
X101859583Y-53040771D01*
X102544448Y-52480052D01*
X102769147Y-52299324D01*
X103818232Y-51441019D01*
X104702033Y-50687014D01*
X105446217Y-50010761D01*
X106076447Y-49385710D01*
X106618389Y-48785313D01*
X107097708Y-48183022D01*
X107540069Y-47552288D01*
X107971137Y-46866563D01*
X107987589Y-46839131D01*
X108436932Y-46031902D01*
X108816959Y-45214753D01*
X109138712Y-44349591D01*
X109413232Y-43398322D01*
X109651560Y-42322854D01*
X109864739Y-41085094D01*
X110063809Y-39646948D01*
X110075032Y-39558328D01*
X110173457Y-38807030D01*
X110269303Y-38117385D01*
X110356094Y-37533178D01*
X110427353Y-37098192D01*
X110476603Y-36856212D01*
X110588480Y-36450452D01*
X109072644Y-36525898D01*
X108257222Y-36584141D01*
X107132747Y-36703778D01*
X105927645Y-36866238D01*
X104721684Y-37059578D01*
X103594634Y-37271853D01*
X102626261Y-37491121D01*
X102128731Y-37625978D01*
X101182403Y-37914162D01*
X100095362Y-38276359D01*
X98914215Y-38696305D01*
X97685568Y-39157736D01*
X96456025Y-39644386D01*
X96400618Y-39667029D01*
X95827271Y-39911444D01*
X95174325Y-40204592D01*
X94474744Y-40530081D01*
X93761492Y-40871519D01*
X93067532Y-41212516D01*
X92425828Y-41536679D01*
X91869344Y-41827617D01*
X91431043Y-42068938D01*
X91143889Y-42244250D01*
X91040846Y-42337162D01*
X89383471Y-42337162D01*
X89371362Y-42306124D01*
X89349360Y-42254048D01*
X89189811Y-42046561D01*
X88903201Y-41726914D01*
X88521946Y-41327498D01*
X88078459Y-40880703D01*
X87605158Y-40418921D01*
X87134457Y-39974543D01*
X86698771Y-39579961D01*
X86330517Y-39267564D01*
X86060313Y-39061401D01*
X85577372Y-38727448D01*
X85138029Y-38458679D01*
X84920442Y-38337875D01*
X84458822Y-38078321D01*
X84064789Y-37853063D01*
X83770304Y-37694777D01*
X83160081Y-37417977D01*
X82537065Y-37187030D01*
X82007747Y-37043829D01*
X81620188Y-36969812D01*
X80751337Y-36969812D01*
X80753108Y-36927263D01*
X80784342Y-36692414D01*
X80836718Y-36542006D01*
X80914997Y-36438415D01*
X81023944Y-36344016D01*
X81120657Y-36271736D01*
X81337173Y-36171935D01*
X81627500Y-36139917D01*
X82072316Y-36161649D01*
X82128403Y-36166480D01*
X82536630Y-36227756D01*
X82957182Y-36347849D01*
X83453813Y-36548560D01*
X84090282Y-36851691D01*
X84397402Y-37006507D01*
X85342161Y-37520021D01*
X86181455Y-38048212D01*
X86976873Y-38635518D01*
X87790003Y-39326380D01*
X88682433Y-40165238D01*
X90199608Y-41642691D01*
X90650039Y-41409344D01*
X91060966Y-41197698D01*
X93316980Y-40081244D01*
X95478730Y-39089186D01*
X97529385Y-38228300D01*
X99452116Y-37505358D01*
X101230091Y-36927136D01*
X102846479Y-36500407D01*
X102892515Y-36489969D01*
X103913669Y-36280837D01*
X105053459Y-36083539D01*
X106253482Y-35905466D01*
X107455335Y-35754011D01*
X108600613Y-35636566D01*
X109630913Y-35560522D01*
X110487832Y-35533271D01*
X111272378Y-35532864D01*
X111545890Y-34948904D01*
X111646139Y-34712639D01*
X111739331Y-34411349D01*
X111744294Y-34243418D01*
X111722559Y-34091805D01*
X111780907Y-33828043D01*
X111826444Y-33634154D01*
X111759525Y-33439318D01*
X111532617Y-33191980D01*
X111482858Y-33143195D01*
X111204478Y-32823923D01*
X111001316Y-32521831D01*
X110830026Y-32193897D01*
X111325443Y-32193897D01*
X111627576Y-32218478D01*
X111938579Y-32341717D01*
X112282839Y-32611267D01*
X112388903Y-32705789D01*
X112621920Y-32885156D01*
X112849923Y-32981811D01*
X113154052Y-33021167D01*
X113615449Y-33028638D01*
X113851796Y-33027729D01*
X114224684Y-33010611D01*
X114471073Y-32952201D01*
X114667528Y-32827440D01*
X114890611Y-32611267D01*
X115172204Y-32355677D01*
X115448973Y-32225775D01*
X115811432Y-32193897D01*
X116327721Y-32193897D01*
X116156432Y-32521831D01*
X116128496Y-32571784D01*
X115903052Y-32886888D01*
X115621870Y-33195105D01*
X115455422Y-33366936D01*
X115337608Y-33572515D01*
X115372726Y-33753697D01*
X115454359Y-34018221D01*
X115491853Y-34362348D01*
X115492859Y-34393516D01*
X115565251Y-34782350D01*
X115715204Y-35167742D01*
X115837186Y-35378480D01*
X115979571Y-35511724D01*
X116198527Y-35557280D01*
X116574760Y-35551146D01*
X116683046Y-35548337D01*
X117230369Y-35561258D01*
X117955976Y-35608111D01*
X118814809Y-35684204D01*
X119761811Y-35784844D01*
X120751924Y-35905339D01*
X121740089Y-36040996D01*
X122681251Y-36187122D01*
X123399976Y-36320302D01*
X124945556Y-36683142D01*
X126613234Y-37163369D01*
X128357079Y-37744246D01*
X130131159Y-38409039D01*
X131889544Y-39141012D01*
X133586300Y-39923428D01*
X135175498Y-40739552D01*
X135653217Y-40990911D01*
X136093812Y-41205467D01*
X136423473Y-41347047D01*
X136593897Y-41393384D01*
X136764740Y-41381420D01*
X137070893Y-41376016D01*
X137237509Y-41336142D01*
X137496151Y-41173692D01*
X137850435Y-40866575D01*
X138326992Y-40393973D01*
X138543586Y-40173625D01*
X139086077Y-39643186D01*
X139582565Y-39186889D01*
X140003943Y-38829858D01*
X140321105Y-38597215D01*
X140504943Y-38514084D01*
X140588950Y-38486517D01*
X140765488Y-38337764D01*
X140929157Y-38186463D01*
X141278691Y-37927414D01*
X141746840Y-37615261D01*
X142283247Y-37282154D01*
X142837558Y-36960242D01*
X143359415Y-36681674D01*
X143397337Y-36662756D01*
X144070900Y-36382063D01*
X144724691Y-36204141D01*
X145312920Y-36134626D01*
X145789800Y-36179148D01*
X146109540Y-36343342D01*
X146259423Y-36547287D01*
X146366672Y-36841005D01*
X146403443Y-37083098D01*
X146428750Y-37249718D01*
G37*
G36*
X135664543Y-111039071D02*
G01*
X136221270Y-111191280D01*
X136856542Y-111474902D01*
X136921196Y-111508530D01*
X137490945Y-111785342D01*
X138140064Y-112075538D01*
X138740376Y-112321514D01*
X138966781Y-112409138D01*
X139380803Y-112573590D01*
X139677383Y-112697230D01*
X139803678Y-112758349D01*
X139798081Y-112764008D01*
X139638318Y-112780551D01*
X139294485Y-112793914D01*
X138807990Y-112802848D01*
X138220238Y-112806103D01*
X137960123Y-112806003D01*
X137375634Y-112801698D01*
X136951112Y-112783862D01*
X136628780Y-112742823D01*
X136350863Y-112668912D01*
X136059585Y-112552457D01*
X135697170Y-112383789D01*
X135479257Y-112277670D01*
X135071633Y-112049900D01*
X134835997Y-111855953D01*
X134733256Y-111666747D01*
X134724836Y-111347505D01*
X134890406Y-111119525D01*
X135212282Y-111015933D01*
X135664543Y-111039071D01*
G37*
G36*
X91820734Y-111077054D02*
G01*
X92057729Y-111259479D01*
X92206668Y-111522867D01*
X92165734Y-111840997D01*
X91894441Y-112160151D01*
X91396934Y-112472721D01*
X91339379Y-112501554D01*
X91078569Y-112623128D01*
X90836212Y-112706676D01*
X90560920Y-112759373D01*
X90201305Y-112788393D01*
X89705979Y-112800912D01*
X89023553Y-112804105D01*
X88756002Y-112803764D01*
X88189830Y-112798225D01*
X87741179Y-112787047D01*
X87450373Y-112771475D01*
X87357734Y-112752752D01*
X87366565Y-112745632D01*
X87539930Y-112655587D01*
X87885399Y-112500069D01*
X88359511Y-112296733D01*
X88918809Y-112063232D01*
X89519834Y-111817220D01*
X90119126Y-111576351D01*
X90673228Y-111358277D01*
X91138680Y-111180654D01*
X91472024Y-111061134D01*
X91629801Y-111017371D01*
X91820734Y-111077054D01*
G37*
G36*
X93304612Y-79720516D02*
G01*
X93304623Y-79728214D01*
X93288447Y-80324631D01*
X93240345Y-80738612D01*
X93163475Y-80942817D01*
X93158345Y-80947714D01*
X92939063Y-81045487D01*
X92621435Y-81085915D01*
X92308853Y-81047798D01*
X92020154Y-80889591D01*
X91795288Y-80580949D01*
X91614032Y-80092524D01*
X91456162Y-79394970D01*
X91404870Y-79103236D01*
X91356511Y-78760563D01*
X92243541Y-78760563D01*
X92276674Y-78930791D01*
X92350114Y-79115987D01*
X92424639Y-79223007D01*
X92461624Y-79177934D01*
X92451457Y-79074753D01*
X92352583Y-78820188D01*
X92287261Y-78739121D01*
X92243541Y-78760563D01*
X91356511Y-78760563D01*
X91337346Y-78624763D01*
X91306338Y-78254900D01*
X91318269Y-78056009D01*
X91439210Y-77896022D01*
X91741819Y-77714827D01*
X92114463Y-77610899D01*
X92460019Y-77621223D01*
X92816506Y-77826691D01*
X93085908Y-78248949D01*
X93248923Y-78881003D01*
X93268620Y-79177934D01*
X93304612Y-79720516D01*
G37*
G36*
X90698049Y-70487719D02*
G01*
X90841150Y-70699008D01*
X90875146Y-70926053D01*
X90850093Y-71034837D01*
X90788313Y-71356165D01*
X90707542Y-71812350D01*
X90618758Y-72342736D01*
X90575119Y-72616096D01*
X90526325Y-72960240D01*
X90493317Y-73284563D01*
X90476216Y-73625886D01*
X90475141Y-74021028D01*
X90490211Y-74506809D01*
X90521546Y-75120048D01*
X90569266Y-75897566D01*
X90633490Y-76876181D01*
X90636363Y-76919517D01*
X90665813Y-77424677D01*
X90666763Y-77754577D01*
X90629554Y-77967682D01*
X90544529Y-78122454D01*
X90402031Y-78277355D01*
X90315763Y-78361915D01*
X90087166Y-78539938D01*
X89901789Y-78554599D01*
X89676327Y-78422566D01*
X89639912Y-78391756D01*
X89521811Y-78198107D01*
X89434842Y-77855625D01*
X89366419Y-77319515D01*
X89300947Y-76751961D01*
X89215658Y-76152617D01*
X89129960Y-75660094D01*
X89112358Y-75565111D01*
X89048650Y-74909465D01*
X89049957Y-74141807D01*
X89108811Y-73320413D01*
X89217744Y-72503558D01*
X89369289Y-71749516D01*
X89555977Y-71116564D01*
X89770341Y-70662977D01*
X89786328Y-70639228D01*
X90073719Y-70372900D01*
X90393171Y-70319460D01*
X90698049Y-70487719D01*
G37*
G36*
X157829963Y-82940809D02*
G01*
X158016684Y-83012240D01*
X158220466Y-83146088D01*
X158394349Y-83432015D01*
X158354023Y-83746364D01*
X158095177Y-84033090D01*
X157728416Y-84253491D01*
X156958777Y-84595763D01*
X156050728Y-84886639D01*
X155066399Y-85107506D01*
X154067918Y-85239748D01*
X153492672Y-85272748D01*
X152329094Y-85263577D01*
X151142925Y-85166140D01*
X149997901Y-84989058D01*
X148957760Y-84740956D01*
X148086238Y-84430457D01*
X147856600Y-84324663D01*
X147651697Y-84188311D01*
X147579759Y-84018921D01*
X147587198Y-83742632D01*
X147607355Y-83538737D01*
X147669126Y-83365799D01*
X147830546Y-83303225D01*
X148161033Y-83297120D01*
X148390533Y-83313016D01*
X148852918Y-83375295D01*
X149417507Y-83473398D01*
X150009390Y-83595242D01*
X150314658Y-83661105D01*
X150932201Y-83772973D01*
X151525890Y-83841638D01*
X152182952Y-83875521D01*
X152990611Y-83883044D01*
X153719106Y-83874332D01*
X154354806Y-83842496D01*
X154896118Y-83774251D01*
X155418164Y-83656109D01*
X155996066Y-83474583D01*
X156704947Y-83216187D01*
X156989406Y-83110479D01*
X157376743Y-82980535D01*
X157636789Y-82927109D01*
X157829963Y-82940809D01*
G37*
G36*
X150661895Y-60524607D02*
G01*
X150819488Y-60705383D01*
X150848864Y-60782469D01*
X150823590Y-61085696D01*
X150669022Y-61493710D01*
X150410978Y-61957454D01*
X150075275Y-62427873D01*
X149687728Y-62855911D01*
X149174806Y-63326149D01*
X148347294Y-64008194D01*
X147469854Y-64655984D01*
X146594712Y-65233639D01*
X145774097Y-65705276D01*
X145060238Y-66035016D01*
X144818112Y-66122918D01*
X144265137Y-66266459D01*
X143873239Y-66262834D01*
X143623665Y-66113063D01*
X143591709Y-66071611D01*
X143508671Y-65845985D01*
X143586887Y-65603519D01*
X143841582Y-65326731D01*
X144287983Y-64998142D01*
X144941315Y-64600270D01*
X145567615Y-64234529D01*
X146444769Y-63694397D01*
X147183251Y-63194169D01*
X147831952Y-62697874D01*
X148439758Y-62169544D01*
X149055559Y-61573208D01*
X149455807Y-61177965D01*
X149894247Y-60783281D01*
X150224555Y-60551118D01*
X150472011Y-60469040D01*
X150661895Y-60524607D01*
G37*
G36*
X81984245Y-84201767D02*
G01*
X82076569Y-84401965D01*
X82062929Y-84679004D01*
X81878174Y-84998000D01*
X81490019Y-85296692D01*
X80881129Y-85592344D01*
X80354677Y-85787048D01*
X79572132Y-86031285D01*
X78652226Y-86282898D01*
X77647810Y-86527546D01*
X76611738Y-86750887D01*
X76484883Y-86774346D01*
X75892325Y-86847538D01*
X75193369Y-86889700D01*
X74431068Y-86902849D01*
X73648476Y-86889000D01*
X72888647Y-86850168D01*
X72194634Y-86788369D01*
X71609492Y-86705616D01*
X71176273Y-86603927D01*
X70938032Y-86485315D01*
X70913336Y-86458085D01*
X70788407Y-86153941D01*
X70793608Y-85777404D01*
X70929836Y-85442376D01*
X70981995Y-85376397D01*
X71072817Y-85309162D01*
X71217626Y-85281772D01*
X71461739Y-85294066D01*
X71850472Y-85345885D01*
X72429142Y-85437068D01*
X73424944Y-85555129D01*
X74903424Y-85577273D01*
X76441457Y-85418942D01*
X78066988Y-85076768D01*
X79807960Y-84547381D01*
X80152200Y-84431332D01*
X80868852Y-84216872D01*
X81400001Y-84107963D01*
X81765261Y-84103347D01*
X81984245Y-84201767D01*
G37*
G36*
X76930358Y-69257275D02*
G01*
X77260792Y-69402476D01*
X77732942Y-69673587D01*
X77774911Y-69698436D01*
X78104082Y-69882762D01*
X78594840Y-70147097D01*
X79204180Y-70468704D01*
X79889093Y-70824848D01*
X80606573Y-71192792D01*
X80689622Y-71235109D01*
X81458704Y-71632087D01*
X82039516Y-71944302D01*
X82457168Y-72187204D01*
X82736769Y-72376240D01*
X82903428Y-72526861D01*
X82982252Y-72654515D01*
X83031143Y-72902424D01*
X82928382Y-73160138D01*
X82865524Y-73222991D01*
X82645069Y-73307253D01*
X82281812Y-73287092D01*
X82186934Y-73262761D01*
X81864062Y-73142648D01*
X81385789Y-72940751D01*
X80789301Y-72674892D01*
X80111787Y-72362891D01*
X79390434Y-72022572D01*
X78662429Y-71671757D01*
X77964959Y-71328266D01*
X77335212Y-71009922D01*
X76810374Y-70734547D01*
X76427634Y-70519963D01*
X76224179Y-70383991D01*
X76198321Y-70359670D01*
X76032372Y-70053695D01*
X76079150Y-69716844D01*
X76332353Y-69406097D01*
X76478458Y-69303319D01*
X76687595Y-69227663D01*
X76930358Y-69257275D01*
G37*
G36*
X80782305Y-57795494D02*
G01*
X81268907Y-58053654D01*
X81402318Y-58143396D01*
X81855285Y-58491081D01*
X82366809Y-58933766D01*
X82907024Y-59440070D01*
X83446065Y-59978612D01*
X83954068Y-60518012D01*
X84401168Y-61026889D01*
X84757501Y-61473860D01*
X84993201Y-61827547D01*
X85078404Y-62056566D01*
X85100199Y-62157119D01*
X85261688Y-62322418D01*
X85366049Y-62392114D01*
X85565560Y-62644791D01*
X85727268Y-62972413D01*
X85793897Y-63272716D01*
X85752117Y-63444784D01*
X85596542Y-63696009D01*
X85537958Y-63754414D01*
X85216291Y-63912219D01*
X84877958Y-63867760D01*
X84574979Y-63639894D01*
X84359369Y-63247482D01*
X84290607Y-63083573D01*
X84065384Y-62700927D01*
X83783387Y-62335666D01*
X83479009Y-62000290D01*
X82638752Y-61102794D01*
X81883349Y-60339288D01*
X81232063Y-59728822D01*
X80704157Y-59290447D01*
X80419368Y-59069122D01*
X80072326Y-58752733D01*
X79900881Y-58494917D01*
X79884635Y-58258281D01*
X80003189Y-58005429D01*
X80128511Y-57855578D01*
X80410447Y-57729784D01*
X80782305Y-57795494D01*
G37*
G36*
X130178096Y-93753475D02*
G01*
X130347199Y-94037201D01*
X130361985Y-94419043D01*
X130257812Y-94892061D01*
X130064417Y-95335204D01*
X129816116Y-95644606D01*
X129728335Y-95705843D01*
X129381682Y-95842001D01*
X129034491Y-95856384D01*
X128758548Y-95755055D01*
X128625645Y-95544075D01*
X128654201Y-95255984D01*
X128792769Y-94843857D01*
X129003717Y-94406315D01*
X129246740Y-94026143D01*
X129481531Y-93786128D01*
X129543806Y-93748480D01*
X129892311Y-93652017D01*
X130178096Y-93753475D01*
G37*
G36*
X118424824Y-91906554D02*
G01*
X118330379Y-92404223D01*
X118304372Y-92541264D01*
X117950285Y-93222450D01*
X117798300Y-93422384D01*
X117253558Y-93913260D01*
X116544545Y-94324815D01*
X115722274Y-94631093D01*
X114837756Y-94806139D01*
X114728281Y-94818811D01*
X114298233Y-94876840D01*
X113981437Y-94932653D01*
X113839947Y-94975703D01*
X113786294Y-94999775D01*
X113587500Y-94984277D01*
X113549871Y-94974830D01*
X113292514Y-94928744D01*
X112888046Y-94869028D01*
X112405866Y-94806143D01*
X111467165Y-94624017D01*
X110551248Y-94277743D01*
X109805222Y-93791474D01*
X109242458Y-93174195D01*
X108895786Y-92474178D01*
X109845481Y-92474178D01*
X110186882Y-92878777D01*
X110329039Y-93024093D01*
X110711349Y-93321591D01*
X111129400Y-93563293D01*
X111372257Y-93667459D01*
X111741121Y-93794351D01*
X111998827Y-93844375D01*
X112113040Y-93836245D01*
X112214712Y-93765157D01*
X112258046Y-93571833D01*
X112267137Y-93198252D01*
X112267137Y-92550964D01*
X111641080Y-92473883D01*
X111459443Y-92455288D01*
X110920775Y-92428058D01*
X110430253Y-92435490D01*
X109845481Y-92474178D01*
X108895786Y-92474178D01*
X108876328Y-92434888D01*
X108852616Y-92361333D01*
X108751623Y-91922887D01*
X108774813Y-91567366D01*
X108888658Y-91354263D01*
X110234591Y-91354263D01*
X110236109Y-91423315D01*
X110369647Y-91475589D01*
X110590742Y-91513936D01*
X110987993Y-91549621D01*
X111444412Y-91567925D01*
X111789325Y-91578249D01*
X112367602Y-91641334D01*
X112758139Y-91781911D01*
X112993311Y-92026201D01*
X113105492Y-92400428D01*
X113111612Y-92550964D01*
X113127055Y-92930812D01*
X113127886Y-93097244D01*
X113160498Y-93500397D01*
X113224720Y-93795366D01*
X113340098Y-93977038D01*
X113571727Y-94084037D01*
X113696570Y-94065333D01*
X113914576Y-93876083D01*
X114017524Y-93495234D01*
X113999752Y-92937946D01*
X113976476Y-92698610D01*
X114903207Y-92698610D01*
X114911450Y-92960249D01*
X114938805Y-93141503D01*
X114996527Y-93206915D01*
X115120607Y-93082316D01*
X115152039Y-93047519D01*
X115397443Y-92843957D01*
X115716851Y-92639802D01*
X116142724Y-92404223D01*
X115570401Y-92455029D01*
X115382036Y-92474831D01*
X115081530Y-92522068D01*
X114935372Y-92568541D01*
X114903207Y-92698610D01*
X113976476Y-92698610D01*
X113963202Y-92562125D01*
X113977605Y-92207878D01*
X114084731Y-91952832D01*
X114313731Y-91776486D01*
X114693755Y-91658338D01*
X115253953Y-91577886D01*
X116023475Y-91514627D01*
X117215963Y-91431662D01*
X116234607Y-90943829D01*
X116189214Y-90921274D01*
X115735918Y-90701063D01*
X115427391Y-90574004D01*
X115200990Y-90526176D01*
X114994072Y-90543653D01*
X114743996Y-90612513D01*
X113966572Y-90796946D01*
X113297433Y-90825642D01*
X112725325Y-90691834D01*
X112618782Y-90651733D01*
X112231427Y-90563340D01*
X111837635Y-90588858D01*
X111376475Y-90738705D01*
X110787017Y-91023300D01*
X110732589Y-91052064D01*
X110391336Y-91239993D01*
X110234591Y-91354263D01*
X108888658Y-91354263D01*
X108945084Y-91248641D01*
X109285337Y-90920585D01*
X109818471Y-90537070D01*
X110313001Y-90226832D01*
X111062842Y-89861442D01*
X111749123Y-89682422D01*
X112413191Y-89681092D01*
X113096393Y-89848769D01*
X113373472Y-89935232D01*
X113621620Y-89961532D01*
X113905519Y-89912436D01*
X114318622Y-89782909D01*
X114366630Y-89766860D01*
X114750190Y-89655517D01*
X115084069Y-89610278D01*
X115419924Y-89641042D01*
X115809414Y-89757709D01*
X116304196Y-89970181D01*
X116955927Y-90288357D01*
X117366986Y-90498382D01*
X117770612Y-90725133D01*
X118032252Y-90912650D01*
X118195863Y-91093955D01*
X118305401Y-91302065D01*
X118311782Y-91317565D01*
X118333680Y-91431662D01*
X118424824Y-91906554D01*
G37*
G36*
X116243650Y-85515149D02*
G01*
X116591626Y-85636992D01*
X116904559Y-85830243D01*
X117082263Y-86040084D01*
X117128292Y-86205504D01*
X117155754Y-86685296D01*
X117081295Y-87196609D01*
X116917669Y-87617220D01*
X116817500Y-87768250D01*
X116603939Y-87992328D01*
X116318076Y-88147453D01*
X115904546Y-88258894D01*
X115307982Y-88351922D01*
X114949047Y-88388262D01*
X114303369Y-88421194D01*
X113587919Y-88429137D01*
X112864233Y-88413732D01*
X112193847Y-88376622D01*
X111638297Y-88319449D01*
X111259117Y-88243855D01*
X111156244Y-88206270D01*
X110752182Y-87987153D01*
X110394563Y-87703858D01*
X110205057Y-87494760D01*
X110043623Y-87195233D01*
X110001409Y-86827395D01*
X110059804Y-86292502D01*
X110266577Y-85865802D01*
X110629487Y-85604185D01*
X110750926Y-85557896D01*
X111022955Y-85521199D01*
X111299699Y-85630510D01*
X111448220Y-85731106D01*
X111578279Y-85936349D01*
X111611268Y-86277812D01*
X111618485Y-86472455D01*
X111686140Y-86714454D01*
X111849766Y-86827784D01*
X112009838Y-86855559D01*
X112382813Y-86884043D01*
X112888879Y-86903906D01*
X113468793Y-86914655D01*
X114063309Y-86915800D01*
X114613186Y-86906852D01*
X115059178Y-86887318D01*
X115342044Y-86856709D01*
X115569150Y-86796467D01*
X115647248Y-86682792D01*
X115583070Y-86437296D01*
X115543018Y-86210583D01*
X115612853Y-85865429D01*
X115809490Y-85602613D01*
X116091770Y-85498122D01*
X116243650Y-85515149D01*
G37*
G36*
X122853492Y-83831082D02*
G01*
X122745312Y-84349441D01*
X122474020Y-84810267D01*
X122038187Y-85160974D01*
X121853468Y-85252558D01*
X121487871Y-85358715D01*
X121118709Y-85323883D01*
X120652275Y-85147127D01*
X120223426Y-84857794D01*
X119900350Y-84410562D01*
X119844922Y-84209177D01*
X121091550Y-84209177D01*
X121148617Y-84362303D01*
X121385476Y-84424882D01*
X121638821Y-84352252D01*
X121849470Y-84091986D01*
X121926292Y-83681454D01*
X121889817Y-83463112D01*
X121774506Y-83250018D01*
X121628548Y-83130406D01*
X121502147Y-83141827D01*
X121445504Y-83321831D01*
X121407624Y-83494643D01*
X121266631Y-83761994D01*
X121161266Y-83945022D01*
X121091550Y-84209177D01*
X119844922Y-84209177D01*
X119756019Y-83886170D01*
X119804585Y-83340060D01*
X120060200Y-82827675D01*
X120336295Y-82556046D01*
X120844647Y-82296494D01*
X121412751Y-82210699D01*
X121960990Y-82319928D01*
X122213649Y-82456680D01*
X122586232Y-82832114D01*
X122799989Y-83307777D01*
X122838194Y-83681454D01*
X122853492Y-83831082D01*
G37*
G36*
X107377935Y-83702457D02*
G01*
X107373115Y-83849616D01*
X107240244Y-84392952D01*
X106912763Y-84819151D01*
X106373693Y-85152738D01*
X106345551Y-85165521D01*
X106014940Y-85308774D01*
X105797268Y-85360886D01*
X105594167Y-85327547D01*
X105307272Y-85214450D01*
X105182215Y-85156458D01*
X104711072Y-84795271D01*
X104421233Y-84310201D01*
X104330763Y-83745259D01*
X104361735Y-83598694D01*
X105261115Y-83598694D01*
X105264324Y-83929097D01*
X105449531Y-84227527D01*
X105617933Y-84350913D01*
X105812698Y-84424882D01*
X105814821Y-84424862D01*
X106013106Y-84334482D01*
X106254097Y-84124138D01*
X106457544Y-83876357D01*
X106543193Y-83673668D01*
X106539396Y-83631816D01*
X106405408Y-83393860D01*
X106147083Y-83195872D01*
X105856640Y-83113145D01*
X105693681Y-83134884D01*
X105413152Y-83309546D01*
X105261115Y-83598694D01*
X104361735Y-83598694D01*
X104457723Y-83144459D01*
X104712735Y-82703871D01*
X105139084Y-82356097D01*
X105676396Y-82210096D01*
X106300458Y-82277262D01*
X106499801Y-82344052D01*
X106974609Y-82654242D01*
X107273843Y-83115671D01*
X107372828Y-83673668D01*
X107377935Y-83702457D01*
G37*
G36*
X125700968Y-80039532D02*
G01*
X125806719Y-80255761D01*
X125816706Y-80637074D01*
X125710830Y-81089156D01*
X125498376Y-81543091D01*
X125345646Y-81757050D01*
X125131506Y-81889572D01*
X124792765Y-81920657D01*
X124678177Y-81915811D01*
X124282495Y-81793132D01*
X124050488Y-81530816D01*
X123989951Y-81163283D01*
X124108679Y-80724952D01*
X124414465Y-80250240D01*
X124595808Y-80072779D01*
X124980532Y-79874512D01*
X125370167Y-79859950D01*
X125700968Y-80039532D01*
G37*
G36*
X105160729Y-53393431D02*
G01*
X105264387Y-53456139D01*
X105446340Y-53735081D01*
X105461921Y-54128316D01*
X105305434Y-54588786D01*
X105196815Y-54811087D01*
X104848483Y-55654380D01*
X104543112Y-56582629D01*
X104309523Y-57500740D01*
X104176536Y-58313620D01*
X104161797Y-58456926D01*
X104098380Y-58961294D01*
X104026911Y-59292240D01*
X103932433Y-59502672D01*
X103799986Y-59645497D01*
X103791452Y-59652398D01*
X103550537Y-59820838D01*
X103373795Y-59834687D01*
X103155484Y-59703455D01*
X103129979Y-59681548D01*
X102993090Y-59420334D01*
X102902564Y-58987124D01*
X102862791Y-58436260D01*
X102878164Y-57822085D01*
X102953074Y-57198939D01*
X103041316Y-56819561D01*
X103207927Y-56260734D01*
X103422794Y-55630807D01*
X103660925Y-55007161D01*
X103895418Y-54451889D01*
X104164381Y-53902252D01*
X104404925Y-53543610D01*
X104637520Y-53353941D01*
X104882632Y-53311222D01*
X105160729Y-53393431D01*
G37*
G36*
X129286925Y-41499864D02*
G01*
X129549080Y-41624580D01*
X129644631Y-41883003D01*
X129550385Y-42225432D01*
X129457766Y-42375052D01*
X129242133Y-42692507D01*
X128948180Y-43108382D01*
X128611610Y-43571485D01*
X128421866Y-43832307D01*
X127968915Y-44473274D01*
X127510940Y-45141535D01*
X127122789Y-45728638D01*
X126910026Y-46054356D01*
X126607721Y-46500830D01*
X126353158Y-46858281D01*
X126185814Y-47070188D01*
X125943948Y-47266234D01*
X125641530Y-47321716D01*
X125376513Y-47149991D01*
X125364834Y-47135402D01*
X125288757Y-46967027D01*
X125287408Y-46710931D01*
X125359385Y-46297278D01*
X125482408Y-45899874D01*
X125746650Y-45332462D01*
X126110984Y-44706460D01*
X126548574Y-44055336D01*
X127032585Y-43412559D01*
X127536180Y-42811599D01*
X128032523Y-42285924D01*
X128494778Y-41869004D01*
X128896109Y-41594308D01*
X129209680Y-41495305D01*
X129286925Y-41499864D01*
G37*
D12*
%TO.C,C4*%
X148538748Y-53815000D02*
X149061252Y-53815000D01*
X148538748Y-55285000D02*
X149061252Y-55285000D01*
%TO.C,C7*%
X156765000Y-70938748D02*
X156765000Y-71461252D01*
X158235000Y-70938748D02*
X158235000Y-71461252D01*
%TO.C,C6*%
X157040000Y-66634420D02*
X157040000Y-66915580D01*
X158060000Y-66634420D02*
X158060000Y-66915580D01*
%TO.C,C5*%
X159140000Y-66684420D02*
X159140000Y-66965580D01*
X160160000Y-66684420D02*
X160160000Y-66965580D01*
%TO.C,C3*%
X145465580Y-55060000D02*
X145184420Y-55060000D01*
X145465580Y-54040000D02*
X145184420Y-54040000D01*
%TO.C,C2*%
X155040000Y-66609420D02*
X155040000Y-66890580D01*
X156060000Y-66609420D02*
X156060000Y-66890580D01*
%TO.C,C1*%
X144715580Y-67090000D02*
X144434420Y-67090000D01*
X144715580Y-68110000D02*
X144434420Y-68110000D01*
%TD*%
M02*
