M48
; DRILL file {KiCad 9.0.9} date 2026-05-02T22:22:38-0700
; FORMAT={-:-/ absolute / metric / decimal}
; #@! TF.CreationDate,2026-05-02T22:22:38-07:00
; #@! TF.GenerationSoftware,Kicad,Pcbnew,9.0.9
; #@! TF.FileFunction,Plated,1,4,PTH
FMAT,2
METRIC
; #@! TA.AperFunction,Plated,PTH,ViaDrill
T1C0.300
; #@! TA.AperFunction,Plated,PTH,ComponentDrill
T2C0.800
; #@! TA.AperFunction,Plated,PTH,ComponentDrill
T3C0.920
; #@! TA.AperFunction,Plated,PTH,ComponentDrill
T4C1.000
; #@! TA.AperFunction,Plated,PTH,ComponentDrill
T5C1.300
; #@! TA.AperFunction,Plated,PTH,ComponentDrill
T6C3.200
%
G90
G05
T1
X71.73Y-46.02
X77.42Y-51.58
X78.68Y-55.28
X78.87Y-56.42
X80.85Y-52.94
X99.45Y-69.04
X104.06Y-86.39
X105.12Y-89.19
X105.23Y-87.62
X107.88Y-72.86
X110.74Y-51.54
X115.18Y-87.0
X115.71Y-89.11
X117.5Y-86.26
X121.61Y-89.71
X122.44Y-98.7
X122.6Y-90.53
X123.23Y-70.51
X125.94Y-82.32
X126.84Y-87.83
X129.21Y-86.57
X131.02Y-88.03
X133.13Y-87.7
X134.77Y-84.83
X136.04Y-89.78
X139.44Y-81.07
X147.53Y-103.33
X149.09Y-89.04
X150.8Y-102.46
X151.13Y-103.4
T2
X69.8Y-60.88
X69.8Y-83.74
X72.34Y-60.88
X72.34Y-83.74
X74.88Y-60.88
X74.88Y-83.74
X77.42Y-60.88
X77.42Y-83.74
X79.96Y-60.88
X79.96Y-83.74
X82.5Y-60.88
X82.5Y-83.74
X85.04Y-60.88
X85.04Y-83.74
X87.58Y-60.88
X87.58Y-83.74
X90.12Y-60.88
X90.12Y-83.74
X92.66Y-60.88
X92.66Y-83.74
X95.2Y-60.88
X95.2Y-83.74
X97.74Y-60.88
X97.74Y-83.74
X100.28Y-60.88
X100.28Y-83.74
X102.82Y-60.88
X102.82Y-83.74
X105.36Y-60.88
X105.36Y-83.74
X107.9Y-60.88
X107.9Y-83.74
X110.44Y-60.88
X110.44Y-83.74
X112.98Y-60.88
X112.98Y-83.74
X115.52Y-60.88
X115.52Y-83.74
X118.057Y-83.744
X118.06Y-60.88
X120.597Y-83.744
X120.6Y-60.88
X123.137Y-83.744
X123.14Y-60.88
T3
X138.61Y-61.75
X138.61Y-83.75
X140.61Y-61.75
X140.61Y-83.75
X142.61Y-61.75
X142.61Y-83.75
X144.61Y-61.75
X144.61Y-83.75
X146.61Y-61.75
X146.61Y-83.75
X148.61Y-61.75
X148.61Y-83.75
X150.61Y-61.75
X150.61Y-83.75
X152.61Y-61.75
X152.61Y-83.75
X154.61Y-61.75
X154.61Y-83.75
X156.61Y-61.75
X156.61Y-83.75
T4
X71.89Y-92.28
X71.89Y-94.82
X71.89Y-97.36
X74.6Y-42.44
X74.6Y-44.98
X74.6Y-47.52
X74.6Y-50.06
X74.6Y-52.6
X74.6Y-55.14
X75.89Y-92.28
X75.89Y-94.82
X75.89Y-97.36
X79.89Y-92.28
X79.89Y-94.82
X79.89Y-97.36
X83.89Y-92.28
X83.89Y-94.82
X83.89Y-97.36
X89.83Y-46.68
X89.83Y-49.22
X89.83Y-51.76
X89.83Y-54.3
X90.25Y-92.28
X90.25Y-94.82
X90.25Y-97.36
X93.76Y-46.67
X93.76Y-49.21
X93.76Y-51.75
X93.76Y-54.29
X94.29Y-92.28
X94.29Y-94.82
X94.29Y-97.36
X97.69Y-46.67
X97.69Y-49.21
X97.69Y-51.75
X97.69Y-54.29
X98.29Y-92.28
X98.29Y-94.82
X98.29Y-97.36
X102.29Y-92.28
X102.29Y-94.82
X102.29Y-97.36
X104.66Y-46.61
X104.66Y-49.15
X104.66Y-51.69
X104.66Y-54.23
X113.3Y-92.54
X113.3Y-95.08
X113.3Y-97.62
X115.9Y-48.48
X115.9Y-51.02
X117.3Y-92.54
X117.3Y-95.08
X117.3Y-97.62
X120.7Y-48.48
X120.7Y-51.02
X125.5Y-47.41
X125.5Y-49.95
X125.5Y-52.49
X127.5Y-92.45
X127.5Y-94.99
X127.5Y-97.53
X131.46Y-92.45
X131.46Y-94.99
X131.46Y-97.53
X135.46Y-92.45
X135.46Y-94.99
X135.46Y-97.53
X139.46Y-92.45
X139.46Y-94.99
X139.46Y-97.53
X143.46Y-92.45
X143.46Y-94.99
X143.46Y-97.53
X147.46Y-92.45
X147.46Y-94.99
X147.46Y-97.53
T5
X157.892Y-91.525
X157.892Y-96.605
T6
X64.5Y-41.5
X65.0Y-105.0
X162.5Y-41.5
X162.5Y-105.0
M30
