%TF.GenerationSoftware,KiCad,Pcbnew,9.0.9*%
%TF.CreationDate,2026-05-02T20:45:35-07:00*%
%TF.ProjectId,AmidalaShield,416d6964-616c-4615-9368-69656c642e6b,rev?*%
%TF.SameCoordinates,Original*%
%TF.FileFunction,Copper,L1,Top*%
%TF.FilePolarity,Positive*%
%FSLAX46Y46*%
G04 Gerber Fmt 4.6, Leading zero omitted, Abs format (unit mm)*
G04 Created by KiCad (PCBNEW 9.0.9) date 2026-05-02 20:45:35*
%MOMM*%
%LPD*%
G01*
G04 APERTURE LIST*
G04 Aperture macros list*
%AMRoundRect*
0 Rectangle with rounded corners*
0 $1 Rounding radius*
0 $2 $3 $4 $5 $6 $7 $8 $9 X,Y pos of 4 corners*
0 Add a 4 corners polygon primitive as box body*
4,1,4,$2,$3,$4,$5,$6,$7,$8,$9,$2,$3,0*
0 Add four circle primitives for the rounded corners*
1,1,$1+$1,$2,$3*
1,1,$1+$1,$4,$5*
1,1,$1+$1,$6,$7*
1,1,$1+$1,$8,$9*
0 Add four rect primitives between the rounded corners*
20,1,$1+$1,$2,$3,$4,$5,0*
20,1,$1+$1,$4,$5,$6,$7,0*
20,1,$1+$1,$6,$7,$8,$9,0*
20,1,$1+$1,$8,$9,$2,$3,0*%
G04 Aperture macros list end*
%TA.AperFunction,ComponentPad*%
%ADD10C,1.700000*%
%TD*%
%TA.AperFunction,ComponentPad*%
%ADD11R,1.700000X1.700000*%
%TD*%
%TA.AperFunction,ComponentPad*%
%ADD12RoundRect,0.250000X1.050000X-1.050000X1.050000X1.050000X-1.050000X1.050000X-1.050000X-1.050000X0*%
%TD*%
%TA.AperFunction,ComponentPad*%
%ADD13C,2.600000*%
%TD*%
%TA.AperFunction,ComponentPad*%
%ADD14C,1.431000*%
%TD*%
%TA.AperFunction,ComponentPad*%
%ADD15O,1.200000X2.000000*%
%TD*%
%TA.AperFunction,ComponentPad*%
%ADD16R,1.200000X2.000000*%
%TD*%
%TA.AperFunction,ComponentPad*%
%ADD17C,6.400000*%
%TD*%
%TA.AperFunction,SMDPad,CuDef*%
%ADD18R,0.800000X1.500000*%
%TD*%
%TA.AperFunction,SMDPad,CuDef*%
%ADD19R,1.450000X2.000000*%
%TD*%
%TA.AperFunction,ViaPad*%
%ADD20C,0.600000*%
%TD*%
%TA.AperFunction,Conductor*%
%ADD21C,0.200000*%
%TD*%
G04 APERTURE END LIST*
D10*
%TO.P,J_PPMIN1,3,Pin_3*%
%TO.N,/RC Control/GPIO47*%
X125500000Y-52490000D03*
%TO.P,J_PPMIN1,2,Pin_2*%
%TO.N,+3.3V*%
X125500000Y-49950000D03*
D11*
%TO.P,J_PPMIN1,1,Pin_1*%
%TO.N,GND*%
X125500000Y-47410000D03*
%TD*%
%TO.P,J_Servo1,1,Pin_1*%
%TO.N,GND*%
X71890000Y-97360000D03*
D10*
%TO.P,J_Servo1,2,Pin_2*%
%TO.N,+5V*%
X71890000Y-94820000D03*
%TO.P,J_Servo1,3,Pin_3*%
%TO.N,/Servos/GPIO3*%
X71890000Y-92280000D03*
%TD*%
D11*
%TO.P,Serial0,1,Pin_1*%
%TO.N,GND*%
X89830000Y-46680000D03*
D10*
%TO.P,Serial0,2,Pin_2*%
%TO.N,+3.3V*%
X89830000Y-49220000D03*
%TO.P,Serial0,3,Pin_3*%
%TO.N,/Comms/GPIO43*%
X89830000Y-51760000D03*
%TO.P,Serial0,4,Pin_4*%
%TO.N,/Comms/GPIO44*%
X89830000Y-54300000D03*
%TD*%
D11*
%TO.P,SWSerial1,1,Pin_1*%
%TO.N,GND*%
X97690000Y-46670000D03*
D10*
%TO.P,SWSerial1,2,Pin_2*%
%TO.N,+3.3V*%
X97690000Y-49210000D03*
%TO.P,SWSerial1,3,Pin_3*%
%TO.N,/Comms/GPIO21*%
X97690000Y-51750000D03*
%TO.P,SWSerial1,4,Pin_4*%
%TO.N,/Comms/GPIO38*%
X97690000Y-54290000D03*
%TD*%
%TO.P,Serial1,4,Pin_4*%
%TO.N,/Comms/GPIO18*%
X93760000Y-54290000D03*
%TO.P,Serial1,3,Pin_3*%
%TO.N,/Comms/GPIO17*%
X93760000Y-51750000D03*
%TO.P,Serial1,2,Pin_2*%
%TO.N,+3.3V*%
X93760000Y-49210000D03*
D11*
%TO.P,Serial1,1,Pin_1*%
%TO.N,GND*%
X93760000Y-46670000D03*
%TD*%
D10*
%TO.P,I2C1,4,Pin_4*%
%TO.N,/Comms/GPIO37*%
X104660000Y-54230000D03*
%TO.P,I2C1,3,Pin_3*%
%TO.N,/Comms/GPIO36*%
X104660000Y-51690000D03*
%TO.P,I2C1,2,Pin_2*%
%TO.N,+3.3V*%
X104660000Y-49150000D03*
D11*
%TO.P,I2C1,1,Pin_1*%
%TO.N,GND*%
X104660000Y-46610000D03*
%TD*%
D10*
%TO.P,J_RCSEL1,2,Pin_2*%
%TO.N,/RC Control/GPIO48*%
X120700000Y-48480000D03*
D11*
%TO.P,J_RCSEL1,1,Pin_1*%
%TO.N,/Pins/GPIO39*%
X120700000Y-51020000D03*
%TD*%
%TO.P,J_SEL2,1,Pin_1*%
%TO.N,/Comms/GPIO21*%
X115900000Y-51020000D03*
D10*
%TO.P,J_SEL2,2,Pin_2*%
%TO.N,/Comms/GPIO38*%
X115900000Y-48480000D03*
%TD*%
D11*
%TO.P,J_Servo8,1,Pin_1*%
%TO.N,GND*%
X102290000Y-97360000D03*
D10*
%TO.P,J_Servo8,2,Pin_2*%
%TO.N,+5V*%
X102290000Y-94820000D03*
%TO.P,J_Servo8,3,Pin_3*%
%TO.N,/Servos/GPIO46*%
X102290000Y-92280000D03*
%TD*%
D11*
%TO.P,J_Digital3,1,Pin_1*%
%TO.N,GND*%
X135460000Y-97530000D03*
D10*
%TO.P,J_Digital3,2,Pin_2*%
%TO.N,+3.3V*%
X135460000Y-94990000D03*
%TO.P,J_Digital3,3,Pin_3*%
%TO.N,/Pins/GPIO40*%
X135460000Y-92450000D03*
%TD*%
D11*
%TO.P,J_Digital6,1,Pin_1*%
%TO.N,GND*%
X147460000Y-97530000D03*
D10*
%TO.P,J_Digital6,2,Pin_2*%
%TO.N,+3.3V*%
X147460000Y-94990000D03*
%TO.P,J_Digital6,3,Pin_3*%
%TO.N,/Pins/GPIO45*%
X147460000Y-92450000D03*
%TD*%
D11*
%TO.P,J_Digital4,1,Pin_1*%
%TO.N,GND*%
X139460000Y-97530000D03*
D10*
%TO.P,J_Digital4,2,Pin_2*%
%TO.N,+3.3V*%
X139460000Y-94990000D03*
%TO.P,J_Digital4,3,Pin_3*%
%TO.N,/Pins/GPIO41*%
X139460000Y-92450000D03*
%TD*%
D11*
%TO.P,J_Digital2,1,Pin_1*%
%TO.N,GND*%
X131460000Y-97530000D03*
D10*
%TO.P,J_Digital2,2,Pin_2*%
%TO.N,+3.3V*%
X131460000Y-94990000D03*
%TO.P,J_Digital2,3,Pin_3*%
%TO.N,/Pins/GPIO39*%
X131460000Y-92450000D03*
%TD*%
D11*
%TO.P,J_Analog2,1,Pin_1*%
%TO.N,GND*%
X117300000Y-97620000D03*
D10*
%TO.P,J_Analog2,2,Pin_2*%
%TO.N,+3.3V*%
X117300000Y-95080000D03*
%TO.P,J_Analog2,3,Pin_3*%
%TO.N,/Pins/GPIO2*%
X117300000Y-92540000D03*
%TD*%
D11*
%TO.P,J_Digital1,1,Pin_1*%
%TO.N,GND*%
X127500000Y-97530000D03*
D10*
%TO.P,J_Digital1,2,Pin_2*%
%TO.N,+3.3V*%
X127500000Y-94990000D03*
%TO.P,J_Digital1,3,Pin_3*%
%TO.N,/Pins/GPIO35*%
X127500000Y-92450000D03*
%TD*%
D11*
%TO.P,J_Digital5,1,Pin_1*%
%TO.N,GND*%
X143460000Y-97530000D03*
D10*
%TO.P,J_Digital5,2,Pin_2*%
%TO.N,+3.3V*%
X143460000Y-94990000D03*
%TO.P,J_Digital5,3,Pin_3*%
%TO.N,/Pins/GPIO42*%
X143460000Y-92450000D03*
%TD*%
D11*
%TO.P,J_Analog1,1,Pin_1*%
%TO.N,GND*%
X113300000Y-97620000D03*
D10*
%TO.P,J_Analog1,2,Pin_2*%
%TO.N,+3.3V*%
X113300000Y-95080000D03*
%TO.P,J_Analog1,3,Pin_3*%
%TO.N,/Pins/GPIO1*%
X113300000Y-92540000D03*
%TD*%
D11*
%TO.P,J_Servo3,1,Pin_1*%
%TO.N,GND*%
X79890000Y-97360000D03*
D10*
%TO.P,J_Servo3,2,Pin_2*%
%TO.N,+5V*%
X79890000Y-94820000D03*
%TO.P,J_Servo3,3,Pin_3*%
%TO.N,/Servos/GPIO5*%
X79890000Y-92280000D03*
%TD*%
D11*
%TO.P,J_Servo2,1,Pin_1*%
%TO.N,GND*%
X75890000Y-97360000D03*
D10*
%TO.P,J_Servo2,2,Pin_2*%
%TO.N,+5V*%
X75890000Y-94820000D03*
%TO.P,J_Servo2,3,Pin_3*%
%TO.N,/Servos/GPIO4*%
X75890000Y-92280000D03*
%TD*%
D11*
%TO.P,J_Servo6,1,Pin_1*%
%TO.N,GND*%
X94290000Y-97360000D03*
D10*
%TO.P,J_Servo6,2,Pin_2*%
%TO.N,+5V*%
X94290000Y-94820000D03*
%TO.P,J_Servo6,3,Pin_3*%
%TO.N,/Servos/GPIO15*%
X94290000Y-92280000D03*
%TD*%
D11*
%TO.P,J_Servo7,1,Pin_1*%
%TO.N,GND*%
X98290000Y-97360000D03*
D10*
%TO.P,J_Servo7,2,Pin_2*%
%TO.N,+5V*%
X98290000Y-94820000D03*
%TO.P,J_Servo7,3,Pin_3*%
%TO.N,/Servos/GPIO16*%
X98290000Y-92280000D03*
%TD*%
D11*
%TO.P,J_Servo5,1,Pin_1*%
%TO.N,GND*%
X90250000Y-97360000D03*
D10*
%TO.P,J_Servo5,2,Pin_2*%
%TO.N,+5V*%
X90250000Y-94820000D03*
%TO.P,J_Servo5,3,Pin_3*%
%TO.N,/Servos/GPIO7*%
X90250000Y-92280000D03*
%TD*%
D11*
%TO.P,J_Servo4,1,Pin_1*%
%TO.N,GND*%
X83890000Y-97360000D03*
D10*
%TO.P,J_Servo4,2,Pin_2*%
%TO.N,+5V*%
X83890000Y-94820000D03*
%TO.P,J_Servo4,3,Pin_3*%
%TO.N,/Servos/GPIO6*%
X83890000Y-92280000D03*
%TD*%
D12*
%TO.P,J1,1,Pin_1*%
%TO.N,+5V*%
X157892500Y-96605000D03*
D13*
%TO.P,J1,2,Pin_2*%
%TO.N,GND*%
X157892500Y-91525000D03*
%TD*%
D14*
%TO.P,XBee3,1,VCC*%
%TO.N,+3.3V*%
X156610000Y-61750000D03*
%TO.P,XBee3,2,DOUT/DIO13*%
%TO.N,unconnected-(XBee3-DOUT{slash}DIO13-Pad2)*%
X154610000Y-61750000D03*
%TO.P,XBee3,3,DIN/~{CONFIG}/DIO14*%
%TO.N,unconnected-(XBee3-DIN{slash}~{CONFIG}{slash}DIO14-Pad3)*%
X152610000Y-61750000D03*
%TO.P,XBee3,4,DIO12/SPI_MISO*%
%TO.N,/SPI/GPIO11*%
X150610000Y-61750000D03*
%TO.P,XBee3,5,~{RESET}*%
%TO.N,unconnected-(XBee3-~{RESET}-Pad5)*%
X148610000Y-61750000D03*
%TO.P,XBee3,6,RSSI_PWM/DIO10*%
%TO.N,unconnected-(XBee3-RSSI_PWM{slash}DIO10-Pad6)*%
X146610000Y-61750000D03*
%TO.P,XBee3,7,PWM1/DIO11*%
%TO.N,unconnected-(XBee3-PWM1{slash}DIO11-Pad7)*%
X144610000Y-61750000D03*
%TO.P,XBee3,8,[RESERVED]_1*%
%TO.N,unconnected-(XBee3-[RESERVED]_1-Pad8)*%
X142610000Y-61750000D03*
%TO.P,XBee3,9,~{DTR}/SLEEP_RQ/DIO8*%
%TO.N,unconnected-(XBee3-~{DTR}{slash}SLEEP_RQ{slash}DIO8-Pad9)*%
X140610000Y-61750000D03*
%TO.P,XBee3,10,GND*%
%TO.N,GND*%
X138610000Y-61750000D03*
%TO.P,XBee3,11,DIO4/SPI_MOSI*%
%TO.N,/SPI/GPIO11*%
X138610000Y-83750000D03*
%TO.P,XBee3,12,~{CTS}/DIO7*%
%TO.N,unconnected-(XBee3-~{CTS}{slash}DIO7-Pad12)*%
X140610000Y-83750000D03*
%TO.P,XBee3,13,ON/~{SLEEP}/DIO9*%
%TO.N,unconnected-(XBee3-ON{slash}~{SLEEP}{slash}DIO9-Pad13)*%
X142610000Y-83750000D03*
%TO.P,XBee3,14,[RESERVED]_2*%
%TO.N,unconnected-(XBee3-[RESERVED]_2-Pad14)*%
X144610000Y-83750000D03*
%TO.P,XBee3,15,ASSOCIATE/DIO5*%
%TO.N,unconnected-(XBee3-ASSOCIATE{slash}DIO5-Pad15)*%
X146610000Y-83750000D03*
%TO.P,XBee3,16,~{RTS}/DIO6*%
%TO.N,unconnected-(XBee3-~{RTS}{slash}DIO6-Pad16)*%
X148610000Y-83750000D03*
%TO.P,XBee3,17,AD3/DIO3/SPI_~{SSEL}*%
%TO.N,/SPI/GPIO9*%
X150610000Y-83750000D03*
%TO.P,XBee3,18,AD2/DIO2/SPI_CLK*%
%TO.N,/SPI/GPIO12*%
X152610000Y-83750000D03*
%TO.P,XBee3,19,AD1/DIO1/SPI_~{ATTN}*%
%TO.N,/SPI/GPIO8*%
X154610000Y-83750000D03*
%TO.P,XBee3,20,AD0_/DIO0*%
%TO.N,unconnected-(XBee3-AD0_{slash}DIO0-Pad20)*%
X156610000Y-83750000D03*
%TD*%
D15*
%TO.P,ESP32-S3,44,GND*%
%TO.N,GND*%
X69800000Y-60880000D03*
%TO.P,ESP32-S3,43,GPIO43/U0TXD*%
%TO.N,/Comms/GPIO43*%
X72340000Y-60880000D03*
%TO.P,ESP32-S3,42,GPIO44/U0RXD*%
%TO.N,/Comms/GPIO44*%
X74880000Y-60880000D03*
%TO.P,ESP32-S3,41,GPIO1/ADC1_CH0*%
%TO.N,/Pins/GPIO1*%
X77420000Y-60880000D03*
%TO.P,ESP32-S3,40,GPIO2/ADC1_CH1*%
%TO.N,/Pins/GPIO2*%
X79960000Y-60880000D03*
%TO.P,ESP32-S3,39,GPIO42/MTMS*%
%TO.N,/Pins/GPIO42*%
X82500000Y-60880000D03*
%TO.P,ESP32-S3,38,GPIO41/MTDI*%
%TO.N,/Pins/GPIO41*%
X85040000Y-60880000D03*
%TO.P,ESP32-S3,37,GPIO40/MTDO*%
%TO.N,/Pins/GPIO40*%
X87580000Y-60880000D03*
%TO.P,ESP32-S3,36,GPIO39/MTCK*%
%TO.N,/Pins/GPIO39*%
X90120000Y-60880000D03*
%TO.P,ESP32-S3,35,GPIO38*%
%TO.N,/Comms/GPIO38*%
X92660000Y-60880000D03*
%TO.P,ESP32-S3,34,GPIO37*%
%TO.N,/Comms/GPIO37*%
X95200000Y-60880000D03*
%TO.P,ESP32-S3,33,GPIO36*%
%TO.N,/Comms/GPIO36*%
X97740000Y-60880000D03*
%TO.P,ESP32-S3,32,GPIO35*%
%TO.N,/Pins/GPIO35*%
X100280000Y-60880000D03*
%TO.P,ESP32-S3,31,GPIO0*%
%TO.N,unconnected-(ESP32-S3-GPIO0-Pad31)*%
X102820000Y-60880000D03*
%TO.P,ESP32-S3,30,GPIO45*%
%TO.N,/Pins/GPIO45*%
X105360000Y-60880000D03*
%TO.P,ESP32-S3,29,GPIO48*%
%TO.N,/RC Control/GPIO48*%
X107900000Y-60880000D03*
%TO.P,ESP32-S3,28,GPIO47*%
%TO.N,/RC Control/GPIO47*%
X110440000Y-60880000D03*
%TO.P,ESP32-S3,27,GPIO21*%
%TO.N,/Comms/GPIO21*%
X112980000Y-60880000D03*
%TO.P,ESP32-S3,26,GPIO20/USB_D+*%
%TO.N,unconnected-(ESP32-S3-GPIO20{slash}USB_D+-Pad26)*%
X115520000Y-60880000D03*
%TO.P,ESP32-S3,25,GPIO19/USB_D-*%
%TO.N,unconnected-(ESP32-S3-GPIO19{slash}USB_D--Pad25)*%
X118060000Y-60880000D03*
%TO.P,ESP32-S3,24,GND*%
%TO.N,GND*%
X120600000Y-60880000D03*
%TO.P,ESP32-S3,23,GND*%
X123140000Y-60880000D03*
%TO.P,ESP32-S3,22,GND*%
X123137280Y-83743680D03*
%TO.P,ESP32-S3,21,5V*%
%TO.N,+5V*%
X120597280Y-83743680D03*
%TO.P,ESP32-S3,20,GPIO14/ADC2_CH3*%
%TO.N,/SPI/GPIO14*%
X118057280Y-83743680D03*
%TO.P,ESP32-S3,19,GPIO13/ADC2_CH2*%
%TO.N,/SPI/GPIO13*%
X115520000Y-83740000D03*
%TO.P,ESP32-S3,18,GPIO12/ADC2_CH1*%
%TO.N,/SPI/GPIO12*%
X112980000Y-83740000D03*
%TO.P,ESP32-S3,17,GPIO11/ADC2_CH0*%
%TO.N,/SPI/GPIO11*%
X110440000Y-83740000D03*
%TO.P,ESP32-S3,16,GPIO10/ADC1_CH9*%
%TO.N,/SPI/GPIO10*%
X107900000Y-83740000D03*
%TO.P,ESP32-S3,15,GPIO9/ADC1_CH8*%
%TO.N,/SPI/GPIO9*%
X105360000Y-83740000D03*
%TO.P,ESP32-S3,14,GPIO46*%
%TO.N,/Servos/GPIO46*%
X102820000Y-83740000D03*
%TO.P,ESP32-S3,13,GPIO3/ADC1_CH2*%
%TO.N,/Servos/GPIO3*%
X100280000Y-83740000D03*
%TO.P,ESP32-S3,12,GPIO8/ADC1_CH7*%
%TO.N,/SPI/GPIO8*%
X97740000Y-83740000D03*
%TO.P,ESP32-S3,11,GPIO18/ADC2_CH7*%
%TO.N,/Comms/GPIO18*%
X95200000Y-83740000D03*
%TO.P,ESP32-S3,10,GPIO17/ADC2_CH6*%
%TO.N,/Comms/GPIO17*%
X92660000Y-83740000D03*
%TO.P,ESP32-S3,9,GPIO16/ADC2_CH5/32K_N*%
%TO.N,/Servos/GPIO16*%
X90120000Y-83740000D03*
%TO.P,ESP32-S3,8,GPIO15/ADC2_CH4/32K_P*%
%TO.N,/Servos/GPIO15*%
X87580000Y-83740000D03*
%TO.P,ESP32-S3,7,GPIO7/ADC1_CH6*%
%TO.N,/Servos/GPIO7*%
X85040000Y-83740000D03*
%TO.P,ESP32-S3,6,GPIO6/ADC1_CH5*%
%TO.N,/Servos/GPIO6*%
X82500000Y-83740000D03*
%TO.P,ESP32-S3,5,GPIO5/ADC1_CH4*%
%TO.N,/Servos/GPIO5*%
X79960000Y-83740000D03*
%TO.P,ESP32-S3,4,GPIO4/ADC1_CH3*%
%TO.N,/Servos/GPIO4*%
X77420000Y-83740000D03*
%TO.P,ESP32-S3,3,CHIP_PU*%
%TO.N,unconnected-(ESP32-S3-CHIP_PU-Pad3)*%
X74880000Y-83740000D03*
%TO.P,ESP32-S3,2,3V3*%
%TO.N,unconnected-(ESP32-S3-3V3-Pad1)_1*%
X72340000Y-83740000D03*
D16*
%TO.P,ESP32-S3,1,3V3*%
%TO.N,unconnected-(ESP32-S3-3V3-Pad1)*%
X69800000Y-83740000D03*
%TD*%
D17*
%TO.P,REF\u002A\u002A,1*%
%TO.N,N/C*%
X162500000Y-105000000D03*
%TD*%
%TO.P,REF\u002A\u002A,1*%
%TO.N,N/C*%
X162500000Y-41500000D03*
%TD*%
%TO.P,REF\u002A\u002A,1*%
%TO.N,N/C*%
X65000000Y-105000000D03*
%TD*%
D10*
%TO.P,SPI1,6,Pin_6*%
%TO.N,/SPI/GPIO14*%
X74600000Y-55140000D03*
%TO.P,SPI1,5,Pin_5*%
%TO.N,/SPI/GPIO12*%
X74600000Y-52600000D03*
%TO.P,SPI1,4,Pin_4*%
%TO.N,/SPI/GPIO13*%
X74600000Y-50060000D03*
%TO.P,SPI1,3,Pin_3*%
%TO.N,/SPI/GPIO11*%
X74600000Y-47520000D03*
%TO.P,SPI1,2,Pin_2*%
%TO.N,+3.3V*%
X74600000Y-44980000D03*
D11*
%TO.P,SPI1,1,Pin_1*%
%TO.N,GND*%
X74600000Y-42440000D03*
%TD*%
D17*
%TO.P,REF\u002A\u002A,1*%
%TO.N,N/C*%
X64500000Y-41500000D03*
%TD*%
D18*
%TO.P,J2,1,DAT2*%
%TO.N,unconnected-(J2-DAT2-Pad1)*%
X143440000Y-45932500D03*
%TO.P,J2,2,DAT3/CD*%
%TO.N,/SPI/GPIO10*%
X144540000Y-45932500D03*
%TO.P,J2,3,CMD*%
%TO.N,/SPI/GPIO11*%
X145640000Y-45932500D03*
%TO.P,J2,4,VDD*%
%TO.N,+3.3V*%
X146740000Y-45932500D03*
%TO.P,J2,5,CLK*%
%TO.N,/SPI/GPIO12*%
X147840000Y-45932500D03*
%TO.P,J2,6,VSS*%
%TO.N,GND*%
X148940000Y-45932500D03*
%TO.P,J2,7,DAT0*%
%TO.N,/SPI/GPIO13*%
X150040000Y-45932500D03*
%TO.P,J2,8,DAT1*%
%TO.N,unconnected-(J2-DAT1-Pad8)*%
X151140000Y-45932500D03*
D19*
%TO.P,J2,9,SHIELD*%
%TO.N,GND*%
X139765000Y-43332500D03*
X139765000Y-51632500D03*
X153515000Y-43332500D03*
X153515000Y-51632500D03*
%TD*%
D20*
%TO.N,+3.3V*%
X149090000Y-89040000D03*
X139440000Y-81070000D03*
X122440000Y-98700000D03*
%TO.N,+5V*%
X122600000Y-90530000D03*
%TO.N,/SPI/GPIO12*%
X151130000Y-103400000D03*
X115180000Y-87000000D03*
X115710000Y-89110000D03*
%TO.N,/SPI/GPIO10*%
X123230000Y-70510000D03*
%TO.N,/SPI/GPIO11*%
X134770000Y-84830000D03*
%TO.N,/SPI/GPIO8*%
X150800000Y-102460000D03*
%TO.N,/SPI/GPIO9*%
X147530000Y-103330000D03*
%TO.N,/Comms/GPIO17*%
X71730000Y-46020000D03*
%TO.N,/Comms/GPIO18*%
X104060000Y-86390000D03*
X117500000Y-86260000D03*
X99450000Y-69040000D03*
%TO.N,/Comms/GPIO21*%
X110740000Y-51540000D03*
%TO.N,/Comms/GPIO43*%
X78680000Y-55280000D03*
%TO.N,/Comms/GPIO44*%
X78870000Y-56420000D03*
%TO.N,/Pins/GPIO42*%
X133130000Y-87700000D03*
X107880000Y-72860000D03*
%TO.N,/Pins/GPIO41*%
X121610000Y-89710000D03*
X136040000Y-89780000D03*
%TO.N,/Pins/GPIO40*%
X131020000Y-88030000D03*
X126840000Y-87830000D03*
%TO.N,/Pins/GPIO39*%
X125940000Y-82320000D03*
X129210000Y-86570000D03*
%TO.N,/Pins/GPIO2*%
X105230000Y-87620000D03*
%TO.N,/Pins/GPIO1*%
X105120000Y-89190000D03*
%TO.N,/SPI/GPIO11*%
X77420000Y-51580000D03*
%TO.N,/SPI/GPIO13*%
X80850000Y-52940000D03*
%TD*%
D21*
%TO.N,+3.3V*%
X156610000Y-63900000D02*
X139440000Y-81070000D01*
X156610000Y-61750000D02*
X156610000Y-63900000D01*
X149090000Y-89040000D02*
X149090000Y-93360000D01*
X149090000Y-93360000D02*
X147460000Y-94990000D01*
X127500000Y-94990000D02*
X147460000Y-94990000D01*
X123790000Y-98700000D02*
X122440000Y-98700000D01*
X127500000Y-94990000D02*
X123790000Y-98700000D01*
X146740000Y-45932500D02*
X146740000Y-51880000D01*
X146740000Y-51880000D02*
X156610000Y-61750000D01*
%TO.N,+5V*%
X122600000Y-90530000D02*
X122600000Y-85746400D01*
X122600000Y-85746400D02*
X120597280Y-83743680D01*
%TO.N,/Pins/GPIO41*%
X118957280Y-82937280D02*
X108250000Y-72230000D01*
X108250000Y-72230000D02*
X95700000Y-72230000D01*
X121610000Y-89710000D02*
X121610000Y-88969192D01*
X118957280Y-86316472D02*
X118957280Y-82937280D01*
X121610000Y-88969192D02*
X118957280Y-86316472D01*
X95700000Y-72230000D02*
X95640000Y-72290000D01*
X95640000Y-72290000D02*
X85040000Y-61690000D01*
X85040000Y-61690000D02*
X85040000Y-60880000D01*
%TO.N,/SPI/GPIO12*%
X115180000Y-88580000D02*
X115180000Y-87000000D01*
X115710000Y-89110000D02*
X115180000Y-88580000D01*
X155384128Y-85300186D02*
X151410000Y-89274314D01*
X157030634Y-82734500D02*
X157625500Y-83329366D01*
X157625500Y-83329366D02*
X157625500Y-84170634D01*
X156495948Y-85300186D02*
X155384128Y-85300186D01*
X151410000Y-103120000D02*
X151130000Y-103400000D01*
X151410000Y-89274314D02*
X151410000Y-103120000D01*
X157625500Y-84170634D02*
X156495948Y-85300186D01*
X152610000Y-83750000D02*
X153625500Y-82734500D01*
X153625500Y-82734500D02*
X157030634Y-82734500D01*
%TO.N,GND*%
X153515000Y-43332500D02*
X148960000Y-43332500D01*
X148940000Y-45932500D02*
X148940000Y-43352500D01*
X148940000Y-43352500D02*
X148960000Y-43332500D01*
X148960000Y-43332500D02*
X139765000Y-43332500D01*
X139765000Y-51632500D02*
X139765000Y-58745000D01*
X139765000Y-58745000D02*
X138610000Y-59900000D01*
X138610000Y-59900000D02*
X138610000Y-61750000D01*
X153515000Y-51632500D02*
X153515000Y-43332500D01*
X123140000Y-60880000D02*
X123140000Y-59957500D01*
X123140000Y-59957500D02*
X139765000Y-43332500D01*
%TO.N,/Pins/GPIO39*%
X90120000Y-60880000D02*
X90120000Y-59610000D01*
X90120000Y-59610000D02*
X91920000Y-57810000D01*
%TO.N,/SPI/GPIO10*%
X123230000Y-65530000D02*
X123230000Y-70510000D01*
X144540000Y-46882500D02*
X144440000Y-46982500D01*
X141777500Y-46982500D02*
X123230000Y-65530000D01*
X144540000Y-45932500D02*
X144540000Y-46882500D01*
X144440000Y-46982500D02*
X141777500Y-46982500D01*
%TO.N,/SPI/GPIO11*%
X135850000Y-83750000D02*
X134770000Y-84830000D01*
X138610000Y-83750000D02*
X135850000Y-83750000D01*
X138610000Y-83750000D02*
X138610000Y-73750000D01*
X138610000Y-73750000D02*
X150610000Y-61750000D01*
%TO.N,/SPI/GPIO8*%
X154610000Y-83750000D02*
X151010000Y-87350000D01*
X151010000Y-87350000D02*
X151010000Y-102250000D01*
X151010000Y-102250000D02*
X150800000Y-102460000D01*
%TO.N,/SPI/GPIO9*%
X150610000Y-100250000D02*
X147530000Y-103330000D01*
X150610000Y-83750000D02*
X150610000Y-100250000D01*
%TO.N,/SPI/GPIO13*%
X122380000Y-104080000D02*
X121380000Y-103080000D01*
X159140000Y-85350000D02*
X157650000Y-86840000D01*
X121380000Y-90650000D02*
X118130000Y-87400000D01*
X154410000Y-86840000D02*
X151940000Y-89310000D01*
X159140000Y-61530000D02*
X159140000Y-85350000D01*
X151940000Y-104080000D02*
X122380000Y-104080000D01*
X151940000Y-89310000D02*
X151940000Y-104080000D01*
X150040000Y-52430000D02*
X159140000Y-61530000D01*
X157650000Y-86840000D02*
X154410000Y-86840000D01*
X121380000Y-103080000D02*
X121380000Y-90650000D01*
X150040000Y-45932500D02*
X150040000Y-52430000D01*
X118130000Y-87400000D02*
X118130000Y-86041471D01*
X118130000Y-86041471D02*
X115828529Y-83740000D01*
X115828529Y-83740000D02*
X115520000Y-83740000D01*
%TO.N,/SPI/GPIO12*%
X147840000Y-45932500D02*
X147840000Y-51543866D01*
X157625500Y-78734500D02*
X152610000Y-83750000D01*
X147840000Y-51543866D02*
X157625500Y-61329366D01*
X157625500Y-61329366D02*
X157625500Y-78734500D01*
%TO.N,/SPI/GPIO11*%
X145640000Y-45932500D02*
X145640000Y-56780000D01*
X145640000Y-56780000D02*
X150610000Y-61750000D01*
%TO.N,/Comms/GPIO17*%
X75780000Y-66860000D02*
X92660000Y-83740000D01*
X75780000Y-60107208D02*
X75780000Y-66860000D01*
X71730000Y-56057208D02*
X75780000Y-60107208D01*
X71730000Y-46020000D02*
X71730000Y-56057208D01*
%TO.N,/Comms/GPIO18*%
X93760000Y-57654314D02*
X91760000Y-59654314D01*
X93760000Y-54290000D02*
X93760000Y-57654314D01*
X91760000Y-59654314D02*
X91760000Y-61652792D01*
X91760000Y-61652792D02*
X99147208Y-69040000D01*
X117500000Y-86260000D02*
X104190000Y-86260000D01*
X99147208Y-69040000D02*
X99450000Y-69040000D01*
X104190000Y-86260000D02*
X104060000Y-86390000D01*
%TO.N,/Pins/GPIO39*%
X121620000Y-41580000D02*
X91920000Y-41580000D01*
X121850000Y-41810000D02*
X121620000Y-41580000D01*
X121850000Y-49870000D02*
X121850000Y-41810000D01*
X120700000Y-51020000D02*
X121850000Y-49870000D01*
X91920000Y-41580000D02*
X91920000Y-57810000D01*
%TO.N,/Comms/GPIO21*%
X109280000Y-50080000D02*
X110740000Y-51540000D01*
X109280000Y-44080000D02*
X109280000Y-50080000D01*
X101510000Y-47930000D02*
X101510000Y-43960000D01*
X109160000Y-43960000D02*
X109280000Y-44080000D01*
X101510000Y-43960000D02*
X109160000Y-43960000D01*
X97690000Y-51750000D02*
X101510000Y-47930000D01*
%TO.N,/Comms/GPIO38*%
X115900000Y-48480000D02*
X109930000Y-42510000D01*
X109930000Y-42510000D02*
X95680000Y-42510000D01*
X95680000Y-42510000D02*
X95680000Y-55160000D01*
X95680000Y-55160000D02*
X96250000Y-55730000D01*
%TO.N,/Comms/GPIO18*%
X93660000Y-54190000D02*
X93510000Y-54190000D01*
X93760000Y-54290000D02*
X93660000Y-54190000D01*
%TO.N,/Comms/GPIO43*%
X86310000Y-55280000D02*
X78680000Y-55280000D01*
X89830000Y-51760000D02*
X86310000Y-55280000D01*
%TO.N,/Comms/GPIO44*%
X89830000Y-54300000D02*
X87710000Y-56420000D01*
X87710000Y-56420000D02*
X78870000Y-56420000D01*
%TO.N,/Pins/GPIO42*%
X82500000Y-60880000D02*
X94480000Y-72860000D01*
X133130000Y-87700000D02*
X138710000Y-87700000D01*
X94480000Y-72860000D02*
X107880000Y-72860000D01*
X138710000Y-87700000D02*
X143460000Y-92450000D01*
%TO.N,/Pins/GPIO45*%
X115070000Y-65450000D02*
X105870000Y-65450000D01*
X133410000Y-83790000D02*
X115070000Y-65450000D01*
X133410000Y-86680000D02*
X133410000Y-83790000D01*
X105870000Y-65450000D02*
X105870000Y-65310000D01*
X105870000Y-65310000D02*
X105360000Y-64800000D01*
X141690000Y-86680000D02*
X133410000Y-86680000D01*
X147460000Y-92450000D02*
X141690000Y-86680000D01*
X105360000Y-64800000D02*
X105360000Y-60880000D01*
%TO.N,/Pins/GPIO41*%
X136790000Y-89780000D02*
X136040000Y-89780000D01*
X139460000Y-92450000D02*
X136790000Y-89780000D01*
%TO.N,/Pins/GPIO40*%
X97590000Y-70890000D02*
X87580000Y-60880000D01*
X126840000Y-87830000D02*
X125550808Y-87830000D01*
X125550808Y-87830000D02*
X121497280Y-83776472D01*
X121497280Y-82970888D02*
X109636392Y-71110000D01*
X131040000Y-88030000D02*
X131020000Y-88030000D01*
X135460000Y-92450000D02*
X131040000Y-88030000D01*
X121497280Y-83776472D02*
X121497280Y-82970888D01*
X97590000Y-71110000D02*
X97590000Y-70890000D01*
X109636392Y-71110000D02*
X97590000Y-71110000D01*
%TO.N,/Pins/GPIO39*%
X113750000Y-70130000D02*
X113750000Y-69790000D01*
X99030000Y-69790000D02*
X90120000Y-60880000D01*
X131460000Y-92450000D02*
X129210000Y-90200000D01*
X113750000Y-69790000D02*
X99030000Y-69790000D01*
X129210000Y-90200000D02*
X129210000Y-86570000D01*
X125940000Y-82320000D02*
X113750000Y-70130000D01*
%TO.N,/Pins/GPIO35*%
X127500000Y-92450000D02*
X127500000Y-81460000D01*
X127500000Y-81460000D02*
X114390000Y-68350000D01*
X114390000Y-68350000D02*
X100990000Y-68350000D01*
X100990000Y-68350000D02*
X100280000Y-67640000D01*
X100280000Y-67640000D02*
X100280000Y-60880000D01*
%TO.N,/Pins/GPIO2*%
X117300000Y-92540000D02*
X112380000Y-87620000D01*
X112380000Y-87620000D02*
X105230000Y-87620000D01*
%TO.N,/Pins/GPIO1*%
X113300000Y-92540000D02*
X109950000Y-89190000D01*
X109950000Y-89190000D02*
X105120000Y-89190000D01*
%TO.N,/Servos/GPIO3*%
X100020000Y-101160000D02*
X100330000Y-100850000D01*
X71890000Y-92280000D02*
X70740000Y-93430000D01*
X70740000Y-100840000D02*
X71060000Y-101160000D01*
X71060000Y-101160000D02*
X100020000Y-101160000D01*
X70740000Y-93430000D02*
X70740000Y-100840000D01*
X100330000Y-100850000D02*
X100280000Y-100800000D01*
X100280000Y-100800000D02*
X100280000Y-83740000D01*
%TO.N,/SPI/GPIO11*%
X74600000Y-47520000D02*
X74710000Y-47520000D01*
X74710000Y-47520000D02*
X77420000Y-50230000D01*
X77420000Y-50230000D02*
X77420000Y-51580000D01*
%TO.N,/SPI/GPIO13*%
X77480000Y-52940000D02*
X80850000Y-52940000D01*
X74600000Y-50060000D02*
X77480000Y-52940000D01*
%TO.N,/SPI/GPIO12*%
X74600000Y-52600000D02*
X73450000Y-53750000D01*
X79060000Y-59680000D02*
X79060000Y-61652792D01*
X73450000Y-53750000D02*
X73450000Y-55616346D01*
X73450000Y-55616346D02*
X75143654Y-57310000D01*
X75143654Y-57310000D02*
X76690000Y-57310000D01*
X79060000Y-61652792D02*
X80447208Y-63040000D01*
X80447208Y-63040000D02*
X81590000Y-63040000D01*
X76690000Y-57310000D02*
X79060000Y-59680000D01*
X93670000Y-75120000D02*
X107100000Y-75120000D01*
X107100000Y-75120000D02*
X112980000Y-81000000D01*
X81590000Y-63040000D02*
X93670000Y-75120000D01*
X112980000Y-81000000D02*
X112980000Y-83740000D01*
%TO.N,/SPI/GPIO14*%
X74600000Y-55140000D02*
X74600000Y-55120000D01*
X74600000Y-55120000D02*
X74500000Y-55020000D01*
X107773600Y-73460000D02*
X118057280Y-83743680D01*
X74500000Y-55020000D02*
X75772792Y-55020000D01*
X75772792Y-55020000D02*
X80860000Y-60107208D01*
X80860000Y-60107208D02*
X80860000Y-60912792D01*
X80860000Y-60912792D02*
X93407208Y-73460000D01*
X93407208Y-73460000D02*
X107773600Y-73460000D01*
%TO.N,/RC Control/GPIO48*%
X120700000Y-48480000D02*
X119310000Y-49870000D01*
X119310000Y-49870000D02*
X114750000Y-49870000D01*
X114750000Y-49870000D02*
X107900000Y-56720000D01*
X107900000Y-56720000D02*
X107900000Y-60880000D01*
%TO.N,/Comms/GPIO38*%
X97690000Y-54290000D02*
X96250000Y-55730000D01*
X96250000Y-55730000D02*
X92660000Y-59320000D01*
X92660000Y-59320000D02*
X92660000Y-60880000D01*
%TO.N,/Comms/GPIO36*%
X106150000Y-53180000D02*
X106150000Y-55600000D01*
X104660000Y-51690000D02*
X106150000Y-53180000D01*
X106150000Y-55600000D02*
X103020000Y-55600000D01*
X103020000Y-55600000D02*
X97740000Y-60880000D01*
%TO.N,/Comms/GPIO37*%
X104660000Y-54230000D02*
X101850000Y-54230000D01*
X101850000Y-54230000D02*
X95200000Y-60880000D01*
%TO.N,/RC Control/GPIO47*%
X125500000Y-56130000D02*
X125070000Y-56560000D01*
X125500000Y-52490000D02*
X125500000Y-56130000D01*
X125070000Y-56560000D02*
X114760000Y-56560000D01*
X114760000Y-56560000D02*
X110440000Y-60880000D01*
%TO.N,+5V*%
X120597280Y-84027280D02*
X120597280Y-83743680D01*
X157892500Y-96605000D02*
X157095000Y-96605000D01*
%TO.N,/Servos/GPIO46*%
X102290000Y-92280000D02*
X102290000Y-84270000D01*
X102290000Y-84270000D02*
X102820000Y-83740000D01*
%TO.N,/Servos/GPIO16*%
X98290000Y-92280000D02*
X90120000Y-84110000D01*
X90120000Y-84110000D02*
X90120000Y-83740000D01*
%TO.N,/Servos/GPIO15*%
X94290000Y-92280000D02*
X87580000Y-85570000D01*
X87580000Y-85570000D02*
X87580000Y-83740000D01*
%TO.N,/Servos/GPIO7*%
X90250000Y-92280000D02*
X85040000Y-87070000D01*
X85040000Y-87070000D02*
X85040000Y-83740000D01*
%TO.N,/Servos/GPIO6*%
X83890000Y-92280000D02*
X82500000Y-90890000D01*
X82500000Y-90890000D02*
X82500000Y-83740000D01*
%TO.N,/Servos/GPIO5*%
X79890000Y-92280000D02*
X79890000Y-83810000D01*
X79890000Y-83810000D02*
X79960000Y-83740000D01*
%TO.N,/Servos/GPIO4*%
X75890000Y-92280000D02*
X77420000Y-90750000D01*
X77420000Y-90750000D02*
X77420000Y-83740000D01*
%TD*%
M02*
