%TF.GenerationSoftware,KiCad,Pcbnew,9.0.9*%
%TF.CreationDate,2026-05-02T20:45:35-07:00*%
%TF.ProjectId,AmidalaShield,416d6964-616c-4615-9368-69656c642e6b,rev?*%
%TF.SameCoordinates,Original*%
%TF.FileFunction,Other,User*%
%FSLAX46Y46*%
G04 Gerber Fmt 4.6, Leading zero omitted, Abs format (unit mm)*
G04 Created by KiCad (PCBNEW 9.0.9) date 2026-05-02 20:45:35*
%MOMM*%
%LPD*%
G01*
G04 APERTURE LIST*
%ADD10C,0.050000*%
%ADD11C,0.100000*%
G04 APERTURE END LIST*
%TO.C,J_PPMIN1*%
D10*
X123730000Y-45640000D02*
X127270000Y-45640000D01*
X127270000Y-54260000D01*
X123730000Y-54260000D01*
X123730000Y-45640000D01*
%TO.C,J_Servo1*%
X73660000Y-99130000D02*
X70120000Y-99130000D01*
X70120000Y-90510000D01*
X73660000Y-90510000D01*
X73660000Y-99130000D01*
%TO.C,Serial0*%
X88060000Y-44910000D02*
X91600000Y-44910000D01*
X91600000Y-56070000D01*
X88060000Y-56070000D01*
X88060000Y-44910000D01*
%TO.C,SWSerial1*%
X95920000Y-44900000D02*
X99460000Y-44900000D01*
X99460000Y-56060000D01*
X95920000Y-56060000D01*
X95920000Y-44900000D01*
%TO.C,Serial1*%
X91990000Y-44900000D02*
X95530000Y-44900000D01*
X95530000Y-56060000D01*
X91990000Y-56060000D01*
X91990000Y-44900000D01*
%TO.C,I2C1*%
X102890000Y-44840000D02*
X106430000Y-44840000D01*
X106430000Y-56000000D01*
X102890000Y-56000000D01*
X102890000Y-44840000D01*
%TO.C,J_RCSEL1*%
X122470000Y-52790000D02*
X118930000Y-52790000D01*
X118930000Y-46700000D01*
X122470000Y-46700000D01*
X122470000Y-52790000D01*
%TO.C,J_SEL2*%
X117670000Y-52790000D02*
X114130000Y-52790000D01*
X114130000Y-46700000D01*
X117670000Y-46700000D01*
X117670000Y-52790000D01*
%TO.C,J_Servo8*%
X104060000Y-99130000D02*
X100520000Y-99130000D01*
X100520000Y-90510000D01*
X104060000Y-90510000D01*
X104060000Y-99130000D01*
%TO.C,J_Digital3*%
X137230000Y-99300000D02*
X133690000Y-99300000D01*
X133690000Y-90680000D01*
X137230000Y-90680000D01*
X137230000Y-99300000D01*
%TO.C,J_Digital6*%
X149230000Y-99300000D02*
X145690000Y-99300000D01*
X145690000Y-90680000D01*
X149230000Y-90680000D01*
X149230000Y-99300000D01*
%TO.C,J_Digital4*%
X141230000Y-99300000D02*
X137690000Y-99300000D01*
X137690000Y-90680000D01*
X141230000Y-90680000D01*
X141230000Y-99300000D01*
%TO.C,J_Digital2*%
X133230000Y-99300000D02*
X129690000Y-99300000D01*
X129690000Y-90680000D01*
X133230000Y-90680000D01*
X133230000Y-99300000D01*
%TO.C,J_Analog2*%
X119070000Y-99390000D02*
X115530000Y-99390000D01*
X115530000Y-90770000D01*
X119070000Y-90770000D01*
X119070000Y-99390000D01*
%TO.C,J_Digital1*%
X129270000Y-99300000D02*
X125730000Y-99300000D01*
X125730000Y-90680000D01*
X129270000Y-90680000D01*
X129270000Y-99300000D01*
%TO.C,J_Digital5*%
X145230000Y-99300000D02*
X141690000Y-99300000D01*
X141690000Y-90680000D01*
X145230000Y-90680000D01*
X145230000Y-99300000D01*
%TO.C,J_Analog1*%
X115070000Y-99390000D02*
X111530000Y-99390000D01*
X111530000Y-90770000D01*
X115070000Y-90770000D01*
X115070000Y-99390000D01*
%TO.C,J_Servo3*%
X81660000Y-99130000D02*
X78120000Y-99130000D01*
X78120000Y-90510000D01*
X81660000Y-90510000D01*
X81660000Y-99130000D01*
%TO.C,J_Servo2*%
X77660000Y-99130000D02*
X74120000Y-99130000D01*
X74120000Y-90510000D01*
X77660000Y-90510000D01*
X77660000Y-99130000D01*
%TO.C,J_Servo6*%
X96060000Y-99130000D02*
X92520000Y-99130000D01*
X92520000Y-90510000D01*
X96060000Y-90510000D01*
X96060000Y-99130000D01*
%TO.C,J_Servo7*%
X100060000Y-99130000D02*
X96520000Y-99130000D01*
X96520000Y-90510000D01*
X100060000Y-90510000D01*
X100060000Y-99130000D01*
%TO.C,J_Servo5*%
X92020000Y-99130000D02*
X88480000Y-99130000D01*
X88480000Y-90510000D01*
X92020000Y-90510000D01*
X92020000Y-99130000D01*
%TO.C,J_Servo4*%
X85660000Y-99130000D02*
X82120000Y-99130000D01*
X82120000Y-90510000D01*
X85660000Y-90510000D01*
X85660000Y-99130000D01*
%TO.C,J1*%
X152182500Y-99645000D02*
X162992500Y-99645000D01*
X162992500Y-88475000D01*
X152182500Y-88475000D01*
X152182500Y-99645000D01*
D11*
%TO.C,XBee3*%
X165330000Y-59150000D02*
X165330000Y-85940000D01*
X165330000Y-85940000D02*
X135696000Y-85940000D01*
X135696000Y-85940000D02*
X135696000Y-59150000D01*
X135696000Y-59150000D02*
X165330000Y-59150000D01*
D10*
%TO.C,ESP32-S3*%
X68950000Y-59630000D02*
X132347280Y-59630000D01*
X132347280Y-59630000D02*
X132347280Y-84990000D01*
X132347280Y-84990000D02*
X68950000Y-84990000D01*
X68950000Y-84990000D02*
X68950000Y-59630000D01*
%TO.C,REF\u002A\u002A*%
X165950000Y-105000000D02*
G75*
G02*
X159050000Y-105000000I-3450000J0D01*
G01*
X159050000Y-105000000D02*
G75*
G02*
X165950000Y-105000000I3450000J0D01*
G01*
X165950000Y-41500000D02*
G75*
G02*
X159050000Y-41500000I-3450000J0D01*
G01*
X159050000Y-41500000D02*
G75*
G02*
X165950000Y-41500000I3450000J0D01*
G01*
X68450000Y-105000000D02*
G75*
G02*
X61550000Y-105000000I-3450000J0D01*
G01*
X61550000Y-105000000D02*
G75*
G02*
X68450000Y-105000000I3450000J0D01*
G01*
%TO.C,SPI1*%
X72830000Y-40670000D02*
X76370000Y-40670000D01*
X76370000Y-56910000D01*
X72830000Y-56910000D01*
X72830000Y-40670000D01*
%TO.C,REF\u002A\u002A*%
X67950000Y-41500000D02*
G75*
G02*
X61050000Y-41500000I-3450000J0D01*
G01*
X61050000Y-41500000D02*
G75*
G02*
X67950000Y-41500000I3450000J0D01*
G01*
%TO.C,J2*%
X138560000Y-41282500D02*
X138560000Y-55982500D01*
X154720000Y-41282500D02*
X138560000Y-41282500D01*
X154720000Y-41282500D02*
X154720000Y-55982500D01*
X154720000Y-55982500D02*
X138560000Y-55982500D01*
%TD*%
M02*
