%TF.GenerationSoftware,KiCad,Pcbnew,9.0.9*%
%TF.CreationDate,2026-05-03T09:03:14-07:00*%
%TF.ProjectId,AmidalaShield,416d6964-616c-4615-9368-69656c642e6b,rev?*%
%TF.SameCoordinates,Original*%
%TF.FileFunction,Soldermask,Bot*%
%TF.FilePolarity,Negative*%
%FSLAX46Y46*%
G04 Gerber Fmt 4.6, Leading zero omitted, Abs format (unit mm)*
G04 Created by KiCad (PCBNEW 9.0.9) date 2026-05-03 09:03:14*
%MOMM*%
%LPD*%
G01*
G04 APERTURE LIST*
G04 Aperture macros list*
%AMRoundRect*
0 Rectangle with rounded corners*
0 $1 Rounding radius*
0 $2 $3 $4 $5 $6 $7 $8 $9 X,Y pos of 4 corners*
0 Add a 4 corners polygon primitive as box body*
4,1,4,$2,$3,$4,$5,$6,$7,$8,$9,$2,$3,0*
0 Add four circle primitives for the rounded corners*
1,1,$1+$1,$2,$3*
1,1,$1+$1,$4,$5*
1,1,$1+$1,$6,$7*
1,1,$1+$1,$8,$9*
0 Add four rect primitives between the rounded corners*
20,1,$1+$1,$2,$3,$4,$5,0*
20,1,$1+$1,$4,$5,$6,$7,0*
20,1,$1+$1,$6,$7,$8,$9,0*
20,1,$1+$1,$8,$9,$2,$3,0*%
G04 Aperture macros list end*
%ADD10C,1.700000*%
%ADD11R,1.700000X1.700000*%
%ADD12O,1.200000X2.000000*%
%ADD13R,1.200000X2.000000*%
%ADD14C,1.431000*%
%ADD15C,6.400000*%
%ADD16RoundRect,0.250000X1.050000X-1.050000X1.050000X1.050000X-1.050000X1.050000X-1.050000X-1.050000X0*%
%ADD17C,2.600000*%
G04 APERTURE END LIST*
D10*
%TO.C,J_Digital6*%
X147300000Y-92350000D03*
X147300000Y-94890000D03*
D11*
X147300000Y-97430000D03*
%TD*%
D10*
%TO.C,J_Servo8*%
X102200000Y-92250000D03*
X102200000Y-94790000D03*
D11*
X102200000Y-97330000D03*
%TD*%
D10*
%TO.C,J_Servo1*%
X72000000Y-92290000D03*
X72000000Y-94830000D03*
D11*
X72000000Y-97370000D03*
%TD*%
%TO.C,SPI1*%
X124290000Y-42200000D03*
D10*
X124290000Y-44740000D03*
X124290000Y-47280000D03*
X124290000Y-49820000D03*
X124290000Y-52360000D03*
X124290000Y-54900000D03*
%TD*%
D11*
%TO.C,J_Servo7*%
X98300000Y-97330000D03*
D10*
X98300000Y-94790000D03*
X98300000Y-92250000D03*
%TD*%
D11*
%TO.C,J_Servo6*%
X94290000Y-97330000D03*
D10*
X94290000Y-94790000D03*
X94290000Y-92250000D03*
%TD*%
D11*
%TO.C,J_Servo5*%
X90300000Y-97330000D03*
D10*
X90300000Y-94790000D03*
X90300000Y-92250000D03*
%TD*%
D11*
%TO.C,J_Servo4*%
X83910000Y-97380000D03*
D10*
X83910000Y-94840000D03*
X83910000Y-92300000D03*
%TD*%
D11*
%TO.C,J_Servo3*%
X79970000Y-97370000D03*
D10*
X79970000Y-94830000D03*
X79970000Y-92290000D03*
%TD*%
D11*
%TO.C,J_Servo2*%
X75940000Y-97390000D03*
D10*
X75940000Y-94850000D03*
X75940000Y-92310000D03*
%TD*%
D11*
%TO.C,J_Digital5*%
X143350000Y-97480000D03*
D10*
X143350000Y-94940000D03*
X143350000Y-92400000D03*
%TD*%
D11*
%TO.C,J_Digital4*%
X139400000Y-97480000D03*
D10*
X139400000Y-94940000D03*
X139400000Y-92400000D03*
%TD*%
D11*
%TO.C,J_Digital3*%
X135450000Y-97480000D03*
D10*
X135450000Y-94940000D03*
X135450000Y-92400000D03*
%TD*%
D11*
%TO.C,J_Digital2*%
X131500000Y-97480000D03*
D10*
X131500000Y-94940000D03*
X131500000Y-92400000D03*
%TD*%
D11*
%TO.C,J_Digital1*%
X127550000Y-97480000D03*
D10*
X127550000Y-94940000D03*
X127550000Y-92400000D03*
%TD*%
D11*
%TO.C,J_Analog2*%
X117250000Y-97630000D03*
D10*
X117250000Y-95090000D03*
X117250000Y-92550000D03*
%TD*%
D11*
%TO.C,J_Analog1*%
X113350000Y-97630000D03*
D10*
X113350000Y-95090000D03*
X113350000Y-92550000D03*
%TD*%
D11*
%TO.C,I2C1*%
X93610000Y-46300000D03*
D10*
X93610000Y-48840000D03*
X93610000Y-51380000D03*
X93610000Y-53920000D03*
%TD*%
D12*
%TO.C,ESP32-S3*%
X69800000Y-60880000D03*
X72340000Y-60880000D03*
X74880000Y-60880000D03*
X77420000Y-60880000D03*
X79960000Y-60880000D03*
X82500000Y-60880000D03*
X85040000Y-60880000D03*
X87580000Y-60880000D03*
X90120000Y-60880000D03*
X92660000Y-60880000D03*
X95200000Y-60880000D03*
X97740000Y-60880000D03*
X100280000Y-60880000D03*
X102820000Y-60880000D03*
X105360000Y-60880000D03*
X107900000Y-60880000D03*
X110440000Y-60880000D03*
X112980000Y-60880000D03*
X115520000Y-60880000D03*
X118060000Y-60880000D03*
X120600000Y-60880000D03*
X123140000Y-60880000D03*
X123137280Y-83743680D03*
X120597280Y-83743680D03*
X118057280Y-83743680D03*
X115520000Y-83740000D03*
X112980000Y-83740000D03*
X110440000Y-83740000D03*
X107900000Y-83740000D03*
X105360000Y-83740000D03*
X102820000Y-83740000D03*
X100280000Y-83740000D03*
X97740000Y-83740000D03*
X95200000Y-83740000D03*
X92660000Y-83740000D03*
X90120000Y-83740000D03*
X87580000Y-83740000D03*
X85040000Y-83740000D03*
X82500000Y-83740000D03*
X79960000Y-83740000D03*
X77420000Y-83740000D03*
X74880000Y-83740000D03*
X72340000Y-83740000D03*
D13*
X69800000Y-83740000D03*
%TD*%
D10*
%TO.C,J_RCSEL1*%
X114550000Y-48600000D03*
D11*
X114550000Y-51140000D03*
%TD*%
D14*
%TO.C,XBee3*%
X156610000Y-83750000D03*
X154610000Y-83750000D03*
X152610000Y-83750000D03*
X150610000Y-83750000D03*
X148610000Y-83750000D03*
X146610000Y-83750000D03*
X144610000Y-83750000D03*
X142610000Y-83750000D03*
X140610000Y-83750000D03*
X138610000Y-83750000D03*
X138610000Y-61750000D03*
X140610000Y-61750000D03*
X142610000Y-61750000D03*
X144610000Y-61750000D03*
X146610000Y-61750000D03*
X148610000Y-61750000D03*
X150610000Y-61750000D03*
X152610000Y-61750000D03*
X154610000Y-61750000D03*
X156610000Y-61750000D03*
%TD*%
D15*
%TO.C,REF\u002A\u002A*%
X65000000Y-105000000D03*
%TD*%
D11*
%TO.C,Serial0*%
X78870000Y-46350000D03*
D10*
X78870000Y-48890000D03*
X78870000Y-51430000D03*
X78870000Y-53970000D03*
%TD*%
D15*
%TO.C,REF\u002A\u002A*%
X162500000Y-41500000D03*
%TD*%
D16*
%TO.C,J1*%
X157892500Y-96605000D03*
D17*
X157892500Y-91525000D03*
%TD*%
D11*
%TO.C,SWSerial1*%
X86730000Y-46340000D03*
D10*
X86730000Y-48880000D03*
X86730000Y-51420000D03*
X86730000Y-53960000D03*
%TD*%
D11*
%TO.C,J_PPMIN1*%
X105050000Y-47300000D03*
D10*
X105050000Y-49840000D03*
X105050000Y-52380000D03*
%TD*%
D15*
%TO.C,REF\u002A\u002A*%
X64500000Y-41500000D03*
%TD*%
%TO.C,REF\u002A\u002A*%
X162500000Y-105000000D03*
%TD*%
D11*
%TO.C,Serial1*%
X82800000Y-46340000D03*
D10*
X82800000Y-48880000D03*
X82800000Y-51420000D03*
X82800000Y-53960000D03*
%TD*%
D11*
%TO.C,J_SEL2*%
X109800000Y-51090000D03*
D10*
X109800000Y-48550000D03*
%TD*%
M02*
