M48
; DRILL file {KiCad 9.0.9} date 2026-05-03T09:03:12-0700
; FORMAT={-:-/ absolute / metric / decimal}
; #@! TF.CreationDate,2026-05-03T09:03:12-07:00
; #@! TF.GenerationSoftware,Kicad,Pcbnew,9.0.9
; #@! TF.FileFunction,Plated,1,4,PTH
FMAT,2
METRIC
; #@! TA.AperFunction,Plated,PTH,ViaDrill
T1C0.300
; #@! TA.AperFunction,Plated,PTH,ComponentDrill
T2C0.800
; #@! TA.AperFunction,Plated,PTH,ComponentDrill
T3C0.920
; #@! TA.AperFunction,Plated,PTH,ComponentDrill
T4C1.000
; #@! TA.AperFunction,Plated,PTH,ComponentDrill
T5C1.300
; #@! TA.AperFunction,Plated,PTH,ComponentDrill
T6C3.200
%
G90
G05
T1
X89.4Y-51.4
X96.7Y-70.7
X101.35Y-68.55
X101.55Y-65.9
X105.12Y-89.19
X105.23Y-87.62
X112.1Y-57.9
X130.4Y-68.55
X131.95Y-53.0
X132.9Y-65.25
X132.9Y-71.6
X134.05Y-65.9
X138.0Y-66.0
X141.35Y-58.75
X147.05Y-58.3
T2
X69.8Y-60.88
X69.8Y-83.74
X72.34Y-60.88
X72.34Y-83.74
X74.88Y-60.88
X74.88Y-83.74
X77.42Y-60.88
X77.42Y-83.74
X79.96Y-60.88
X79.96Y-83.74
X82.5Y-60.88
X82.5Y-83.74
X85.04Y-60.88
X85.04Y-83.74
X87.58Y-60.88
X87.58Y-83.74
X90.12Y-60.88
X90.12Y-83.74
X92.66Y-60.88
X92.66Y-83.74
X95.2Y-60.88
X95.2Y-83.74
X97.74Y-60.88
X97.74Y-83.74
X100.28Y-60.88
X100.28Y-83.74
X102.82Y-60.88
X102.82Y-83.74
X105.36Y-60.88
X105.36Y-83.74
X107.9Y-60.88
X107.9Y-83.74
X110.44Y-60.88
X110.44Y-83.74
X112.98Y-60.88
X112.98Y-83.74
X115.52Y-60.88
X115.52Y-83.74
X118.057Y-83.744
X118.06Y-60.88
X120.597Y-83.744
X120.6Y-60.88
X123.137Y-83.744
X123.14Y-60.88
T3
X138.61Y-61.75
X138.61Y-83.75
X140.61Y-61.75
X140.61Y-83.75
X142.61Y-61.75
X142.61Y-83.75
X144.61Y-61.75
X144.61Y-83.75
X146.61Y-61.75
X146.61Y-83.75
X148.61Y-61.75
X148.61Y-83.75
X150.61Y-61.75
X150.61Y-83.75
X152.61Y-61.75
X152.61Y-83.75
X154.61Y-61.75
X154.61Y-83.75
X156.61Y-61.75
X156.61Y-83.75
T4
X72.0Y-92.29
X72.0Y-94.83
X72.0Y-97.37
X75.94Y-92.31
X75.94Y-94.85
X75.94Y-97.39
X78.87Y-46.35
X78.87Y-48.89
X78.87Y-51.43
X78.87Y-53.97
X79.97Y-92.29
X79.97Y-94.83
X79.97Y-97.37
X82.8Y-46.34
X82.8Y-48.88
X82.8Y-51.42
X82.8Y-53.96
X83.91Y-92.3
X83.91Y-94.84
X83.91Y-97.38
X86.73Y-46.34
X86.73Y-48.88
X86.73Y-51.42
X86.73Y-53.96
X90.3Y-92.25
X90.3Y-94.79
X90.3Y-97.33
X93.61Y-46.3
X93.61Y-48.84
X93.61Y-51.38
X93.61Y-53.92
X94.29Y-92.25
X94.29Y-94.79
X94.29Y-97.33
X98.3Y-92.25
X98.3Y-94.79
X98.3Y-97.33
X102.2Y-92.25
X102.2Y-94.79
X102.2Y-97.33
X105.05Y-47.3
X105.05Y-49.84
X105.05Y-52.38
X109.8Y-48.55
X109.8Y-51.09
X113.35Y-92.55
X113.35Y-95.09
X113.35Y-97.63
X114.55Y-48.6
X114.55Y-51.14
X117.25Y-92.55
X117.25Y-95.09
X117.25Y-97.63
X124.29Y-42.2
X124.29Y-44.74
X124.29Y-47.28
X124.29Y-49.82
X124.29Y-52.36
X124.29Y-54.9
X127.55Y-92.4
X127.55Y-94.94
X127.55Y-97.48
X131.5Y-92.4
X131.5Y-94.94
X131.5Y-97.48
X135.45Y-92.4
X135.45Y-94.94
X135.45Y-97.48
X139.4Y-92.4
X139.4Y-94.94
X139.4Y-97.48
X143.35Y-92.4
X143.35Y-94.94
X143.35Y-97.48
X147.3Y-92.35
X147.3Y-94.89
X147.3Y-97.43
T5
X157.892Y-91.525
X157.892Y-96.605
T6
X64.5Y-41.5
X65.0Y-105.0
X162.5Y-41.5
X162.5Y-105.0
M30
