%TF.GenerationSoftware,KiCad,Pcbnew,9.0.9*%
%TF.CreationDate,2026-05-03T09:03:14-07:00*%
%TF.ProjectId,AmidalaShield,416d6964-616c-4615-9368-69656c642e6b,rev?*%
%TF.SameCoordinates,Original*%
%TF.FileFunction,Copper,L1,Top*%
%TF.FilePolarity,Positive*%
%FSLAX46Y46*%
G04 Gerber Fmt 4.6, Leading zero omitted, Abs format (unit mm)*
G04 Created by KiCad (PCBNEW 9.0.9) date 2026-05-03 09:03:14*
%MOMM*%
%LPD*%
G01*
G04 APERTURE LIST*
G04 Aperture macros list*
%AMRoundRect*
0 Rectangle with rounded corners*
0 $1 Rounding radius*
0 $2 $3 $4 $5 $6 $7 $8 $9 X,Y pos of 4 corners*
0 Add a 4 corners polygon primitive as box body*
4,1,4,$2,$3,$4,$5,$6,$7,$8,$9,$2,$3,0*
0 Add four circle primitives for the rounded corners*
1,1,$1+$1,$2,$3*
1,1,$1+$1,$4,$5*
1,1,$1+$1,$6,$7*
1,1,$1+$1,$8,$9*
0 Add four rect primitives between the rounded corners*
20,1,$1+$1,$2,$3,$4,$5,0*
20,1,$1+$1,$4,$5,$6,$7,0*
20,1,$1+$1,$6,$7,$8,$9,0*
20,1,$1+$1,$8,$9,$2,$3,0*%
G04 Aperture macros list end*
%TA.AperFunction,ComponentPad*%
%ADD10C,1.700000*%
%TD*%
%TA.AperFunction,ComponentPad*%
%ADD11R,1.700000X1.700000*%
%TD*%
%TA.AperFunction,ComponentPad*%
%ADD12O,1.200000X2.000000*%
%TD*%
%TA.AperFunction,ComponentPad*%
%ADD13R,1.200000X2.000000*%
%TD*%
%TA.AperFunction,SMDPad,CuDef*%
%ADD14R,1.300000X1.900000*%
%TD*%
%TA.AperFunction,SMDPad,CuDef*%
%ADD15R,1.000000X1.200000*%
%TD*%
%TA.AperFunction,SMDPad,CuDef*%
%ADD16R,1.000000X2.800000*%
%TD*%
%TA.AperFunction,SMDPad,CuDef*%
%ADD17R,1.000000X0.800000*%
%TD*%
%TA.AperFunction,SMDPad,CuDef*%
%ADD18R,0.700000X1.200000*%
%TD*%
%TA.AperFunction,ComponentPad*%
%ADD19C,1.431000*%
%TD*%
%TA.AperFunction,ComponentPad*%
%ADD20C,6.400000*%
%TD*%
%TA.AperFunction,ComponentPad*%
%ADD21RoundRect,0.250000X1.050000X-1.050000X1.050000X1.050000X-1.050000X1.050000X-1.050000X-1.050000X0*%
%TD*%
%TA.AperFunction,ComponentPad*%
%ADD22C,2.600000*%
%TD*%
%TA.AperFunction,ViaPad*%
%ADD23C,0.600000*%
%TD*%
%TA.AperFunction,Conductor*%
%ADD24C,0.200000*%
%TD*%
G04 APERTURE END LIST*
D10*
%TO.P,J_Digital6,3,Pin_3*%
%TO.N,/Pins/GPIO10*%
X147300000Y-92350000D03*
%TO.P,J_Digital6,2,Pin_2*%
%TO.N,+3.3V*%
X147300000Y-94890000D03*
D11*
%TO.P,J_Digital6,1,Pin_1*%
%TO.N,GND*%
X147300000Y-97430000D03*
%TD*%
D10*
%TO.P,J_Servo8,3,Pin_3*%
%TO.N,/Servos/GPIO46*%
X102200000Y-92250000D03*
%TO.P,J_Servo8,2,Pin_2*%
%TO.N,+5V*%
X102200000Y-94790000D03*
D11*
%TO.P,J_Servo8,1,Pin_1*%
%TO.N,GND*%
X102200000Y-97330000D03*
%TD*%
D10*
%TO.P,J_Servo1,3,Pin_3*%
%TO.N,/Servos/GPIO3*%
X72000000Y-92290000D03*
%TO.P,J_Servo1,2,Pin_2*%
%TO.N,+5V*%
X72000000Y-94830000D03*
D11*
%TO.P,J_Servo1,1,Pin_1*%
%TO.N,GND*%
X72000000Y-97370000D03*
%TD*%
%TO.P,SPI1,1,Pin_1*%
%TO.N,GND*%
X124290000Y-42200000D03*
D10*
%TO.P,SPI1,2,Pin_2*%
%TO.N,+3.3V*%
X124290000Y-44740000D03*
%TO.P,SPI1,3,Pin_3*%
%TO.N,/SPI/GPIO35*%
X124290000Y-47280000D03*
%TO.P,SPI1,4,Pin_4*%
%TO.N,/SPI/GPIO36*%
X124290000Y-49820000D03*
%TO.P,SPI1,5,Pin_5*%
%TO.N,/SPI/GPIO37*%
X124290000Y-52360000D03*
%TO.P,SPI1,6,Pin_6*%
%TO.N,/SPI/GPIO41*%
X124290000Y-54900000D03*
%TD*%
D11*
%TO.P,J_Servo7,1,Pin_1*%
%TO.N,GND*%
X98300000Y-97330000D03*
D10*
%TO.P,J_Servo7,2,Pin_2*%
%TO.N,+5V*%
X98300000Y-94790000D03*
%TO.P,J_Servo7,3,Pin_3*%
%TO.N,/Servos/GPIO16*%
X98300000Y-92250000D03*
%TD*%
D11*
%TO.P,J_Servo6,1,Pin_1*%
%TO.N,GND*%
X94290000Y-97330000D03*
D10*
%TO.P,J_Servo6,2,Pin_2*%
%TO.N,+5V*%
X94290000Y-94790000D03*
%TO.P,J_Servo6,3,Pin_3*%
%TO.N,/Servos/GPIO15*%
X94290000Y-92250000D03*
%TD*%
D11*
%TO.P,J_Servo5,1,Pin_1*%
%TO.N,GND*%
X90300000Y-97330000D03*
D10*
%TO.P,J_Servo5,2,Pin_2*%
%TO.N,+5V*%
X90300000Y-94790000D03*
%TO.P,J_Servo5,3,Pin_3*%
%TO.N,/Servos/GPIO7*%
X90300000Y-92250000D03*
%TD*%
D11*
%TO.P,J_Servo4,1,Pin_1*%
%TO.N,GND*%
X83910000Y-97380000D03*
D10*
%TO.P,J_Servo4,2,Pin_2*%
%TO.N,+5V*%
X83910000Y-94840000D03*
%TO.P,J_Servo4,3,Pin_3*%
%TO.N,/Servos/GPIO6*%
X83910000Y-92300000D03*
%TD*%
D11*
%TO.P,J_Servo3,1,Pin_1*%
%TO.N,GND*%
X79970000Y-97370000D03*
D10*
%TO.P,J_Servo3,2,Pin_2*%
%TO.N,+5V*%
X79970000Y-94830000D03*
%TO.P,J_Servo3,3,Pin_3*%
%TO.N,/Servos/GPIO5*%
X79970000Y-92290000D03*
%TD*%
D11*
%TO.P,J_Servo2,1,Pin_1*%
%TO.N,GND*%
X75940000Y-97390000D03*
D10*
%TO.P,J_Servo2,2,Pin_2*%
%TO.N,+5V*%
X75940000Y-94850000D03*
%TO.P,J_Servo2,3,Pin_3*%
%TO.N,/Servos/GPIO4*%
X75940000Y-92310000D03*
%TD*%
D11*
%TO.P,J_Digital5,1,Pin_1*%
%TO.N,GND*%
X143350000Y-97480000D03*
D10*
%TO.P,J_Digital5,2,Pin_2*%
%TO.N,+3.3V*%
X143350000Y-94940000D03*
%TO.P,J_Digital5,3,Pin_3*%
%TO.N,/Pins/GPIO9*%
X143350000Y-92400000D03*
%TD*%
D11*
%TO.P,J_Digital4,1,Pin_1*%
%TO.N,GND*%
X139400000Y-97480000D03*
D10*
%TO.P,J_Digital4,2,Pin_2*%
%TO.N,+3.3V*%
X139400000Y-94940000D03*
%TO.P,J_Digital4,3,Pin_3*%
%TO.N,/Pins/GPIO14*%
X139400000Y-92400000D03*
%TD*%
D11*
%TO.P,J_Digital3,1,Pin_1*%
%TO.N,GND*%
X135450000Y-97480000D03*
D10*
%TO.P,J_Digital3,2,Pin_2*%
%TO.N,+3.3V*%
X135450000Y-94940000D03*
%TO.P,J_Digital3,3,Pin_3*%
%TO.N,/Pins/GPIO13*%
X135450000Y-92400000D03*
%TD*%
D11*
%TO.P,J_Digital2,1,Pin_1*%
%TO.N,GND*%
X131500000Y-97480000D03*
D10*
%TO.P,J_Digital2,2,Pin_2*%
%TO.N,+3.3V*%
X131500000Y-94940000D03*
%TO.P,J_Digital2,3,Pin_3*%
%TO.N,/Pins/GPIO12*%
X131500000Y-92400000D03*
%TD*%
D11*
%TO.P,J_Digital1,1,Pin_1*%
%TO.N,GND*%
X127550000Y-97480000D03*
D10*
%TO.P,J_Digital1,2,Pin_2*%
%TO.N,+3.3V*%
X127550000Y-94940000D03*
%TO.P,J_Digital1,3,Pin_3*%
%TO.N,/Pins/GPIO11*%
X127550000Y-92400000D03*
%TD*%
D11*
%TO.P,J_Analog2,1,Pin_1*%
%TO.N,GND*%
X117250000Y-97630000D03*
D10*
%TO.P,J_Analog2,2,Pin_2*%
%TO.N,+3.3V*%
X117250000Y-95090000D03*
%TO.P,J_Analog2,3,Pin_3*%
%TO.N,/Pins/GPIO2*%
X117250000Y-92550000D03*
%TD*%
D11*
%TO.P,J_Analog1,1,Pin_1*%
%TO.N,GND*%
X113350000Y-97630000D03*
D10*
%TO.P,J_Analog1,2,Pin_2*%
%TO.N,+3.3V*%
X113350000Y-95090000D03*
%TO.P,J_Analog1,3,Pin_3*%
%TO.N,/Pins/GPIO1*%
X113350000Y-92550000D03*
%TD*%
D11*
%TO.P,I2C1,1,Pin_1*%
%TO.N,GND*%
X93610000Y-46300000D03*
D10*
%TO.P,I2C1,2,Pin_2*%
%TO.N,+3.3V*%
X93610000Y-48840000D03*
%TO.P,I2C1,3,Pin_3*%
%TO.N,/Comms/GPIO45*%
X93610000Y-51380000D03*
%TO.P,I2C1,4,Pin_4*%
%TO.N,/Comms/GPIO48*%
X93610000Y-53920000D03*
%TD*%
D12*
%TO.P,ESP32-S3,44,GND*%
%TO.N,GND*%
X69800000Y-60880000D03*
%TO.P,ESP32-S3,43,GPIO43/U0TXD*%
%TO.N,/Comms/GPIO43*%
X72340000Y-60880000D03*
%TO.P,ESP32-S3,42,GPIO44/U0RXD*%
%TO.N,/Comms/GPIO44*%
X74880000Y-60880000D03*
%TO.P,ESP32-S3,41,GPIO1/ADC1_CH0*%
%TO.N,/Pins/GPIO1*%
X77420000Y-60880000D03*
%TO.P,ESP32-S3,40,GPIO2/ADC1_CH1*%
%TO.N,/Pins/GPIO2*%
X79960000Y-60880000D03*
%TO.P,ESP32-S3,39,GPIO42/MTMS*%
%TO.N,/SPI/GPIO42*%
X82500000Y-60880000D03*
%TO.P,ESP32-S3,38,GPIO41/MTDI*%
%TO.N,/SPI/GPIO41*%
X85040000Y-60880000D03*
%TO.P,ESP32-S3,37,GPIO40/MTDO*%
%TO.N,/SPI/GPIO40*%
X87580000Y-60880000D03*
%TO.P,ESP32-S3,36,GPIO39/MTCK*%
%TO.N,/SPI/GPIO39*%
X90120000Y-60880000D03*
%TO.P,ESP32-S3,35,GPIO38*%
%TO.N,/Comms/GPIO38*%
X92660000Y-60880000D03*
%TO.P,ESP32-S3,34,GPIO37*%
%TO.N,/SPI/GPIO37*%
X95200000Y-60880000D03*
%TO.P,ESP32-S3,33,GPIO36*%
%TO.N,/SPI/GPIO36*%
X97740000Y-60880000D03*
%TO.P,ESP32-S3,32,GPIO35*%
%TO.N,/SPI/GPIO35*%
X100280000Y-60880000D03*
%TO.P,ESP32-S3,31,GPIO0*%
%TO.N,unconnected-(ESP32-S3-GPIO0-Pad31)*%
X102820000Y-60880000D03*
%TO.P,ESP32-S3,30,GPIO45*%
%TO.N,/Comms/GPIO45*%
X105360000Y-60880000D03*
%TO.P,ESP32-S3,29,GPIO48*%
%TO.N,/Comms/GPIO48*%
X107900000Y-60880000D03*
%TO.P,ESP32-S3,28,GPIO47*%
%TO.N,/RC Control/GPIO47*%
X110440000Y-60880000D03*
%TO.P,ESP32-S3,27,GPIO21*%
%TO.N,/Comms/GPIO21*%
X112980000Y-60880000D03*
%TO.P,ESP32-S3,26,GPIO20/USB_D+*%
%TO.N,unconnected-(ESP32-S3-GPIO20{slash}USB_D+-Pad26)*%
X115520000Y-60880000D03*
%TO.P,ESP32-S3,25,GPIO19/USB_D-*%
%TO.N,unconnected-(ESP32-S3-GPIO19{slash}USB_D--Pad25)*%
X118060000Y-60880000D03*
%TO.P,ESP32-S3,24,GND*%
%TO.N,GND*%
X120600000Y-60880000D03*
%TO.P,ESP32-S3,23,GND*%
X123140000Y-60880000D03*
%TO.P,ESP32-S3,22,GND*%
X123137280Y-83743680D03*
%TO.P,ESP32-S3,21,5V*%
%TO.N,+5V*%
X120597280Y-83743680D03*
%TO.P,ESP32-S3,20,GPIO14/ADC2_CH3*%
%TO.N,/Pins/GPIO14*%
X118057280Y-83743680D03*
%TO.P,ESP32-S3,19,GPIO13/ADC2_CH2*%
%TO.N,/Pins/GPIO13*%
X115520000Y-83740000D03*
%TO.P,ESP32-S3,18,GPIO12/ADC2_CH1*%
%TO.N,/Pins/GPIO12*%
X112980000Y-83740000D03*
%TO.P,ESP32-S3,17,GPIO11/ADC2_CH0*%
%TO.N,/Pins/GPIO11*%
X110440000Y-83740000D03*
%TO.P,ESP32-S3,16,GPIO10/ADC1_CH9*%
%TO.N,/Pins/GPIO10*%
X107900000Y-83740000D03*
%TO.P,ESP32-S3,15,GPIO9/ADC1_CH8*%
%TO.N,/Pins/GPIO9*%
X105360000Y-83740000D03*
%TO.P,ESP32-S3,14,GPIO46*%
%TO.N,/Servos/GPIO46*%
X102820000Y-83740000D03*
%TO.P,ESP32-S3,13,GPIO3/ADC1_CH2*%
%TO.N,/Servos/GPIO3*%
X100280000Y-83740000D03*
%TO.P,ESP32-S3,12,GPIO8/ADC1_CH7*%
%TO.N,unconnected-(ESP32-S3-GPIO8{slash}ADC1_CH7-Pad12)*%
X97740000Y-83740000D03*
%TO.P,ESP32-S3,11,GPIO18/ADC2_CH7*%
%TO.N,/Comms/GPIO18*%
X95200000Y-83740000D03*
%TO.P,ESP32-S3,10,GPIO17/ADC2_CH6*%
%TO.N,/Comms/GPIO17*%
X92660000Y-83740000D03*
%TO.P,ESP32-S3,9,GPIO16/ADC2_CH5/32K_N*%
%TO.N,/Servos/GPIO16*%
X90120000Y-83740000D03*
%TO.P,ESP32-S3,8,GPIO15/ADC2_CH4/32K_P*%
%TO.N,/Servos/GPIO15*%
X87580000Y-83740000D03*
%TO.P,ESP32-S3,7,GPIO7/ADC1_CH6*%
%TO.N,/Servos/GPIO7*%
X85040000Y-83740000D03*
%TO.P,ESP32-S3,6,GPIO6/ADC1_CH5*%
%TO.N,/Servos/GPIO6*%
X82500000Y-83740000D03*
%TO.P,ESP32-S3,5,GPIO5/ADC1_CH4*%
%TO.N,/Servos/GPIO5*%
X79960000Y-83740000D03*
%TO.P,ESP32-S3,4,GPIO4/ADC1_CH3*%
%TO.N,/Servos/GPIO4*%
X77420000Y-83740000D03*
%TO.P,ESP32-S3,3,CHIP_PU*%
%TO.N,unconnected-(ESP32-S3-CHIP_PU-Pad3)*%
X74880000Y-83740000D03*
%TO.P,ESP32-S3,2,3V3*%
%TO.N,unconnected-(ESP32-S3-3V3-Pad1)_1*%
X72340000Y-83740000D03*
D13*
%TO.P,ESP32-S3,1,3V3*%
%TO.N,unconnected-(ESP32-S3-3V3-Pad1)*%
X69800000Y-83740000D03*
%TD*%
D14*
%TO.P,J3,11,SHIELD*%
%TO.N,GND*%
X139895000Y-41350000D03*
D15*
X142245000Y-56450000D03*
D16*
X153395000Y-41800000D03*
D15*
X153395000Y-52150000D03*
D17*
%TO.P,J3,10,DET_A*%
%TO.N,unconnected-(J3-DET_A-Pad10)*%
X153395000Y-45950000D03*
D18*
%TO.P,J3,9,DET_B*%
%TO.N,unconnected-(J3-DET_B-Pad9)*%
X152445000Y-56450000D03*
%TO.P,J3,8,DAT1*%
%TO.N,unconnected-(J3-DAT1-Pad8)*%
X151495000Y-56450000D03*
%TO.P,J3,7,DAT0*%
%TO.N,/SPI/GPIO36*%
X150395000Y-56450000D03*
%TO.P,J3,6,VSS*%
%TO.N,GND*%
X149295000Y-56450000D03*
%TO.P,J3,5,CLK*%
%TO.N,/SPI/GPIO37*%
X148195000Y-56450000D03*
%TO.P,J3,4,VDD*%
%TO.N,+3.3V*%
X147095000Y-56450000D03*
%TO.P,J3,3,CMD*%
%TO.N,/SPI/GPIO35*%
X145995000Y-56450000D03*
%TO.P,J3,2,DAT3/CD*%
%TO.N,/SPI/GPIO39*%
X144895000Y-56450000D03*
%TO.P,J3,1,DAT2*%
%TO.N,unconnected-(J3-DAT2-Pad1)*%
X143795000Y-56450000D03*
%TD*%
D10*
%TO.P,J_RCSEL1,2,Pin_2*%
%TO.N,/Pins/GPIO13*%
X114550000Y-48600000D03*
D11*
%TO.P,J_RCSEL1,1,Pin_1*%
%TO.N,/Pins/GPIO12*%
X114550000Y-51140000D03*
%TD*%
D19*
%TO.P,XBee3,20,AD0_/DIO0*%
%TO.N,unconnected-(XBee3-AD0_{slash}DIO0-Pad20)*%
X156610000Y-83750000D03*
%TO.P,XBee3,19,AD1/DIO1/SPI_~{ATTN}*%
%TO.N,/SPI/GPIO42*%
X154610000Y-83750000D03*
%TO.P,XBee3,18,AD2/DIO2/SPI_CLK*%
%TO.N,/SPI/GPIO37*%
X152610000Y-83750000D03*
%TO.P,XBee3,17,AD3/DIO3/SPI_~{SSEL}*%
%TO.N,/SPI/GPIO40*%
X150610000Y-83750000D03*
%TO.P,XBee3,16,~{RTS}/DIO6*%
%TO.N,unconnected-(XBee3-~{RTS}{slash}DIO6-Pad16)*%
X148610000Y-83750000D03*
%TO.P,XBee3,15,ASSOCIATE/DIO5*%
%TO.N,unconnected-(XBee3-ASSOCIATE{slash}DIO5-Pad15)*%
X146610000Y-83750000D03*
%TO.P,XBee3,14,[RESERVED]_2*%
%TO.N,unconnected-(XBee3-[RESERVED]_2-Pad14)*%
X144610000Y-83750000D03*
%TO.P,XBee3,13,ON/~{SLEEP}/DIO9*%
%TO.N,unconnected-(XBee3-ON{slash}~{SLEEP}{slash}DIO9-Pad13)*%
X142610000Y-83750000D03*
%TO.P,XBee3,12,~{CTS}/DIO7*%
%TO.N,unconnected-(XBee3-~{CTS}{slash}DIO7-Pad12)*%
X140610000Y-83750000D03*
%TO.P,XBee3,11,DIO4/SPI_MOSI*%
%TO.N,/SPI/GPIO35*%
X138610000Y-83750000D03*
%TO.P,XBee3,10,GND*%
%TO.N,GND*%
X138610000Y-61750000D03*
%TO.P,XBee3,9,~{DTR}/SLEEP_RQ/DIO8*%
%TO.N,unconnected-(XBee3-~{DTR}{slash}SLEEP_RQ{slash}DIO8-Pad9)*%
X140610000Y-61750000D03*
%TO.P,XBee3,8,[RESERVED]_1*%
%TO.N,unconnected-(XBee3-[RESERVED]_1-Pad8)*%
X142610000Y-61750000D03*
%TO.P,XBee3,7,PWM1/DIO11*%
%TO.N,unconnected-(XBee3-PWM1{slash}DIO11-Pad7)*%
X144610000Y-61750000D03*
%TO.P,XBee3,6,RSSI_PWM/DIO10*%
%TO.N,unconnected-(XBee3-RSSI_PWM{slash}DIO10-Pad6)*%
X146610000Y-61750000D03*
%TO.P,XBee3,5,~{RESET}*%
%TO.N,unconnected-(XBee3-~{RESET}-Pad5)*%
X148610000Y-61750000D03*
%TO.P,XBee3,4,DIO12/SPI_MISO*%
%TO.N,/SPI/GPIO36*%
X150610000Y-61750000D03*
%TO.P,XBee3,3,DIN/~{CONFIG}/DIO14*%
%TO.N,unconnected-(XBee3-DIN{slash}~{CONFIG}{slash}DIO14-Pad3)*%
X152610000Y-61750000D03*
%TO.P,XBee3,2,DOUT/DIO13*%
%TO.N,unconnected-(XBee3-DOUT{slash}DIO13-Pad2)*%
X154610000Y-61750000D03*
%TO.P,XBee3,1,VCC*%
%TO.N,+3.3V*%
X156610000Y-61750000D03*
%TD*%
D20*
%TO.P,REF\u002A\u002A,1*%
%TO.N,N/C*%
X65000000Y-105000000D03*
%TD*%
D11*
%TO.P,Serial0,1,Pin_1*%
%TO.N,GND*%
X78870000Y-46350000D03*
D10*
%TO.P,Serial0,2,Pin_2*%
%TO.N,+3.3V*%
X78870000Y-48890000D03*
%TO.P,Serial0,3,Pin_3*%
%TO.N,/Comms/GPIO43*%
X78870000Y-51430000D03*
%TO.P,Serial0,4,Pin_4*%
%TO.N,/Comms/GPIO44*%
X78870000Y-53970000D03*
%TD*%
D20*
%TO.P,REF\u002A\u002A,1*%
%TO.N,N/C*%
X162500000Y-41500000D03*
%TD*%
D21*
%TO.P,J1,1,Pin_1*%
%TO.N,+5V*%
X157892500Y-96605000D03*
D22*
%TO.P,J1,2,Pin_2*%
%TO.N,GND*%
X157892500Y-91525000D03*
%TD*%
D11*
%TO.P,SWSerial1,1,Pin_1*%
%TO.N,GND*%
X86730000Y-46340000D03*
D10*
%TO.P,SWSerial1,2,Pin_2*%
%TO.N,+3.3V*%
X86730000Y-48880000D03*
%TO.P,SWSerial1,3,Pin_3*%
%TO.N,/Comms/GPIO21*%
X86730000Y-51420000D03*
%TO.P,SWSerial1,4,Pin_4*%
%TO.N,/Comms/GPIO38*%
X86730000Y-53960000D03*
%TD*%
D11*
%TO.P,J_PPMIN1,1,Pin_1*%
%TO.N,GND*%
X105050000Y-47300000D03*
D10*
%TO.P,J_PPMIN1,2,Pin_2*%
%TO.N,+3.3V*%
X105050000Y-49840000D03*
%TO.P,J_PPMIN1,3,Pin_3*%
%TO.N,/RC Control/GPIO47*%
X105050000Y-52380000D03*
%TD*%
D20*
%TO.P,REF\u002A\u002A,1*%
%TO.N,N/C*%
X64500000Y-41500000D03*
%TD*%
%TO.P,REF\u002A\u002A,1*%
%TO.N,N/C*%
X162500000Y-105000000D03*
%TD*%
D11*
%TO.P,Serial1,1,Pin_1*%
%TO.N,GND*%
X82800000Y-46340000D03*
D10*
%TO.P,Serial1,2,Pin_2*%
%TO.N,+3.3V*%
X82800000Y-48880000D03*
%TO.P,Serial1,3,Pin_3*%
%TO.N,/Comms/GPIO17*%
X82800000Y-51420000D03*
%TO.P,Serial1,4,Pin_4*%
%TO.N,/Comms/GPIO18*%
X82800000Y-53960000D03*
%TD*%
D11*
%TO.P,J_SEL2,1,Pin_1*%
%TO.N,/Comms/GPIO21*%
X109800000Y-51090000D03*
D10*
%TO.P,J_SEL2,2,Pin_2*%
%TO.N,/Comms/GPIO38*%
X109800000Y-48550000D03*
%TD*%
D23*
%TO.N,/SPI/GPIO41*%
X112100000Y-57900000D03*
%TO.N,/SPI/GPIO39*%
X101350000Y-68550000D03*
X141350000Y-58750000D03*
X130400000Y-68550000D03*
%TO.N,/SPI/GPIO37*%
X132900000Y-65250000D03*
X132900000Y-71600000D03*
X131950000Y-53000000D03*
%TO.N,/SPI/GPIO36*%
X134050000Y-65900000D03*
X138000000Y-66000000D03*
X101550000Y-65900000D03*
%TO.N,/SPI/GPIO40*%
X96700000Y-70700000D03*
%TO.N,+3.3V*%
X147050000Y-58300000D03*
%TO.N,/Comms/GPIO21*%
X89400000Y-51400000D03*
%TO.N,/Pins/GPIO1*%
X105120000Y-89190000D03*
%TO.N,/Pins/GPIO2*%
X105230000Y-87620000D03*
%TD*%
D24*
%TO.N,+5V*%
X154855000Y-96605000D02*
X147200000Y-88950000D01*
X157892500Y-96605000D02*
X154855000Y-96605000D01*
X147200000Y-88950000D02*
X125803600Y-88950000D01*
X125803600Y-88950000D02*
X120597280Y-83743680D01*
%TO.N,/SPI/GPIO41*%
X121290000Y-57900000D02*
X112100000Y-57900000D01*
X124290000Y-54900000D02*
X121290000Y-57900000D01*
%TO.N,/SPI/GPIO39*%
X144895000Y-56450000D02*
X144895000Y-56755000D01*
X142900000Y-58750000D02*
X141350000Y-58750000D01*
X130400000Y-68550000D02*
X101350000Y-68550000D01*
X144895000Y-56755000D02*
X142900000Y-58750000D01*
%TO.N,/SPI/GPIO37*%
X132900000Y-60970000D02*
X132900000Y-65250000D01*
X124290000Y-52360000D02*
X132900000Y-60970000D01*
X132900000Y-71600000D02*
X96050000Y-71600000D01*
X145545000Y-53000000D02*
X131950000Y-53000000D01*
X148195000Y-55650000D02*
X145545000Y-53000000D01*
X148195000Y-56450000D02*
X148195000Y-55650000D01*
%TO.N,/SPI/GPIO36*%
X124290000Y-49820000D02*
X134050000Y-59580000D01*
X134050000Y-59580000D02*
X134050000Y-65900000D01*
X146360000Y-66000000D02*
X138000000Y-66000000D01*
X150610000Y-61750000D02*
X146360000Y-66000000D01*
X134050000Y-65900000D02*
X101550000Y-65900000D01*
%TO.N,/SPI/GPIO40*%
X148610000Y-85750000D02*
X133600000Y-85750000D01*
X96800000Y-70600000D02*
X96700000Y-70700000D01*
X133350000Y-70600000D02*
X96800000Y-70600000D01*
X150610000Y-83750000D02*
X148610000Y-85750000D01*
X133600000Y-85750000D02*
X133600000Y-70850000D01*
X133600000Y-70850000D02*
X133350000Y-70600000D01*
%TO.N,/SPI/GPIO37*%
X152610000Y-83750000D02*
X150060000Y-86300000D01*
X150060000Y-86300000D02*
X132900000Y-86300000D01*
X132900000Y-86300000D02*
X132900000Y-71600000D01*
X96050000Y-71600000D02*
X94850000Y-70400000D01*
X94850000Y-70400000D02*
X95200000Y-70050000D01*
X95200000Y-70050000D02*
X95200000Y-60880000D01*
%TO.N,/SPI/GPIO42*%
X121250000Y-74300000D02*
X82450000Y-74300000D01*
X151160000Y-87200000D02*
X132100000Y-87200000D01*
X132100000Y-85150000D02*
X121250000Y-74300000D01*
X132100000Y-87200000D02*
X132100000Y-85150000D01*
X154610000Y-83750000D02*
X151160000Y-87200000D01*
X82450000Y-74300000D02*
X82500000Y-74250000D01*
X82500000Y-74250000D02*
X82500000Y-60880000D01*
%TO.N,/SPI/GPIO35*%
X136400000Y-57650000D02*
X136400000Y-70050000D01*
X136400000Y-70050000D02*
X101500000Y-70050000D01*
X101500000Y-70050000D02*
X100280000Y-68830000D01*
X100280000Y-68830000D02*
X100280000Y-60880000D01*
X136400000Y-56300000D02*
X136400000Y-57650000D01*
X124290000Y-47280000D02*
X134660000Y-57650000D01*
X134660000Y-57650000D02*
X136400000Y-57650000D01*
X145895000Y-55550000D02*
X137150000Y-55550000D01*
X145995000Y-55650000D02*
X145895000Y-55550000D01*
X137150000Y-55550000D02*
X136400000Y-56300000D01*
X145995000Y-56450000D02*
X145995000Y-55650000D01*
X136400000Y-70050000D02*
X136400000Y-81540000D01*
X136400000Y-81540000D02*
X138610000Y-83750000D01*
%TO.N,+3.3V*%
X147050000Y-58300000D02*
X147050000Y-56495000D01*
X147050000Y-56495000D02*
X147095000Y-56450000D01*
%TO.N,/SPI/GPIO36*%
X150610000Y-61750000D02*
X150610000Y-56665000D01*
X150610000Y-56665000D02*
X150395000Y-56450000D01*
%TO.N,/Comms/GPIO38*%
X105050000Y-43800000D02*
X91300000Y-43800000D01*
X109800000Y-48550000D02*
X105050000Y-43800000D01*
X86730000Y-53960000D02*
X91300000Y-58530000D01*
X91300000Y-43800000D02*
X91300000Y-58530000D01*
%TO.N,/RC Control/GPIO47*%
X105050000Y-52380000D02*
X105050000Y-55490000D01*
X105050000Y-55490000D02*
X110440000Y-60880000D01*
%TO.N,/Comms/GPIO21*%
X109800000Y-51090000D02*
X109800000Y-57700000D01*
X109800000Y-57700000D02*
X112980000Y-60880000D01*
%TO.N,GND*%
X137070000Y-41350000D02*
X136220000Y-42200000D01*
X136220000Y-42200000D02*
X124290000Y-42200000D01*
%TO.N,/Comms/GPIO21*%
X89380000Y-51420000D02*
X89400000Y-51400000D01*
X86730000Y-51420000D02*
X89380000Y-51420000D01*
%TO.N,/Comms/GPIO38*%
X91300000Y-58530000D02*
X92660000Y-59890000D01*
%TO.N,/Comms/GPIO48*%
X93610000Y-53920000D02*
X100970000Y-53920000D01*
X100970000Y-53920000D02*
X107900000Y-60850000D01*
X107900000Y-60850000D02*
X107900000Y-60880000D01*
%TO.N,/Comms/GPIO45*%
X93610000Y-51380000D02*
X92460000Y-52530000D01*
X92460000Y-52530000D02*
X92460000Y-54396346D01*
X92460000Y-54396346D02*
X93263654Y-55200000D01*
X93263654Y-55200000D02*
X99680000Y-55200000D01*
X99680000Y-55200000D02*
X105360000Y-60880000D01*
%TO.N,/Comms/GPIO38*%
X92660000Y-59890000D02*
X92660000Y-60880000D01*
%TO.N,/Comms/GPIO43*%
X78870000Y-51430000D02*
X72340000Y-57960000D01*
X72340000Y-57960000D02*
X72340000Y-60880000D01*
%TO.N,/Comms/GPIO44*%
X78870000Y-53970000D02*
X74880000Y-57960000D01*
X74880000Y-57960000D02*
X74880000Y-60880000D01*
%TO.N,/Servos/GPIO3*%
X72000000Y-92290000D02*
X69850000Y-94440000D01*
X69850000Y-100050000D02*
X100150000Y-100050000D01*
X100150000Y-100050000D02*
X100280000Y-99920000D01*
X69850000Y-94440000D02*
X69850000Y-100050000D01*
X100280000Y-99920000D02*
X100280000Y-83740000D01*
%TO.N,/Pins/GPIO10*%
X147300000Y-92350000D02*
X145550000Y-90600000D01*
X145550000Y-90600000D02*
X141450000Y-90600000D01*
X124750000Y-100000000D02*
X123400000Y-98650000D01*
X141450000Y-90600000D02*
X141450000Y-99850000D01*
X141450000Y-99850000D02*
X141300000Y-100000000D01*
X123400000Y-98650000D02*
X123400000Y-94800000D01*
X141300000Y-100000000D02*
X124750000Y-100000000D01*
X123400000Y-94800000D02*
X115650000Y-87050000D01*
X115650000Y-87050000D02*
X111210000Y-87050000D01*
X111210000Y-87050000D02*
X107900000Y-83740000D01*
%TO.N,/Pins/GPIO9*%
X143350000Y-92400000D02*
X145300000Y-94350000D01*
X145300000Y-94350000D02*
X145300000Y-99150000D01*
X145300000Y-99150000D02*
X143000000Y-101450000D01*
X143000000Y-101450000D02*
X125150000Y-101450000D01*
X125150000Y-101450000D02*
X122600000Y-98900000D01*
X122600000Y-98900000D02*
X122600000Y-95400000D01*
X122600000Y-95400000D02*
X115050000Y-87850000D01*
X115050000Y-87850000D02*
X106850000Y-87850000D01*
X106850000Y-87850000D02*
X106850000Y-86850000D01*
X106850000Y-86850000D02*
X105360000Y-85360000D01*
X105360000Y-85360000D02*
X105360000Y-83740000D01*
%TO.N,/Pins/GPIO2*%
X117300000Y-92540000D02*
X113410000Y-88650000D01*
X113410000Y-88650000D02*
X106260000Y-88650000D01*
X106260000Y-88650000D02*
X105230000Y-87620000D01*
%TO.N,/Pins/GPIO12*%
X131500000Y-92400000D02*
X129750000Y-90650000D01*
X129750000Y-90650000D02*
X121450000Y-90650000D01*
X121450000Y-90650000D02*
X116500000Y-85700000D01*
X116500000Y-85700000D02*
X114950000Y-85700000D01*
X114950000Y-85700000D02*
X112990000Y-83740000D01*
X112990000Y-83740000D02*
X112980000Y-83740000D01*
%TO.N,/Pins/GPIO11*%
X127550000Y-92400000D02*
X127600000Y-92350000D01*
X127600000Y-92300000D02*
X122450000Y-92300000D01*
X122450000Y-92300000D02*
X116350000Y-86200000D01*
X127600000Y-92350000D02*
X127600000Y-92300000D01*
X112900000Y-86200000D02*
X110440000Y-83740000D01*
X116350000Y-86200000D02*
X112900000Y-86200000D01*
%TO.N,/Pins/GPIO13*%
X135500000Y-92400000D02*
X133100000Y-90000000D01*
X133100000Y-90000000D02*
X121750000Y-90000000D01*
X121750000Y-90000000D02*
X115520000Y-83770000D01*
X115520000Y-83770000D02*
X115520000Y-83740000D01*
%TO.N,/Pins/GPIO14*%
X139400000Y-92400000D02*
X136450000Y-89450000D01*
X136450000Y-89450000D02*
X123750000Y-89450000D01*
X123750000Y-89450000D02*
X118057280Y-83757280D01*
X118057280Y-83757280D02*
X118057280Y-83743680D01*
%TO.N,/Servos/GPIO46*%
X102200000Y-92250000D02*
X102200000Y-84360000D01*
X102200000Y-84360000D02*
X102820000Y-83740000D01*
%TO.N,/Servos/GPIO16*%
X98300000Y-92250000D02*
X90120000Y-84070000D01*
X90120000Y-84070000D02*
X90120000Y-83740000D01*
%TO.N,/Servos/GPIO15*%
X94290000Y-92250000D02*
X87580000Y-85540000D01*
X87580000Y-85540000D02*
X87580000Y-83740000D01*
%TO.N,/Servos/GPIO7*%
X90300000Y-92250000D02*
X85040000Y-86990000D01*
X85040000Y-86990000D02*
X85040000Y-83740000D01*
%TO.N,/Servos/GPIO6*%
X83910000Y-92300000D02*
X82500000Y-90890000D01*
X82500000Y-90890000D02*
X82500000Y-83740000D01*
%TO.N,/Servos/GPIO5*%
X79970000Y-92230000D02*
X80000000Y-92200000D01*
X79970000Y-92290000D02*
X79970000Y-92230000D01*
X80000000Y-92200000D02*
X79960000Y-92160000D01*
X79960000Y-92160000D02*
X79960000Y-83740000D01*
%TO.N,/Servos/GPIO4*%
X75940000Y-92310000D02*
X75950000Y-92300000D01*
X75950000Y-92300000D02*
X75950000Y-91400000D01*
X77420000Y-89930000D02*
X77420000Y-83740000D01*
X75950000Y-91400000D02*
X77420000Y-89930000D01*
%TO.N,GND*%
X149295000Y-56450000D02*
X149295000Y-55650000D01*
X149295000Y-55650000D02*
X152795000Y-52150000D01*
X152795000Y-52150000D02*
X153395000Y-52150000D01*
X138610000Y-61750000D02*
X138610000Y-60085000D01*
X138610000Y-60085000D02*
X142245000Y-56450000D01*
X155590000Y-42080000D02*
X155530000Y-42140000D01*
X153395000Y-41800000D02*
X155310000Y-41800000D01*
X155310000Y-41800000D02*
X155590000Y-42080000D01*
X155530000Y-42140000D02*
X155530000Y-52400000D01*
X155530000Y-52400000D02*
X155280000Y-52150000D01*
X155280000Y-52150000D02*
X153395000Y-52150000D01*
X141070000Y-42890000D02*
X141420000Y-42540000D01*
X141420000Y-42540000D02*
X149820000Y-42540000D01*
X150560000Y-41800000D02*
X153395000Y-41800000D01*
X139895000Y-41350000D02*
X139895000Y-41715000D01*
X139895000Y-41715000D02*
X141070000Y-42890000D01*
X149820000Y-42540000D02*
X150560000Y-41800000D01*
X137070000Y-41350000D02*
X139895000Y-41350000D01*
%TO.N,/Pins/GPIO1*%
X113300000Y-92540000D02*
X109950000Y-89190000D01*
X109950000Y-89190000D02*
X105120000Y-89190000D01*
%TD*%
M02*
