%TF.GenerationSoftware,KiCad,Pcbnew,9.0.9*%
%TF.CreationDate,2026-05-23T10:44:56-07:00*%
%TF.ProjectId,AmidalaShield,416d6964-616c-4615-9368-69656c642e6b,rev?*%
%TF.SameCoordinates,Original*%
%TF.FileFunction,Soldermask,Bot*%
%TF.FilePolarity,Negative*%
%FSLAX46Y46*%
G04 Gerber Fmt 4.6, Leading zero omitted, Abs format (unit mm)*
G04 Created by KiCad (PCBNEW 9.0.9) date 2026-05-23 10:44:56*
%MOMM*%
%LPD*%
G01*
G04 APERTURE LIST*
G04 Aperture macros list*
%AMRoundRect*
0 Rectangle with rounded corners*
0 $1 Rounding radius*
0 $2 $3 $4 $5 $6 $7 $8 $9 X,Y pos of 4 corners*
0 Add a 4 corners polygon primitive as box body*
4,1,4,$2,$3,$4,$5,$6,$7,$8,$9,$2,$3,0*
0 Add four circle primitives for the rounded corners*
1,1,$1+$1,$2,$3*
1,1,$1+$1,$4,$5*
1,1,$1+$1,$6,$7*
1,1,$1+$1,$8,$9*
0 Add four rect primitives between the rounded corners*
20,1,$1+$1,$2,$3,$4,$5,0*
20,1,$1+$1,$4,$5,$6,$7,0*
20,1,$1+$1,$6,$7,$8,$9,0*
20,1,$1+$1,$8,$9,$2,$3,0*%
G04 Aperture macros list end*
%ADD10O,1.200000X2.000000*%
%ADD11R,1.200000X2.000000*%
%ADD12RoundRect,0.250000X-0.250000X-0.475000X0.250000X-0.475000X0.250000X0.475000X-0.250000X0.475000X0*%
%ADD13RoundRect,0.250000X-0.475000X0.250000X-0.475000X-0.250000X0.475000X-0.250000X0.475000X0.250000X0*%
%ADD14RoundRect,0.225000X-0.250000X0.225000X-0.250000X-0.225000X0.250000X-0.225000X0.250000X0.225000X0*%
%ADD15RoundRect,0.225000X0.225000X0.250000X-0.225000X0.250000X-0.225000X-0.250000X0.225000X-0.250000X0*%
%ADD16C,1.431000*%
%ADD17C,3.600000*%
%ADD18C,6.400000*%
%ADD19R,1.700000X1.700000*%
%ADD20C,1.700000*%
%ADD21RoundRect,0.250000X-1.050000X-1.050000X1.050000X-1.050000X1.050000X1.050000X-1.050000X1.050000X0*%
%ADD22C,2.600000*%
G04 APERTURE END LIST*
D10*
%TO.C,ESP32-S3*%
X69800000Y-62240000D03*
X72340000Y-62240000D03*
X74880000Y-62240000D03*
X77420000Y-62240000D03*
X79960000Y-62240000D03*
X82500000Y-62240000D03*
X85040000Y-62240000D03*
X87580000Y-62240000D03*
X90120000Y-62240000D03*
X92660000Y-62240000D03*
X95200000Y-62240000D03*
X97740000Y-62240000D03*
X100280000Y-62240000D03*
X102820000Y-62240000D03*
X105360000Y-62240000D03*
X107900000Y-62240000D03*
X110440000Y-62240000D03*
X112980000Y-62240000D03*
X115520000Y-62240000D03*
X118060000Y-62240000D03*
X120600000Y-62240000D03*
X123140000Y-62240000D03*
D11*
X69800000Y-85100000D03*
D10*
X72340000Y-85100000D03*
X74880000Y-85100000D03*
X77420000Y-85100000D03*
X79960000Y-85100000D03*
X82500000Y-85100000D03*
X85040000Y-85100000D03*
X87580000Y-85100000D03*
X90120000Y-85100000D03*
X92660000Y-85100000D03*
X95200000Y-85100000D03*
X97740000Y-85100000D03*
X100280000Y-85100000D03*
X102820000Y-85100000D03*
X105360000Y-85100000D03*
X107900000Y-85100000D03*
X110440000Y-85100000D03*
X112980000Y-85100000D03*
X115520000Y-85100000D03*
X118057280Y-85103680D03*
X120597280Y-85103680D03*
X123137280Y-85103680D03*
X123140000Y-59700000D03*
X120600000Y-59700000D03*
X118060000Y-59700000D03*
X115520000Y-59700000D03*
X112980000Y-59700000D03*
X110440000Y-59700000D03*
X107900000Y-59700000D03*
X105360000Y-59700000D03*
X102820000Y-59700000D03*
X100280000Y-59700000D03*
X97740000Y-59700000D03*
X95200000Y-59700000D03*
X92660000Y-59700000D03*
X90120000Y-59700000D03*
X87580000Y-59700000D03*
X85040000Y-59700000D03*
X82500000Y-59700000D03*
X79960000Y-59700000D03*
X77420000Y-59700000D03*
X74880000Y-59700000D03*
X72340000Y-59700000D03*
X69800000Y-59700000D03*
%TD*%
D12*
%TO.C,C4*%
X149750000Y-54550000D03*
X147850000Y-54550000D03*
%TD*%
D13*
%TO.C,C7*%
X157500000Y-70250000D03*
X157500000Y-72150000D03*
%TD*%
D14*
%TO.C,C6*%
X157550000Y-66000000D03*
X157550000Y-67550000D03*
%TD*%
%TO.C,C5*%
X159650000Y-66050000D03*
X159650000Y-67600000D03*
%TD*%
D15*
%TO.C,C3*%
X144550000Y-54550000D03*
X146100000Y-54550000D03*
%TD*%
D16*
%TO.C,XBee3*%
X156660000Y-86050000D03*
X154660000Y-86050000D03*
X152660000Y-86050000D03*
X150660000Y-86050000D03*
X148660000Y-86050000D03*
X146660000Y-86050000D03*
X144660000Y-86050000D03*
X142660000Y-86050000D03*
X140660000Y-86050000D03*
X138660000Y-86050000D03*
X138660000Y-64050000D03*
X140660000Y-64050000D03*
X142660000Y-64050000D03*
X144660000Y-64050000D03*
X146660000Y-64050000D03*
X148660000Y-64050000D03*
X150660000Y-64050000D03*
X152660000Y-64050000D03*
X154660000Y-64050000D03*
X156660000Y-64050000D03*
%TD*%
D14*
%TO.C,C2*%
X155550000Y-65975000D03*
X155550000Y-67525000D03*
%TD*%
D17*
%TO.C,REF\u002A\u002A*%
X160950000Y-43350000D03*
D18*
X160950000Y-43350000D03*
%TD*%
D19*
%TO.C,Serial0*%
X78870000Y-46350000D03*
D20*
X78870000Y-48890000D03*
X78870000Y-51430000D03*
X78870000Y-53970000D03*
%TD*%
D15*
%TO.C,C1*%
X145350000Y-67600000D03*
X143800000Y-67600000D03*
%TD*%
D19*
%TO.C,J_Servo4*%
X125710000Y-97240000D03*
D20*
X125710000Y-94700000D03*
X125710000Y-92160000D03*
%TD*%
D17*
%TO.C,REF\u002A\u002A*%
X65900000Y-43350000D03*
D18*
X65900000Y-43350000D03*
%TD*%
D19*
%TO.C,J_Servo2*%
X117740000Y-97250000D03*
D20*
X117740000Y-94710000D03*
X117740000Y-92170000D03*
%TD*%
D19*
%TO.C,J_Servo3*%
X121770000Y-97230000D03*
D20*
X121770000Y-94690000D03*
X121770000Y-92150000D03*
%TD*%
D21*
%TO.C,J1*%
X144305000Y-97022500D03*
D22*
X149385000Y-97022500D03*
%TD*%
D17*
%TO.C,REF\u002A\u002A*%
X65900000Y-103400000D03*
D18*
X65900000Y-103400000D03*
%TD*%
D19*
%TO.C,SWSerial1*%
X86730000Y-46340000D03*
D20*
X86730000Y-48880000D03*
X86730000Y-51420000D03*
X86730000Y-53960000D03*
%TD*%
D19*
%TO.C,J_Servo1*%
X113800000Y-97230000D03*
D20*
X113800000Y-94690000D03*
X113800000Y-92150000D03*
%TD*%
D19*
%TO.C,SPI1*%
X124290000Y-42200000D03*
D20*
X124290000Y-44740000D03*
X124290000Y-47280000D03*
X124290000Y-49820000D03*
X124290000Y-52360000D03*
X124290000Y-54900000D03*
%TD*%
D19*
%TO.C,J_Analog1*%
X75250000Y-97270000D03*
D20*
X75250000Y-94730000D03*
X75250000Y-92190000D03*
%TD*%
D19*
%TO.C,J_PPMIN1*%
X105050000Y-47300000D03*
D20*
X105050000Y-49840000D03*
X105050000Y-52380000D03*
%TD*%
D19*
%TO.C,J_Digital1*%
X89800000Y-97290000D03*
D20*
X89800000Y-94750000D03*
X89800000Y-92210000D03*
%TD*%
D19*
%TO.C,I2C1*%
X93610000Y-46300000D03*
D20*
X93610000Y-48840000D03*
X93610000Y-51380000D03*
X93610000Y-53920000D03*
%TD*%
D19*
%TO.C,J_Digital4*%
X101650000Y-97290000D03*
D20*
X101650000Y-94750000D03*
X101650000Y-92210000D03*
%TD*%
D19*
%TO.C,J_Analog2*%
X79150000Y-97270000D03*
D20*
X79150000Y-94730000D03*
X79150000Y-92190000D03*
%TD*%
D19*
%TO.C,Serial1*%
X82800000Y-46340000D03*
D20*
X82800000Y-48880000D03*
X82800000Y-51420000D03*
X82800000Y-53960000D03*
%TD*%
D19*
%TO.C,J_Digital3*%
X97700000Y-97290000D03*
D20*
X97700000Y-94750000D03*
X97700000Y-92210000D03*
%TD*%
D19*
%TO.C,J_Digital2*%
X93750000Y-97290000D03*
D20*
X93750000Y-94750000D03*
X93750000Y-92210000D03*
%TD*%
D17*
%TO.C,REF\u002A\u002A*%
X160950000Y-103400000D03*
D18*
X160950000Y-103400000D03*
%TD*%
M02*
