%TF.GenerationSoftware,KiCad,Pcbnew,9.0.9*%
%TF.CreationDate,2026-05-23T10:44:56-07:00*%
%TF.ProjectId,AmidalaShield,416d6964-616c-4615-9368-69656c642e6b,rev?*%
%TF.SameCoordinates,Original*%
%TF.FileFunction,Other,User*%
%FSLAX46Y46*%
G04 Gerber Fmt 4.6, Leading zero omitted, Abs format (unit mm)*
G04 Created by KiCad (PCBNEW 9.0.9) date 2026-05-23 10:44:56*
%MOMM*%
%LPD*%
G01*
G04 APERTURE LIST*
%ADD10C,0.050000*%
%ADD11C,0.100000*%
G04 APERTURE END LIST*
D10*
%TO.C,ESP32-S3*%
X68950000Y-58450000D02*
X132347280Y-58450000D01*
X68950000Y-86350000D02*
X68950000Y-58450000D01*
X132347280Y-58450000D02*
X132347280Y-86350000D01*
X132347280Y-86350000D02*
X68950000Y-86350000D01*
%TO.C,R1*%
X149930000Y-58095000D02*
X148470000Y-58095000D01*
X148470000Y-61055000D01*
X149930000Y-61055000D01*
X149930000Y-58095000D01*
%TO.C,R4*%
X146620000Y-61055000D02*
X148080000Y-61055000D01*
X148080000Y-58095000D01*
X146620000Y-58095000D01*
X146620000Y-61055000D01*
%TO.C,R5*%
X150320000Y-61055000D02*
X151780000Y-61055000D01*
X151780000Y-58095000D01*
X150320000Y-58095000D01*
X150320000Y-61055000D01*
D11*
%TO.C,XBee3*%
X165380000Y-88240000D02*
X135746000Y-88240000D01*
X165380000Y-61450000D02*
X165380000Y-88240000D01*
X135746000Y-88240000D02*
X135746000Y-61450000D01*
X135746000Y-61450000D02*
X165380000Y-61450000D01*
D10*
%TO.C,J3*%
X154395000Y-56345000D02*
X138695000Y-56345000D01*
X154395000Y-38645000D02*
X154395000Y-56345000D01*
X138695000Y-56345000D02*
X138695000Y-38645000D01*
X138695000Y-38645000D02*
X154395000Y-38645000D01*
%TO.C,R3*%
X144770000Y-61055000D02*
X146230000Y-61055000D01*
X146230000Y-58095000D01*
X144770000Y-58095000D01*
X144770000Y-61055000D01*
%TO.C,R2*%
X142920000Y-61055000D02*
X144380000Y-61055000D01*
X144380000Y-58095000D01*
X142920000Y-58095000D01*
X142920000Y-61055000D01*
%TO.C,REF\u002A\u002A*%
X164400000Y-43350000D02*
G75*
G02*
X157500000Y-43350000I-3450000J0D01*
G01*
X157500000Y-43350000D02*
G75*
G02*
X164400000Y-43350000I3450000J0D01*
G01*
%TO.C,Serial0*%
X77100000Y-44580000D02*
X80640000Y-44580000D01*
X80640000Y-55740000D01*
X77100000Y-55740000D01*
X77100000Y-44580000D01*
%TO.C,J_Servo4*%
X127480000Y-99010000D02*
X123940000Y-99010000D01*
X123940000Y-90390000D01*
X127480000Y-90390000D01*
X127480000Y-99010000D01*
%TO.C,REF\u002A\u002A*%
X69350000Y-43350000D02*
G75*
G02*
X62450000Y-43350000I-3450000J0D01*
G01*
X62450000Y-43350000D02*
G75*
G02*
X69350000Y-43350000I3450000J0D01*
G01*
%TO.C,J_Servo2*%
X119510000Y-99020000D02*
X115970000Y-99020000D01*
X115970000Y-90400000D01*
X119510000Y-90400000D01*
X119510000Y-99020000D01*
%TO.C,J_Servo3*%
X123540000Y-99000000D02*
X120000000Y-99000000D01*
X120000000Y-90380000D01*
X123540000Y-90380000D01*
X123540000Y-99000000D01*
%TO.C,J1*%
X141265000Y-91312500D02*
X152435000Y-91312500D01*
X152435000Y-102122500D01*
X141265000Y-102122500D01*
X141265000Y-91312500D01*
%TO.C,REF\u002A\u002A*%
X69350000Y-103400000D02*
G75*
G02*
X62450000Y-103400000I-3450000J0D01*
G01*
X62450000Y-103400000D02*
G75*
G02*
X69350000Y-103400000I3450000J0D01*
G01*
%TO.C,SWSerial1*%
X84960000Y-44570000D02*
X88500000Y-44570000D01*
X88500000Y-55730000D01*
X84960000Y-55730000D01*
X84960000Y-44570000D01*
%TO.C,J_Servo1*%
X115570000Y-99000000D02*
X112030000Y-99000000D01*
X112030000Y-90380000D01*
X115570000Y-90380000D01*
X115570000Y-99000000D01*
%TO.C,SPI1*%
X122520000Y-40430000D02*
X126060000Y-40430000D01*
X126060000Y-56670000D01*
X122520000Y-56670000D01*
X122520000Y-40430000D01*
%TO.C,J_Analog1*%
X77020000Y-99040000D02*
X73480000Y-99040000D01*
X73480000Y-90420000D01*
X77020000Y-90420000D01*
X77020000Y-99040000D01*
%TO.C,J_PPMIN1*%
X103280000Y-45530000D02*
X106820000Y-45530000D01*
X106820000Y-54150000D01*
X103280000Y-54150000D01*
X103280000Y-45530000D01*
%TO.C,J_Digital1*%
X91570000Y-99060000D02*
X88030000Y-99060000D01*
X88030000Y-90440000D01*
X91570000Y-90440000D01*
X91570000Y-99060000D01*
%TO.C,I2C1*%
X91840000Y-44530000D02*
X95380000Y-44530000D01*
X95380000Y-55690000D01*
X91840000Y-55690000D01*
X91840000Y-44530000D01*
%TO.C,J_Digital4*%
X103420000Y-99060000D02*
X99880000Y-99060000D01*
X99880000Y-90440000D01*
X103420000Y-90440000D01*
X103420000Y-99060000D01*
%TO.C,J_Analog2*%
X80920000Y-99040000D02*
X77380000Y-99040000D01*
X77380000Y-90420000D01*
X80920000Y-90420000D01*
X80920000Y-99040000D01*
%TO.C,Serial1*%
X81030000Y-44570000D02*
X84570000Y-44570000D01*
X84570000Y-55730000D01*
X81030000Y-55730000D01*
X81030000Y-44570000D01*
%TO.C,J_Digital3*%
X99470000Y-99060000D02*
X95930000Y-99060000D01*
X95930000Y-90440000D01*
X99470000Y-90440000D01*
X99470000Y-99060000D01*
%TO.C,J_Digital2*%
X95520000Y-99060000D02*
X91980000Y-99060000D01*
X91980000Y-90440000D01*
X95520000Y-90440000D01*
X95520000Y-99060000D01*
%TO.C,REF\u002A\u002A*%
X164400000Y-103400000D02*
G75*
G02*
X157500000Y-103400000I-3450000J0D01*
G01*
X157500000Y-103400000D02*
G75*
G02*
X164400000Y-103400000I3450000J0D01*
G01*
%TD*%
M02*
